<?xml version="1.0" encoding="UTF-8"?>
<svg version="1.1" viewBox="0 0 2048 1433" width="6000" height="4200" xmlns="http://www.w3.org/2000/svg">
<path transform="translate(1241,166)" d="m0 0h11l16 4 10 5 11 8 8 10 2 5v6l-4 7-4 4-5 13-3 6-4 1-1 3-4 3h-2v3h-2l-1 5-1 2v21l-2 6 4 1 7-1h9l14 7 11 8 2 4h2v2h2l8 11 4 5 6 11 3 5 5 14 2 7v39l-2 9-4 8-3 7-7 11-7 10h-2v2h-2l-2 4-4 6-1 13 8 1 3 3 1 54v20l1 34 2 2 7 1 1-12-3-10 1-5 2-5 2-1h6l4 10v16l4 4 1 2 8 2 15 1h13l35-5h26l18 2 20 7 11 6 9 7 8 7 12 16 3 6h6l-1-3-1-12-1-28-1-2v-17l3-1 2 20 1 6 1 15 4-1 6-4 6-9 4-4h2l1-3h2v-2l6-5 9-15 6-7 8-7 3-8 3-4v-3l-7-3h-11l-7 2-12 8-10 7-16 7-6 2-17 2-31 1-3 1h-25l-20-3-20-5-14 1-6-2-4-2-1 4h-3l-1-3-11-1-5-5-3-4v-2l-5 1-6 2h-11l-3-6-5-3-3-9 1-8 3-1h17l9 1 13-5 8-4 15-6 7-3 24-6 6-1h29l13 3 6 3 3 2h11l13-5 11-7 10-6 10-5 4-8 7-10h2l2-4 7-7h2v-2l10-8 4-1v-2l10-6 16-8 21-8h7v12l-1 3-1 15-2 5-3 18-3 12-2 4 16-4 2-1 2-17 7-11 6-5 6-2h10l8 3 16 8h12l7-4 3-1 2-4 6-9 2-6 3-5 3-10 5-10 4-7h2l2-4 3-1v-2l10-6 3-1h13l9 5 3 2v2h2l3 4v2h2l4 8 1 4v12l-2 5-1 7-1 1-1 7-6 9-1 5h-2l-1 5-5 7-1 4h-2l-2 5-4 8 2 1 16-1 18-1 9 3 9 7 6 9 1 3v17l-9 17-3 4h-2l-2 4-10 10-8 6-5 5-12 9h-2v2l-8 5-5 5-10 8-4 2-1 3-10 7-3 1-1 7 3 2 23 4 8 5 6 8 2 10-1 5-1 7-9 11-2 1v3l21 2h18l8 2 3 2v2h2l2 4 1 8 7 1 3-2 2-5 3-4 3-8 3-5h2l1-4 4-8 5-8 4-7 2-5h2l2-7 4-5 3-7 2-2 1-4h2v-3h2l1-4 6-12 5-1 3 2-1 4-6 12-4 7h-2l-1 5h-2v4h-2l-1 4-5 8-5 10-4 6-5 10-4 6-3 7-4 6-4 9-6 9-13 2h-37l-31-1-5-2h-11l-1 1 10 4 10 2 27 8 19 9 11 7 5 6 2 5v10l-1 1-1 8-4 7-2 6-6 12-3 5-2 6-3 4-3 7-3 6-3 4-3 10-1 2 5 1-2-3v-4l5-2 1-2 15-1 8 2v3l2 1v2l-8 5-3 13-2 3h2v4l18 2-3 3-8 1-7 3h-29l-7-2-9 1-11 16-4 5-4 8-4 6-3 4v3h16l7-1v-2l-10-2-1-2 1-3 11-3 36-1 69-1 6 2 8 4 2 5 2 12 2 9v9l-7 6-4 2-10 2-15-5h-16l-5 1h-9l-9-2h-15l-3 3-3 9-3-1-1-5-5-2h-6l-2 1-7-2v28l-1 1-127 1-2 3v8l1 3v41l140 1 2 2v10l-1 6-1 50-276 1h-219l-6 2-2 4-13 8-17 7-22 6-11 2v9l-3 4-4 1h-11l-16-3-16-6-61 2-5 2-18 4h-18l-4-3v-6h2l1-4 5-3v-2l-17-1-27-6-16-5-17-7-6-1-28-1-25-5-17-6-16-9-12-9-7-8-10-13v-2h-2l-7-11-5-12-3-5h-3l-2 3-2 6-7 14-6 11-7 9h-2l-2 5h-2l-1 3h-2v2h-2v2l-11 8-12 7-20 7-18 3h-88l-17-3-18-5-17-8-13-10-7-6-7-9v-2h-2l-10-15-6-10-5-11-3-11-3-9-3-11-1-15-1-3v-54l1-2 1-10 1-1 2-12 3-7 2-7 4-12 7-12 4-7 6-9 8-10 3-5-8-1-4-1-4 1-3 4h-3v-8h-8l-8-3h-5l-1 9-1 22-2 8-1 19-1 1-1 17-1 1-1 11-1 2-1 16-2 6-1 11-1 1-1 13-1 1-3 16-1 11-1 1-3 24-2 6-2 10-1 10-1 1-1 11-1 2-1 9-2 5-1 9-2 10-1 1-1 12-1 2v10l24 12 6 4 1 4h-56l-1-1v-11l1-2 1-41v-89l-1-31-1-6-1-55-1-2-1-31-1-1-1-17-2-4h-7l-1 4-4 13-1 1-1 9h-2l-1 7-2 10-3 8-1 11-4 11-1 7-3 8-2 10-3 7-2 7-4 12-4 9h-2l-1 4-11 18-11 17h-2l-2 5-10 15h-2l-1 4-11 16h-2l-2 5-8 11-6 9h-2l-2 5-1 2h-2l-2 5-6 7 1 5 7 6v2l3 1v2h2l9 12-1 4-7-1-20-8-24-9-1-4 3-7 4-6 1-3h2l1-5 4-8h2l1-4 8-15 4-7 3-7 8-15 5-10 4-10 5-9 4-10 5-10 3-10 2-3 2-7 1-89 1-2 1-18 2-6 1-9 1-2 1-13 1-1 1-7 1-1 2-9 3-5 1-7 1-1 1-7 4-8 4-10 3-5 3-7 5-10 4-6h2l1-4 8-11 4-4v-8l-3-11-2-25-2-3-6 1-8 10-3 1-4-1-5 1-3-2h-11l-4-2-5-1-7-1-4 3-1-2 5-13 6-10 4-9 4-8h2l1-4 10-11h2v-4h-11l-9-1h-9l-7 3-5 5-6 7-9 13-12 12-10 5-3 1h-17l-16-7-11-7v-2h-2v-2l-4-2-3-3v-2h-2l-5-9v-22l4-9 3-7 3-6 2-3h2l2-4 8-7 13-6h21l17 4 7 2h25l10-5 9-11 8-5 5-1h7v-2l-8-1-5-3-9-12-12-19 1-5 7-2h35l18 5 16 7 6 4v2h-4v2l4-1h17l13 4 1 4h2v2h2l2 5 3 5-1 7-4 15h-2v6l6-1h32l13-2 1-1v-9l-1-1-3-17-2-6-2-10-1-10-3-4-1-12-2-6v-5l-15-2-15-5-8-4h-10l-18-3-15-5-9-5-12-9-3-3v-2h-2l-7-10-6-12-3-5-4-12-1-1-1-7-1-1-1-8-1-1-1-11-2-5 1-5h8l13 4 18 8 13 8 11 8v2l4 2v2h2l3 4v2h2l7 10 4 10 3 7 4 5 1 8v4l6-1 11-11 12-7 13-5 16-3h18l19 4 29 11 7 3h10l5-2 9-10 14-9 17-8 5-4 11-6 13-8 19-10 29-11 17-5 21-4 20-6 14-4 23-4 21-2 34-1 49-3 9-1 53-1 8-2 10-5 12-1 6-2v-7l3-2 11 1h9l4-5 6 1 7 5v2l21 3 17 5 16 3h24l18-4 11-6 9-7 2-5h2l1-5 4-7 7-8h2v-2l9-6h13l2-1 2-5v-7l-8-6v-2h-2l-5-8-2-6-1-12-1-3v-25l1-6-12-3-3-2v-2h-2l-3-9 2-5 3-3 14-4zm522 220-7 3-4 3v2h-2l-6 11-4 7-5 15-4 6-2 5-7 8v2h-2v2l-5 2-5 3-4 1h-12l-10-4-15-7h-9l-5 3-4 5-1 7 1 14 4 9 8 6 6 4v20l-2 3v3h-2v2h-2l-5 8-8 7-5 5 3 2 11 1 2 1 1 3-3 1-2 6v5h-3v-3h-5v4h-2v-4l-5-3-3 1 1 6 4 7 2 5 3 1v7l3 9 3 5 6 16 3 5 3 1 5-5 1-4h2l8-17 3-5 2-5 1-1v-5h2l3-11 2-3 2-7 1-11 1-1 1-31 2-10h7v39l-4 10-1 8-3 8-3 9v3h-2l-3 10-4 7v3h-2l-6 11-8 11-3 5v8l3 7 9 10 10 7 17 7 20 4 16 1 8-2 8-9 4-8v-14l-4-6-7-4-21-4-6-4-3-1-1-7 4-6 11-9 9-6v-2l4-2 1-3 4-2 10-8 13-10v-2l4-2 10-8 9-7 7-8v-2h2l5-9 2-5v-20l-4-6-6-4-4-1h-20l-17 1-10-2v-6l8-13 3-5v-3h2l3-7 4-7 5-14 2-2 1-7 1-1v-18l-3-7-4-6h-2v-2l-8-3zm-1107 112m-222 3m9 4m1211 5-2 4-4 2v2l5-1 2 4 3-1v-9zm-1189 27v2h2v8l-5 2-6 4v18l4 2v2l5 4h7l3-3 2-7 5-7 2-7v-11l-3-4-11-3zm1141 1-1 2 5-1zm15 2 2 5 6-1-1-2h-2v-2zm13 11m-1103 7-3 2v2l2 1-4 1v6l1 2h-7v-8l-4-2-8-2-6 1-2 1-1 8 3 9 5 4 12 6 8 3v8l6 9 5 9 8 15 3 3 2 4 4 1 1-1 1-15-2-9-1-1-2-10-3-11-1-14-2-5-5 1-4 4h-3l5-4 3-4-1-12-2-2zm381 61-2 1-3 8-2 10-1 2-1 11-1 1-1 9-3 11-1 1-1 10-3 13-2 13-1 1-1 7-1 1-3 20-2 6-1 9-1 5 3 2h35l6-4v-126l-1-9-6-2zm145 15-1 4v3h3l1-7zm-502 11-2 3 2 3 4-1-1-5zm969 0-13 4-16 2h-38l-1 5-8 1-1 2 6 2-8 1h-10l-10-2v-2l-3 1 1 2h-5l-2 4 3 1 16 1 8 4 19 7 12 6 11 8h2v2h2l2 4 8 9 4 7h2l2 6 2 2 2 6 1 1h6l2-3v-32l3-10v-7l2-4 2-16 2-5v-5l-2-2zm-1014 10-3 2-1 4-1 15-4 9v8l-1 9 6 5h2l1 3 7 3 4 3 9 2 5 2-4 5-5 3 1 5 9 18 3 12 3 13 3 7 6-1 16-8 21-7 5-1 21-2v-5l-3-1-23-1-5-1-3-15-2-13-2-7-2-1-14-1-11-3-8-7-5-8-6-12-3-3-3-6-4-9-2-8-3-6zm221 9-3 6-3 14-2 5-3 16-2 6-6 24-1 8-1 1-1 13 5 2 25-1 3 1h12l2-1v-7l-1-3-1-11-4-11-2-10-2-6-2-11-2-9-3-9-1-10-4-7zm1054 18-2 1v2h5v-3zm-879 105-16 2-15 1h-50l-24-2h-28l-1 3 7 4 15 8 11 8 13 13 10 15 4 7 3 8 4 6 2 7 2 3 4-2 5-9 3-9 12-18 8-9v-2l4-2 12-10 16-9 19-9 1-3-3-1zm409 2-6 2v8l2 10 1 1 1 9 3 13 2 11 1 1 1 7 1 1 1 11 3 3 4-1 3-7 1-10 1-1 2-9 2-12 3-9 1-10 2-6v-9l-1-2-3-1zm-766 2-2 6 5-1-2-5zm1087 63-2 7v18l-1 7v13l5 2 59-1 3-2 2-6 1-8 2-3 3-14 1-1v-11l-1-1zm-936 5-8 6-5 5-6 8-6 14-2 7-1 11-1 1v56l1 1 1 11 5 17 6 10 7 7 6 5 9-1 9-7 4-5 7-14 3-7 3-14 1-3 9-2h30l15 4 10 4 30 10 7 3 5-1-1-11-1-1-1-16-1-3v-30l1-3 1-15 2-10 3-10 1-1v-5l-1-1h-7l-25 6-18 5-18 4h-42l-4-5-4-11-5-8h-2l-2-4-7-6zm291 1-6 3-6 5v2h-2l-7 10-6 16-2 10-1 1-1 37 1 27 1 1 2 10 6 15 7 10 11 9 4 2 9-2 13-10 3-6 1-9 3-8 1-14 4-14 1-10 1-2v-30l-1-2-2-13-4-13-8-13-9-9-5-3zm797 34-5 1v2l8 6 12 3 2-1-3 6 1 1h5l-1-8-1-4-3-1-5-5z" fill="#52AFF9"/>
<path transform="translate(602,462)" d="m0 0h43l2 6 9 53 5-18 10-40 79-1h43l5 18 10 40 2-6 8-47 1-4 78-1h291l1 1v62l-1 1h-138l1 46h127l1 1v59l-1 1h-127v57h141v67h-268v-136l-6-1h-8l-1 7-1 1-2 10-1 2-1 11-1 1-1 9-3 11-1 1-1 10-3 13-2 13-1 1-1 7-1 1-3 20-2 6-1 9-2 4h-123l-4-9-1-11-4-11-2-10-2-6-2-11-2-9-3-9-1-10-3-6-3-1-2 6-3 14-2 5-3 16-2 6-6 24-1 8-3 9-2 5-26 1-46 1 4 14-1 3-9-7-12-10-30-1-5-2-2-5-2-10-2-13-1-7-16-1-11-3-9-8-5-8-6-12-3-3-3-6-4-9-2-8-3-6-3-1-2 1-1 4-1 15-4 9v8l-1 9 7 5 1 2 7 3 4 3 9 2 6 3-5 6-5 2 3 8 6 10 2 5 3 12 3 13 2 6 3 2-2 1v26l-1 4-1 22-2 8-1 19-1 1-1 17-1 1-1 11-1 2-1 16-2 6-1 11-1 1-1 13-1 1-3 16-1 11-1 1-3 24-2 6-2 10-1 10-1 1-1 11-1 2-1 9-2 5-1 9-2 10-1 1-1 12-1 2v10l24 12 6 4 1 4h-56l-1-1v-11l1-2 1-41v-89l-1-31-1-6-1-55-1-2-1-31-1-1-1-17-2-4h-7l-1 4-4 13-1 1-1 9h-2l-1 7-2 10-3 8-1 11-4 11-1 7-3 8-2 10-3 7-2 7-4 12-4 9h-2l-1 4-11 18-11 17h-2l-2 5-10 15h-2l-1 4-11 16h-2l-2 5-8 11-6 9h-2l-2 5-1 2h-2l-2 5-6 7 1 5 7 6v2l3 1v2h2l9 12-1 4-7-1-20-8-24-9-1-4 3-7 4-6 1-3h2l1-5 4-8h2l1-4 8-15 4-7 3-7 8-15 5-10 4-10 5-9 4-10 5-10 3-10 2-3 2-7 1-89 1-2 1-18 2-6 1-9 1-2 1-13 1-1 1-7 1-1 2-9 3-5 1-7 1-1 1-7 4-8 4-10 3-5 3-7 5-10 4-6h2l1-4 8-11 4-4v-8l-3-11-2-25-2-3-6 1-8 10-3 1-4-1-5 1-3-2h-11l-4-2-5-1-7-1-4 3-1-2 5-13 6-10 4-9 4-8h2l1-4 10-11h2v-4h-11l-9-1h-9l-7 3-5 5-6 7-9 13-12 12-10 5-3 1h-17l-16-7-11-7v-2h-2v-2l-4-2-3-3v-2h-2l-5-9v-22l4-9 3-7 3-6 2-3h2l2-4 8-7 13-6h21l17 4 7 2h25l10-5 9-11 8-5 5-1h7v-2l-8-1-5-3-9-12-12-19 1-5 7-2h35l18 5 16 7 6 4v2h-4v2l4-1h17l13 4 1 4h2v2h2l2 5 3 5-1 7-4 15h-2v6l6-1h32l13-2 1-1v-9l-1-1-3-17-2-6-2-10-1-10-3-4-1-12-2-6-1-15zm-168 39m9 4m22 32v2h2v8l-5 2-6 4v18l4 2v2l5 4h7l3-3 2-7 5-7 2-7v-11l-3-4-11-3zm66 21-3 2v2l2 1-4 1v6l1 2h-7v-8l-4-2-8-2-6 1-2 1-1 8 3 9 5 4 12 6 8 3v8l6 9 5 9 8 15 3 3 2 4 4 1 1-1 1-15-2-9-1-1-2-10-3-11-1-14-2-5-5 1-4 4h-3l5-4 3-4-1-12-2-2zm24 87-2 3 2 3 4-1-1-5z" fill="#52AFF9"/>
<path transform="translate(1144,764)" d="m0 0h11l8 4 1 2v6l-5 4 1 4 7 9 1 7-6 16-4 9-2 4h-2l-1 4-2 9v13l1 1-1 7-6 4v4l-15-1-6-3h-6l-1 3-36 7-22 6-12 6-4 6-6 16-8 30h-1l-1-28-1-2-2-13-4-13-8-13-8-8-5-3h-8l-6 3-5 4-1 2h-2l-2 5-4 5-6 16-2 10-1 1-1 37 1 27 1 1 2 10 6 15 7 10 10 8 4 2 9-2 11-9h2l2-6h1l-1 27 3 7 8 7 10 5 27 10 22 10h92l14-6 2-3 16-7 17-9 9-8 1-2v-21l-4-28-8-40-2-8v-66h1l17 74 22 95v2l5 1 15 8 5 7v12l-4 10-6 8-2 4h-2l-2 4-13 8-17 7-22 6-11 2v9l-3 4-4 1h-11l-16-3-16-6-61 2-5 2-18 4h-18l-4-3v-6h2l1-4 5-3v-2l-17-1-27-6-16-5-17-7-6-1-28-1-25-5-17-6-16-9-12-9-7-8-10-13v-2h-2l-7-11-5-12-3-5h-3l-2 3-2 6-7 14-6 11-7 9h-2l-2 5h-2l-1 3h-2v2h-2v2l-11 8-12 7-20 7-18 3h-88l-17-3-18-5-17-8-13-10-7-6-7-9v-2h-2l-10-15-6-10-5-11-3-11-3-9-3-11-1-15-1-3v-54l1-2 1-10 1-1 2-12 3-7 2-7 4-12 7-12 4-7 6-9 8-10 14-11 14-8 11-5 17-5 5-2h3l24-2h67l20 3 21 6 16 9 9 7 13 13 10 15 4 7 3 8 4 6 2 7 1 2 3-1 5-9 3-9 12-18 9-11 11-9 10-7 23-12 24-5 22-2h67l21 3 15 4 13 5 10 5 2-16 5-10 7-6 6-2 18-1zm-444 95-8 6-5 5-6 8-6 14-2 7-1 11-1 1v56l1 1 1 11 5 17 6 10 7 7 6 5 9-1 9-7 4-5 7-14 3-7 3-14 1-3 9-2h30l15 4 10 4 30 10 7 3 5-1-1-11-1-1-1-16-1-3v-30l1-3 1-15 2-10 3-10 1-1v-5l-1-1h-7l-25 6-18 5-18 4h-42l-4-5-4-11-5-8h-2l-2-4-7-6z" fill="#52AFF9"/>
<path transform="translate(1071,310)" d="m0 0 6 1 7 5v2l7 1-5 4-3 5-1 6 3 5 24 13 19 9 19 7 22 5h26l1 1 1 46 2 35v8h-5v294h254v-6l11 3 12 3 8 1h32l-6 20-5 15-1-2h-153l-1 9h-1l-1-10h-28l-5 1v8l1 2v7l-2-4-2-9v-4h-142l-7-8 1-4 4-3v-8l-5-2-3-1h-11l-15 4-18 1-9 4-6 8-3 9-1 13-18-8-16-5-16-3-10-1h-67l-22 2-18 4-3-1 4-2 1-2h-21l-16 2-15 1h-50l-24-2-28-1v3l3 3-16-4-20-3h-67l-24 2h-3l-5 2-17 5-19 9-11 8-7 5 1-4-8-1-4-1-4 1-3 4h-3v-8h-8l-8-3h-5l-1-21 10-6 12-6 21-7 5-1 21-1v-6l5 1 14 12 6 4-4-17 47-1 26-1 2-8h1v9l4 1 25-1 3 1h14v-5l2 3 123 1 3 2h35l4-2h269v-67l-43 1h-98l-1-1v-57l1-1h127v-59h-127l-1-1v-46l138-1v-62h-369l-2 16-7 40-2 4-15-59v-2l-43 1h-79l-1 8-13 52-2-2-10-58h-121l1 10-15-2-15-5-8-4h-10l-18-3-15-5-9-5-12-9-3-3v-2h-2l-7-10-6-12-3-5-4-12-1-1-1-7-1-1-1-8-1-1-1-11-2-5 1-5h8l13 4 18 8 13 8 11 8v2l4 2v2h2l3 4v2h2l7 10 4 10 3 7 4 5 1 8v4l6-1 11-11 12-7 13-5 16-3h18l19 4 29 11 7 3h10l5-2 9-10 14-9 17-8 5-4 11-6 13-8 19-10 29-11 17-5 21-4 20-6 14-4 23-4 21-2 34-1 49-3 9-1 53-1 8-2 10-5 12-1 6-2v-7l3-2 11 1h9zm-415 188m401 136-1 4v3h3l1-7zm-508 157-2 6 5-1-2-5z" fill="#FCFCFD"/>
<path transform="translate(1241,166)" d="m0 0h11l16 4 10 5 11 8 8 10 2 5v6l-4 7-4 4-5 13-3 6-4 1-1 3-4 3h-2v3h-2l-1 5-1 2v21l-2 6 4 1 7-1h9l14 7 11 8 2 4h2v2h2l8 11 4 5 6 11 3 5 5 14 2 7v39l-2 9-4 8-3 7-7 11-7 10h-2v2h-2l-2 4-4 6-1 13 8 1 1 1v222h128l1 66-1 6h-254v-294h5l-2-22-1-21-1-46h-26l-22-5-21-8-25-12-17-10-3-5 2-8 4-5 2-1h12l21 6 16 3h24l18-4 11-6 9-7 2-5h2l1-5 4-7 7-8h2v-2l9-6h13l2-1 2-5v-7l-8-6v-2h-2l-5-8-2-6-1-12-1-3v-25l1-6-12-3-3-2v-2h-2l-3-9 2-5 3-3 14-4z" fill="#51AFF9"/>
<path transform="translate(1761,378)" d="m0 0h13l9 5 3 2v2h2l3 4v2h2l4 8 1 4v12l-2 5-1 7-1 1-1 7-6 9-1 5h-2l-1 5-5 7-1 4h-2l-2 5-4 8 2 1 16-1 18-1 9 3 9 7 6 9 1 3v17l-9 17-3 4h-2l-2 4-10 10-8 6-5 5-12 9h-2v2l-8 5-5 5-10 8-4 2-1 3-10 7-3 1-1 7 3 2 23 4 8 5 6 8 2 10-1 5-1 7-9 11-2 1v3l21 2h18l8 2 3 2v2h2l2 4 1 8 7 1 4-2-2 4-1 1-18 1h-121v2l-31 1-24 4-16 4-5-1-5-8-1-3-13 3h-11l-11-3-10-5-7-5-4 5-8 14-7 15-5 16-2 10v21l-10-3-4-2-2 10-9 27-3 7h-1v-10l11-34h-31l-17-3-12-4-2-2v-65h-128v-221l2 1 1 54v20l1 34 2 2 7 1 1-12-3-10 1-5 2-5 2-1h6l4 10v16l4 4 1 2 8 2 15 1h13l35-5h26l18 2 20 7 11 6 9 7 8 7 12 16 3 6h6l-1-3-1-12-1-28-1-2v-17l3-1 2 20 1 6 1 15 4-1 6-4 6-9 4-4h2l1-3h2v-2l6-5 9-15 6-7 8-7 3-8 3-4v-3l-7-3h-11l-7 2-12 8-10 7-16 7-6 2-17 2-31 1-3 1h-25l-20-3-20-5-14 1-6-2-4-2-1 4h-3l-1-3-11-1-5-5-3-4v-2l-5 1-6 2h-11l-3-6-5-3-3-9 1-8 3-1h17l9 1 13-5 8-4 15-6 7-3 24-6 6-1h29l13 3 6 3 3 2h11l13-5 11-7 10-6 10-5 4-8 7-10h2l2-4 7-7h2v-2l10-8 4-1v-2l10-6 16-8 21-8h7v12l-1 3-1 15-2 5-3 18-3 12-2 4 16-4 2-1 2-17 7-11 6-5 6-2h10l8 3 16 8h12l7-4 3-1 2-4 6-9 2-6 3-5 3-10 5-10 4-7h2l2-4 3-1v-2l10-6zm2 8-7 3-4 3v2h-2l-6 11-4 7-5 15-4 6-2 5-7 8v2h-2v2l-5 2-5 3-4 1h-12l-10-4-15-7h-9l-5 3-4 5-1 7 1 14 4 9 8 6 6 4v20l-2 3v3h-2v2h-2l-5 8-8 7-5 5 3 2 11 1 2 1 1 3-3 1-2 6v5h-3v-3h-5v4h-2v-4l-5-3-3 1 1 6 4 7 2 5 3 1v7l3 9 3 5 6 16 3 5 3 1 5-5 1-4h2l8-17 3-5 2-5 1-1v-5h2l3-11 2-3 2-7 1-11 1-1 1-31 2-10h7v39l-4 10-1 8-3 8-3 9v3h-2l-3 10-4 7v3h-2l-6 11-8 11-3 5v8l3 7 9 10 10 7 17 7 20 4 16 1 8-2 8-9 4-8v-14l-4-6-7-4-21-4-6-4-3-1-1-7 4-6 11-9 9-6v-2l4-2 1-3 4-2 10-8 13-10v-2l4-2 10-8 9-7 7-8v-2h2l5-9 2-5v-20l-4-6-6-4-4-1h-20l-17 1-10-2v-6l8-13 3-5v-3h2l3-7 4-7 5-14 2-2 1-7 1-1v-18l-3-7-4-6h-2v-2l-8-3zm-109 124-2 4-4 2v2l5-1 2 4 3-1v-9zm-48 28-1 2 5-1zm15 2 2 5 6-1-1-2h-2v-2zm13 11m-110 94-13 4-16 2h-38l-1 5-8 1-1 2 6 2-8 1h-10l-10-2v-2l-3 1 1 2h-5l-2 4 3 1 16 1 8 4 19 7 12 6 11 8h2v2h2l2 4 8 9 4 7h2l2 6 2 2 2 6 1 1h6l2-3v-32l3-10v-7l2-4 2-16 2-5v-5l-2-2zm261 37-2 1v2h5v-3z" fill="#FDBB47"/>
<path transform="translate(1145,462)" d="m0 0h43l1 1v62l-1 1h-138l1 46h127l1 1v59l-1 1h-127v57h141v67h-268v-136l-6-1h-8l-1 3 1-10 12-59 1-8 1-83z" fill="#52AFF9"/>
<path transform="translate(1753,760)" d="m0 0 2 1-9 8-11 15-4 7h-2l-1 8-6 18-9 34-3 12h-1l-1-8h-72l-1 12v12l-1 7v13l4 1 59-1 2-1 2-6 1 3-10 42-3 23h72v-36l1-23h-30l1-4 2 2h16l7-1v-2l-10-2-1-2 1-3 11-3 36-1 69-1 6 2 8 4 2 5 2 12 2 9v9l-7 6-4 2-10 2-15-5h-16l-5 1h-9l-9-2h-15l-3 3-3 9-3-1-1-5-5-2h-6l-2 1-7-2v28l-1 1-127 1-2 3v8l1 3v41l140 1 2 2v10l-1 6-1 50h-267l-1-1v-294l44-1 13 4 18 3 11 1h32l27-3 29-6 20-6 28-10 23-12zm35 134-5 1v2l8 6 12 3 2-1-3 6 1 1h5l-1-8-1-4-3-1-5-5z" fill="#53AFF9"/>
<path transform="translate(673,786)" d="m0 0h67l20 3 21 6 16 9 9 7 13 13 10 15 4 7 3 8 3 7 2 7 2 4-1 6-7 2-25 6-18 5-18 4h-42l-5-6-4-11-4-6v-2h-2l-6-7-6-3-7 1-7 6h-2l-2 4-6 9-5 12-2 7-1 11-1 1v56l1 1 1 11 5 17 6 10 12 11 9-1 7-6h2l2-4 6-10 5-12 3-14 4-4 7-2h30l15 4 10 4 30 10 7 3v2h5l5 18-4 13-5 9-7 14-9 12h-2l-2 5h-2l-1 3h-2v2h-2v2l-11 8-12 7-20 7-18 3h-88l-17-3-18-5-17-8-13-10-7-6-7-9v-2h-2l-10-15-6-10-5-11-3-11-3-9-3-11-1-15-1-3v-54l1-2 1-10 1-1 2-12 3-7 2-7 4-12 7-12 4-7 6-9 8-10 14-11 14-8 11-5 17-5 5-2h3z" fill="#52AFF9"/>
<path transform="translate(436,700)" d="m0 0 13 6 7 1h15l13-2 14-5h2l9 9 7 3 4 3 9 2 6 3-5 6-5 2 3 8 6 10 2 5 3 12 3 13 2 6 3 2-2 1v26l-1 4-1 22-2 8-1 19-1 1-1 17-1 1-1 11-1 2-1 16-2 6-1 11-1 1-1 13-1 1-3 16-1 11-1 1-3 24-2 6-2 10-1 10-1 1-1 11-1 2-1 9-2 5-1 9-2 10-1 1-1 12-1 2v10l24 12 6 4 1 4h-56l-1-1v-11l1-2 1-41v-89l-1-31-1-6-1-55-1-2-1-31-1-1-1-17-2-4h-7l-1 4-4 13-1 1-1 9h-2l-1 7-2 10-3 8-1 11-4 11-1 7-3 8-2 10-3 7-2 7-4 12-4 9h-2l-1 4-11 18-11 17h-2l-2 5-10 15h-2l-1 4-11 16h-2l-2 5-8 11-6 9h-2l-2 5-1 2h-2l-2 5-6 7 1 5 7 6v2l3 1v2h2l9 12-1 4-7-1-20-8-24-9-1-4 3-7 4-6 1-3h2l1-5 4-8h2l1-4 8-15 4-7 3-7 8-15 5-10 4-10 5-9 4-10 5-10 3-10 2-3 2-7 1-89 1-2 1-18 2-6 1-9 1-2 1-13 1-1 1-7 1-1 2-9 3-5 1-7 1-1 1-7 4-8 4-10 3-5 3-7 5-10 4-6h2l1-4 8-11 4-4z" fill="#4C73DB"/>
<path transform="translate(1886,589)" d="m0 0 5 2-1 4-6 12-4 7h-2l-1 5h-2v4h-2l-1 4-5 8-5 10-4 6-5 10-4 6-3 7-4 6-4 9-6 9-13 2h-37l-31-1-5-2h-11l-1 1 10 4 10 2 27 8 19 9 11 7 5 6 2 5v10l-1 1-1 8-4 7-2 6-6 12-3 5-2 6-3 4-3 7-3 6-3 4-3 10-1 2 5 1-2-3v-4l5-2 1-2 15-1 8 2v3l2 1v2l-8 5-3 13-2 3h2v4l18 2-3 3-8 1-7 3h-29l-7-2-9 1-11 16-4 5-4 8-4 6-5 6-1 3h30v23l-1 36h-72l1-17 5-23 6-25 1-11 2-3 3-14 3-8 12-46 6-17 1-5h2l2-5 9-13 7-8 3-3-23 12-31 11-17 5-29 6-27 3h-32l-24-3-15-4-12-6-5-4-7-10-3-10v-19l5-21 8-18 8-15 5-7 7 4 8 5 9 3 5 1h11l13-3 7 12 8-1 22-5 14-2h31v-2l121-1 18-1 2-2 2-7 3-4 3-8 3-5h2l1-4 4-8 5-8 4-7 2-5h2l2-7 4-5 3-7 2-2 1-4h2v-3h2l1-4 6-12z" fill="#2D4584"/>
<path transform="translate(380,490)" d="m0 0h35l18 5 16 7 6 4v2h-4v2l4-1h17l13 4 1 4h2v2h2l2 5 3 5-1 7-4 15h-2v6l6-1h32l13-2 2-6h1l4 23v4l-4 1-5 5-4-1 5-4 3-4-1-12-1-1h-8l-3 1v2l3 1v1h-5l1 8h-7l-1-5 1-3-12-3-8 1v8l3 9 7 5 13 6 5 2v8l6 9 5 9 6 12 3 10 6 16 9 25 3 5 8 2h65l9 1 7-1h14l6 3v4l-13 3-10 6-9 9h-1l-1-6-10 4-10 2-24 5-17 2h-21l-11-3-9-8-5-8-6-12-3-3-3-6-4-9-2-8-3-6-3-1-2 1-1 4-1 15-4 9v8l-2 7-16 6-13 2h-15l-9-2-10-5-2-7-3-11-2-25-2-3-6 1-8 10-3 1-4-1-5 1-3-2h-11l-4-2-5-1-7-1-4 3-1-2 5-13 6-10 4-9 4-8h2l1-4 10-11h2v-4h-11l-9-1h-9l-7 3-5 5-6 7-9 13-12 12-10 5-3 1h-17l-16-7-11-7v-2h-2v-2l-4-2-3-3v-2h-2l-5-9v-22l4-9 3-7 3-6 2-3h2l2-4 8-7 13-6h21l17 4 7 2h25l10-5 9-11 8-5 5-1h7v-2l-8-1-5-3-9-12-12-19 1-5zm54 11m9 4m22 32v2h2v8l-5 2-6 4v18l4 2v2l5 4h7l3-3 2-7 5-7 2-7v-11l-3-4-11-3z" fill="#FAFBFC"/>
<path transform="translate(1118,866)" d="m0 0h6l6 3 16 1 39 9 17 6 7 5 7 16 9 32 8 38 4 25 1 9v21l-7 8-11 7-23 11-3 1-4 4-12 5h-92l-25-11-24-9-10-5-10-9-2-6 1-21 1-15 3-8 1-14 4-14 1-10 3-8 8-29 6-15 5-6 14-6 28-7 21-4h6z" fill="#FE7E34"/>
<path transform="translate(1241,166)" d="m0 0h11l16 4 10 5 11 8 8 10 2 5v6l-4 7-4 4-5 13-3 6-4 1-1 3-4 3h-2v3h-2l-1 5-1 2v21l-2 6 4 1 7-1h9l14 7 11 8 2 4h2v2h2l8 11 4 5 6 11 3 5 5 14 2 7v39l-2 9-4 8-3 7-7 11-7 10h-2v2h-2l-2 4-4 6-1 13 8 1v1l-36 1-14 6-13 4h-3l-8 3h-12l-3-3 2-4 12-7-42-1-1-1-2-23-1-27v-77l4-18 5-12 9-13 9-8 4-1v-2l-2-1h13l2-1 2-5v-7l-8-6v-2h-2l-5-8-2-6-1-12-1-3v-25l1-6-12-3-3-2v-2h-2l-3-9 2-5 3-3 14-4z" fill="#C7DAFE"/>
<path transform="translate(709,748)" d="m0 0h1v9l4 1 25-1 3 1h14v-5l2 3 123 1 3 2h35l5-2 525 1v-7l18 5 12 2h32l-6 20-5 15-1-2h-153l-1 9h-1l-1-10h-28l-5 1v8l1 2v7l-2-4-2-9v-4h-142l-7-8 1-4 4-3v-8l-5-2-3-1h-11l-15 4-18 1-9 4-6 8-3 9-1 13-18-8-16-5-16-3-10-1h-67l-22 2-18 4-3-1 4-2 1-2h-21l-16 2-15 1h-50l-24-2-28-1v3l3 3-16-4-20-3h-67l-24 2h-3l-5 2-17 5-19 9-11 8-7 5 1-4-8-1-4-1-4 1-3 4h-3v-8h-8l-8-3h-5l-1-21 10-6 12-6 21-7 5-1 21-1v-6l5 1 14 12 6 4-4-17 47-1 26-1zm-160 43-2 6 5-1-2-5z" fill="#FCFCFD"/>
<path transform="translate(1761,378)" d="m0 0h13l9 5 3 2v2h2l3 4v2h2l4 8 1 4v12l-2 5-1 7-1 1-1 7-6 9-1 5h-2l-1 5-5 7-1 4h-2l-2 5-4 8 2 1 16-1 18-1 9 3 9 7 6 9 1 3v17l-9 17-3 4h-2l-2 4-10 10-8 6-5 5-12 9h-2v2l-8 5-5 5-10 8-4 2-1 3-10 7-3 1-1 7 3 2 23 4 8 5 6 8 2 10-1 5-1 7-9 11-2 1v3l9 1v1h-18l-15-1v-1l12-2 9-9 4-8v-14l-4-6-6-3-21-4-9-6-2-7 4-6 13-11 6-4h2v-2l8-7 11-9 12-9 5-5 10-8 7-6h2l2-4 5-6h2l1-4 3-5 2-5v-20l-4-6-5-3-4-1h-20l-17 1-10-2-1-1v-6l8-13 4-8h2l1-5 5-9 5-14 2-2 1-7 1-1v-18l-3-7-3-4v-2h-2v-2l-8-2h-7l-7 3-4 2v2h-2l-2 5-6 11-3 7-3 10-4 6-2 5-8 10h-2v2l-10 6-4 1h-12l-10-4-15-7h-9l-5 3-3 4-1 7 1 14 4 9 9 6 5 4v20l-3 6h-2v2h-2l-2 5-1-3 1-9-2-5-6 1-10 7-8 1-4-4-1-2h-4l-4 16-1 5h-13l-17-6h-11l-7 2-12 8-10 7-16 7-6 2-17 2-31 1-3 1h-25l-20-3-20-5-14 1-6-2-4-2-1 4h-3l-1-3-11-1-5-5-3-4v-2l-5 1-6 2h-11l-3-6-5-3-3-9 1-8 3-1h17l9 1 13-5 8-4 15-6 7-3 24-6 6-1h29l13 3 6 3 3 2h11l13-5 11-7 10-6 10-5 4-8 7-10h2l2-4 7-7h2v-2l10-8 4-1v-2l10-6 16-8 21-8h7v12l-1 3-1 15-2 5-3 18-3 12-2 4 16-4 2-1 2-17 7-11 6-5 6-2h10l8 3 16 8h12l7-4 3-1 2-4 6-9 2-6 3-5 3-10 5-10 4-7h2l2-4 3-1v-2l10-6z" fill="#2C4585"/>
<path transform="translate(1316,215)" d="m0 0h8l32 12 22 11 12 8 12 9v2l4 2 1 3h2v2h2l9 12 5 8v3h2l5 11 4 11 2 10 1 2 1 28 1 3 4 2 10 9 14 15 2 5h2l3 4 5-1v-25l1-1 1-15 4-10 5-13 6-9 6-10 2-3h2l1-4 6-7 5-5 4-2v-2l8-6 5-5 5-3 5 1 2 7 2 5 1 11 1 1 1 7 1 1v56l-3 7-4 12-6 12-8 10-11 11-6 4-14 8-14 7-8 10-10 10-15 11-16 8-8 3-12 3-9 1h-29l-29-4h-8l-2 2h-6l-2-1v-3h2l-4-4 2-7 4-5h2l2-4 10-10h2v-2l11-9h2v-2l21-13 13-6 17-5 4-1h26l14 4 15 6h4l-1-6-9-14-5-4-7-9-16-17-7-6-9-3-18-5-19-8-12-7-9-7-8-7v-2l-4-2-1-3h-2l-11-15-7-11-7-15-9-24-2-8-1-2-1-10-1-1z" fill="#FE7F35"/>
<path transform="translate(1223,868)" d="m0 0h1l17 74 22 95v2l5 1 15 8 5 7v12l-4 10-6 8-2 4h-2l-2 4-13 8-17 7-22 6-11 2v9l-3 4-4 1h-11l-16-3-16-6-61 2-5 2-18 4h-18l-4-3v-6h2l1-4 5-3v-2l-17-1-27-6-16-5-12-5-1-2-6-3-10-9-6-8-4-8-2-7 1-9 4-6 4-5 8-4 13-4 21-4h4l4 9 8 7 10 5 27 10 22 10h92l14-6 2-3 16-7 17-9 9-8 1-2v-21l-4-28-8-40-2-8z" fill="#2C4484"/>
<path transform="translate(380,490)" d="m0 0h35l18 5 16 7 6 4v2h-4v2l4-1h17l13 4 1 4h2v2h2l2 5 3 5-1 7-4 15h-2l-1 5-3 4-1-9v-7l-2-3-17-4-8 1-1 1-1 9v14l1 8-3 6 3 1v2l-7 2-7 8-14 9-11 4-10 2-10 11-13 21-12 23-2 5-2-2 5-13 6-10 4-9 4-8h2l1-4 10-11h2v-4h-11l-9-1h-9l-7 3-5 5-6 7-9 13-12 12-10 5-3 1h-17l-16-7-11-7v-2h-2v-2l-4-2-3-3v-2h-2l-5-9v-22l4-9 3-7 3-6 2-3h2l2-4 8-7 13-6h21l17 4 7 2h25l10-5 9-11 8-5 5-1h7v-2l-8-1-5-3-9-12-12-19 1-5z" fill="#0C4B60"/>
<path transform="translate(1193,463)" d="m0 0h1v294h254v-6h1v7h-525v-1h268v-67l-43 1h-98l-1-1v-57l1-1h127v-59h-127l-1-1v-46h1v20h142zm-136 171-1 4v3h3l1-7z" fill="#FAFBFD"/>
<path transform="translate(1455,791)" d="m0 0h44v294h-44z" fill="#195EB9"/>
<path transform="translate(897,462)" d="m0 0h27v84l-4 23-9 44-2 14-1 1-2 10-1 2-1 11-1 1-1 9-3 11-1 1-1 10-3 13-2 13-1 1-1 7-1 1-3 20-2 6-1 9-2 4h-42l2-13 55-275z" fill="#195DB8"/>
<path transform="translate(1067,966)" d="m0 0 4 1 6 16 3 11v3l93-1 8-26 2-4 5 1 6 9 8 20 12 1-1 6-12 34-8 23-12 6-3 1h-92l-25-11-3-5-18-51v-3l12-1 8-20 5-8z" fill="#FCFCFD"/>
<path transform="translate(1192,373)" d="m0 0 4 1 1 57h-1v-10h-197l-348-1 4-4 10-6h530v-23h-302l-181-1 3-2 18-8h443v-2z" fill="#ECF2FE"/>
<path transform="translate(391,357)" d="m0 0h8l13 4 18 8 13 8 11 8v2l4 2v2h2l3 4v2h2l7 10 4 10 3 7 4 5 1 8v4l6-1 11-11 12-7 13-5 16-3h18l19 4 29 11 2 1v2l4 2-7 8-11 9-13 9-5 3h-54l1 10-15-2-15-5-8-4h-10l-18-3-15-5-9-5-12-9-3-3v-2h-2l-7-10-6-12-3-5-4-12-1-1-1-7-1-1-1-8-1-1-1-11-2-5z" fill="#FDBD4C"/>
<path transform="translate(1320,464)" d="m0 0 2 1 1 54v20l1 34 2 2 7 1 1-12-3-10 1-5 2-5 2-1h6l4 10v16l4 4 1 2 8 2 15 1h20l-4 2-8 2 4 8 10 13 9 10 10 10 15 11 19 10 17 5 13 2v1h-22l-1 4-8 2 6 2-1 2-8 1h-10l-10-3v-2l-2 1v2l-6 3 2 1 16 1 8 4 6 2-4 1-18-4-22-2h-28l7 18h-64z" fill="#FDFDFD"/>
<path transform="translate(1532,561)" d="m0 0h2l2 20 1 6 1 15 4-1 6-4 3-5h3v-2l8-7 7-6-4 18-5 26-4 27h-11l-11-3-1 17-5 37-5 27-2-4v-12l5-30 3-26v-9l-18 5-16 2h-16l-17-3-15-5-17-9-12-9-10-9-11-11-12-16-4-8 9-3 5-2 27-4h26l18 2 20 7 11 6 9 7 8 7 12 16 3 6h6l-1-3-1-12-1-28-1-2v-17z" fill="#FE8036"/>
<path transform="translate(1283,463)" d="m0 0h36v221h-42v-218z" fill="#185DB8"/>
<path transform="translate(1316,215)" d="m0 0h8l32 12 22 11 12 8 12 9v2l4 2 1 3h2v2h2l9 12 5 8v3h2l5 11 4 11 2 10 1 2 1 28 1 3h2l-1 4-5-4-9-3-18-5-19-8-12-7-9-7-8-7v-2l-4-2-1-3h-2l-11-15-7-11-7-15-9-24-2-8-1-2-1-10-1-1z" fill="#FE7F35"/>
<path transform="translate(1144,764)" d="m0 0h11l8 4 1 2v6l-5 4 1 4 7 9 1 7-6 16-4 9-2 4h-2l-1 4-2 9v13l1 1-1 7-6 4v4l-15-1-6-3h-6l-1 3-6 1h-9l-5-11-8-16-10-14-11-12-13-10-16-9-19-7-20-4-6-1v-1h38l21 3 15 4 13 5 10 5 2-16 5-10 7-6 6-2 18-1z" fill="#09495F"/>
<path transform="translate(1289,281)" d="m0 0 5 1 12 7 7 6v2h2v2h2l8 11 4 5 6 11 3 5 5 14 2 7v39l-2 9-4 8-3 7-7 11-7 10h-2v2h-2l-2 4-4 6-1 13 8 1v1l-36 1-14 6-13 4-6-4-3-6v-5l17-10 11-9 9-9 7-11 5-11 2-7 1-8v-9l-3-16-6-16-8-16 1-9 6-17 9-16 4-5-13-7z" fill="#C4D8FE"/>
<path transform="translate(968,855)" d="m0 0h10l13 3v3l-6 3-5 4-1 2h-2l-2 5-4 5-6 16-2 10-1 1-1 37 1 27 1 1 2 10 6 15 7 10 10 8 5 3-3 2-9 2h-16l-12-3-11-6-8-7-7-11-6-16-3-17-1-11v-24l2-19 5-19 6-12 9-10 10-7 12-4z" fill="#195EB9"/>
<path transform="translate(680,854)" d="m0 0 16 2 4 2v2l-8 6-3 1-2 4-6 9-5 12-2 7-1 11-1 1v56l1 1 1 11 5 17 6 10 12 11-1 3-10 2h-13l-13-3-9-5-8-7-8-14-4-14-2-13-1-12v-32l2-18 4-15 6-12 9-11 9-6 9-4z" fill="#195EB9"/>
<path transform="translate(547,245)" d="m0 0 3 1 2 3 1 9 1 2 1 20 1 3v13l-1 3-1 17-1 1-1 7h-2v6l-4 7-1 5h-2l-1 5-10 14-12 12-14 11-4 2-2 4-3 10-2 4-2 8-4 8-2 3-1-6v-9l3-8 3-7 2-9-2-11-3-7-3-9v-27l2-5 3-13h2v-5l6-10 6-11h2l2-5 12-14 9-9h2l1-3 8-8z" fill="#FDBE4C"/>
<path transform="translate(1241,166)" d="m0 0h11l16 4 10 5 11 8 8 10 2 5v6l-4 7-4 4-5 13-3 6-4 1-1 3-4 3h-2v3h-2l-1 5-1 2v21l-5 5-7 6-7 4-3-1-1-11 1-12h-6l-4-3v-2h-2l-5-8-2-6-1-12-1-3v-25l1-6-12-3-3-2v-2h-2l-3-9 2-5 3-3 14-4z" fill="#FCA287"/>
<path transform="translate(710,574)" d="m0 0 2 3 19 75 1 3v7h-2l-1 5-2 9-1 1-1 10-3 10-1 8-2 6-6 24-1 8-3 9-2 5h-42l1-8 16-63 16-64z" fill="#185DB8"/>
<path transform="translate(1387,666)" d="m0 0h18l22 2 28 6 18 8 14 10v2h2l9 11 5 7v2h2l5 8 1 7 3 7 2 4 3-2 1 3 9-15 3-2-4 19v21l-10-3-4-2-2 10-9 27-3 7h-1v-10l11-34h-31l-17-3-12-4-2-2v-65h-64l-5-10-2-5v-3z" fill="#FE8138"/>
<path transform="translate(1197,441)" d="m0 0h1v14l-592-1 5-6 5-4h581z" fill="#ECF2FE"/>
<path transform="translate(1435,487)" d="m0 0h29l13 3 6 3 3 2 10 1v1h-16l-15-3h-10l-4 4-3 8v18l3 9 7 9 9 6 10 4 10 2v1l-9 2h-25l-20-3-20-5-14 1-6-2-4-2-1 4h-3l-1-3-11-1-5-5-3-4v-2l-5 1-6 2h-11l-3-6-5-3-3-9 1-8 3-1h17l9 1 13-5 8-4 15-6 7-3 24-6z" fill="#FE8037"/>
<path transform="translate(1264,791)" d="m0 0h43l4 17 2 2 1 9 3 13 2 11 1 1 1 7 1 1 1 11 3 9v8l-20 86h-2l-23-98-17-73z" fill="#195EB8"/>
<path transform="translate(1761,378)" d="m0 0h13l9 5 3 2v2h2l3 4v2h2l4 8 1 4v12l-2 5-1 7-1 1-1 7-6 9-1 5h-2l-1 5-5 7-1 4h-2l-2 5-4 8 2 1 16-1 18-1 9 3 9 7 6 9 1 3v17l-9 17-3 4h-2l-2 4-10 10-8 6-5 5-12 9h-2v2l-8 5-5 5-10 8-4 2-1 3-10 7-3 1-1 7 3 2 23 4 8 5 6 8 2 10-1 5-1 7-9 11-2 1v3l9 1v1h-18l-15-1v-1l12-2 9-9 4-8v-14l-4-6-6-3-21-4-9-6-2-7 4-6 13-11 6-4h2v-2l8-7 11-9 12-9 5-5 10-8 7-6h2l2-4 5-6h2l1-4 3-5 2-5v-20l-4-6-5-3-4-1h-20l-17 1-10-2-1-1v-6l8-13 4-8h2l1-5 5-9 5-14 2-2 1-7 1-1v-18l-3-7-3-4v-2h-2v-2l-8-2h-7l-7 3-4 2v2h-2l-2 5-6 11-3 7-3 10-4 6-2 5-8 10h-2v2l-10 6-4 1h-12l-10-4-15-7h-9l-5 3-3 4-1 7 1 14 4 9 2 3-4-2-7-7-2-1h-10l-16 6-2-1 6-15h1l-1 7-2 4 16-4 2-1 2-17 7-11 6-5 6-2h10l8 3 16 8h12l7-4 3-1 2-4 6-9 2-6 3-5 3-10 5-10 4-7h2l2-4 3-1v-2l10-6z" fill="#6BBAFA"/>
<path transform="translate(1853,884)" d="m0 0h11l6 2 8 4 2 5 2 12 2 9v9l-7 6-4 2-10 2-15-5h-16l-5 1h-9l-9-2h-15l-3 3-3 9-3-1-1-5-5-2h-6l-2 1-7-2v28l-2 1v-60h-30l1-4 2 2h16l7-1v-2l-10-2-1-2 1-3 11-3 36-1zm-65 10-5 1v2l8 6 12 3 2-1-3 6 1 1h5l-1-8-1-4-3-1-5-5z" fill="#FDFDFD"/>
<path transform="translate(1386,867)" d="m0 0h1v183l-4 20-4 15h-43l4-20 21-90 16-69z" fill="#185DB8"/>
<path transform="translate(742,964)" d="m0 0h30l15 4 10 4 30 10 7 3v2h5l5 18-4 13-5 9-7 14-9 12h-2l-2 5h-2l-1 3h-2v2h-2v2l-11 8-12 7-20 7-10 2h-40v-1l19-5 16-8 13-9 14-14 10-15 9-19 6-18 2-11-66-22v-2z" fill="#1B5FBA"/>
<path transform="translate(750,462)" d="m0 0h43l5 18 10 40v9l-16 93-2 1-19-75-21-84z" fill="#185DB8"/>
<path transform="translate(603,463)" d="m0 0h43l9 52v14l-23 92-2 3-4-21-22-129z" fill="#185DB8"/>
<path transform="translate(702,786)" d="m0 0h38l20 3 21 6 16 9 9 7 13 13 10 15 4 7 3 8 3 7 2 7 2 4-1 6-7 2-25 6-18 5-19 3h-34l4-2 57-14h2l-6-18-9-19-8-12-11-13-9-8-13-8-14-6-13-4-17-3z" fill="#1A5EB9"/>
<path transform="translate(1050,526)" d="m0 0h1v20h142v67h-14l-1-40h-127l-1-1z" fill="#FBFBFD"/>
<path transform="translate(1626,408)" d="m0 0h7v12l-1 3-1 15-2 5-3 18-8 20-1 2-15 4h-14l-14-5-12-4-13-2h-13l5-4 4-8 7-10h2l2-4 7-7h2v-2l10-8 4-1v-2l10-6 16-8z" fill="#FE8036"/>
<path transform="translate(613,758)" d="m0 0 5 1 14 12 6 4-4-17h47l-2 4-12 12-16 11 2 3-4 1h-3l-5 2-17 5-19 9-11 8-7 5 1-4-8-1-4-1-4 1-3 4h-3v-8h-8l-8-3h-5l-1-21 10-6 12-6 21-7 5-1 21-1zm-64 33-2 6 5-1-2-5z" fill="#FDBB48"/>
<path transform="translate(1198,318)" d="m0 0 1 3-2 10-1 40-6 1h-19l-19-4-18-6-24-11-22-12-4-3 1-9 5-5 8-1 3-1 15 4v3l15 3 8 1h25l14-3 12-5z" fill="#C5D9FE"/>
<path transform="translate(1051,657)" d="m0 0h142v24h-142z" fill="#FDFDFD"/>
<path transform="translate(1320,647)" d="m0 0h106l6 8v2l-6 1-4-1 1 4-6 3 2 1 16 1 8 4 6 2-4 1-18-4-22-2h-28l7 18h-64z" fill="#FDFDFD"/>
<path transform="translate(1514,759)" d="m0 0 9 3 5 2 4 10 5 6v2l4 2 9 6v1h-43l1 294 2 2h-11l-1-2 1-282 9-24z" fill="#FDFDFD"/>
<path transform="translate(1405,685)" d="m0 0h43l1 66-1 6h-42l-1-1z" fill="#185DB8"/>
<path transform="translate(1412,621)" d="m0 0 8 6 15 10 17 8 19 5 8 1v1h-22l-1 4-8 2 6 2-1 2-8 1h-10l-10-3v-2l-3-1h10l-6-9h-80l-26-1v-23h92z" fill="#FDFDFD"/>
<path transform="translate(1088,341)" d="m0 0 11 6 10 5v1h-304v-2l32-8 6-1h244z" fill="#ECF2FE"/>
<path transform="translate(654,782)" d="m0 0h441l-2 9-1 13-18-8-16-5-16-3-10-1h-67l-22 2-18 4-3-1 4-2 1-2h-21l-16 2-15 1h-50l-24-2-28-1v3l3 3-16-4-20-3h-67l-20 1-3-4z" fill="#EAF1FE"/>
<path transform="translate(1189,511)" d="m0 0 4 1v34h-142v-20l137-1z" fill="#FCFCFD"/>
<path transform="translate(1241,166)" d="m0 0h11l16 4 10 5 11 8 8 10 2 5v6l-4 7-4 4-5 13-3 6-4 1-1 3-3 1 1-4v-7l-5-5-2-5-4-22-6 1h-8l-4-1-4 1h-7l-4-2-4 1h-12l-5-3v-2h-2l-3-9 2-5 3-3 14-4z" fill="#2364BD"/>
<path transform="translate(1223,868)" d="m0 0h1l17 74 22 95v2l5 1 10 5-3 1-7-1h-16l-19 3-20 6-17 6h-3l1-3 16-7 17-9 9-8 1-2v-21l-4-28-8-40-2-8z" fill="#185CB7"/>
<path transform="translate(1164,782)" d="m0 0h114l224 1-1 7-2 3v-2h-153l-1 9h-1l-1-10h-28l-5 1v8l1 2v7l-2-4-2-9v-4h-142l-6-7v-1z" fill="#E8F0FE"/>
<path transform="translate(1150,691)" d="m0 0h42v66h-42z" fill="#185DB8"/>
<path transform="translate(1733,1019)" d="m0 0h41l1 1-1 65h-41z" fill="#185DB8"/>
<path transform="translate(1146,463)" d="m0 0h43v62h-43z" fill="#195DB8"/>
<path transform="translate(1071,310)" d="m0 0 6 1 7 5v2l7 1-5 4-3 5-1 6 3 5 3 2-1 2h-244l-27 6-7 2-4-1 2-2 18-4 25-4 13-1 34-1 49-3 9-1 53-1 8-2 10-5 12-1 6-2v-7l3-2 11 1h9z" fill="#FCFCFD"/>
<path transform="translate(1136,573)" d="m0 0h43v59h-43z" fill="#195EB9"/>
<path transform="translate(380,490)" d="m0 0h35l18 5 16 7 6 4v2h-4v2l4-1h17v1l-12 1-14 7-19 12-13 6h-8l-7-1v-1h7v-2l-8-1-5-3-9-12-12-19 1-5z" fill="#FDBE50"/>
<path transform="translate(1007,633)" d="m0 0h43v57h-43z" fill="#185DB8"/>
<path transform="translate(1591,961)" d="m0 0h42v13l1 7v28l-1 9h-42z" fill="#185DB8"/>
<path transform="translate(1731,899)" d="m0 0 1 2h30v23l-1 36h-16l-7-8-6-4-17-4-2-1-3-8 1-6 16-23z" fill="#185DB8"/>
<path transform="translate(1193,463)" d="m0 0h1v294h254v-6h1v7h-525v-1h268v-67l-43 1h-98v-10h142z" fill="#D9E6FE"/>
<path transform="translate(1246,289)" d="m0 0h2l5 9 2 4-7 10v19l3 78v19l-12 17-3-1-6-14 1-21 7-89v-10l-2-6v-5l6-5 1-2h2z" fill="#FEBC47"/>
<path transform="translate(1007,526)" d="m0 0h43v46h-43z" fill="#185DB8"/>
<path transform="translate(1626,635)" d="m0 0 4 1 8 9 13 18 10 13 11 12 9 6v2l-25 1 2-6 4-7-16-2h-41l2-19 4-17 4-7z" fill="#FAFBFD"/>
<path transform="translate(994,786)" d="m0 0h38l21 3 15 4 13 5 10 5 1-12h1l1 17 5 20 1 18 3 14 4 6h11l-1 4-6 1h-9l-5-11-8-16-10-14-11-12-13-10-16-9-19-7-20-4-6-1z" fill="#195DB9"/>
<path transform="translate(1591,854)" d="m0 0h42v46h-42z" fill="#185DB8"/>
<path transform="translate(1529,644)" d="m0 0h1v10l-4 33-4 23v12l2-6 6-37 4-34 21 3v9l-3 28-8 13-9 19-4 8-7 11-4 7-2-4-3 2-3-8-2-6 2 1h6l1-2v-32l3-10v-7l2-4 2-16 2-5v-5l-1-2z" fill="#FCFCFD"/>
<path transform="translate(1762,901)" d="m0 0h1l1 17h110l10 1v6l-7 6-4 2-10 2-15-5h-16l-5 1h-9l-9-2h-15l-3 3-3 9-3-1-1-5-5-2h-6l-2 1-7-2v28l-2 1z" fill="#EDF3FD"/>
<path transform="translate(1335,511)" d="m0 0h18l9 1 6-1 2 4 11 10 14 10 14 8 13 6v1l-15-1-8 1-6-2-4-2-1 4h-3l-1-3-11-1-5-5-3-4v-2l-5 1-6 2h-11l-3-6-5-3-3-9 1-8z" fill="#FDFDFD"/>
<path transform="translate(1320,464)" d="m0 0 2 1 1 54v20l1 34 2 2 7 1 1-12-3-10 1-5 2-5 2-1h6l4 10v16l4 4 1 2 8 2 15 1h20l-4 2-8 2 3 6v2h-65z" fill="#FDFDFD"/>
<path transform="translate(1050,633)" d="m0 0h1l1 14h141v10l-96 1h-45l-1 32h-1z" fill="#EBF2FE"/>
<path transform="translate(1050,526)" d="m0 0h1v20h142v10h-142v16h-1z" fill="#EBF2FE"/>
<path transform="translate(1794,798)" d="m0 0 1 4-3 4-2 5-3 4-3 10-1 2 5 1-2-3v-4l5-2 1-2 15-1 8 2v3l2 1v2l-8 5-3 13-2 3h2v4l18 2-3 3-8 1-7 3h-29l-7-2-10 1 1-3h11v-18l9-15z" fill="#FCFCFD"/>
<path transform="translate(1886,589)" d="m0 0 5 2-1 4-6 12-4 7h-2l-1 5h-2v4h-2l-1 4-5 8-5 10-4 6-5 10-4 6-3 7-4 6-4 9-6 9-13 2h-37l-31-1-5-2h-11l-1 1 5 2 1 2-10-2v-4l8-2 71-1 18-1 2-2 2-7 3-4 3-8 3-5h2l1-4 4-8 5-8 4-7 2-5h2l2-7 4-5 3-7 2-2 1-4h2v-3h2l1-4 6-12z" fill="#366884"/>
<path transform="translate(1655,508)" d="m0 0 5 1 2 5-1 9-2 6-10 9-3 3 8 2v1l-23 2h-13l-5-5-1 2-11-1-7 4-2-1 3-8 3-4v-4l10 3 13 1 1-11 4-10 4-1 3 4v2h7l8-4zm-1 2-2 4-4 2v2l5-1 2 4 3-1v-9zm-48 28-1 2 5-1zm15 2 2 5 6-1-1-2h-2v-2z" fill="#FCA186"/>
<path transform="translate(1703,500)" d="m0 0h7l1 1v39l-4 10-1 8-3 8-4 12h-2l-1 5-2 6-4 9h-2l-1 4-10 16-4 4-2 10-3-4-4-10v-2l6-1 2-4 1-3h2l1-4 8-17 3-6 2-6h2v-5l4-9 2-7 1-11 1-1 1-31 2-10z" fill="#65B7FA"/>
<path transform="translate(1853,884)" d="m0 0h11l6 2 8 4v5h-127l-4-2 1-4 11-3 36-1z" fill="#EDF3FD"/>
<path transform="translate(1320,647)" d="m0 0h106l6 8v2l-6 1h-106z" fill="#EDF3FE"/>
<path transform="translate(1142,801)" d="m0 0 3 1 2 9 1 18-3 3h-23l-11 4-4-5-1-7 2-12 4-6 8-2 16-1z" fill="#FDA086"/>
<path transform="translate(1225,280)" d="m0 0h4v2l-9 6-7 8-8 14-4 13-2 11v77l2 42 1 8 44 1-2 2h-45l-2-23-1-21-1-46h-26l-22-5-21-8-25-12-17-10-3-5 2-8 4-5 2-1h9l1 2-9 1-3 1-2 6v6l21 12 23 11 19 7 17 4 6 1h25v-40l2-12-14 8-14 4-6 1h-25l-18-3-7-2 1-2 12 2 11 2h24l18-4 11-6 9-7 2-5h2l1-5 4-7 7-8h2v-2z" fill="#2667C3"/>
<path transform="translate(541,548)" d="m0 0h1l4 23v4l-4 1-5 5-4-1 5-4 3-4-1-12-1-1h-8l-3 1v2l3 1v1h-5l1 8h-7l-1-5 1-3-12-3-8 1v8l3 9 7 5 13 6 5 2v8l6 9-1 3-7-9-6-7-11-7-13-6-14-4v-2l-6-2h-1v-5l6-8 2-5 2 1 3-4v3l6-1h32l13-2z" fill="#FBF8F3"/>
<path transform="translate(1499,962)" d="m0 0h7l1 1 1 122 2 2h-11l-1-2z" fill="#FCFCFD"/>
<path transform="translate(1615,681)" d="m0 0h31l16 3-2 5-4 8-23 4-16 4-5-1-5-8-1-3-2-2 1-8z" fill="#FE7F35"/>
<path transform="translate(1088,1067)" d="m0 0h88l-3 3-26 12-16 7-35-17-8-4z" fill="#185DB8"/>
<path transform="translate(1692,932)" d="m0 0h17l4 8v3l19 4 9 7 4 6h-56l1-17z" fill="#07485C"/>
<path transform="translate(1321,613)" d="m0 0h75l10 1 6 6v4h-92v-10z" fill="#EDF3FD"/>
<path transform="translate(1812,951)" d="m0 0h64l4 2v5l-10 4h-12l-7-1h-64l-11-1-2-1 1-4 5-3z" fill="#EFF4FD"/>
<path transform="translate(1626,635)" d="m0 0 4 1 8 9 3 4-1 4-14 14-8 7-10 8h-3l2-19 4-17 4-7z" fill="#FBFBFD"/>
<path transform="translate(317,1076)" d="m0 0 6 1 12 5 11 9v2l3 1v2h2l9 12-1 4-7-1-20-8-24-9-1-4 3-7z" fill="#2F4B8D"/>
<path transform="translate(480,1094)" d="m0 0h21l19 8 12 7 2 2v3h-56l-1-1v-11l1-2h2z" fill="#2D4A8D"/>
<path transform="translate(1499,861)" d="m0 0h8v102h-6l-2-1z" fill="#FDFDFD"/>
<path transform="translate(1094,1106)" d="m0 0 4 1 4 13 7 1v1l-11 1-5 2-18 4h-18l-4-3v-6h2l1-4 5-3 1-2 19-3 11-1z" fill="#2264BD"/>
<path transform="translate(374,757)" d="m0 0h4l4 8 1 3h2l2 8-5 6-15 9-6-1-9-14-1-1 1-7 9-7z" fill="#314C8E"/>
<path transform="translate(1242,263)" d="m0 0h4v18l1 5 6-2 9-7 4-3v4l4 1 10-1-2 5-7 7-7 8-7 7-1-2-2-1-5-9-1-4-3 3h-2l-2 4-5 5-4-1-2-11v-10h10l2-1 2-5v-7z" fill="#FCFCFD"/>
<path transform="translate(1774,671)" d="m0 0h29l8 2 3 2v2h2l2 4 1 8 7 1 4-2-2 4-1 1-18 1h-49l3-2 20-3h6v-15l-15-2z" fill="#FDAD92"/>
<path transform="translate(1753,760)" d="m0 0 2 1-9 8-11 15-4 7h-53l3-2 20-6 28-10 23-12z" fill="#E5EEFE"/>
<path transform="translate(1320,580)" d="m0 0h63l-1 3 3 5v2h-65z" fill="#EDF3FD"/>
<path transform="translate(1072,311)" d="m0 0 7 1 5 4v2l7 1-5 4-3 5-2 6h-16l-10-5-7-7-1-5 1-1 10 1 15 2z" fill="#FDA487"/>
<path transform="translate(923,550)" d="m0 0h1v71l-6-1h-8l-1 3 1-10 12-59z" fill="#EBF2FE"/>
<path transform="translate(1183,966)" d="m0 0 5 1 6 9 7 17v4h-27l1-8 7-21z" fill="#52B0FA"/>
<path transform="translate(1067,966)" d="m0 0 4 1 6 16 3 11v3h-27l1-7 8-18z" fill="#52B0FA"/>
<path transform="translate(541,548)" d="m0 0h1l4 23v4l-4 1-5 5-4-1 5-4 3-4-1-12-1-1h-8l-3 1v2l3 1v1h-5l1 8h-7l-1-5 1-3-12-3-8 1v8l3 9 7 5 13 6 5 2-1 7-7-6-13-8-6-3-7-21v-5h32l13-2z" fill="#FBF9F6"/>
<path transform="translate(1011,1025)" d="m0 0h4l4 9 8 7 2 1v2l-25-5-9-1h-13l-11 2-4 1 2-4 8-4 13-4z" fill="#185CB7"/>
<path transform="translate(1204,1115)" d="m0 0h5v10l-3 4-4 1h-11l-16-3-16-6-8-1v-1l27-1z" fill="#2C6BC2"/>
<path transform="translate(799,477)" d="m0 0h18l-6 37-2 9-2-3-10-40v-2z" fill="#F7F9FD"/>
<path transform="translate(648,477)" d="m0 0h20l-4 18-7 28-2-2-7-41z" fill="#F8F9FD"/>
<path transform="translate(1514,759)" d="m0 0 9 3 5 2 4 10 5 6v3h-30z" fill="#FBFCFD"/>
<path transform="translate(357,717)" d="m0 0h1l1 14v8l-2 9h-2l-2 5-4 5-3 5h-3l-3-5v-3h-2l-4-7 1-4 18-8 2-3 1-15z" fill="#365194"/>
<path transform="translate(1335,511)" d="m0 0h18l9 1 6-1 2 4 6 7h-43l-1-5 1-5z" fill="#EEF4FD"/>
<path transform="translate(655,688)" d="m0 0h14l6 3v4l-13 3-10 6-9 9h-1l1-9 2-14z" fill="#FDA086"/>
<path transform="translate(1449,751)" d="m0 0 18 5 10 2v1h-285v-1h257z" fill="#EDF3FD"/>
<path transform="translate(1598,529)" d="m0 0 10 3 9 1-1 4h11l2 2 7 3h8l2-1 8 2v1l-23 2h-13l-5-5-1 2-11-1-7 4-2-1 3-8 3-4zm8 9-1 2 5-1zm15 2 2 5 6-1-1-2h-2v-2z" fill="#FDD182"/>
<path transform="translate(1500,918)" d="m0 0h7v45h-6l-2-1v-43z" fill="#FDFDFD"/>
<path transform="translate(1532,561)" d="m0 0h2l2 20 1 6 1 15 4-1 6-3-2 6-7 15-3 9-2-2-2 3h-2l-1-4 6-1-1-3-1-12-1-28-1-2v-17z" fill="#FDA35E"/>
<path transform="translate(1772,836)" d="m0 0h1v15h51l-3 3-8 1-7 3h-29l-7-2-10 1 1-3h11z" fill="#ECF2FD"/>
<path transform="translate(1529,644)" d="m0 0h1v10l-4 33-4 23v21l-2 8-5 2-3-8-2-6 2 1h6l1-2v-32l3-10v-7l2-4 2-16 2-5v-5l-1-2z" fill="#FDFDFD"/>
<path transform="translate(1225,280)" d="m0 0h4v2l-9 6-7 8-8 14-2 3-4 3 1 2-16 9-14 4-6 1h-25l-18-3-7-2 1-2 12 2 11 2h24l18-4 11-6 9-7 2-5h2l1-5 4-7 7-8h2v-2z" fill="#6996E9"/>
<path transform="translate(1179,590)" d="m0 0h14v23h-14z" fill="#FDFDFD"/>
<path transform="translate(1537,782)" d="m0 0 4 2 9 6v1h-43v2h-3l1-6 2-4z" fill="#E6EEFE"/>
<path transform="translate(1657,543)" d="m0 0 5 2v3l-2 1-2 6-1 5h-3v-3h-5v4h-2v-4l-5-2h-5l-1 2-2-4-3-1v-4l13-2v-2z" fill="#FDA577"/>
<path transform="translate(1197,342)" d="m0 0h1l1 69 2 42 1 8 44 1-2 2h-45l-2-23-1-21v-29z" fill="#487DDF"/>
<path transform="translate(1753,760)" d="m0 0 2 1-9 8-10 14h-27l1-3 21-8z" fill="#F5F8FD"/>
<path transform="translate(1794,685)" d="m0 0h7l6 4 11 2 1-2 7 1 4-2-2 4-1 1-18 1h-49l3-2 20-3h6v-2z" fill="#F2F6FD"/>
<path transform="translate(1641,651)" d="m0 0 4 4-1 4-14 14-10 8-5 1h-7l5-5 11-10 8-7z" fill="#51AFF9"/>
<path transform="translate(545,632)" d="m0 0 5 4 4 14 12 32 1 3 6 1h63l6 1v1l-12 1h-56l-9-3-5-10-10-29-5-12z" fill="#29599D"/>
<path transform="translate(1289,281)" d="m0 0 5 1 12 7 7 6v2h2v2h2l3 4-1 2-13-13-4 2-6 9-7 14-4 13v9l9 17 5 15 2 10v16l-4 16-6 11-1-2 6-13 2-7 1-8v-9l-3-16-6-16-8-16 1-9 6-17 9-16 4-5-13-7z" fill="#4E8CE8"/>
<path transform="translate(1805,1020)" d="m0 0h29l3 3-5 4-5 1h-17l-17-4-2-2 3-1z" fill="#EDF3FD"/>
<path transform="translate(630,688)" d="m0 0h9l6 1v10l-2 9-2-1-10 4h-1z" fill="#C7DAFE"/>
<path transform="translate(1805,816)" d="m0 0 10 2v3l2 1v2l-5 3h-24l-2-2v-4l5-2 1-2z" fill="#EEF4FD"/>
<path transform="translate(557,629)" d="m0 0h1l10 51-1 4-3-4-10-28-1-4 2 1v2l3-1v-5l-6 2-2-8 5 1 1-9z" fill="#F2F6FD"/>
<path transform="translate(587,757)" d="m0 0h77v1l-29 1 4 14-1 3-9-7-12-10-30-1z" fill="#ECF2FD"/>
<path transform="translate(1320,681)" d="m0 0h62l2 4h-64z" fill="#E3ECFE"/>
<path transform="translate(478,466)" d="m0 0 4 1 1 1 1 23 1 16-4-2-4-5v-30z" fill="#FDCE7A"/>
<path transform="translate(915,589)" d="m0 0 8 1v23l-6 1-6-1 1-9z" fill="#FAFBFD"/>
<path transform="translate(1443,353)" d="m0 0 8 6 8 8 7 8 5 6v2h2l3 4 6-1 2 14-3-3v-2h-2l2 5-3-2-5-9-6-5-7-9-16-17z" fill="#FDA46F"/>
<path transform="translate(1688,694)" d="m0 0h50v1l-8 1v3h-42z" fill="#07475B"/>
<path transform="translate(459,536)" d="m0 0h5l1 3h2v8l-9 6h-2v8l-1 5-2-4v-14l1-9z" fill="#FDA384"/>
<path transform="translate(1320,464)" d="m0 0 2 1 1 54v34l-1 3h-2z" fill="#FBFBFD"/>
<path transform="translate(1246,462)" d="m0 0 3 4 4 6-1 3-7 2h-12l-3-3 2-4z" fill="#FDA086"/>
<path transform="translate(1154,831)" d="m0 0h1v41l-9-1-2-1 1-4 5-3 1-7-1-1v-13l2-9z" fill="#F5F9FD"/>
<path transform="translate(799,477)" d="m0 0h18l-2 14-1-3h-15l-2-10z" fill="#E9F0FE"/>
<path transform="translate(1499,895)" d="m0 0h8v23l-8 1z" fill="#FDFDFD"/>
<path transform="translate(648,477)" d="m0 0h20l-3 14-1-3h-13l-1 4z" fill="#E9F0FE"/>
<path transform="translate(401,603)" d="m0 0 2 4-9 11-12 20-11 21-2 5-2-2 5-13 6-10 4-9 4-8h2l1-4 10-11h2z" fill="#426DA7"/>
<path transform="translate(1703,500)" d="m0 0h7l1 1v39l-3 9h-1l1-10 1-8v-29h-5l-1 26-3 20-1 5h-1v-10l1-1 1-31 2-10z" fill="#E9F0FD"/>
<path transform="translate(1089,320)" d="m0 0h9l1 2-9 1-3 1-2 6v6l21 12 19 9-4 2-22-11-15-9-3-5 2-8 4-5z" fill="#4475D9"/>
<path transform="translate(495,701)" d="m0 0h4l-1 3-16 5-5 1h-26l-13-5-1-3 5 1 7 3 7 1h15l13-2z" fill="#134A71"/>
<path transform="translate(1536,592)" d="m0 0h1l1 10 4-1 6-3-2 6-7 15-3 9-2-2-2 3h-2l-1-4 6-1z" fill="#FDF7F4"/>
<path transform="translate(455,561)" d="m0 0h1l1 10 3 2v2l3 1v2l4 2 1 3-4 7-4-2-4-6-1-5-4-1 3-6z" fill="#C5D9FE"/>
<path transform="translate(1503,793)" d="m0 0h4v23l-8 1v-14z" fill="#FDFDFD"/>
<path transform="translate(1182,324)" d="m0 0h3l-1 3-14 4-6 1h-25l-18-3-7-2 1-2 12 2 11 2h24l18-4z" fill="#5685E3"/>
<path transform="translate(1179,613)" d="m0 0h14v11h-14z" fill="#EDF3FE"/>
<path transform="translate(1386,1052)" d="m0 0h1l1 34h-10z" fill="#F7F9FD"/>
<path transform="translate(1763,928)" d="m0 0h16l13 1-3 11h-4l-1-5-5-2h-6l-2 1-7-2-1 4z" fill="#FDFDFD"/>
<path transform="translate(1717,920)" d="m0 0h2v23h-6l-3-8 1-6z" fill="#51ACF8"/>
<path transform="translate(628,710)" d="m0 0h7l-2 2-22 6-26 4h-10l-2-2 30-4z" fill="#1F5C9D"/>
<path transform="translate(482,577)" d="m0 0 8 1 17 6 14 9 8 8 5 8-1 3-7-9-6-7-11-7-13-6-14-4z" fill="#205087"/>
<path transform="translate(1335,543)" d="m0 0h7l3 8-1 5h-11l-2-2 1-5 2-5z" fill="#EDF3FD"/>
<path transform="translate(572,686)" d="m0 0h64l6 1v1l-12 1h-56l-2-1z" fill="#19548E"/>
<path transform="translate(1179,580)" d="m0 0h14v10h-14z" fill="#EDF3FE"/>
<path transform="translate(512,710)" d="m0 0 8 5 9 2 6 3-5 6-3 2h-3l-9-13-3-3z" fill="#FDB94D"/>
<path transform="translate(1501,435)" d="m0 0 4 4 3 8 4 10 4 12v6l-3-1-3-8-2-10-7-14z" fill="#FDB285"/>
<path transform="translate(1070,793)" d="m0 0h22v11l-18-8-4-2z" fill="#F7F9FD"/>
<path transform="translate(476,574)" d="m0 0 7 2-1 3 3 1-3 1-4 6-4 3-5-8z" fill="#C8DBFE"/>
<path transform="translate(1598,529)" d="m0 0 10 3 5 1-4 2-6 4-5 5-6 2 3-9 3-4z" fill="#61B2F9"/>
<path transform="translate(1118,866)" d="m0 0h6l6 3 7 1-5 5h-9l-6-4z" fill="#FDA086"/>
<path transform="translate(493,374)" d="m0 0 2 3 3 6-1 7-6 15-4 12h-1v-9l3-8 3-7 2-9z" fill="#FDFDFD"/>
<path transform="translate(1334,459)" d="m0 0 9 3 16 5v1h-14l-2 2h-6l-2-1v-3h2l-4-4z" fill="#FDFDFD"/>
<path transform="translate(1307,449)" d="m0 0h1v7l-2 6h-16l3-3 12-8z" fill="#C7DAFF"/>
<path transform="translate(613,759)" d="m0 0 7 6 5 5-22-3h-16v-1l5-1 21-1z" fill="#FDFDFD"/>
<path transform="translate(1520,717)" d="m0 0h1l1 5v9l-2 8-5 2-3-8-2-6 2 1h6l1-2z" fill="#FE9C54"/>
<path transform="translate(1314,441)" d="m0 0v3l-2 4-1 13 8 1v1h-34l4-3 2 1h15l1-5v-8z" fill="#6E98E8"/>
<path transform="translate(1642,454)" d="m0 0 1 3v17l-14 4-10 4-2-1 6-15h1l-1 7-2 4 16-4 2-1 2-17z" fill="#ECF2FD"/>
<path transform="translate(1848,929)" d="m0 0h31l-2 2-4 2-10 2-15-5z" fill="#FDFDFD"/>
<path transform="translate(500,578)" d="m0 0 4 2 9 5 10 5 5 2-1 7-7-6-13-8-6-3z" fill="#F7F9FA"/>
<path transform="translate(1770,839)" d="m0 0h2v15h-10l2-5z" fill="#2562C1"/>
<path transform="translate(487,554)" d="m0 0 1 3h6l6 20 1 5-4-1-6-20v-3l-6 2z" fill="#FDBB4D"/>
<path transform="translate(544,246)" d="m0 0 2 1-12 11-22 22v-3l10-11 8-8h2l1-3 8-8z" fill="#FDEED4"/>
<path transform="translate(1500,884)" d="m0 0h7v11h-8v-10z" fill="#EDF3FE"/>
<path transform="translate(1500,816)" d="m0 0h7v11h-8v-10z" fill="#EDF3FE"/>
<path transform="translate(1470,489)" d="m0 0 9 2 7 4 10 1v1h-16l-10-2-1-4z" fill="#FD9860"/>
<path transform="translate(1500,918)" d="m0 0h7v11h-7l-1-1v-9z" fill="#EDF3FE"/>
<path transform="translate(361,680)" d="m0 0h1v8l-1 11 1 6-3 9h-1l-1-8v-9z" fill="#779DDC"/>
<path transform="translate(1613,540)" d="m0 0 5 5h13l1 2-4 4-9-1-8-5z" fill="#FDA086"/>
<path transform="translate(1499,952)" d="m0 0h8v11h-6l-2-1z" fill="#EDF3FE"/>
<path transform="translate(1289,281)" d="m0 0 5 1 12 7 7 6v2h2v2h2l3 4-1 2-13-13-16-8z" fill="#6292E7"/>
<path transform="translate(1499,851)" d="m0 0h8v10h-8z" fill="#EDF3FE"/>
<path transform="translate(401,603)" d="m0 0 2 4-9 11-6 10-3-1 1-5h2l1-4 10-11h2z" fill="#537CAB"/>
<path transform="translate(1205,302)" d="m0 0 2 4-3 7-4 2v3l-14 8-2-3 10-6 7-6 1-4h2z" fill="#7AA1EB"/>
<path transform="translate(557,629)" d="m0 0h1l2 11v7h-2v-2l-6 2-2-8 5 1 1-9z" fill="#F4F7FD"/>
<path transform="translate(1794,798)" d="m0 0 1 4-3 4-2 5-3 4-3 10-1 2-5 3-2 1 2-5 14-24z" fill="#DDECFD"/>
<path transform="translate(495,701)" d="m0 0h4l-1 3-16 5-10 1-1-3 13-2z" fill="#185089"/>
<path transform="translate(1613,533)" d="m0 0 4 1-5 9-10-2 2-4 5-3zm-7 5-1 2 5-1z" fill="#F5F8FD"/>
<path transform="translate(478,466)" d="m0 0 2 1v36l-3-3v-30z" fill="#FDFDFD"/>
<path transform="translate(1202,312)" d="m0 0 1 4-4 18-1 8-2-3v-8l3-13v-3z" fill="#4675DA"/>
<path transform="translate(488,325)" d="m0 0h1l-1 19 1 17-3-4v-27z" fill="#FDFDFD"/>
<path transform="translate(1761,378)" d="m0 0h13l4 2-2 1-4-1h-9l-10 4-14 14 1-4 1-2h2l2-4 3-1v-2l10-6z" fill="#E9F0FD"/>
<path transform="translate(628,710)" d="m0 0h7l-2 2-22 6h-6l3-3z" fill="#1C5695"/>
<path transform="translate(1523,725)" d="m0 0 6 1-2 5-7 12-1-4 3-13z" fill="#FDFDFD"/>
<path transform="translate(1653,509)" d="m0 0h5l1 1v12l-5 2-2-3-5-1-1-4 1 2 6-1 2 3h2v-9l-4 1-3 3h-2l1-3z" fill="#FDCB7E"/>
<path transform="translate(922,562)" d="m0 0h1v17h-5l1-10 1-6z" fill="#F6F8FD"/>
<path transform="translate(357,717)" d="m0 0h1l1 14v8l-1 7h-1v-10l-4 1 2-4 1-15z" fill="#8CAFEC"/>
<path transform="translate(1525,718)" d="m0 0 6 1 2 1-2 5-1 1h-6l-1-5z" fill="#EEF3FD"/>
<path transform="translate(1182,324)" d="m0 0h3l-1 3-14 4-11 1 3-1v-2l18-4z" fill="#6092E8"/>
<path transform="translate(560,645)" d="m0 0h1l2 10-1 4v-2h-6l-3-9 2 1v2l3-1z" fill="#E2ECFE"/>
<path transform="translate(1192,373)" d="m0 0 4 1v23h-1v-20h-7v-2h-12v-1z" fill="#DBE7FE"/>
<path transform="translate(1124,834)" d="m0 0h6l3 2-1 3-2 1h-6l-3-2 1-3z" fill="#FDA086"/>
<path transform="translate(391,357)" d="m0 0h8l13 4 5 2-3 1-21-6v9l-2-2-1-6z" fill="#FDFDFD"/>
<path transform="translate(1532,561)" d="m0 0h2l1 6v11l-2 2-1-2-1-16z" fill="#FDB180"/>
<path transform="translate(1642,544)" d="m0 0 6 1-4 2-13 1 1 4 5 5-1 2-8-8 2-4 5-2z" fill="#FE8338"/>
<path transform="translate(1501,435)" d="m0 0 4 4 3 8v4h-3l-4-9z" fill="#FDA367"/>
<path transform="translate(501,429)" d="m0 0 2 1-15 15-4 5v-8l7-3z" fill="#FDF0DA"/>
<path transform="translate(1154,831)" d="m0 0h1v41h-1l-1-36-2 3 1-6z" fill="#C7DAFE"/>
<path transform="translate(518,666)" d="m0 0 3 4 8 17-1 2-3-3-3-6-4-9z" fill="#4B7FD6"/>
<path transform="translate(1733,695)" d="m0 0h16l1 3-4-1h-11l-1 1 5 2 1 2-10-2v-4z" fill="#6685C7"/>
<path transform="translate(1623,466)" d="m0 0h1l-1 7-2 4 10-1-4 3-10 3z" fill="#F9FAFD"/>
<path transform="translate(1153,835)" d="m0 0h1v15h-4v-8z" fill="#FAFBFD"/>
<path transform="translate(547,245)" d="m0 0 3 1 2 3 1 9 1 2v14h-1l-3-19z" fill="#FDFDFD"/>
<path transform="translate(1819,499)" d="m0 0 2 3 1 9-2 9-3 4 1-5z" fill="#ECF2FD"/>
<path transform="translate(1510,727)" d="m0 0 8 2-2 10-2 1-3-10z" fill="#FDFAFA"/>
<path transform="translate(455,561)" d="m0 0h1l1 10 3 2-1 3-8 1 3-7z" fill="#F5F8FD"/>
<path transform="translate(1645,541)" d="m0 0 9 2v1l-23 2 2-4h11z" fill="#FDFDFD"/>
<path transform="translate(1529,276)" d="m0 0 2 1-18 18-2-1 4-5 5-5 4-2v-2z" fill="#FDB37D"/>
<path transform="translate(545,632)" d="m0 0 5 4 3 13-2 1-6-15z" fill="#4A7FD6"/>
<path transform="translate(1481,386)" d="m0 0h1l2 14-8-10v-2z" fill="#FDFDFD"/>
<path transform="translate(482,577)" d="m0 0 8 1 9 3 1 2-8-1-10-3z" fill="#1B5281"/>
<path transform="translate(1189,511)" d="m0 0 4 1v10l-4 1z" fill="#EDF3FE"/>
<path transform="translate(1189,477)" d="m0 0 4 1v10l-4 1z" fill="#EDF3FE"/>
<path transform="translate(923,550)" d="m0 0h1v28h-1l-1-15h-1l1-9z" fill="#E8F0FE"/>
<path transform="translate(1531,569)" d="m0 0h1l1 9h2l2 9-1 5h-1v-6h-2l-2-7z" fill="#FDC7AB"/>
<path transform="translate(1710,523)" d="m0 0h1v17l-3 9h-1l1-10z" fill="#EEF3FD"/>
<path transform="translate(580,719)" d="m0 0h13l-4 2-4 1h-10l-2-2z" fill="#1A548F"/>
<path transform="translate(1568,575)" d="m0 0 2 1-14 14h-2v2l-2-1 6-7h2l1-3h2v-2z" fill="#FDAE80"/>
<path transform="translate(908,623)" d="m0 0 1 4-1 1-2 10-1 2-1 11h-1v-13l2-5 1-7z" fill="#76A3ED"/>
<path transform="translate(654,511)" d="m0 0h5l-1 8-2 4-2-8z" fill="#DEE9FE"/>
<path transform="translate(478,424)" d="m0 0 5 5 1 8-3 1z" fill="#FDF6E9"/>
<path transform="translate(431,665)" d="m0 0 2 3 2 13v8l-3-6z" fill="#4A7BDB"/>
<path transform="translate(1733,897)" d="m0 0 2 2 27 1v1h-30z" fill="#CDDEFE"/>
<path transform="translate(807,511)" d="m0 0h4l-2 12-2-3-1-8z" fill="#DFE9FE"/>
<path transform="translate(1110,351)" d="m0 0 6 2 9 4-4 2-12-6z" fill="#427BDB"/>
<path transform="translate(1784,819)" d="m0 0 1 4-2 4-5 3-2 1 2-5 3-5z" fill="#E4EEFD"/>
<path transform="translate(495,701)" d="m0 0h4l-1 3-9 3-2-1-1-2z" fill="#1A5793"/>
<path transform="translate(1655,552)" d="m0 0h2l1 6-1 2h-3v-3l-4-1h2l1-3z" fill="#FDB459"/>
<path transform="translate(1199,438)" d="m0 0h1l1 20-2 1-1-4v-9z" fill="#4580DE"/>
<path transform="translate(1096,344)" d="m0 0 5 1 9 5v2l-5-1-9-5z" fill="#3D74D5"/>
<path transform="translate(373,648)" d="m0 0 2 3-6 13-2-2 5-13z" fill="#5585D6"/>
<path transform="translate(500,578)" d="m0 0 4 2 10 6v2l-5-2-8-4z" fill="#ECF4FD"/>
<path transform="translate(1473,385)" d="m0 0 3 2 4 8 1 5-3-2-5-9-1-2z" fill="#FDAE7D"/>
<path transform="translate(1190,371)" d="m0 0h5v3h-19v-1z" fill="#3773D2"/>
<path transform="translate(1165,371)" d="m0 0 19 1v1l-15 1-6-1z" fill="#4686E1"/>
<path transform="translate(1197,325)" d="m0 0 3 1-2 16-2-3v-8z" fill="#487EDF"/>
<path transform="translate(1306,291)" d="m0 0 4 1 3 3v2h2v2h2l3 4-1 2-13-13z" fill="#73AAF2"/>
<path transform="translate(1329,864)" d="m0 0 1 2-3 10-2-4-1-7z" fill="#EAF1FD"/>
<path transform="translate(1651,533)" d="m0 0 2 1-7 6-2 3-5-1v-2l9-4z" fill="#FDBF52"/>
<path transform="translate(1100,322)" d="m0 0h7l6 2 1 2-10-1-4-2z" fill="#5788DD"/>
<path transform="translate(1150,850)" d="m0 0h4v10l-2 1-2-6z" fill="#E5EFFD"/>
<path transform="translate(490,523)" d="m0 0 4 4 1 6-2 7h-1l-1-14z" fill="#A3B7DD"/>
<path transform="translate(1750,384)" d="m0 0 2 1-13 13 1-4 1-2h2l2-4 3-1v-2z" fill="#B6DAFC"/>
<path transform="translate(1648,548)" d="m0 0h5v4h-8l-2-3z" fill="#FF7E33"/>
<path transform="translate(1150,368)" d="m0 0 10 1 5 1v2l-11-1-4-2z" fill="#3A76D4"/>
<path transform="translate(482,541)" d="m0 0 4 4v8l-2 4-1-6v-7z" fill="#FDB695"/>
<path transform="translate(1212,294)" d="m0 0 1 2-6 9-2-1 2-6z" fill="#6A8FE5"/>
<path transform="translate(563,679)" d="m0 0 4 4v2l5 1v2l-6-1-3-4z" fill="#1B5A8F"/>
<path transform="translate(526,599)" d="m0 0 5 5 3 5-1 3-7-9-1-2z" fill="#3A64B5"/>
<path transform="translate(1335,543)" d="m0 0h7l1 5-9-2-1 2 1-4z" fill="#FDFDFD"/>
<path transform="translate(1479,492)" d="m0 0 4 1 3 2 10 1v1h-14l-3-3z" fill="#E8A489"/>
<path transform="translate(1511,463)" d="m0 0 4 4 1 2v6l-3-1z" fill="#FE914B"/>
<path transform="translate(1784,430)" d="m0 0 1 2-5 12-2 2 1-5 4-10z" fill="#EBF1FD"/>
<path transform="translate(1139,364)" d="m0 0 9 2 4 2-5 1-9-3z" fill="#477EDF"/>
<path transform="translate(1086,337)" d="m0 0 11 6-1 2-5-2-6-3z" fill="#427EDC"/>
<path transform="translate(613,714)" d="m0 0h4v2l-6 2h-6l3-3z" fill="#165488"/>
<path transform="translate(437,702)" d="m0 0 5 1 5 2v3l-9-3z" fill="#15538D"/>
<path transform="translate(1850,650)" d="m0 0 1 2-8 14-1-3 5-9z" fill="#E9F3FD"/>
<path transform="translate(552,649)" d="m0 0 3 3 2 5-1 5-2-3z" fill="#3565B7"/>
<path transform="translate(1320,546)" d="m0 0h3v7l-1 3h-2z" fill="#EEF3FD"/>
<path transform="translate(1532,566)" d="m0 0 2 2 1 10-2 2-1-2-1-10z" fill="#FE8234"/>
<path transform="translate(1320,512)" d="m0 0 3 1-1 9h-2z" fill="#EDF3FD"/>
<path transform="translate(406,676)" d="m0 0h2l-3 6h-2v4l-2-1 2-6z" fill="#A2C3F3"/>
<path transform="translate(1823,818)" d="m0 0h9l-1 2h-7z" fill="#FDFDFD"/>
<path transform="translate(1838,851)" d="m0 0h6l2 2h-8z" fill="#FDFDFD"/>
<path transform="translate(388,710)" d="m0 0 1 4-3 2z" fill="#9DC1F4"/>
<path transform="translate(1455,660)" d="m0 0 4 1-3 1z" fill="#FDFDFD"/>
<path transform="translate(393,701)" d="m0 0 1 2-2-1z" fill="#4D86E5"/>
<path transform="translate(411,669)" d="m0 0" fill="#DAE6FE"/>
<path transform="translate(567,822)" d="m0 0" fill="#FEBC47"/>
<path transform="translate(558,816)" d="m0 0" fill="#FEBC47"/>
<path transform="translate(391,704)" d="m0 0" fill="#C7DAFF"/>
<path transform="translate(397,693)" d="m0 0" fill="#4B71DB"/>
<path transform="translate(363,677)" d="m0 0" fill="#52B0FA"/>
<path transform="translate(530,585)" d="m0 0" fill="#FDFDFD"/>
<path transform="translate(502,518)" d="m0 0" fill="#FDFDFD"/>
</svg>
