<?xml version="1.0" encoding="UTF-8"?>
<svg version="1.1" viewBox="0 0 2048 1365" width="3000" height="2000" xmlns="http://www.w3.org/2000/svg">
<path transform="translate(1517,142)" d="m0 0h33l28 4 17 4 20 8 19 9 14 9 13 10 12 11 13 14 10 14 9 15 7 15 5 16 2 10 1 21-2 14-5 12-7 10-8 13-2 5v13l5 9 16 16 8 7 1 3 4 2 11 11 3 7 3 1 59 1 11 4 9 7 7 11 2 5 1 16v11l-1 12-4 10-9 10-9 5-6 3 10 24 6 18 6 26 4 22 2 21v46l-3 26-6 25-6 18-8 18-6 10-8 10-10 10-7 5-12 5-8 2h-19l-21-3h-22l-24 3-17 4-24 7h-7l1 28 4 86 1 10 6 7 9 15 8 17 9 25 4 2 3-4 5-17 8-45 9-53 5-23 6-16 7-10 8-7 10-4h12l11 4 6 4 8 7 7 11 5 12v2l2-1 4-18 6-29 5-16 5-13 8-16 7-10 9-10 11-10 14-7h8l6 4 4 9 1 4v28l-3 20-6 26-8 26-9 20-5 10v7l3 1h21l16 2 12 6 7 8 5 11 1 13-2 9-7 13-11 13-15 15-11 9-14 12-14 11-16 13-10 8-8 7-6 9v7l5 4 24 7 15 5 10 7 4 6 2 7-1 12-5 17-6 12-8 10-10 9-17 11-7 6-2 3 1 8 1 4 10-1 22-5 6-1h18l9 4 4 5 2 5v20l-4 14-8 17-10 14-9 10-12 12-6 5-506 1h-470l-77-1-19 1h-17l-21-1-93 1h-274l-152-1-7-8-6-13-3-12-2-16v-19l1-4h2l-2-5-14-28-11-25-8-21v-2l5 2 20 12 10 7 22 14 16 10h2l6-22 3-9h2l4 11 5 22 2 12 4 4 2-4 4-13v-7l-9-30-11-39-12-48-9-45-4-27-2-20-1-25h3l11 14 13 16 9 12 11 14 13 16 12 16 14 17 7 9h1l-4-45-3-47-1-30v-56l2-31 4-28 3-8 3 3 17 40 20 50 7 18v2l3 1 1-6 4-112h-5v-20l4-72-9-1-10-5-10-9-7-8-1-2-4 2h-7l-25-6-18-6-17-9-10-8-10-10-7-10-7-14-5-16-3-22-1-28 2-32 4-30 7-35 7-26 10-29 10-24 10-19v-4l-11-8-5-4v-2h-2l-11-15-7-14-4-12-2-15v-13l2-14 5-15 8-14 7-9 5-6 13-10 15-8 12-4 10-2h26l16 4 17 8 12 9 14 14 2 3 5-2 17-10 22-11 24-10 33-11 24-6 21-4 35-8 23-4 30-3 16-1h32l32 3 24 4 30 8 33 11 28 12 41 20 27 14 46 23 21 9 15 6 15 4 17 3 10 1h32l27-3 24-4 31-7 37-10 32-10 28-10 21-7 24-9 23-8 38-14 45-16 25-8 38-12 26-7 28-7 23-4zm-1070 737-4 52v18l3 7 7 29 4 16 6 2-6-55-8-69zm411 41v9l4 12 2 9 5 6-2 7 4 15 3 8 4 5 4 11 9 35 2 11h3l6-15 8-9 13-8 15-5 17-3h28l17 3 16 5 16 9h4l3-25 1-11v-13l-4-4-26-15-27-13-24-9-22-6-29-5-16-1h-29l-3-1zm-310 39 1 18 6 67 2 2 4-3 17-6 25-7 8-4 2-3v-8l-4-6-9-10-13-11-14-11-16-13-7-5zm28 174-1 1-2 32 15 4 8 2 9-14 1-4-9-8-15-10-4-3z" fill="#E0E6FD"/>
<path transform="translate(1520,348)" d="m0 0h13l16 4 11 6 11 9 11 14 10 19 8 24 8 26 9 28 5 21 1 16-3 18 10 17 8 15 11 23 18 37 16 36 10 23 7 20 1 5v7l-3 11-8 16-11 12-8 4h-10l-16-8-12-9-1 33-3 11-2 3h-2l3 56 4 86 1 10 6 7 9 15 8 17 9 25 4 2 3-4 5-17 8-45 9-53 5-23 6-16 7-10 8-7 10-4h12l11 4 6 4 8 7 7 11 5 12v2l2-1 4-18 6-29 5-16 5-13 8-16 7-10 9-10 11-10 14-7h8l6 4 4 9 1 4v28l-3 20-6 26-8 26-9 20-5 10v7l3 1h21l16 2 12 6 7 8 5 11 1 13-2 9-7 13-11 13-15 15-11 9-14 12-14 11-16 13-10 8-8 7-6 9v7l5 4 24 7 15 5 10 7 4 6 2 7-1 12-5 17-6 12-8 10-10 9-17 11-7 6-2 3 1 8 1 4 10-1 22-5 6-1h18l9 4 4 5 2 5v20l-4 14-8 17-10 14-9 10-12 12-6 5-506 1h-470l-77-1-19 1h-17l-18-1-20-5-13-5-11-7-6-7-2-9 4-10-8-1-24-6-30-10-6-3-4-9v-24l5-18 9-14 7-6 8-2h26l19 2-1-1v-12l5-30 3-22 3-17h2v-11l6-32h2v-9l1-5h2v-7l4-13 3-6 5-4h5v-2l8-2h3v-2l18-5 12-3-12-5-9-6-10-10-10-15-1-6 7-10 8-17 6-20 6-27 7-16 7-9 7-7 13-7 12-3h27l13 3 14 7 10 9 7 8 7 14 4 13 2 12v24l-1 8v20l4 12 2 9 5 6-2 7 4 15 3 8 4 5 4 11 9 35 2 11 3-4 4-11 9-10 13-8 15-5 17-3h28l17 3 16 5 16 9 3 1 3-25 2-28 2-15 2-24 2-16 4-43 4-40 2-22h-10l1-13 4-30 1-3-5 2-8 1-6-5-13-18-11-16-29-43-17-26-6-9 1-4 14-12 14-11 6-5 4 1 11 16 9 13 7 10h1l10-46 8-34 7-24 5-12 8-6 19-9 27-10 11-4 3 1 7 11 9 10v2h2l5 6 5-1 8-7 6-7 9-15 11 3 36 12 20 8 12 6 6 12 6 21 7 35 8 56 7 64 4 43v5l-10 4-25 8-1 20-5 1 4 31 2 13 2 21 1 4 3 29 3 28 3 22 4 36 4-12 6-21 17-52 14-38 14-36 16-38 10-23 3-6 2 4 4 21 3 30 1 23v52l-1 32-4 61-2 28-1 2-2 14 3-2 1-3h2l2-5 4-5h2l2-5h2l1-4 3-1 1-4h2l1-4 3-1 1-4h2l2-5 3-3 1-2h2l2-5 7-8 14-18 13-16 2-4 17-145-1-5-3-5-2-8-1-9v-18l1-8-15 11-12 6-3 1h-9l-10-5-8-9-8-14-4-13v-11l5-16 12-29 22-48 16-33 11-22 1-18 4-15 8-22 3-12 1-7v-22l-3-22v-27l4-20 8-16 6-8 7-7 14-8 14-5z" fill="#B7C9EF"/>
<path transform="translate(1119,515)" d="m0 0 3 1 7 11 9 10v2h2l5 6 5-1 8-7 6-7 9-15 11 3 36 12 20 8 12 6 6 12 6 21 7 35 8 56 7 64 4 43v5l-10 4-25 8-1 20-5 1 4 31 2 13 2 21 1 4 3 29 3 28 3 22 4 36v14h2l3 29 2 15 2 26 2 10 1 12 2 11 3 36 4 24 5 45 1 5-2 2-20 2-13 2-17 2-16 2h-13v2l-4-1-15 2-1 1-11 1-1-1-1-21-1-1-2-34-2-14-3-44-2-21-2-26-2-22-2-28-1-6-2-30-2-21-2-31-2-21-2-27-1 5-3 43-2 29-1 3-1 27-1 7-2 32h-2v23l-2 32-2 22-2 29-2 26-4 54-1 11h-12v-2h-16l-30-3-12-2 1 1v6l9 6 10 5h10l9-3h7l7 6 6 15 2 9v9l-3 5-4 1h-274l-77-1-19 1h-17l-18-1-20-5-13-5-11-7-6-7-2-9 4-10-8-1-24-6-30-10-6-3-4-9v-24l5-18 9-14 7-6 8-2h26l19 2-1-1v-12l5-30 3-22 3-17h2v-11l6-32h2v-9l1-5h2v-7l4-13 3-6 5-4h5v-2l8-2h3v-2l18-5 12-3-12-5-9-6-10-10-10-15-1-6 7-10 8-17 6-20 6-27 7-16 7-9 7-7 13-7 12-3h27l13 3 14 7 10 9 7 8 7 14 4 13 2 12v24l-1 8v20l4 12 2 9 5 6-2 7 4 15 3 8 4 5 4 11 9 35 2 11 3-4 4-11 9-10 13-8 15-5 17-3h28l17 3 16 5 16 9 3 1 3-25 2-28 2-15 2-24 2-16 4-43 4-40 2-22h-10l1-13 4-30 1-3-5 2-8 1-6-5-13-18-11-16-29-43-17-26-6-9 1-4 14-12 14-11 6-5 4 1 11 16 9 13 7 10h1l10-46 8-34 7-24 5-12 8-6 19-9 27-10z" fill="#FDCC22"/>
<path transform="translate(1520,348)" d="m0 0h13l16 4 11 6 11 9 11 14 10 19 8 24 8 26 9 28 5 21 1 16-3 18 10 17 8 15 11 23 18 37 16 36 10 23 7 20 1 5v7l-3 11-8 16-11 12-8 4h-10l-16-8-12-9-1 33-3 11-2 3h-2l3 56 4 86 9 186 1 24 3 66-27 3-64 6h-7l-1-1-11-146-3-44-8-107v-14h-2v10l-14 127-6 57-12 110-1 7-5 1-79-13-2-1v-9l12-101 6-52 11-93 18-153-1-5-3-5-2-8-1-9v-18l1-8-15 11-12 6-3 1h-9l-10-5-8-9-8-14-4-13v-11l5-16 12-29 22-48 16-33 11-22 1-18 4-15 8-22 3-12 1-7v-22l-3-22v-27l4-20 8-16 6-8 7-7 14-8 14-5z" fill="#01AD94"/>
<path transform="translate(441,351)" d="m0 0h10l13 3 3 2v3l15 2 10 4 8 7 4 11 1 9v21l-1 18 6 6v12l-4 10-9 10-10 4h-2l-1 5-6 9-5 5-1 10-3 1-1 5 9 2 30 11 23 10 8 5 6 29 9 53 6 40 5 30 4 26 5 35 2 15v5l-6 2-29 6 1 11 1 15h-8l2 16 8 87 9 105 7 78 8 93v10l-13 3-64 13h-5l-11-94-9-78-8-72-9-76v-9h-2v11l-4 57-3 35-16 210-1 15-1 1-14-1-67-9-7-2v-15l7-204 6-174h-5v-20l4-72-9-1-10-5-10-9-7-8-5-11v-11l5-24 9-32 10-34 15-45 4-4 16-6 23-7 12-3 4-12 1-7 1-4-6-14-9-3-6-4-7-8-4-10v-12l4-5h2l-2-17v-23l3-7 5-6 6-3 16-11 17-9 12-4z" fill="#01AD95"/>
<path transform="translate(560,663)" d="m0 0 8 6 9 9 10 14 8 14 6 14 1 35 4 10 7 8 10 6 6 2 81 1 7 21 5 25 6 34-2 14-6 21-5 12-7 13-4 5 1 6 8 12 9 10 9 7 8 4 12 2v1l-12 2-21 6h-3v2l-11 2v2l-6 2-5 5-4 11-2 12h-2l-1 14h-2l-1 13-3 12-2 18h-2l-1 12-3 19-4 27-2 11v12l1 2-20-2h-26l-10 3-3 2-4-5-17-12-7-5h-2l-2 28-1 4 15 3 7 3-1 7-3 11v24l3 6v3l4 1 25 9 35 9 4 1-3 10 2 9 6 7 14 8 16 5 9 2 1 2-93 1h-274l-152-1-7-8-6-13-3-12-2-16v-19l1-4h2l-2-5-14-28-11-25-8-21v-2l5 2 20 12 10 7 22 14 16 10h2l6-22 3-9h2l4 11 5 22 2 12 4 4 2-4 4-13v-7l-9-30-11-39-12-48-9-45-4-27-2-20-1-25h3l11 14 13 16 9 12 11 14 13 16 12 16 14 17 7 9h1l-4-45-3-47-1-30v-56l2-31 4-28 3-8 3 3 17 40 20 50 7 18v2l4 2v25l-5 147-3 87v15l58 8 23 3h6l14-185 5-67 1-8 4 5 8 33 3 13v3l6 2 3 22 7 63 13 113v7l80-16h2l-8-90-4-48v-8l5-4 17-6 25-7 6-3h2l1-3v-8l-4-6-9-10-17-14-10-8-14-11-10-7-4-40-8-90-2-26h8l-3-20v-6l9-3 26-5-1-14-5-32-3-24-5-30z" fill="#B7CAF0"/>
<path transform="translate(776,811)" d="m0 0h27l13 3 14 7 10 9 7 8 7 14 4 13 2 12v24l-1 8v20l4 12 2 9 5 6-2 7 4 15 3 8 4 5 4 11 9 35 2 11 3-4 4-11 9-10 13-8 15-5 17-3h28l17 3 16 5 16 9 3 2v11l-2 17-4 39-1 21-1 1-4 42-3 31-2 17-1 17h10l21 3 11 1 3 2v6l9 6 10 5h10l9-3h7l7 6 6 15 2 9v9l-3 5-4 1h-274l-77-1-19 1h-17l-18-1-20-5-13-5-11-7-6-7-2-9 4-10-8-1-24-6-30-10-6-3-4-9v-24l5-18 9-14 7-6 8-2h26l19 2-1-1v-12l5-30 3-22 3-17h2v-11l6-32h2v-9l1-5h2v-7l4-13 3-6 5-4h5v-2l8-2h3v-2l18-5 12-3-12-5-9-6-10-10-10-15-1-6 7-10 8-17 6-20 6-27 7-16 7-9 7-7 13-7z" fill="#9EB3E6"/>
<path transform="translate(1850,738)" d="m0 0h8l6 4 4 9 1 4v28l-3 20-6 26-8 26-9 20-5 10v7l3 1h21l16 2 12 6 7 8 5 11 1 13-2 9-7 13-11 13-15 15-11 9-14 12-14 11-16 13-10 8-8 7-6 9v7l5 4 24 7 15 5 10 7 4 6 2 7-1 12-5 17-6 12-8 10-10 9-17 11-7 6-2 3 1 8 1 4 10-1 22-5 6-1h18l9 4 4 5 2 5v20l-4 14-8 17-10 14-9 10-12 12-6 5h-126l-12-18-9-16-7-17v-2l5 2 15 10 16 10 4 2-9-29v-2l-45 1h-34l-1 19-5-2-11-4h-17l-11 4h-2l-2-16-5 5-5 7h-2l-1 4-4 6h-2l-2 5-11 15-5 7-3-1 2-5 9-11 10-14 9-12 8-11 1-9 74-7h6l-1-5-4-80-3-65-5-108v-8l5 4 11 18 8 17 9 25 4 2 3-4 5-17 8-45 9-53 5-23 6-16 7-10 8-7 10-4h12l11 4 6 4 8 7 7 11 5 12v2l2-1 4-18 6-29 5-16 5-13 8-16 7-10 9-10 11-10z" fill="#9EB3E7"/>
<path transform="translate(1524,786)" d="m0 0h27l49 3 24 1 1 2 3 53 4 86 9 186 1 24 3 66-27 3-64 6h-7l-1-1-11-146-3-44-8-107v-14h-2v10l-14 127-6 57-12 110-1 7-5 1-79-13-2-1v-9l12-101 6-52 11-93 18-153 1-4 61-3z" fill="#005383"/>
<path transform="translate(348,803)" d="m0 0h186l2 16 8 87 9 105 7 78 8 93v10l-13 3-64 13h-5l-11-94-9-78-8-72-9-76v-9h-2v11l-4 57-3 35-16 210-1 15-1 1-14-1-67-9-7-2v-15l7-204 5-147 1-25z" fill="#005383"/>
<path transform="translate(1119,515)" d="m0 0 3 1 7 11 9 10v2h2l5 6 5-1 8-7 6-7 9-15 11 3 36 12 20 8 12 6 6 12 6 21 7 35 8 56 7 64 4 43v5l-10 4-25 8-1 20h-208l1-13 4-30 1-3-5 2-8 1-6-5-13-18-11-16-29-43-17-26-6-9 1-4 14-12 14-11 6-5 4 1 11 16 9 13 7 10h1l10-46 8-34 7-24 5-12 8-6 19-9 27-10z" fill="#005383"/>
<path transform="translate(560,663)" d="m0 0 8 6 9 9 10 14 8 14 6 14 1 35 4 10 7 8 10 6 6 2 81 1 7 21 5 25 6 34-2 14-6 21-5 12-7 13-4 5 1 6 8 12 9 10 9 7 8 4 12 2v1l-12 2-21 6h-3v2l-11 2v2l-6 2-5 5-4 11-2 12h-2l-1 14h-2l-1 13-3 12-2 18h-2l-1 12-3 19-4 27-2 11v12l1 2-20-2h-26l-10 3-3 2-4-5-17-12-7-5h-2l-2 28-1 4 15 3 7 3-1 7-3 11v24l3 6v3l4 1 25 9 35 9 4 1-3 10 2 9 6 7 14 8 16 5 9 2 1 2-93 1h-116l-4-4v-12l4-15 5-9 7-6-2-11-2-15-1-3v-7l6-2 55-11h2l-8-90-4-48v-8l5-4 17-6 25-7 6-3h2l1-3v-8l-4-6-9-10-17-14-10-8-14-11-10-7-4-40-8-90-2-26h8l-3-20v-6l9-3 26-5-1-14-5-32-3-24-5-30z" fill="#9EB3E6"/>
<path transform="translate(708,1068)" d="m0 0h183l5 3 1 2v85l31-6 20-2h25l10 3 6 5 8 14 5 18 1 16-2 12-3 5-16 7-28 8-27 7v3l1 2v9l-6 9-10 7-12 5-15 4-11 2-15 1-95-1-19 1h-17l-18-1-20-5-13-5-11-7-6-7-2-9 4-10-8-1-24-6-30-10-6-3-4-9v-24l5-18 9-14 7-6 8-2h26l24 3 33 7v-85l4-6z" fill="#01AD95"/>
<path transform="translate(776,811)" d="m0 0h27l13 3 14 7 10 9 7 8 7 14 4 13 2 12v24l-1 8v20l4 12 2 9 5 6-2 6-13 13-4 2-18-5-12-24v-5l8-11 8-2 9-6 6-9 2-7v-6l-3-5-2-1h-10l-3 15-5 18h-2v-15l1-30v-7l-17 4-4 1h-10v-2l-4 1h-21l-4-2v-2l-9 4h-7l-2 3-6 34-2 1-1-9-1-25-4-2h-7l-5 5-1 10 4 12 9 10 8 3 5 13 7 9 10 8-2 10-2 4-3 11v11l4 6 6 3 7 2h15l9-3h6l3 2v2l3 1 5 13 7 20 5 18 4 14-1 1-126 1-4 4-1 2-1 85-10-1-27-6-2-2v-12l5-30 3-22 3-17h2v-11l6-32h2v-9l1-5h2v-7l4-13 3-6 5-4h5v-2l8-2h3v-2l18-5 12-3-12-5-9-6-10-10-10-15-1-6 7-10 8-17 6-20 6-27 7-16 7-9 7-7 13-7z" fill="#FDCB22"/>
<path transform="translate(1328,220)" d="m0 0h16l10 1 9 3 13 5 14 9 8 6 4 5v2l3 1 7 10 8 15 4 14 1 9v20l-3 15-3 9-4 8-6 10-7 9-8 7-5 4h-2v2l-11 6-5 3-10 3-13 3-26 1-7 4h-4v2l-16 8-1 1h-5v2l-14 7h-3l1-5 4-6 2-5 7-12 1-3h2v-8l-4-1-7-5v-2l-4-2-5-5-8-10-6-11-5-11-3-11-1-8v-17l3-18 5-13 7-12 9-11 8-8 11-8 18-8 13-3z" fill="#FBDA90"/>
<path transform="translate(280,195)" d="m0 0h26l16 4 17 8 12 9 14 14 9 15 3 6 4 16 1 6v22l-3 15-5 13-10 16-11 12-14 10 2 10h2l6 11 7 13v3l-5-1-32-16-13-6v-2h-28l-16-4-16-8-12-9-5-4v-2h-2l-11-15-7-14-4-12-2-15v-13l2-14 5-15 8-14 7-9 5-6 13-10 15-8 12-4z" fill="#FBDA90"/>
<path transform="translate(693,193)" d="m0 0h32l18 4 16 8 10 7 7 6 8 11 7 14 4 14 1 17-2 18-5 17-9 21-10 17-10 16-5 13-1 6v13l4 17 3 10v8l-3 6-8 7-9 5-7 2h-17l-7-6-6-10-5-15-4-18v-23l4-17 6-13 7-12 12-18 8-16 3-13-1-16h-2l-2-6-3-5-2-1v-2l-5-2-6-3-4-1h-17l-16 4-14 7-9 8-5 8-8 24-5 6-8 4-4 1h-13l-12-6-7-8-3-10v-18l3-11 5-12 9-13 7-8 8-7 10-7 14-8 21-8 21-5z" fill="#FDFDFD"/>
<path transform="translate(1522,904)" d="m0 0h2l10 135 7 96 6 80h18v8l-9 12-14 19-15 20v2l2 1 2-4 11-15 5-8h2l2-5 3-5 5-5 5-7h2l2 9v7l9-4 4-1h17l11 4 5 3v-15l1-4 34-1h45l10 31-2 1-19-12-20-13 11 25 11 18 6 8v2h-215l1-4v-11l-3-12-7-14-6-3 1-7 4-23 18 3h4l18-162 6-57z" fill="#9EB3E7"/>
<path transform="translate(708,1068)" d="m0 0h183l5 3 1 2v86l-28 8-26 9-45 18-7-1-29-12-32-12-27-8-1-1v-85l4-6z" fill="#005282"/>
<path transform="translate(1716,1121)" d="m0 0 2 1 10 24 11 30 7 25 1 6 6-37 4-16 4-9 2 2 7 24 4 17 2 11 11-24 2-4h2v3l2 1 1 8 1 4 10-1 22-5 6-1h18l9 4 4 5 2 5v20l-4 14-8 17-10 14-9 10-12 12-6 5h-126l-12-18-9-16-7-17v-2l5 2 15 10 16 10 4 2-9-29v-2l-45 1h-34l-1 19-5-2-11-4h-17l-11 4h-2l-2-16-5 5-5 7h-2l-1 4-4 6h-2l-2 5-11 15-5 7-3-1 2-5 9-11 10-14 9-12 8-11 1-9 41-4h6l2 1 1 12h38l37-1 2-1-5-22-3-19-1-14 3 1 11 14 12 15 6 8-2-30v-38l2-14z" fill="#CFDEF4"/>
<path transform="translate(441,351)" d="m0 0h10l13 3 3 2v3l15 2 10 4 8 7 4 11 1 9v21l-1 18 6 6v12l-4 10-9 10-10 4h-2l-1 5-6 9-5 5-1 10-3 1-2 10-6 11-8 9-6 3-10-1-5-4h-2l-7 18-3 7-14-1-21-2 1-6 9-25 5-13 3-10 1-7 1-4-6-14-9-3-6-4-7-8-4-10v-12l4-5h2l-2-17v-23l3-7 5-6 6-3 16-11 17-9 12-4z" fill="#F7BEB7"/>
<path transform="translate(442,947)" d="m0 0 4 5 8 33 3 13v3l6 2 3 22 7 63 13 113v7l15-3h4l5 30 1 7-5 3-4 5-4 9-3 12v12l1 3h-70l-4-15-4-10-3-7-3-13-2-7-5-1 2-27 15 1 14-185 5-67z" fill="#B6C9EF"/>
<path transform="translate(828,876)" d="m0 0 3 1v15l-2 37h2l2-10 5-21 3-3h8l5 5 1 2-1 10-4 8-5 6-10 6-7 2-6 9v5l8 16 3 7 19 5 10-9 4-4h2l4 15 3 8 4 5 4 11 9 35 2 11 2 6 1 6v10h2l2 12v10h2v15l-3 7-3 1-1-42-3-3-2-1-57-1-3-13-5-15-5-17-7-19-3-3v-2l-9-1-9 3h-15l-11-4-5-4-2-4v-11l3-11 4-11-1-4-8-6-6-7-5-10-1-6-6-1-8-7-5-7-3-10 1-10 4-5 2-1h7l5 3 1 25 1 8 6-34 3-4h7l9-3 1 2 3 1h25v2l14-2z" fill="#F7BEB7"/>
<path transform="translate(267,1121)" d="m0 0h2l2 12 1 24-2 37v9l8-10 11-14 10-13h2v9l-3 21-7 30-8 27-1 4 13-8 22-14 4-2-1 6-7 15-9 17-8 11-3 4h-105l-7-8-6-13-3-12-2-16v-19l1-4h2l-2-5-14-28-11-25-8-21v-2l5 2 20 12 10 7 22 14 16 10h2l6-22 3-9h2l4 11 5 22 2 12 4 4 2-4 4-13 2-8 8-22 5-11z" fill="#D0DEF5"/>
<path transform="translate(1520,348)" d="m0 0h13l16 4 11 6 11 9 11 14 10 19 8 24 8 26 9 28 5 21 1 16-2 12-2 5-5-2-16-6-36-9-2-7v-5l8-7 7-10 5-15 8-3 8-9 4-11v-13l-4-6-1-1h-9l-5 2 1 17v17l-2 2-5-21-2-12-7-1-9-5h-7l-15-5-12-5h-2l-5 8-3 2h-8l-4-2-7 14-4 3-4 1-1 7 4 24v6l-3-3-10-28-6-1-6 3-1 2v11l5 10 7 7 10 5 7 1 8 11 13 9 2 1-1 7-26 6-17 5-14 7-3 3-1 3h-2l-3 9h-2l-2 7-2 1v-15l4-15 8-22 3-12 1-7v-22l-3-22v-27l4-20 8-16 6-8 7-7 14-8 14-5z" fill="#2E123E"/>
<path transform="translate(631,688)" d="m0 0h112l13 5 9 7 6 10 2 6v37l-4 11-6 8-3 17-2 8h-3v-2l-5-2-7-5v-2l-5-2-2-1-107-1-10-4-8-6-6-7-4-10v-39l5-12 4-5h2v-2l11-7z" fill="#FAD990"/>
<path transform="translate(1693,426)" d="m0 0h113l11 4 9 7 7 11 2 5 1 16v11l-1 12-4 10-9 10-9 5-6 3-108 1-4 3h-2v2l-12 8-3 1-5-26-7-10-3-7v-34l2-10 4-7h2l1-4 8-6h2v-2z" fill="#FBDA90"/>
<path transform="translate(1156,890)" d="m0 0 2 1 3 42 2 20 2 30 2 21 1 17 2 17 2 32 2 19 2 29 2 18 2 32 2 14 2 34 1 1 1 21 20-2h7l1 6-7 6-5 12-3 12v10l2 4h-82l2-5v-9l-4-15-5-10-5-4h-7l-9 3h-10l-12-6-8-5v-7l-2-2 11 1 13 2 23 2 13 1v2h12v-11l4-54 2-26 2-29 3-37 2-40h2v-14l1-18 1-7 1-27 1-3 2-29 3-43z" fill="#B7CAEF"/>
<path transform="translate(573,1071)" d="m0 0 2 4 1 15 1 43-1 1-2 28-1 4 15 3 7 3-1 7-3 11v24l3 6v3l4 1 25 9 35 9 4 1-3 10 2 9 6 7 14 8 16 5 9 2 1 2-93 1h-116l-4-4v-12l4-15 5-9 7-6-2-11-2-15-1-3v-7l6-2 55-11h2l-8-90v-12l10-14z" fill="#9EB3E7"/>
<path transform="translate(776,811)" d="m0 0h27l13 3 14 7 10 9 7 8 7 14 4 13 2 12v24l-1 8v20l4 12 2 9 5 6-2 6-13 13-4 2-18-5-12-24v-5l8-11 8-2 9-6 6-9 2-7v-6l-3-5-2-1h-10l-3 15-5 18h-2v-15l1-30v-7l-17 4-4 1h-10v-2l-4 1h-21l-4-2v-2l-9 4h-7l-2 3-6 34-2 1-1-9-1-25-4-2h-7l-5 5-1 10 4 12 9 10 8 3 5 13 7 9 10 8-2 10-2 3-8 2h-13l-10-4-9-6-10-10-10-15-1-6 7-10 8-17 6-20 6-27 7-16 7-9 7-7 13-7z" fill="#2E133E"/>
<path transform="translate(1129,346)" d="m0 0h7l9 3 4 2 6-4 3-1h14l8 4 4 4v2l9 2 6 4 5 6 3 8v7l6 2 6 5 4 8v10l-4 8-2 2 1 13-5 10-6 4-6 1-1 12-4 18-2 4h-2v-35l-8-7-1-2h-8l-7-3-5-4v-2l-8 6-2 1h-10l-6-4-2-4-7 3-10 1-4 6-5 4-6 6v34l-3-1-3-10-3-17v-4l-9-2-5-4-4-7v-12l-5-4-3-5-1-10 3-8 6-5 4-1-1-2v-8l4-10 8-7 4-2 10-1 6 1 2-5 9-8z" fill="#2E123E"/>
<path transform="translate(1521,416)" d="m0 0 9 3 16 6 4 1h8l10 6 5 1 3 12 4 18 1 1v-34l5-3h9l5 6 1 2v13l-4 11-9 10-4 2h-4l-1 7-4 10-7 9-6 6h-2l2 10-1 7-6 8-9 6-7 3-5-1-12-7-7-8-1-2v-8l1-3-5-2-11-8-7-9v-2h-7l-10-5-8-8-5-10v-11l5-5 7-1 3 2 10 28 1 2-1-12-3-17 1-7 8-4 5-10 2-5 5 2h8l5-5z" fill="#F7BEB7"/>
<path transform="translate(1132,426)" d="m0 0h3l4 5 4 2h10l6-4 4-2 5 5 7 3h8l7 8 3 2-1 35 2-1 4-16 3-17 9-4 3-1 3 3 1 3v12l-4 10-9 10-12 5-6 12-10 10-4 2 1 8-6 11-7 9-8 8-3 2-5-1-4-4v-2h-2l-9-11-7-10-1-6 1-4-8-6v-2h-2l-9-14v-3l-8-1-9-6-7-9-3-8v-13l3-4 15 6 5 26 2 5 2 1-1-34 5-4 5-5 4-5 2-3 13-2z" fill="#F7BEB7"/>
<path transform="translate(441,351)" d="m0 0h10l13 3 3 2v3l15 2 10 4 8 7 4 11 1 9v21l-2 18-11 3-1 1-2 26-1 5h-1l-4-42-4-1-1-1v-5l1-2-22 6-9 1-5-1-19 4-7-1-8 6-3 2h-5l-1 16-2 18-2-3-5-29-11-2-3-17v-23l3-7 5-6 6-3 16-11 17-9 12-4z" fill="#2E123E"/>
<path transform="translate(726,1222)" d="m0 0h19l3 2-10 15v11l4 8 5 5 5 4 11 5 7 2h19l13-5 4-1-1 3-6 2v2l17-1 13-4 10-6 4-3 47-9 30-7h5l3 5v9l-6 9-10 7-12 5-15 4-11 2-15 1-95-1-19 1h-17l-18-1-20-5-13-5-11-7-6-7-2-9 3-8h2l2-4 8-6 13-6 21-5 5-1z" fill="#005483"/>
<path transform="translate(807,932)" d="m0 0 5 1 5 8 4 6 5 8 7 16 19 5 10-9 4-4h2l4 15 3 8 4 5 4 11 9 35 2 11 2 6 1 6v10h2l2 12v10h2v15l-3 7-3 1-1-42-3-3-2-1-57-1-3-13-5-15-5-17-7-19-3-3v-2l-9-1-5 2h-10l6-8 4-6v-9l5 1-3-3-2-1v-6l3-3 6 2v-3l-5-1 3-5 2-1h6l-6-20z" fill="#F8BFB6"/>
<path transform="translate(1516,594)" d="m0 0h44l4 4 1 18 8 6 9 11 7 8v2l4 2 7 8 3 2-1 5-9 22-2 1-13-5-10-2h-6l-2 1h-44l-2-1-13 1-16 6-3-1-9-24 1-4 4-4h2l2-4 7-7 9-11 7-8 5-3 1-17 3-5z" fill="#F6BEB8"/>
<path transform="translate(1649,1226)" d="m0 0h45l10 31-2 1-19-12-20-13 11 25 11 18 6 8v2h-144v-7l4-14 4-8 5-19 4-6h3l1 5v7l9-4 4-1h17l11 4 5 3v-15l1-4z" fill="#9EB3E7"/>
<path transform="translate(1833,1180)" d="m0 0h18l9 4 4 5 2 5v20l-4 14-8 17-10 14-9 10-12 12-6 5h-19l2-4 6-10 4-11 3-16 1-13v-10l-1-9-8 11-9 10-5 2 5-15 1-16-1-16 9-3 22-5z" fill="#9EB3E7"/>
<path transform="translate(754,479)" d="m0 0h16l8 3 9 6 8 9 4 9 1 4v16l-4 10-6 8-9 8-12 4h-14l-10-3-10-7-7-9-4-9-1-6v-10l3-10 5-9 8-8 8-4z" fill="#FDFDFD"/>
<path transform="translate(555,1234)" d="m0 0h7l8 6 9 10v2l4 2v2l4 2 3 3 15 6 7 6 3 10-1 4h-116l-4-4v-12l4-15 5-9 5-5h8l8 3h11l12-6z" fill="#01AE95"/>
<path transform="translate(1548,167)" d="m0 0h13l12 3 12 5 10 8 6 7 4 7 1 5v14l-6 12-7 8-9 6-14 7-11 6-5 8-4 11-3 2h-10l-8-4-2-3v-7l3-10 6-10 4-5 11-7 14-5 8-6 3-4 1-9-4-7-10-5-5-1h-7l-6 3-7 5h-9l-7-6-1-9 3-6 5-6 10-5z" fill="#FDFDFD"/>
<path transform="translate(1410,1234)" d="m0 0h7l18 10 2 1h10l9-3h8l5 5 6 12 3 12v11l-2 4h-118v-7l4-8 9-6 9-3 10-8 12-14z" fill="#005383"/>
<path transform="translate(1259,1234)" d="m0 0h7l8 6 10 11 5 6 9 6 11 4 5 4 4 8v8l-117-1-3-4v-10l4-15 5-10 6-5h7l9 3h10l12-6z" fill="#2E133F"/>
<path transform="translate(1054,1234)" d="m0 0h7l17 10 3 1h10l9-3h7l7 6 6 15 2 9v9l-3 5-4 1h-111l-2-1v-7l4-8 5-4 13-5 10-8 9-11 9-8z" fill="#2E133E"/>
<path transform="translate(355,1233)" d="m0 0 3 1 1 11 12-5 5-1h14l12 4 2 1v-7l1-4 5 1 5 14 2 9 5 10 4 17-1 3h-85l2-14 3-12 3-16 4-9z" fill="#01AE95"/>
<path transform="translate(1564,1232)" d="m0 0h3l1 5v7l9-4 4-1h17l11 4 5 3v-12l4-1 6 12 5 25 3 12v4h-85v-7l4-14 4-8 5-19z" fill="#005483"/>
<path transform="translate(1565,617)" d="m0 0 8 5 9 11 7 8v2l4 2 7 8 3 2-1 5-9 22-2 1-13-5-24-5-12-5-4-2h-5l-5-2-3-1 2-2-3-4-1-4 2-4v-5h-6v-1h6l-5-7v-4h2l-2-6v-4l7 1 7 4h7l9-5 5-1 1 5-2 6 10 1v-15z" fill="#F7BEB6"/>
<path transform="translate(866,963)" d="m0 0h2l4 15 3 8 4 5 4 11 9 35 2 11 2 6 1 6v10h2l2 12v10h2v15l-3 7-3 1-1-42-3-3-2-1-10-1-2-1-3-8v-3h-2l-6-11-11-18-10-16-5-9-3-8-4-14-2-5v-3l8 1 11 3 10-9z" fill="#FDCC23"/>
<path transform="translate(858,669)" d="m0 0h14l13 4 9 6 6 7 3 7v9l-4 10-7 8-10 7-9 5-4 5-4 11-2 2h-10l-5-5v-8l5-12 4-5 20-12 4-6v-6l-5-5-4-2h-12l-10 7-6-1-5-5v-7l3-6 10-6z" fill="#FDFDFD"/>
<path transform="translate(293,229)" d="m0 0h9l12 3 7 4 5 5 4 6 1 4v9l-4 11-9 10-9 8-3 6-2 13-4 3h-9l-5-5v-11l3-10 6-8 10-8 4-5 1-2v-7l-4-4v-2h-16l-5 3-7 8h-6l-5-4-1-2v-8l6-8 8-6z" fill="#FDFDFD"/>
<path transform="translate(1329,258)" d="m0 0h20l10 3 8 6 4 5 3 9-1 10-6 12-8 8-8 7-3 7-1 10-4 4h-11l-3-5v-13l4-10 6-7 10-8 4-7-1-7-4-4-2-1h-13l-5 3-7 8h-6l-4-2v-2h-2v-11l6-8 7-4z" fill="#FDFDFD"/>
<path transform="translate(170,641)" d="m0 0h15l9 4 6 5 4 9v14l-3 9-7 14-1 7 2 8v6l-5 4-8 1-4-4-4-11v-9l4-11 7-14-1-9-3-3-8-1-11 4-3 4-3 9-4 3h-7l-5-4v-13l6-10 10-7 10-4z" fill="#FBDA90"/>
<path transform="translate(891,596)" d="m0 0 5 1 8 8 7 9 6 3 16 2h6l-5-4-11-8-3-4 1-4 4-1 13 5 12 6 17 4 16 3 6 3 2 3-17 14-10 8-11-2-27-6-13-4-6-5-11-15-6-12z" fill="#F7BFB8"/>
<path transform="translate(1522,904)" d="m0 0h2l10 135v21l-5-2-10-6-7-2-4-2v-16z" fill="#F6F8FB"/>
<path transform="translate(138,1133)" d="m0 0 5 2 20 12 10 7 22 14v2h-2l-1 9-3 13-1 7v18l3 13 2 6-6-4-5-5-6-10v-2h-2l-8-16-15-31-11-28z" fill="#B7CAF0"/>
<path transform="translate(755,202)" d="m0 0 6 2 13 8 10 9 7 8 8 16 3 9 2 11v19l-4 20-8 21-11 21-9 13-7 15-2 6-1 14 3 16 4 13v11l-4 7-8 6-12 5-9 2-9-1-2-2 17-4 11-7 6-7 1-3v-8l-6-21-1-6v-13l3-12 7-14 12-19 8-16 7-18 4-17 1-18-2-15-5-15-8-14-7-8-11-8-7-5z" fill="#D0DFF5"/>
<path transform="translate(1758,622)" d="m0 0h13l13 5 9 7 5 7 2 6v8l-4 9-4 5-7 5-5 1v2l-12 3-6 5-4 8-2 2-9-1-4-3v-8l5-9 5-5 6-4 15-5 5-5v-8l-6-5-6-2-8 1-4 3h-6l-5-5 1-9 7-6z" fill="#FDFDFD"/>
<path transform="translate(545,1196)" d="m0 0h5l1 5 2 14 1 20-10 7-9 4h-11l-13-4-2-5-3-22-1-3v-7l6-2z" fill="#F7BFB8"/>
<path transform="translate(360,1200)" d="m0 0 26 3 21 3v12l-2 19-1 7-10-3-4-1h-14l-10 3-7 3-1-1-1-12 2-32z" fill="#F7BEB8"/>
<path transform="translate(1516,594)" d="m0 0h44l4 4 1 20-1 15h-10l-1-2 2-5-1-4-7 3-6 3h-7l-9-5-5-1 2 6v4l-2 1h-9v-15l1-20z" fill="#FCFCFC"/>
<path transform="translate(806,930)" d="m0 0h6l5 6 4 7-1 4-5-8-4-6h-4l1 8 4 14v2l-8 2-2 3 4 2v3l-7-1-2 8 5 2v2l-5-1 1 9-9 12-1 1 5 1v1h-15l-11-4-5-4-2-4v-11l3-11 5-13 6 1 8 2h13l13-4-3-10-1-4v-7z" fill="#F19594"/>
<path transform="translate(1606,1210)" d="m0 0h6l2 1 1 20-1 15-5-2-11-4h-17l-11 4h-2l-2-16-5 5-5 7h-2l-1 4-4 6h-2l-2 5-11 15-5 7-3-1 2-5 9-11 10-14 9-12 8-11 1-9z" fill="#F6BFB8"/>
<path transform="translate(1420,1205)" d="m0 0 16 2 30 5-1 11-3 15-1 4-11 3-3 1h-10l-15-8-2-4h-2z" fill="#F7BFB8"/>
<path transform="translate(1524,786)" d="m0 0h27l49 3 6 1v1l-77 6-22 1-38 3-16 1-3 1v-9l1-4 61-3z" fill="#024366"/>
<path transform="translate(358,803)" d="m0 0h176l1 4v9l-38-2-40-3-44-3-55-4z" fill="#024365"/>
<path transform="translate(573,1071)" d="m0 0 2 4 1 15 1 43-1 1-2 28-4 27h-2l-3-29-5-58v-12l10-14z" fill="#B6C9EF"/>
<path transform="translate(1234,608)" d="m0 0 2 3 5 23 8 51 2 11 5 33 4 30 3 20v8l2 1-7 3h-4l-2-16-9-87-7-62z" fill="#034365"/>
<path transform="translate(1122,509)" d="m0 0 5 1 12 4h16l13-4h4l1 6-6 11-7 9-8 8-3 2-5-1-4-4v-2h-2l-9-11-7-10-1-6z" fill="#F19595"/>
<path transform="translate(1559,504)" d="m0 0 2 4 1 10-6 9-10 7-7 3-5-1-12-7-7-8-1-2v-8l1-2 12 2h13l13-4z" fill="#F09595"/>
<path transform="translate(1156,890)" d="m0 0 2 1 3 42 2 20 2 30 2 21v8l-2-3-15-32 1-27 3-36 1-18z" fill="#E1E8FC"/>
<path transform="translate(553,773)" d="m0 0h4l-2 19-1 1-1 9-2 3 1 7 5 11v6l-3 3h-17l-2-13-1-16h8l-3-20v-6l9-3z" fill="#F5BFB8"/>
<path transform="translate(1771,956)" d="m0 0 3 1-2 4-9 10-6 8h-2l-2 4-8 10-9 11-10 12-10 13-13 16-12 16-2 3 7-1 61-15h4v3l-22 6-31 7-18 5-7 2-12 16-10 13-6 8-2 1-1 3h-2l-2 5-6 8-2-1 2-5 12-16 7-9 12-16 10-13 11-14h2l1-4 7-9h2l2-5 12-15 11-14 11-13 8-10 11-13 9-11z" fill="#EAEFFA"/>
<path transform="translate(1524,288)" d="m0 0h7l9 5 4 8v8l-4 8-6 4-3 1h-7l-7-3-5-6-1-2v-12l4-6 6-4z" fill="#FDFDFD"/>
<path transform="translate(693,252)" d="m0 0h17l5 2v1l-16 1-16 5-12 6-9 8-7 13-5 17-6 8-8 4-5 1h-10l-6-2v-1l13-2 8-4 4-5 5-16 4-10 7-9 7-6 14-7z" fill="#D0DFF5"/>
<path transform="translate(1271,786)" d="m0 0 3 1-2 23-3 9h-2v4h-2l-2 4-3 3-9 3-2-11-1-10h6v-20l10-4z" fill="#F7BFB8"/>
<path transform="translate(463,504)" d="m0 0 5 1-1 8-6 11-8 9-6 3-10-1-6-5 1-5 7-8 10-6-10 4-7 4 1-4 12-6 13-4z" fill="#F09494"/>
<path transform="translate(379,430)" d="m0 0 1 2h7l5 2 5 29 1 9h-7l-8-6-6-7-4-10v-12l4-5h2z" fill="#F19695"/>
<path transform="translate(782,484)" d="m0 0 5 1 9 6 7 8 5 11 1 14-2 9-6 11-5 6-10 6-9 3h-13l-7-2v-1l16-2 9-4 8-7 6-8 3-9v-16l-4-11-6-8-7-6z" fill="#D0DFF5"/>
<path transform="translate(1586,427)" d="m0 0h9l5 6 1 2v13l-4 11-9 10-6 2-1-1v-40z" fill="#F19393"/>
<path transform="translate(1069,615)" d="m0 0h1l-1 14-6 36-4 26-9 55-3 18-4 4-4 1-1-3 4-18 9-44 13-65 3-16z" fill="#024365"/>
<path transform="translate(501,431)" d="m0 0 5 1 4 5v12l-4 10-9 10-6 3h-4l-1-7 2-4 2-26 5-3z" fill="#F19595"/>
<path transform="translate(1518,1122)" d="m0 0h2l-2 9-14 34-9 19-2 1v-15l3-27 3-9 13-8z" fill="#B6C9EF"/>
<path transform="translate(1470,447)" d="m0 0 6 1 4 10 7 19 4 9v1l-9-1-9-6-8-9-3-7v-11l5-5z" fill="#F19393"/>
<path transform="translate(1059,1226)" d="m0 0 11 1 13 2 23 2 13 1v1h-12l-1 9-12 3-3 1h-10l-12-6-8-5v-7z" fill="#F7BDB6"/>
<path transform="translate(731,882)" d="m0 0h7l5 3 1 25 1 8 1 4-3 1-6-3-7-7-4-8-2-7 1-10 4-5z" fill="#F19393"/>
<path transform="translate(1079,442)" d="m0 0 15 6 5 26 3 6v2h-7l-9-6-7-9-3-8v-13z" fill="#F19595"/>
<path transform="translate(841,895)" d="m0 0h8l5 5 1 2-1 10-4 8-5 6-10 6h-5l-1-3h2l2-10 5-21z" fill="#F19393"/>
<path transform="translate(1212,441)" d="m0 0 4 3 1 3v12l-4 10-9 10-6 3h-5l-1-2 2-1 4-16 3-17 9-4z" fill="#F19595"/>
<path transform="translate(1402,975)" d="m0 0 2 1-2 5-5 5-2 4h-2l-2 5-3 3-1 2h-2l-1 4-3 2-1 3-2 1-1 3-3 2-1 3-3 3-7 8-2 4h-2l-1 4-3 1 1-14 2-9h2v-2l5-2v-2l8-7 3-3h2v-2l8-7 10-10h2l1-3z" fill="#F9FAFC"/>
<path transform="translate(846,760)" d="m0 0h9l6 5 2 5v6l-5 7-5 2h-6l-7-5-2-4v-7l3-6z" fill="#FDFDFD"/>
<path transform="translate(1335,350)" d="m0 0 9 1 5 6 1 2v7l-4 6-3 2-6 1-7-3-4-5v-9l3-5z" fill="#FDFDFD"/>
<path transform="translate(292,322)" d="m0 0 9 1 6 7v8l-3 5-4 3h-10l-6-5-1-3v-7l3-5 3-3z" fill="#FDFDFD"/>
<path transform="translate(1252,1230)" d="m0 0h6l1 5-17 10-3 1h-10l-9-3-6-1-1-6-7 1h-8v-1l16-2v2h3v-2l24-2z" fill="#F7BDB6"/>
<path transform="translate(194,730)" d="m0 0 8 1 6 6 1 8-3 6-4 3-8 1-5-3-4-5v-9l6-7z" fill="#FBDA90"/>
<path transform="translate(561,1193)" d="m0 0h8l-6 25-6 16-3 1-1-5-2-23-1-11 5-2z" fill="#B9CCF0"/>
<path transform="translate(1736,702)" d="m0 0h8l5 3 2 4v9l-4 5-5 2-7-1-5-5-1-2v-7l4-6z" fill="#FDFDFD"/>
<path transform="translate(1771,956)" d="m0 0 3 1-2 4-9 10-6 8h-2l-2 4-8 10-9 11-10 12-10 13-13 16-10 14-3-1 2-5 4-2 1-4 7-9h2l2-5 12-15 11-14 11-13 8-10 11-13 9-11z" fill="#EBF0FB"/>
<path transform="translate(743,1230)" d="m0 0 1 3-1 4v10l4 9 5 5 5 4 11 5 7 1 28-3-3 3-11 4h-19l-12-4-9-5-5-4-6-9-1-3v-11z" fill="#EFA0A0"/>
<path transform="translate(764,967)" d="m0 0 3 3 8 16 7 10 3 4h-9l-9-3-5-4-2-4v-11z" fill="#FDFDFD"/>
<path transform="translate(1354,502)" d="m0 0h7l6 5 1 2v7l-5 6-9 1-6-5-1-2v-7l4-6z" fill="#FDFDFD"/>
<path transform="translate(280,472)" d="m0 0h7l5 4 2 6-2 7-3 3-9 1-6-4-1-2v-9l5-5z" fill="#FDFDFD"/>
<path transform="translate(883,403)" d="m0 0h9l5 5 1 2v6l-4 6-2 1h-9l-5-4-1-2v-8l4-5z" fill="#FDFDFD"/>
<path transform="translate(1395,502)" d="m0 0h7l6 5 1 2v7l-5 6-2 1-9-1-5-6 1-9z" fill="#FDFDFD"/>
<path transform="translate(1313,502)" d="m0 0h8l6 5 1 8-3 5-6 3-7-1-5-6v-7l4-6z" fill="#FDFDFD"/>
<path transform="translate(964,403)" d="m0 0h8l5 3 2 4v6l-4 6-2 1h-9l-5-4-1-3v-7l4-5z" fill="#FDFDFD"/>
<path transform="translate(322,472)" d="m0 0 7 1 5 5v9l-4 5-2 1h-7l-5-3-2-3v-9l5-5z" fill="#FDFDFD"/>
<path transform="translate(240,472)" d="m0 0 9 1 4 5 1 5-3 7-5 3h-6l-5-3-2-3v-9l5-5z" fill="#FDFDFD"/>
<path transform="translate(923,403)" d="m0 0h9l6 6-1 9-5 5h-9l-5-5-1-2v-7l4-5z" fill="#FDFDFD"/>
<path transform="translate(630,904)" d="m0 0 4 2 11 12 9 11 2 5 4 2 1 4 4 2 5 6v3l4 2 4 5v3l4 2 11 14 5 7-3 2v-2l-3-1v-3l-4-2-8-11v-2l-3-1v-3l-4-2-18-22-7-9v-2l-4-2-2-5-4-2-9-10z" fill="#EEF2FB"/>
<path transform="translate(1787,462)" d="m0 0h6l4 2 3 5v7l-3 5-8 2-6-3-3-3v-9l5-5z" fill="#FDFDFD"/>
<path transform="translate(723,725)" d="m0 0h8l5 5 1 2v6l-3 5-3 2h-8l-5-4-1-2v-8l4-5z" fill="#FDFDFD"/>
<path transform="translate(682,725)" d="m0 0h8l5 4 1 2v7l-3 5-4 2h-7l-5-4-1-2v-8l4-5z" fill="#FDFDFD"/>
<path transform="translate(642,725)" d="m0 0h8l5 4 1 8-3 6-3 2h-8l-5-4-1-2v-8l4-5z" fill="#FDFDFD"/>
<path transform="translate(1746,462)" d="m0 0h6l6 5 1 2v7l-4 5-2 1h-9l-4-4-1-2v-8l5-5z" fill="#FDFDFD"/>
<path transform="translate(1706,462)" d="m0 0 9 1 4 6v7l-5 6h-10l-4-4-1-2v-7l3-5z" fill="#FDFDFD"/>
<path transform="translate(1538,665)" d="m0 0 13 6 11 3v2l-2 1h-44l-3-3 12-3z" fill="#FCFCFC"/>
<path transform="translate(549,808)" d="m0 0 3 4 5 11v6l-3 3h-17l-1-3v-7l1 2 5-3 3-3z" fill="#DFE6FC"/>
<path transform="translate(792,1277)" d="m0 0 9 2 19 5 7 1v1h-60v-2l19-5z" fill="#9EB3E7"/>
<path transform="translate(1606,1210)" d="m0 0 3 1-10 4-33 10-1-3v-8z" fill="#F19493"/>
<path transform="translate(545,1196)" d="m0 0 3 1-31 14-7 3-4-1-1-1v-7l6-2z" fill="#F19492"/>
<path transform="translate(364,1201)" d="m0 0h8l35 5v8l-1 2-10-3-32-11z" fill="#F19393"/>
<path transform="translate(615,775)" d="m0 0 4 2 13 5-8 20-3 1-3-8z" fill="#E0E7FC"/>
<path transform="translate(456,998)" d="m0 0 1 3 6 2 3 22v9l-3 9-2 2-1-2-2-33-2-6z" fill="#EDF1FA"/>
<path transform="translate(196,1170)" d="m0 0 5 2 10 6 1 7-2 15h-2l-12-26z" fill="#B8CAF0"/>
<path transform="translate(1406,1160)" d="m0 0h1l-1 15-3 27-2-4-6 4h-2l2-9z" fill="#9EB3E7"/>
<path transform="translate(1425,1206)" d="m0 0 17 2 24 4-1 9-5-1-33-12z" fill="#F19493"/>
<path transform="translate(866,963)" d="m0 0h2l4 15 1 5h-6l-10-5-5-1 5-5z" fill="#9EB4E2"/>
<path transform="translate(409,474)" d="m0 0 4 1 5 7 5 14h20l27-3 1 3-37 4h-11l-3-2-3-10-5-10-3-1-1 9-2 2v-9z" fill="#F19393"/>
<path transform="translate(1565,1222)" d="m0 0h1v6l-5 5-5 7h-2l-1 4-4 6h-2l-2 5-11 15-5 7-3-1 2-5 9-11 10-14 9-12 8-11z" fill="#EBF0FB"/>
<path transform="translate(1653,1223)" d="m0 0h40v2l-36 1-8 1h-35v-3z" fill="#EEF2FB"/>
<path transform="translate(1757,1048)" d="m0 0h4v3l-22 6-31 7-5 1v-2l-3-1 49-12z" fill="#E8EEFA"/>
<path transform="translate(1520,632)" d="m0 0h5l2 3h-2l1 5 16 9 10 3-1 2-13-4-10-6v6l4 2 2 3-4-2 1 6 6 5v2l-5-1-7-1 2-3-3-4-1-4 2-4v-5h-6v-1h6l-5-7z" fill="#F19393"/>
<path transform="translate(898,1070)" d="m0 0h1l2 12v10h2v15l-3 7-3 1v-38z" fill="#FDCB3B"/>
<path transform="translate(1466,1212)" d="m0 0 12 2-2 5-11 18h-2l-2 4 2-11z" fill="#B9CBF0"/>
<path transform="translate(644,1011)" d="m0 0 10 1 28 7 2 1v7l-1-4-12-2-27-7z" fill="#EBEFF8"/>
<path transform="translate(798,984)" d="m0 0 3 2 5 10-9 4h-10l6-8z" fill="#FDFDFD"/>
<path transform="translate(1667,1088)" d="m0 0 1 3-10 13-5 5-1 3h-2l-2 5-6 8-2-1 2-5 12-16 7-9 5-5z" fill="#EBF0FA"/>
<path transform="translate(806,930)" d="m0 0h6l5 6 4 7-1 4-5-8-4-6h-4l1 8 4 14v2h-7v-3l3-1-3-10-1-4v-7z" fill="#CC7D85"/>
<path transform="translate(1246,1231)" d="m0 0h5l-4 2-29 7h-5v-4l-7 1h-8v-1l16-2v2h3v-2l24-2z" fill="#F29D95"/>
<path transform="translate(1716,1025)" d="m0 0 1 3-14 17-10 14-3-1 2-5 4-2 1-4 7-9h2l2-5 4-5z" fill="#EDF2FB"/>
<path transform="translate(1074,1229)" d="m0 0h9l23 2 13 1v1h-12v4l-7-1-26-6z" fill="#F29C94"/>
<path transform="translate(835,1265)" d="m0 0 2 1-8 5-13 4h-17v-2l7-3 15 1 10-4z" fill="#EFA0A0"/>
<path transform="translate(1029,666)" d="m0 0 4 1 5 4 6 10 2 7v11h-2l-3-14-5-10-7-8z" fill="#034365"/>
<path transform="translate(1554,621)" d="m0 0 2 1-1 6-2 4-11-2-1-3 9-5z" fill="#F29C9B"/>
<path transform="translate(1771,956)" d="m0 0 3 1-2 4-9 10-6 8h-3l-2 1 2-4 12-14z" fill="#EAEFFA"/>
<path transform="translate(1757,1048)" d="m0 0h4v3l-22 6h-4v-2l-3-1z" fill="#E5ECF9"/>
<path transform="translate(1541,1254)" d="m0 0 3 1-2 4-8 11-5 7-3-1 2-5 9-11z" fill="#E8EEFA"/>
<path transform="translate(865,1065)" d="m0 0h14v2l2 1h-33l4-2z" fill="#F19393"/>
<path transform="translate(1728,1010)" d="m0 0 1 3-10 12-2 2h-3l2-4 9-12z" fill="#E9EFFA"/>
<path transform="translate(1677,1075)" d="m0 0 1 3-9 12h-3v-3l8-10z" fill="#E8EEFA"/>
<path transform="translate(1755,977)" d="m0 0 1 2-9 11h-3l2-4 5-6z" fill="#F0F3FB"/>
<path transform="translate(959,644)" d="m0 0 4 1-5 4 1 4 4 6v2h-2l-4-5-1-9z" fill="#C3D3F1"/>
<path transform="translate(1551,1243)" d="m0 0 1 2-3 5h-2l-2 5h-3l2-5 4-5z" fill="#EFF3FB"/>
<path transform="translate(1646,1113)" d="m0 0h3l-1 4-6 8-2-1 2-5z" fill="#E8EEF9"/>
<path transform="translate(980,687)" d="m0 0 4 4 10 15h-3l-12-18z" fill="#C2D3F1"/>
<path transform="translate(1632,741)" d="m0 0 5 3 3 3-5-1-1-1-1 20h-1z" fill="#C0D1F1"/>
<path transform="translate(1771,956)" d="m0 0 3 1-2 4-4 3-5 3 2-4z" fill="#E2EAF8"/>
<path transform="translate(858,929)" d="m0 0 2 4 3 8v6l-3-4-2-8z" fill="#9FB4E7"/>
<path transform="translate(1667,1088)" d="m0 0 1 3-5 6h-3l2-4z" fill="#F0F3FC"/>
<path transform="translate(1757,1048)" d="m0 0h4v3l-3 1h-7l3-3z" fill="#E9EFFA"/>
</svg>
