<?xml version="1.0" encoding="UTF-8"?>
<svg version="1.1" xmlns="http://www.w3.org/2000/svg" width="848" height="220">
<path d="M0 0 C2.90949058 1.47148868 2.90949058 1.47148868 5.6953125 0.4140625 C6.83033203 -0.20662109 6.83033203 -0.20662109 7.98828125 -0.83984375 C14.49224347 -3.00783116 23.17114239 -3.14765539 29.48828125 -0.27734375 C35.0516871 3.08935249 39.02177308 7.97459419 40.98828125 14.16015625 C41.79697767 22.03084122 42.06329544 29.71879208 36.98828125 36.16015625 C32.59454836 41.13440826 27.55223519 44.06442467 20.98828125 45.16015625 C13.46737122 45.51420765 7.77585705 44.01170043 1.98828125 39.16015625 C-2.82971942 34.55628895 -4.93986334 29.64975353 -6.01171875 23.16015625 C-5.99865605 18.91478015 -5.35181429 15.18044287 -4.01171875 11.16015625 C-4.88699219 10.88042969 -5.76226562 10.60070312 -6.6640625 10.3125 C-9.72720463 9.25809285 -12.61835446 8.04231194 -15.57421875 6.72265625 C-36.12950033 -1.85892067 -59.24129634 -1.72903853 -80.01171875 6.16015625 C-103.90160084 16.69454193 -120.39194931 34.01993804 -129.984375 58.2109375 C-132.50110893 65.43578204 -133.93051281 72.59171464 -135.01171875 80.16015625 C-127.42171875 80.16015625 -119.83171875 80.16015625 -112.01171875 80.16015625 C-111.78484375 78.42765625 -111.55796875 76.69515625 -111.32421875 74.91015625 C-109.44453517 63.81480181 -104.82076526 55.01032209 -98.01171875 46.16015625 C-97.28984375 45.14953125 -96.56796875 44.13890625 -95.82421875 43.09765625 C-89.05622211 35.28672242 -79.63567477 29.65106491 -70.01171875 26.16015625 C-69.13644531 25.84175781 -68.26117188 25.52335937 -67.359375 25.1953125 C-49.72887247 19.82950738 -31.34904602 22.84197461 -15.3046875 31.17578125 C-10.66669265 33.97068206 -6.79623456 37.30555682 -3.01171875 41.16015625 C-4.73326663 44.92503667 -7.00405989 47.31079522 -10.01171875 50.16015625 C-13.25000925 48.64244237 -16.11201944 46.78322294 -19.07421875 44.78515625 C-31.33302964 36.90800869 -45.16035825 34.05251131 -59.53125 36.84375 C-66.70906601 38.89577095 -72.94455955 41.81777475 -79.01171875 46.16015625 C-80.16800781 46.98773438 -80.16800781 46.98773438 -81.34765625 47.83203125 C-90.70349237 55.30392767 -97.4017751 67.28096039 -99.01171875 79.16015625 C-100.25459188 94.38928529 -97.15918615 107.59340432 -88.01171875 120.16015625 C-80.40715321 128.88023945 -67.8366745 137.04576251 -56.01171875 138.16015625 C-40.71326295 139.11080828 -27.12746212 136.72428373 -15.07421875 126.72265625 C-13.01171875 125.16015625 -13.01171875 125.16015625 -11.01171875 125.03515625 C-7.89335286 126.78923707 -6.17975567 129.3296636 -4.01171875 132.16015625 C-7.68456824 140.63316547 -17.981104 144.74008288 -26.01171875 148.16015625 C-41.83472073 154.19550129 -60.67986305 152.47756192 -75.9921875 145.875 C-91.33638119 138.10551406 -103.24198752 125.45116207 -109.01171875 109.16015625 C-112.01171875 99.05489309 -112.01171875 99.05489309 -112.01171875 94.16015625 C-123.89171875 94.16015625 -135.77171875 94.16015625 -148.01171875 94.16015625 C-148.01171875 67.0023501 -142.37586826 42.8106055 -124.01171875 22.16015625 C-123.41101563 21.41765625 -122.8103125 20.67515625 -122.19140625 19.91015625 C-106.3696065 0.84455656 -82.23962489 -9.68520801 -58.01171875 -12.46484375 C-37.2995209 -14.22826617 -18.01720296 -10.31066726 0 0 Z M7.98828125 13.16015625 C5.61490097 17.0168992 4.61454642 19.85263606 5.42578125 24.28515625 C6.84967676 28.78396721 9.03458589 30.65108035 12.98828125 33.16015625 C16.89165294 34.48896363 18.6509188 34.26485494 22.61328125 33.03515625 C26.26606739 31.00583062 27.99496447 29.82785912 29.98828125 26.16015625 C30.84483719 21.38287001 30.44647219 18.06017416 28.23828125 13.72265625 C24.82089539 9.83063346 23.29900979 9.28700095 18.11328125 8.78515625 C13.7535003 8.92317539 11.26164012 10.19129588 7.98828125 13.16015625 Z " fill="#7C1313" transform="translate(167.01171875,24.83984375)"/>
<path d="M0 0 C5.69221594 4.46680834 9.28449556 9.32438493 12 16 C12 16.99 12 17.98 12 19 C35.1 19 58.2 19 82 19 C82.66626879 25.66268785 83.14653719 31.14965089 82.375 37.625 C82.2836377 38.39569824 82.19227539 39.16639648 82.09814453 39.96044922 C79.54990455 59.12525561 71.13995039 76.11801449 59 91 C58.53851563 91.60199219 58.07703125 92.20398438 57.6015625 92.82421875 C43.29769794 111.11204559 18.27689702 122.44361587 -4.375 125.3125 C-23.63329044 127.41198443 -42.75384001 124.91333409 -60.04907227 115.94433594 C-65.38549907 112.86826108 -65.38549907 112.86826108 -71.2578125 112.4453125 C-73.14535904 113.54080854 -73.14535904 113.54080854 -74.921875 114.84375 C-79.49563576 117.38854922 -84.97273118 116.6759353 -90 116 C-97.16508445 113.9556412 -101.13640731 110.40245133 -104.94140625 104.0859375 C-108.0577258 97.94529307 -108.11840487 90.17717481 -106.3515625 83.578125 C-103.74264103 77.82511868 -99.50210536 73.64258039 -93.79296875 70.96484375 C-86.20018489 68.18384114 -79.94197263 68.33671942 -72.50390625 71.5390625 C-66.86579663 74.82869276 -63.01287428 79.59442359 -60.5 85.5625 C-59.683122 91.17853622 -59.61068256 96.44273024 -61 102 C-59.68708984 102.41958984 -59.68708984 102.41958984 -58.34765625 102.84765625 C-55.28451412 103.9020634 -52.39336429 105.11784431 -49.4375 106.4375 C-27.90161571 115.42846647 -4.45092042 114.61020551 17 106 C37.76919373 97.09743123 54.08350078 80.80686809 63 60 C66.41772726 51.16648954 68.29962434 42.35206615 70 33 C50.86 33 31.72 33 12 33 C11.67 34.98 11.34 36.96 11 39 C7.0561513 46.19950904 0.34123828 52.9605839 -7.57421875 55.52734375 C-18.63191203 57.68190234 -27.92383789 55.97287522 -37.25 49.875 C-45.23893629 41.52293024 -47.37508492 33.90083629 -47.28125 22.6171875 C-46.67827068 14.86220346 -43.63567699 8.39064756 -38 3 C-26.58324363 -4.88962838 -12.53360683 -7.74646533 0 0 Z M-31.609375 14.76171875 C-34.78605121 19.16087991 -35.78371668 23.13428212 -35.484375 28.5390625 C-34.35767086 34.26344642 -31.39607001 37.91106539 -26.875 41.4375 C-22.25927992 43.94604352 -18.19346372 44.64918297 -13 44 C-6.79415526 42.10630473 -3.06065059 38.6615468 0 33 C1.81020278 27.56939165 1.70097747 22.90256228 -0.6875 17.75 C-3.07412011 13.46416811 -5.98189175 11.12117125 -10.25 8.75 C-18.9013826 6.39053202 -25.51787013 8.09359084 -31.609375 14.76171875 Z M-92 83 C-94.86985359 86.2474659 -96.25126393 88.77097319 -96.4375 93.0625 C-95.87134089 98.15793195 -94.73992281 100.55834967 -90.8125 103.8125 C-87.137097 105.36433682 -83.89255849 105.67928962 -80 105 C-76.27150118 103.17092511 -74.41423484 101.60130864 -72.0625 98.1875 C-70.73326787 94.19980361 -70.84571473 92.03999845 -72 88 C-74.4403193 83.89838642 -77.31037913 81.20246689 -82 80 C-86.47038145 80 -88.24779819 80.65487387 -92 83 Z " fill="#7B1111" transform="translate(136,86)"/>
<path d="M0 0 C3.20728854 2.48250209 6.15952948 5.10692818 9 8 C7.27845212 11.76488042 5.00765886 14.15063897 2 17 C-1.2382905 15.48228612 -4.10030069 13.62306669 -7.0625 11.625 C-19.32131089 3.74785244 -33.1486395 0.89235506 -47.51953125 3.68359375 C-54.69734726 5.7356147 -60.9328408 8.6576185 -67 13 C-68.15628906 13.82757813 -68.15628906 13.82757813 -69.3359375 14.671875 C-78.69177362 22.14377142 -85.39005635 34.12080414 -87 46 C-88.24287313 61.22912904 -85.1474674 74.43324807 -76 87 C-68.39543446 95.7200832 -55.82495575 103.88560626 -44 105 C-28.7015442 105.95065203 -15.11574337 103.56412748 -3.0625 93.5625 C-1 92 -1 92 1 91.875 C4.11836589 93.62908082 5.83196308 96.16950735 8 99 C4.32715051 107.47300922 -5.96938525 111.57992663 -14 115 C-29.82300198 121.03534504 -48.6681443 119.31740567 -63.98046875 112.71484375 C-79.41553478 104.89934487 -91.05936039 92.29500744 -97 76 C-99.34930359 68.67904267 -99.36753748 61.9429221 -99.375 54.3125 C-99.39949219 53.01376953 -99.42398438 51.71503906 -99.44921875 50.37695312 C-99.49671026 34.61768837 -93.87967571 20.54906452 -83.06640625 8.9375 C-75.63810077 1.97258597 -67.5853384 -3.52309916 -58 -7 C-57.12472656 -7.31839844 -56.24945313 -7.63679688 -55.34765625 -7.96484375 C-36.47012619 -13.71017899 -16.61417439 -10.01186309 0 0 Z " fill="#2F1313" transform="translate(155,58)"/>
<path d="M0 0 C1.34807739 0.00848969 1.34807739 0.00848969 2.72338867 0.01715088 C5.56615708 0.03936581 8.40761895 0.08953251 11.25 0.140625 C13.18878375 0.16070931 15.12758746 0.17895668 17.06640625 0.1953125 C21.79476669 0.23918154 26.5221626 0.30810367 31.25 0.390625 C31.25 4.350625 31.25 8.310625 31.25 12.390625 C30.14487061 12.41044434 29.03974121 12.43026367 27.90112305 12.45068359 C23.80274587 12.52672949 19.70472421 12.61544829 15.60668945 12.70800781 C13.83267229 12.74630179 12.05857736 12.78115395 10.28442383 12.8125 C7.73490601 12.85814172 5.1859237 12.91613685 2.63671875 12.9765625 C1.84287277 12.98811371 1.04902679 12.99966492 0.23112488 13.01156616 C-3.59323908 13.11417885 -5.49596099 13.22126566 -8.75 15.390625 C-9.41676878 18.84812449 -9.41676878 18.84812449 -8.75 22.390625 C-5.21305012 25.14877144 -2.49880783 25.76454387 1.92578125 25.796875 C3.00150391 25.81878906 4.07722656 25.84070313 5.18554688 25.86328125 C6.85713867 25.87681641 6.85713867 25.87681641 8.5625 25.890625 C25.56695707 26.02976141 25.56695707 26.02976141 30.80175781 30.80664062 C34.8962197 35.48685006 35.42269548 39.15404594 35.5 45.203125 C35.52578125 46.40582031 35.5515625 47.60851562 35.578125 48.84765625 C35.11040883 53.89787726 33.547188 57.16171005 29.875 60.640625 C24.02305678 64.54192048 19.20531426 64.66323378 12.35546875 64.5859375 C11.40811356 64.5831076 10.46075836 64.58027771 9.48469543 64.57736206 C6.46883334 64.56619687 3.45327184 64.54109889 0.4375 64.515625 C-1.61132383 64.50559047 -3.66015232 64.49646545 -5.70898438 64.48828125 C-10.72277148 64.46626949 -15.73633483 64.43176471 -20.75 64.390625 C-20.75 60.430625 -20.75 56.470625 -20.75 52.390625 C-19.00928223 52.36875122 -19.00928223 52.36875122 -17.23339844 52.34643555 C-12.92432982 52.28842559 -8.6157823 52.21119293 -4.30712891 52.12817383 C-2.44295718 52.09493716 -0.57868513 52.06690127 1.28564453 52.04418945 C3.96690591 52.01062012 6.64724896 51.95830391 9.328125 51.90234375 C10.16055725 51.89595383 10.9929895 51.8895639 11.85064697 51.88298035 C15.33442188 51.7946296 17.6708619 51.69788064 20.78417969 50.04614258 C22.53832356 48.37904812 22.53832356 48.37904812 22.625 45.390625 C22.4549729 42.21360295 22.4549729 42.21360295 20.25 39.390625 C17.11330716 38.34506072 14.84319372 38.25089869 11.55078125 38.21484375 C9.85985352 38.17907227 9.85985352 38.17907227 8.13476562 38.14257812 C5.77296414 38.09996498 3.4109319 38.06852326 1.04882812 38.04882812 C-5.99259305 37.8766956 -10.7742108 37.20809975 -16.75 33.390625 C-22.15464993 27.57023277 -22.18272123 22.82659208 -22.01953125 15.109375 C-21.65792471 10.12025282 -21.0681595 8.12355444 -17.75 4.390625 C-12.01954603 0.4488199 -6.80617551 -0.16424169 0 0 Z " fill="#7B1111" transform="translate(542.75,73.609375)"/>
<path d="M0 0 C0.84827362 0.00444122 1.69654724 0.00888245 2.57052612 0.01345825 C3.53137115 0.01360931 4.49221619 0.01376038 5.48217773 0.01391602 C6.52179657 0.02423859 7.56141541 0.03456116 8.63253784 0.04519653 C9.6951181 0.04802643 10.75769836 0.05085632 11.85247803 0.05377197 C15.25584033 0.06499264 18.6589422 0.09010066 22.06222534 0.11550903 C24.36560697 0.12553639 26.6689927 0.13466266 28.97238159 0.14285278 C34.62743029 0.16493815 40.28228362 0.19948088 45.93722534 0.24050903 C45.93722534 4.20050903 45.93722534 8.16050903 45.93722534 12.24050903 C33.39722534 12.24050903 20.85722534 12.24050903 7.93722534 12.24050903 C8.26722534 16.20050903 8.59722534 20.16050903 8.93722534 24.24050903 C10.86566284 24.26629028 12.79410034 24.29207153 14.78097534 24.31863403 C17.33308082 24.37493048 19.88516328 24.43227746 22.43722534 24.49050903 C24.33988159 24.51177856 24.33988159 24.51177856 26.28097534 24.53347778 C33.57740697 24.72348902 38.78409101 25.19025093 44.93722534 29.24050903 C49.3555579 34.56516622 50.27728826 39.22618086 50.14816284 46.05691528 C49.6218962 51.50474963 48.27522831 56.48620231 44.06222534 60.17800903 C38.12169234 64.09876082 33.64605138 64.52027357 26.69894409 64.43582153 C25.3777935 64.43157669 25.3777935 64.43157669 24.029953 64.42724609 C21.22806989 64.41608736 18.42651118 64.39099074 15.62472534 64.36550903 C13.7204331 64.35547366 11.81613582 64.34634879 9.91183472 64.33816528 C5.25350737 64.31616213 0.59542128 64.28166197 -4.06277466 64.24050903 C-4.06277466 60.28050903 -4.06277466 56.32050903 -4.06277466 52.24050903 C-2.95764526 52.21545288 -1.85251587 52.19039673 -0.71389771 52.1645813 C3.38436578 52.07044394 7.48246228 51.97023862 11.58053589 51.86819458 C13.35458471 51.82486969 15.12867457 51.78319284 16.90280151 51.74319458 C19.45216239 51.68543284 22.00131715 51.62175541 24.55050659 51.55691528 C25.34435257 51.54020279 26.13819855 51.5234903 26.95610046 51.50627136 C30.18405611 51.41933186 32.85473633 51.26800537 35.93722534 50.24050903 C36.85186538 45.57584485 37.30331227 42.47455932 34.93722534 38.24050903 C31.9624848 36.75313876 28.8944699 37.02240549 25.62863159 36.95925903 C24.90610703 36.94084961 24.18358246 36.92244019 23.43916321 36.9034729 C21.12610068 36.84467218 18.81296393 36.79188766 16.49972534 36.74050903 C13.45920557 36.67282244 10.41891881 36.599121 7.37863159 36.52175903 C6.67855484 36.50818359 5.97847809 36.49460815 5.25718689 36.48062134 C2.22936896 36.40322468 -0.1677403 36.20552049 -3.06277466 35.24050903 C-5.26563317 30.834792 -4.24862413 24.85472095 -4.24807739 19.9548645 C-4.25026613 17.74910253 -4.26843326 15.54383888 -4.28738403 13.33816528 C-4.29031759 11.94103158 -4.29230264 10.5438955 -4.29324341 9.14675903 C-4.29735229 7.87123169 -4.30146118 6.59570435 -4.30569458 5.28152466 C-4.0301407 1.83197776 -3.61137206 0.42106761 0 0 Z " fill="#7C1212" transform="translate(775.0627746582031,73.75949096679688)"/>
<path d="M0 0 C3.63 0 7.26 0 11 0 C11.06800516 7.42407057 11.1229475 14.84796852 11.15543652 22.27228546 C11.17103628 25.72037914 11.19216893 29.16824712 11.22631836 32.61621094 C11.26540455 36.58786235 11.27975629 40.55942505 11.29296875 44.53125 C11.30845261 45.75863892 11.32393646 46.98602783 11.33988953 48.25061035 C11.34264152 62.34621666 11.34264152 62.34621666 6.58317566 67.54870605 C0.2669243 73.08945044 -6.22452604 72.24973352 -14.1875 72.3125 C-15.99831055 72.35600586 -15.99831055 72.35600586 -17.84570312 72.40039062 C-25.59138325 72.45544467 -31.54313157 72.05961486 -37.51196289 66.62280273 C-42.80864042 60.80243436 -43.34370478 54.60166518 -43.3125 47.125 C-43.32861328 46.36058594 -43.34472656 45.59617188 -43.36132812 44.80859375 C-43.36705537 38.06190482 -42.07489726 32.52352369 -37.6875 27.1875 C-31.61747673 22.24678338 -25.93909074 20.86128828 -18.26171875 20.90234375 C-17.19501953 20.90556641 -16.12832031 20.90878906 -15.02929688 20.91210938 C-13.37510742 20.92467773 -13.37510742 20.92467773 -11.6875 20.9375 C-10.56537109 20.94201172 -9.44324219 20.94652344 -8.28710938 20.95117188 C-5.52471664 20.96292674 -2.76235144 20.98086131 0 21 C0 14.07 0 7.14 0 0 Z M-30.7890625 37.28515625 C-33.46956756 43.29467565 -32.85344447 50.60222745 -30.6875 56.6875 C-29.04276456 59.22076102 -29.04276456 59.22076102 -26 61 C-22.53611866 61.45642994 -19.05329246 61.37030492 -15.5625 61.375 C-14.13067383 61.41173828 -14.13067383 61.41173828 -12.66992188 61.44921875 C-7.1624884 61.55572959 -7.1624884 61.55572959 -2.40234375 59.1015625 C-0.14083189 55.71244445 0.11995785 53.83232936 0.09765625 49.7734375 C0.09443359 48.7421875 0.09121094 47.7109375 0.08789062 46.6484375 C0.07951172 45.56820312 0.07113281 44.48796875 0.0625 43.375 C0.05798828 42.28703125 0.05347656 41.1990625 0.04882812 40.078125 C0.03701776 37.38536211 0.02054778 34.69270812 0 32 C-3.89569135 31.91267274 -7.79112982 31.85949815 -11.6875 31.8125 C-13.34168945 31.77479492 -13.34168945 31.77479492 -15.02929688 31.73632812 C-16.6293457 31.72182617 -16.6293457 31.72182617 -18.26171875 31.70703125 C-19.24100342 31.6913208 -20.22028809 31.67561035 -21.22924805 31.65942383 C-25.52570439 32.18753702 -28.14510447 33.90804828 -30.7890625 37.28515625 Z " fill="#121212" transform="translate(437,66)"/>
<path d="M0 0 C1.34771484 -0.01160156 1.34771484 -0.01160156 2.72265625 -0.0234375 C9.48197733 -0.00375971 15.87108417 0.19258761 21.375 4.5 C24.91597123 9.08243335 25.70983325 12.61457214 25.3125 18.3125 C24.78271402 22.2769659 24.26200152 25.21179832 21.5 28.25 C16.51714105 30.78621792 12.92811517 31.61602723 7.25390625 31.54296875 C6.59792953 31.53872391 5.94195282 31.53447906 5.26609802 31.53010559 C3.19779089 31.51348779 1.13050599 31.47587238 -0.9375 31.4375 C-2.35089725 31.42243111 -3.76430998 31.40874659 -5.17773438 31.39648438 C-8.61881435 31.36364104 -12.05930719 31.31198015 -15.5 31.25 C-14.6395861 35.58229715 -14.6395861 35.58229715 -12.5 39.25 C-9.90846893 39.40996166 -7.3404798 39.50938697 -4.74609375 39.56640625 C-3.97064713 39.58718735 -3.1952005 39.60796844 -2.39625549 39.62937927 C0.08990308 39.69495802 2.57617045 39.75379799 5.0625 39.8125 C6.74415204 39.85567733 8.42579294 39.89929136 10.10742188 39.94335938 C14.23816871 40.05064779 18.36902536 40.15189132 22.5 40.25 C22.5 43.88 22.5 47.51 22.5 51.25 C17.37717241 51.34945752 12.25491646 51.42174409 7.13134766 51.46972656 C5.39133911 51.48974522 3.65139701 51.51696886 1.91162109 51.55175781 C-0.60075346 51.60070952 -3.11223275 51.62306587 -5.625 51.640625 C-6.39303955 51.66127014 -7.1610791 51.68191528 -7.95239258 51.70318604 C-13.54547721 51.70546905 -17.83772652 50.39974522 -22.5 47.25 C-27.29889535 41.21268004 -26.71081028 33.84807282 -26.75 26.5 C-26.770625 25.54867187 -26.79125 24.59734375 -26.8125 23.6171875 C-26.85200064 16.40832045 -26.29742226 9.36712766 -21.3125 3.8125 C-14.54867106 0.05481725 -7.54901129 -0.06498432 0 0 Z M-14.19140625 12.8359375 C-15.95127526 16.08250183 -15.77939252 18.61789729 -15.5 22.25 C-11.06262288 22.33690253 -6.62546366 22.39035926 -2.1875 22.4375 C-0.29354492 22.47520508 -0.29354492 22.47520508 1.63867188 22.51367188 C3.45141602 22.52817383 3.45141602 22.52817383 5.30078125 22.54296875 C6.97394409 22.56653442 6.97394409 22.56653442 8.6809082 22.59057617 C11.49512219 22.47518172 11.49512219 22.47518172 13.39526367 20.9230957 C14.79510821 19.15757933 14.79510821 19.15757933 14.375 16.1875 C13.75349587 12.95744585 13.75349587 12.95744585 10.5 11.25 C6.86945819 10.79073086 3.21901658 10.87968484 -0.4375 10.875 C-1.43974609 10.85050781 -2.44199219 10.82601562 -3.47460938 10.80078125 C-9.09852214 10.74172163 -9.09852214 10.74172163 -14.19140625 12.8359375 Z " fill="#161616" transform="translate(486.5,86.75)"/>
<path d="M0 0 C0.74900574 0.00141495 1.49801147 0.0028299 2.26971436 0.00428772 C4.65380912 0.00986966 7.03780878 0.0224188 9.421875 0.03515625 C11.04166531 0.04017359 12.66145709 0.04473609 14.28125 0.04882812 C18.24482812 0.05983317 22.20833545 0.07708534 26.171875 0.09765625 C26.171875 4.05765625 26.171875 8.01765625 26.171875 12.09765625 C25.26421387 12.11223877 24.35655273 12.12682129 23.42138672 12.1418457 C20.0327819 12.20313774 16.64495811 12.27733201 13.25683594 12.36010742 C11.79437792 12.3932276 10.33179605 12.4212993 8.86914062 12.4440918 C6.75858097 12.477878 4.64914314 12.53020005 2.5390625 12.5859375 C1.27175293 12.61212158 0.00444336 12.63830566 -1.30126953 12.6652832 C-5.11253302 13.13252311 -7.56460076 14.10428147 -10.828125 16.09765625 C-15.9464688 22.98094619 -15.30775451 30.85171821 -14.828125 39.09765625 C-14.30443247 42.52260538 -13.65801139 44.00972297 -11.828125 47.09765625 C-4.54430937 52.09175756 3.15068471 51.76160384 11.671875 51.84765625 C13.08076516 51.87585999 14.48962181 51.90579348 15.8984375 51.9375 C19.32297377 52.00786718 22.74684205 52.0607321 26.171875 52.09765625 C26.171875 56.05765625 26.171875 60.01765625 26.171875 64.09765625 C21.63699856 64.17245122 17.10249018 64.22655887 12.56713867 64.26245117 C11.02801245 64.27743168 9.48892812 64.29782335 7.94995117 64.32397461 C-12.91149092 64.66929546 -12.91149092 64.66929546 -20.48046875 57.75390625 C-28.91545769 47.38742708 -28.80073738 34.77524475 -27.828125 22.09765625 C-26.34444132 14.76793633 -23.36404527 8.26462761 -17.09375 3.88671875 C-11.27887756 0.38288535 -6.66196373 -0.04755364 0 0 Z " fill="#111111" transform="translate(294.828125,73.90234375)"/>
<path d="M0 0 C6.83071767 6.9933538 6.92164603 14.86913073 6.84375 24.16796875 C6.42406595 30.92038529 4.64325174 36.94050511 -0.375 41.6875 C-7.10549723 45.86211221 -12.54869396 46.30373227 -20.375 46.1875 C-21.4165625 46.20296875 -22.458125 46.2184375 -23.53125 46.234375 C-30.65146732 46.19841431 -36.53425247 45.25725939 -41.89404297 40.27563477 C-47.33403645 34.15490749 -48.7289643 27.06932603 -48.58984375 19.03125 C-47.86977157 11.17591709 -46.33102201 4.08947345 -40.375 -1.3125 C-29.44680881 -8.05542648 -10.37568 -7.80694369 0 0 Z M-35.125 10.3125 C-38.18033562 16.11763767 -37.5427332 22.39424029 -36.3359375 28.64453125 C-34.86647055 31.76864189 -33.35985943 32.93147231 -30.375 34.6875 C-27.19298125 35.25837642 -24.10012507 35.24676723 -20.875 35.1875 C-20.03324219 35.20296875 -19.19148438 35.2184375 -18.32421875 35.234375 C-14.17911358 35.2082641 -11.93874312 35.04285559 -8.36328125 32.7890625 C-4.20066599 28.38928449 -3.9856185 24.03671786 -4.125 18.19140625 C-4.50633224 14.37212556 -5.40900935 12.00934626 -7.375 8.6875 C-11.49348714 5.43686413 -15.30912013 5.22838022 -20.375 5.3125 C-21.07367188 5.30089844 -21.77234375 5.28929688 -22.4921875 5.27734375 C-27.96641841 5.30832996 -31.16460315 6.63498864 -35.125 10.3125 Z " fill="#141414" transform="translate(378.375,92.3125)"/>
<path d="M0 0 C3.63 0 7.26 0 11 0 C15.02614685 7.58322804 18.10051538 15.52704784 21.25 23.5 C21.80957288 24.90898247 22.36946611 26.31783776 22.9296875 27.7265625 C24.29015561 31.14958294 25.64627753 34.57430532 27 38 C27.99 38 28.98 38 30 38 C30.4439209 36.95545654 30.8878418 35.91091309 31.34521484 34.8347168 C32.99335108 30.9588939 34.64548379 27.0847854 36.29882812 23.21118164 C37.01378727 21.53456353 37.72766239 19.85748273 38.44042969 18.17993164 C39.46524839 15.76846759 40.49395652 13.35869545 41.5234375 10.94921875 C41.84122162 10.19912033 42.15900574 9.44902191 42.48641968 8.67619324 C43.81107616 5.58477256 45.12891456 2.80662816 47 0 C49.6015625 -0.29296875 49.6015625 -0.29296875 52.625 -0.1875 C54.12933594 -0.14689453 54.12933594 -0.14689453 55.6640625 -0.10546875 C56.43492187 -0.07066406 57.20578125 -0.03585938 58 0 C57.37492092 3.70123451 56.33307298 6.88800579 54.85449219 10.33422852 C54.41022888 11.37623917 53.96596558 12.41824982 53.50823975 13.49183655 C53.02598938 14.60956955 52.54373901 15.72730255 52.046875 16.87890625 C51.54963928 18.04195786 51.05240356 19.20500946 50.5401001 20.40330505 C49.21708468 23.49575586 47.8900231 26.58640302 46.56085205 29.6762085 C44.70323366 33.99760078 42.85391136 38.32255377 41.00274658 42.64671326 C40.01890989 44.94351536 39.033916 47.23982225 38.04754639 49.53553772 C34.98387054 56.67097964 31.97584447 63.82746043 29 71 C25.04 71 21.08 71 17 71 C17.70163834 67.49180831 18.2922748 64.97658183 19.62890625 61.79296875 C19.94150391 61.04208984 20.25410156 60.29121094 20.57617188 59.51757812 C20.90166016 58.74865234 21.22714844 57.97972656 21.5625 57.1875 C21.89185547 56.39923828 22.22121094 55.61097656 22.56054688 54.79882812 C23.36958906 52.86416204 24.18423852 50.93184247 25 49 C24.07074707 48.93804443 23.14149414 48.87608887 22.18408203 48.81225586 C19 48 19 48 17.34326172 45.87719727 C16.91803223 44.92901123 16.49280273 43.9808252 16.0546875 43.00390625 C15.5606543 41.91609863 15.06662109 40.82829102 14.55761719 39.70751953 C14.03422307 38.47344769 13.51520331 37.23751374 13 36 C12.72482544 35.34602234 12.44965088 34.69204468 12.1661377 34.01824951 C10.38449275 29.7543113 8.67228007 25.46564237 6.99316406 21.16040039 C6.11286004 18.90641611 5.22102221 16.65722444 4.328125 14.40820312 C3.76233867 12.96901799 3.19720921 11.52957441 2.6328125 10.08984375 C2.3672757 9.42113754 2.10173889 8.75243134 1.82815552 8.0634613 C0.7233744 5.21223373 0 3.08827653 0 0 Z " fill="#7F1818" transform="translate(582,87)"/>
<path d="M0 0 C1.11181641 0.00064453 2.22363281 0.00128906 3.36914062 0.00195312 C4.52220703 0.01806641 5.67527344 0.03417969 6.86328125 0.05078125 C7.99701172 0.04755859 9.13074219 0.04433594 10.29882812 0.04101562 C19.55648532 0.09970971 28.79318754 0.18250512 36.17578125 6.36328125 C41.484338 11.85936854 42.32334363 16.06680303 42.2734375 23.53125 C42.27202255 24.32606277 42.2706076 25.12087555 42.26914978 25.93977356 C42.26355503 28.4768145 42.25100353 31.013767 42.23828125 33.55078125 C42.23326557 35.2714831 42.22870278 36.99218633 42.22460938 38.71289062 C42.21358732 42.92972155 42.19632631 47.14648641 42.17578125 51.36328125 C38.54578125 51.36328125 34.91578125 51.36328125 31.17578125 51.36328125 C31.17167236 50.38979736 31.16756348 49.41631348 31.16333008 48.41333008 C31.1414934 44.78796046 31.08715909 41.16366923 31.02319336 37.53881836 C31.00005243 35.97251756 30.98562677 34.40606203 30.98022461 32.83959961 C30.97090537 30.58219422 30.92985892 28.32720904 30.8828125 26.0703125 C30.88674515 25.37428421 30.8906778 24.67825592 30.89472961 23.96113586 C30.78044036 20.11927675 30.26201191 18.47009364 27.8190918 15.4440918 C24.22644345 12.6159638 21.72282547 12.23875371 17.2890625 12.265625 C16.02122925 12.26937134 16.02122925 12.26937134 14.7277832 12.27319336 C13.65874756 12.28229736 12.58971191 12.29140137 11.48828125 12.30078125 C8.08515625 12.32140625 4.68203125 12.34203125 1.17578125 12.36328125 C0.84578125 25.23328125 0.51578125 38.10328125 0.17578125 51.36328125 C-3.45421875 51.36328125 -7.08421875 51.36328125 -10.82421875 51.36328125 C-10.94766046 44.58234333 -11.03848484 37.80205679 -11.09887695 31.02026367 C-11.1240475 28.71253063 -11.15818672 26.40487751 -11.20141602 24.09741211 C-11.26195401 20.7834911 -11.29040324 17.47062231 -11.3125 14.15625 C-11.35120964 12.60456367 -11.35120964 12.60456367 -11.39070129 11.02153015 C-11.39174023 8.37843329 -11.34036368 5.95510897 -10.82421875 3.36328125 C-7.57367896 0.13471942 -4.45663382 -0.01329266 0 0 Z " fill="#7C1212" transform="translate(658.82421875,86.63671875)"/>
<path d="M0 0 C1.36067049 0.01005022 2.72134817 0.01917246 4.08203125 0.02734375 C7.38820647 0.0507918 10.6940088 0.08361144 14 0.125 C14 3.755 14 7.385 14 11.125 C13.14768799 11.13958252 12.29537598 11.15416504 11.41723633 11.16918945 C8.23928825 11.23043285 5.06197454 11.30462029 1.88452148 11.38745117 C0.51224042 11.42059806 -0.86017362 11.44866171 -2.23266602 11.47143555 C-4.21137766 11.50516766 -6.18971376 11.5590149 -8.16796875 11.61328125 C-9.95110474 11.65255737 -9.95110474 11.65255737 -11.77026367 11.69262695 C-15.27643651 12.16200726 -17.1933044 13.00447741 -20 15.125 C-22.55806244 20.11931238 -22.58858872 25.63150525 -22 31.125 C-20.45771534 35.23775909 -19.66328593 36.68280938 -16 39.125 C-12.80009946 39.49499337 -12.80009946 39.49499337 -9.14453125 39.5390625 C-8.48289474 39.55842865 -7.82125824 39.5777948 -7.13957214 39.5977478 C-5.03067836 39.65742687 -2.92172963 39.70388087 -0.8125 39.75 C0.61916415 39.78819066 2.05080559 39.82724303 3.48242188 39.8671875 C6.98807312 39.96311773 10.49389445 40.04719197 14 40.125 C14 43.755 14 47.385 14 51.125 C9.44684078 51.22458121 4.89432848 51.29679985 0.34033203 51.34472656 C-1.20567887 51.36472503 -2.75161527 51.39193331 -4.29736328 51.42675781 C-20.37881896 51.77974005 -20.37881896 51.77974005 -27 47.125 C-33.74651071 39.81768558 -34.47099036 31.52674937 -34.30859375 21.859375 C-33.66149487 14.02865949 -31.16852255 8.38730633 -25.171875 3.28125 C-17.31943848 -0.89918383 -8.63657257 -0.10996615 0 0 Z " fill="#7E1717" transform="translate(746,86.875)"/>
<path d="M0 0 C0.66 0.33 1.32 0.66 2 1 C-3.28 6.28 -8.56 11.56 -14 17 C-14.66 16.67 -15.32 16.34 -16 16 C-5.62642369 4.29384966 -5.62642369 4.29384966 0 0 Z " fill="#A25858" transform="translate(57,33)"/>
<path d="M0 0 C0.66 0.33 1.32 0.66 2 1 C-1.96 4.96 -5.92 8.92 -10 13 C-10.66 12.67 -11.32 12.34 -12 12 C-8.32167983 7.47384007 -4.58913637 3.60575001 0 0 Z " fill="#665252" transform="translate(80,60)"/>
<path d="M0 0 C0.66 0.33 1.32 0.66 2 1 C-0.97 3.97 -3.94 6.94 -7 10 C-7.33 9.34 -7.66 8.68 -8 8 C-3.375 2.25 -3.375 2.25 0 0 Z " fill="#525252" transform="translate(279,77)"/>
<path d="M0 0 C0.66 0.33 1.32 0.66 2 1 C-0.64 3.64 -3.28 6.28 -6 9 C-6.66 8.67 -7.32 8.34 -8 8 C-3.375 2.25 -3.375 2.25 0 0 Z " fill="#9D5050" transform="translate(40,158)"/>
<path d="M0 0 C0.66 0.33 1.32 0.66 2 1 C-0.64 3.64 -3.28 6.28 -6 9 C-6 5.06368636 -4.57142871 3.87394974 -2 1 C-1.34 0.67 -0.68 0.34 0 0 Z " fill="#5F5F5F" transform="translate(340,90)"/>
<path d="M0 0 C0.66 0.33 1.32 0.66 2 1 C-0.64 3.64 -3.28 6.28 -6 9 C-6.66 8.67 -7.32 8.34 -8 8 C-5.58443874 4.80800833 -3.31996462 2.25283313 0 0 Z " fill="#9F5252" transform="translate(102,86)"/>
<path d="M0 0 C0.66 0.33 1.32 0.66 2 1 C-0.31 3.31 -2.62 5.62 -5 8 C-5 5 -5 5 -2.5 2.3125 C-1.675 1.549375 -0.85 0.78625 0 0 Z " fill="#595959" transform="translate(403,90)"/>
</svg>
