<?xml version="1.0" encoding="UTF-8"?>
<svg version="1.1" viewBox="0 0 1600 1347" width="500" height="421" xmlns="http://www.w3.org/2000/svg">
<path transform="translate(1137,90)" d="m0 0h36l29 3 20 4 21 6 15 6 16 8 14 8 14 11 10 9 12 13 12 16 12 20 8 16 10 25 7 24 3 14 1 8 12 5 16 11 10 9 8 9 8 13 7 16 5 17 3 21 1 15v27l-2 32 1 3 18 11 13 10 8 8 9 14 6 15 6 27 2 26v45l-2 34-8 51-8 42-10 49-10 37-9 30-9 26-14 35-7 14 8 5 5 10 4 20 2 15 1 21 9 4 6 3 6 7 1 9-1 9-6 9-4 5-6 13-1 3v12l4 8 5 7v2l7 1 40 15 10 5 12 7 7 9 3 9 1 10-3 10-6 9-8 7-8 4-6 2-11 2-16 4-31 4-35 2h-74l-53-1h-1016l-60 1-25 1h-36l-15-3-11-5-6-4-7-4-9-10-6-13v-9l3-9 1-21-9-11-22-14-9-9-8-16-2-10 1-9 2-11 7-10 5-5 7-6 14-7 19-5-1-13-2-21v-68l3-30 5-39 7-52 3-20 2-18 5-26 6-23 13-41 13-36 8-19 3-14 3-19 5-29 11-48 8-30 12-36 13-33 14-29 11-21 10-16 12-18 16-21 9-10 7-8 15-16 12-11 13-11 19-14 17-11 22-12 17-8 25-9 23-6 30-5 26-2h18l25 2 39 6 31 8 32 10 29 11 35 15 41 19 25 12 10 5h4l7-8 12-12 8-7 3-3h2v-2l22-18 17-13 20-14 21-13 21-12 23-12 29-13 24-9 27-9 27-7 19-4zm278 899-4 5-2 10h10l4-3-1-8-2-4z" fill="#A4E4DD"/>
<path transform="translate(1137,90)" d="m0 0h36l29 3 20 4 21 6 15 6 16 8 14 8 14 11 10 9 12 13 12 16 12 20 8 16 10 25 7 24 3 14 1 8 12 5 16 11 10 9 8 9 8 13 7 16 5 17 3 21 1 15v27l-2 31-1 4 1 5-5 42-6 35-11 54-11 44-3 11-1 9-22 3-12 5-8 8-5 10-3 7v12l6 16 5 18 1 13-3 16-1 4-39 1h-232l-168-1h-67l-2-4-3-1-25-1-16-47-12-36-4-9-3-2-22-1h-137l-6 2 1 11 6 16 23 69v3h-181l-1-104-6-11-9-8-18-8 1 28 2 27h-6l2 24v52l-66 1h-50l-97-1 4 10 1 4h34l2 6 5 21 5 18 4 20 12 48 3 13 6 24v8l-5 6-6 10-9 14-14 22-13 21-6 9-3 4-8-2 3 7 1 1 16 1-1 8h11l8 2 2 3v7l-4 4-9 4-4 1h-14l-5 47-2 12-8 15-7 7-11 7-9 3-15 1-11-2-8-3-1-2-5-3-9-8-5-8-5-16-5-45v-7l-6-2-5-15-1-9 2-1 21-1v-8l-2-16-3-14-6-12-6-9-4-11v-16l8-29 2-7v-10l-4-10-9-17-5-13-1-6v-13l3-6 6-5 5 1 7 6 3 17 5 17 7 10 10 11 4 8v11l-4 13-6 16-1 10 4 11 10 16 8 14 1 7 3-3 4-11v-12l-9-13-4-6-1-3v-10l3-7 8-12 7-10 4-9v-8l-3-8-8-9-5-5-6-7-1-3v-8l3-8h2v-4h-14l-9-1-1-1v-12l7-45 1-1 28-1 2-10h2v-3h-32l2-16 2-5 12 1 18 3h6l6-7 2-1h8l5 1 5-2 1 3-4 7v2l23 3-1-11 3-3 2 1 1 13 37 5 1-59 1-13-7-1-2-1v-11l3-25 6-35 1-3-5 5-3 6-7 31-10 25-5 14-8 23h-11l-18-5-1-3 7-40 8-38 2-17 2-27 4-13 6-15 13-22 3-10 3-16 6-15 8-12 8-9 11-7 10-5 29-2 8-1 2 6 6 21 13 54 6 30 1 1 2-63 2-15 3-15 1-18h11l8-5 6-5 8-11 8-9 7-10 5-10 7-27 4-10 9-16 8-45 3-11 30 2 1 1 1 31-2 23-4 27v7l7-1 16 3h13l3 1v-2l16-4 7-2 11-1 2-1 13-1 4-2 19-3 16-7 4-1h8l6-5 13-5 10-1 9-6 10-5 18-12 16-11 14-10 15-13 17-16 16-15h2l1-3 8-7 9-4-1-5v-2l-2-3-3-2-2-3 7 1 6 1 7-8 12-12 8-7 3-3h2v-2l22-18 17-13 20-14 21-13 21-12 23-12 29-13 24-9 27-9 27-7 19-4z" fill="#9DCDD0"/>
<path transform="translate(318,784)" d="m0 0h126l1 8-1 40-1 14-2 11-3 37-7 47-2 22-4 28-1 4 10-6 17-6 13-2h10v-134h8v30l-1 103 13 1 14 2 9 4 3-51 3-20 4-21 1-9v-25l-2-21-2-8v-19l5-23 3-5h526l2 2 2 5 2 14-1 11-2 9-3 7-9 11-6 4h-2v2l-10 3-4 3-11 2v2l6 1 18-1 19-7 5-2v-2h2v-2l5-5 7-12 2-6 2-39h172l-1 10-5 22-2 9-6 26-3 14-3 10-5 20-3 14-3 15-4 16-4 17-5 16-1 10-4 11-1 35-3 8-5 7-3 3-5 24-4 11-5 1h-18v13l-48 1-1-1v-7l-6 2h-750l-4-19h45l100-1 36 1 26-1-1-1h-75l-132-1-4-17v-2h28l1-5-12 1-19-1-2-7-2-11 37-1-1-3h-27l-10-1-5-17-10-43-9-38-3-8-3-16-4-17-5-19-1-3-1-12-6-21-9-40-1-4z" fill="#A3E4DD"/>
<path transform="translate(1444,456)" d="m0 0 4 4 17 11 12 9 8 8 9 14 6 15 6 27 2 26v45l-2 34-8 51-8 42-10 49-10 37-9 30-9 26-14 35-7 14 2 2-11-1-8 2-6 5-4 8-2 17-7 11-13 12-7 14-9-1-2-6v-14l4-11 10-17h2l3-10 1-3v-10l-4-24v-10l3-20 4-10 3-7 3-10 4-9 6-18 4-19v-12l-7-6h-8l-8 5-4 7-3 10-7 38-2 10-3 6-2 1v-25l-1-15v-39h-43v135l-2 4-4-6v-4h-2l-6-14v-114h-35l-2 1-11 48-6 23-2 12-3 9-11 48-4 15-4 18-7 30-4 21-3 8-2 7-3 18-4 14-4 19-1 3 14-2 2-8 1-17 5-4 4-33 6-2 8 1 2 1-1 4-6 3h13l-1-5 1-2-2-1 5-2 1-5h-2v-2h34l8 4 1 2h-2l2 4-2 4-4 12h-4l-2 5v6l7 7 3 9 5 2 2 14-4 3-11 4-11 6-4 5 1 7 6 4 26 1 2 10v6h-113l-2 12-1 1-14 1-5 10-10 10-7 3h-20l-10-5-7-8-4-8-3-16-25 1-718-1 2 7v6l-1 1h-9l-3-2-2-7v-5h-104l1-20 4-35 3-1h12l11-4 4-1 1-3v-7l-1-3-19-2v-6l1-2h-16l-4-5v-4l8 1 7-10 10-17 11-17 8-13 10-15 6-10 3-3v-8l-5-18-3-16-5-18-4-17-7-29-3-14-7-26-2-11-34-1-5-10v-4h213l-1-52-1-24h6l-2-15-1-12v-28l5 1 14 7 9 8 6 11v104h181l-24-72-6-16v-11l6-3h137l22 1 5 4 12 36 16 47 2 5v3h25l4 2 1 4h67v-6h1v6h438l1-8 2-15-2-14-6-20-4-10v-12l6-14 9-10 8-5 11-3 8-1h9v-9l10-38 9-41 9-46 5-34 3-27-1-7zm-1126 328-35 1 4 18 6 26 6 21 1 12 5 17 4 18 3 12 2 12 3 8 8 34 11 46 4 14 10 1h27l1 3-37 1 3 17 1 1 25 1 6-1-1 5h-28l3 16 1 3 135 1h72l1 1-35 1-34-1-113 1h-25l4 19h750l6-2v7l1 1 48-1v-13h18l5-1 5-15 4-20 7-8 3-7 1-3 1-35 4-11 2-14 5-16 6-27 6-24 3-14 5-21 2-5 4-21 4-16 3-14 5-21v-6h-172l-2 39-4 10-8 12-2 1v2h-2v2l-5 2-19 7-22 1-2-1v-2l11-2 7-4 7-2v-2l5-2 6-5 7-9 4-15 1-11-2-14-3-6-1-1h-526l-3 5-5 23v19l2 8 2 21v25l-3 21-4 20-2 23-2 37-9-4-21-3h-6l1-125v-8h-8v134h-10l-17 3-13 5-10 6 4-25 2-14 2-22 6-40 3-37 2-11 1-14 1-41-1-7z" fill="#F9FBFA"/>
<path transform="translate(526,162)" d="m0 0h18l25 2 39 6 31 8 32 10 29 11 35 15 41 19 25 12 4 3v3l5 5 1 4-1 4-9 4-5 5-10 9-15 14-17 16-13 11-33 23-9 6-7 4-10 5-7 5-10 1-13 5h-2l-2 4-3 1h-7l-13 5-7 3-9 1-12 3-2 1-13 1-2 1-15 2-9 3-10 1v2h-18l-16-3-5 1-1-1v-7l5-35 1-25-1-21-26-2-4-1-5 27-5 29-9 16-4 10-8 30-8 13-11 13-10 13-9 7-4 2-11-1v18l-4 20-1 10-2 63-2 2-6-26-4-20-13-52-4-15-20 2-17 1-14 7-9 7-8 10-6 10-5 13-4 21-7 14-9 15-8 21-2 16-2 27-8 40-6 32-2 14 18 5 11 1 3-12 8-23 10-24 5-21 4-16 6-8h2l-3 21-5 32-2 21 9 2-1 61-1 11-13-1-24-3-1-1-1-13h-3v13l-17-1-7-2 2-5 2-6-5 2-5-1h-8l-5 4-3 4-13-1-17-3h-6l-2 8-2 12-3-2-2-13v-27l2-51 3-42 2-21h-2l2-9 3-10 1-11 3-19 5-29 11-48 8-30 12-36 13-33 14-29 11-21 10-16 12-18 16-21 9-10 7-8 15-16 12-11 13-11 19-14 17-11 22-12 17-8 25-9 23-6 30-5z" fill="#BCD6DC"/>
<path transform="translate(481,306)" d="m0 0 25 2 4 1 1 6 1 24-2 22-5 32-7 29-5 17-2 13-5 21-8 17-5 8h-2l-2 5-9 12h-2l-1 3-5 4-9 11-4 2v20l2 44 3 35 3 46 1 15h-6l2 24v52l-66 1h-50l-97-1 4 10 1 4h34l2 6 5 21 5 18 4 20 12 48 3 13 6 24v8l-5 6-6 10-9 14-14 22-13 21-6 9-3 4-8-2 3 7 1 1 16 1-1 8h11l8 2 2 3v7l-4 4-9 4-4 1h-14l-5 47-2 12-8 15-7 7-11 7-9 3-15 1-11-2-8-3-1-2-5-3-9-8-5-8-5-16-5-45v-7l-6-2-5-15-1-9 2-1 21-1v-8l-2-16-3-14-6-12-6-9-4-11v-16l8-29 2-7v-10l-4-10-9-17-5-13-1-6v-13l3-6 6-5 5 1 7 6 3 17 5 17 7 10 10 11 4 8v11l-4 13-6 16-1 10 4 11 10 16 8 14 1 7 3-3 4-11v-12l-9-13-4-6-1-3v-10l3-7 8-12 7-10 4-9v-8l-3-8-8-9-5-5-6-7-1-3v-8l3-8h2v-4h-14l-9-1-1-1v-12l7-45 1-1 28-1 2-10h2v-3h-32l2-16 2-5 12 1 18 3h6l6-7 2-1h8l5 1 5-2 1 3-4 7v2l23 3-1-11 3-3 2 1 1 13 37 5 1-59 1-13-7-1-2-1v-11l3-25 6-35 1-3-5 5-3 6-7 31-10 25-5 14-8 23h-11l-18-5-1-3 7-40 8-38 2-17 2-27 4-13 6-15 13-22 3-10 3-16 6-15 8-12 8-9 11-7 10-5 29-2 8-1 2 6 6 21 13 54 6 30 1 1 2-63 2-15 3-15 1-18h11l8-5 6-5 8-11 8-9 7-10 5-10 7-27 4-10 9-16 8-45z" fill="#138F75"/>
<path transform="translate(862,785)" d="m0 0h196l2 2 2 5 2 14-1 11-2 9-3 7-9 11-6 4h-2v2l-10 3-4 3-11 2v2l6 1 18-1 19-7 5-2v-2h2v-2l5-5 7-12 2-6 2-39h172l-1 10-5 22-2 9-6 26-3 14-3 10-5 20-3 14-3 15-4 16-4 17-5 16-1 10-4 11-1 35-3 8-5 7-3 3-5 24-4 11-5 1h-18v13l-48 1-1-1-1-12-16-3-7-4-6-7-2-5-1-6v-23l3-8 6-6h14l5 7 1 21 2 9 4 4h10l4-3v-21l-3-22-3-12-103-1v4l4 2 6 7 3 8 5 5v6l-6 7h-8l-5-5-1-6 2-5 4-5-4-6-10-7-10-3v-2l-10-1-17-2 1 23 5 5 1 6-5 8h-10l-4-6-1-7 6-7 1-22-26 3-16 8-5 4-3 5 1 4 4 5-1 7-3 5-1 1h-8l-5-4-2-3v-6l7-8 5-10 8-7 12-6 12-4 15-2h5v-116l-38 11-4 5-4 16-7 51-3 13 4 2 7 8v7l-5 5-9 10-3 3h-2l-3 10-3 7-3 11h-10l-2-1v35l-2 5-2 2-5 1-46 1-8 1h-9l-10-4-3-5v-5l7-6 9-4 12-3 12-5 5-7 4-8h-5l-1-1 1-17 5-32v-8l-4-5-21-36-6-10-12-14-9-11-9-13-6-16-2-13v-18l2-12 5-13 4-6 10-10 6-4 21-6z" fill="#9DCCD0"/>
<path transform="translate(1137,90)" d="m0 0h36l29 3 20 4 21 6 15 6 16 8 14 8 14 11 10 9 12 13 12 16 12 20 8 16 10 25 7 24 3 14v8l-22-5-11-2-13-1h-19l-18 2-28 5-36 10-59 19-35 9-26 5-20 3h-5l-8-9-7-8-13-13-13-10-15-9-16-7-21-6-10-2-15-1-19 2-23 5-20 7-18 8-6-1-32-14-27-12-6-3-7-2 1-2 6 1 7-8 12-12 8-7 3-3h2v-2l22-18 17-13 20-14 21-13 21-12 23-12 29-13 24-9 27-9 27-7 19-4z" fill="#CDF0F0"/>
<path transform="translate(680,404)" d="m0 0 6 1 7 4 3 5v7l-3 7-5 5-7 3-1 3-1 21-10 1 1 3 8 1-1 5-4 6-15 8-6 3v2l17 6 13 7 6 8 5 10 3 13 3 22 8 38 1 8 8-7 14-12 17-17 11-8 5-5 4-9 7-28 1-1 14 1 5 3 3 4 3 17 4 21 5 16 10 16 10 8 14 9 7 5 7 8 9 12 7 7h11l-1-9 7-10 16-16h2v-2h2l2-4 7-8 14-9 13-6 7-2-4-4-8-6-2-6 1-17 3-10 4 1 17 1 6 3 7 6 3-1 4-11-1-7-7-6-9-4-10-4-5-5-1-5 5-8 7-5 8-2 11 1 11 6 4 5 7 14 8 4 1 7-6 11-3 1v13l-7 6-6 2-1 6 4 12 15 3 2 1v2l7 1 17 7 8 3 11 6 10 9 9 9 2 3v3h2l10 20-1 4-3 2v17l4 27 4 13 3 8v3h-12l4 18 7 37v2h-165v-7l3-4 14-2-5-28v-9l6-2 43-1 6-3 6-7 2-5 1-7v-22l-3-10-8-7-9-3-92-1-34 1-10 4-3 1-2 4-5 8-5-5-10-15-3-4v-2h-2l-12-17-9-15-6-12-6-20v-18l1-12v-18l-2-3-2 5-1 19-2 9-8 16-11 21-10 15-14 17-9 11-11 10-10 5-4 1h-7l-7-3-8-7-9-13-6-12-1-6h-2v7l-4 15-9 18-4 1-9-7-14-12-9-6-15-5-13-2-2-4-2-25-1-2-4 12-6 12-3 9v24l-3 7-10 12-9 12-4 1-9-39-8-36v-11l4-15 11-23 10-15 7-10 8-10 12-13 6-5 1-5-7-8-1-2v-14l4-6 5-8v-12l3-6 8-6 8-4 11-4 6-5 6-12 5-5 4-2h32z" fill="#EC306B"/>
<path transform="translate(318,784)" d="m0 0h126l1 8-1 40-1 14-2 11-3 37-7 47-2 22-4 28-1 4 10-6 17-6 13-2h10v-134h8v30l-1 103 13 1 14 2 9 4 3-51 3-20 4-21 1-9v-25l-2-21-2-8v-19l5-23 3-5h142l3 5 8 28 4 24 2 20v37l-3 41-1 24-1 49-9 3h-3l3 5v2l4 2 6 4 16 1 10 4 4 5-1 6-10 5-7 1h-44l-6-4-3-4v-13l1-7h-7l-1-18-2-66-1-19-7-21-5-10-6-17-2-18-5-14-5-10-4-4-1 7-9 35-6 27-3 12-4 20-3 19-4 36-3 20-7 16-3 6-4 5-9 2 3 5 11 7 14 1 9 3 5 5-1 5-8 5-9 2-11 1h-30l-10-5-2-4v-26l-1-35-9-4-9-2-17-2 1 23 5 5v9l-4 5h-10l-5-6v-7l6-7v-22l-21 3-18 7-9 8-1 5 4 5 1 2v6l-5 5-7 3 6 5 14 6 15 5 6 4 1 5-6 5-5 2h-19l-15-2h-29l-6-4-3-4v-23l1-2 1-11h-11v-30l3-88 1-16v-34l-4-18h-3l-3 11-8 19-13 25-14 23-7 10-4 5-3-7-3-16-4-17-5-19-1-3-1-12-6-21-9-40-1-4z" fill="#2056B4"/>
<path transform="translate(1270,784)" d="m0 0h35l1 1v114l5 12v2h2l3 8 1 1 1-3v-132l1-3h43l1 39 1 15v24l4-8 6-36 3-15 6-12 9-6h8l8 7v12l-6 26-5 13-4 10-4 13-4 8-3 15-1 8v10l4 24v10l-4 11-1 2h-2l-2 5-9 16-2 7v14l1 5 9 1 4-10 8-9 8-7 6-10 2-17 4-8 7-6 8-2h6l9 3 6 9 3 11 4 27v31l-2 11-6 20-4 7-8-1-6-7-2-8-2 10-2 12-8 2-4 38-3 26-5 12-6 9-9 8-6 4-10 4h-28l-9-4-9-6-9-9-5-9-5-13-2-16h-26l-6-4-2-3v-5l6-7 17-8 7-3-2-14-5-2-4-10-5-4-1-2v-6l3-6 4 1 1-6 2-6 2-5-1-5-8-3h-15l-18-1v2h2l-1 5-4 2 1 3 1 6h-16l2-2 6-3 1-3-12-1-1 2h-2l-3 21-1 11-5 4-1 17-2 8-7 2h-8l2-11 5-23 3-12 2-11 3-11 1-1 5-25 6-26 4-18 8-32 9-39 1-1 4-21 6-23 9-39zm145 205-4 5-2 10h10l4-3-1-8-2-4z" fill="#2157B4"/>
<path transform="translate(481,306)" d="m0 0 25 2 4 1 1 6 1 24-2 22-5 32-7 29-5 17-2 13-5 21-8 17-5 8h-2l-2 5-9 12h-2l-1 3-5 4-9 11-4 2v20l2 44 3 35 3 46 1 15-10 1-26-1-12-1-4-6-4-8-3-17h-2l-2 11-4 12-7 8-10 3h-39l-25-2v-2l-7-1-2-1v-11l3-25 6-35 1-3-5 5-3 6-7 31-10 25-5 14-8 23h-11l-18-5-1-3 7-40 8-38 2-17 2-27 4-13 6-15 13-22 3-10 3-16 6-15 8-12 8-9 11-7 10-5 29-2 8-1 2 6 6 21 13 54 6 30 1 1 2-63 2-15 3-15 1-18h11l8-5 6-5 8-11 8-9 7-10 5-10 7-27 4-10 9-16 8-45z" fill="#2056B4"/>
<path transform="translate(862,785)" d="m0 0h196l2 2 2 5 2 14-1 11-2 9-3 7-9 11-6 4h-2v2l-10 3-4 3-13 4-11 5-27 9h-3v120l15 1 18 6 10 5 8 6 6 8 2 6 5 5v6l-6 7h-8l-5-5-1-6 2-5 4-5-4-6-10-7-10-3v-2l-10-1-17-2 1 23 5 5 1 6-5 8h-10l-4-6-1-7 6-7 1-22-26 3-16 8-5 4-3 5 1 4 4 5-1 7-3 5-1 1h-8l-5-4-2-3v-6l7-8 5-10 8-7 12-6 12-4 15-2h5v-116l-38 11-4 5-4 16-7 51-3 13 4 2 7 8v7l-5 5-9 10-3 3h-2l-3 10-3 7-3 11h-10l-2-1v35l-2 5-2 2-5 1-46 1-8 1h-9l-10-4-3-5v-5l7-6 9-4 12-3 12-5 5-7 4-8h-5l-1-1 1-17 5-32v-8l-4-5-21-36-6-10-12-14-9-11-9-13-6-16-2-13v-18l2-12 5-13 4-6 10-10 6-4 21-6z" fill="#2056B4"/>
<path transform="translate(1444,456)" d="m0 0 4 4 17 11 12 9 8 8 9 14 6 15 6 27 2 26v45l-2 34-8 51-8 42-10 49-10 37-9 30-9 26-14 35-7 14 2 2-11-1-8 2-6 5-4 8-2 17-7 11-13 12-7 14-9-1-2-6v-14l4-11 10-17h2l3-10 1-3v-10l-4-24v-10l3-20 4-10 2-1v2l9-1 2-11 6-17 4-17 1-15-1-11 4-11 5-1 15-1 7-3 1-5-1-2-7-1h-28l-23-1-7-3-3-7h-3l-2 2 1-15-2-14-6-20-4-10v-12l6-14 9-10 8-5 11-3 8-1h9v-9l10-38 9-41 9-46 5-34 3-27-1-7z" fill="#CDF0F0"/>
<path transform="translate(971,485)" d="m0 0 11 1 11 6 4 5 7 14 8 4 1 7-6 11-3 1v13l-7 6-6 2-1 6 4 12 15 3 2 1v2l7 1 17 7 8 3 11 6 10 9 9 9 2 3v3h2l10 20-1 4-3 2v17l4 27 4 13 3 8v3h-12l4 18 7 37v2h-165v-7l3-4 14-2-5-28v-9l6-2 43-1 6-3 6-7 2-5 1-7v-22l-3-10-8-7-9-3-87-1v-2h-2l-6-10-4-5v-7l6-8 15-15h2v-2h2l2-4 7-8 14-9 13-6 7-2-4-4-8-6-2-6 1-17 3-10 4 1 17 1 6 3 7 6 3-1 4-11-1-7-7-6-9-4-10-4-5-5-1-5 5-8 7-5z" fill="#FED00E"/>
<path transform="translate(333,426)" d="m0 0h8l4 2 2-2 2 5 8 5 2 3 2 12v13l-8 2-29 2-14 7-9 7-8 10-6 10-5 13-4 21-7 14-9 15-8 21-2 16-2 27-8 40-6 32-2 14 18 5 11 1 3-12 8-23 10-24 5-21 4-16 6-8h2l-3 21-5 32-2 21 9 2-1 61-1 11-13-1-24-3-1-1-1-13h-3v13l-17-1-7-2 2-5 2-6-5 2-5-1h-8l-5 4-3 4-13-1-17-3h-6l-2 8-2 12-3-2-2-13v-27l2-51 3-42 2-21h-2l2-9 3-10 1-11 3-19 5-29 4-17h1l-1 11-2 9v12l-2 17 2-5 5-3 4-6 6-7 8-14 9-11 4-4 2-6 9-9 6-8 11-12 8-10 11-8 5-5 13-9 8-6 11-7 10-7 8-3z" fill="#9DCDD1"/>
<path transform="translate(674,785)" d="m0 0h188v1l-39 4-21 6-9 7-8 8-5 11-3 10-1 8v18l3 16 6 15 12 16 9 10 11 14 10 18 8 14 6 10 4 5-1 16-3 18h-1l-1-5-4 1h-147l-2 4v-46l2-39 2-26v-37l-3-27-5-25-7-23z" fill="#9CCCD0"/>
<path transform="translate(783,529)" d="m0 0 4 4v18l-1 12v18l8 25 11 19 10 14 3 4v2h2l16 24 2 1 5-8 5-5 10-4 39-1 87 1 11 4 7 7 3 10v22l-2 10-4 6-7 6-3 1-43 1-5 1v9l4 21v7l-10 2-5 2-2 3-1 6h-67l-2-4-3-1-25-1-16-47-12-36-4-9-3-2-22-1h-128l-2-2 12-23 5-16 2-11h2l5 12 6 11 9 11 7 5 4 1h7l11-4 11-9 10-11 11-14 9-12 11-19 9-19 5-9 1-7 1-19z" fill="#9DCDD1"/>
<path transform="translate(318,784)" d="m0 0h126l1 8-1 40-1 14-2 11-3 37-7 47-2 22-4 28-1 4-2 19-2 3h-52v-30l3-88 1-16v-34l-4-18h-3l-3 11-8 19-13 25-14 23-7 10-4 5-3-7-3-16-4-17-5-19-1-3-1-12-6-21-9-40-1-4z" fill="#CA024D"/>
<path transform="translate(1207,785)" d="m0 0h47l-1 10-5 22-2 9-6 26-3 14-3 10-5 20-3 14-3 15-4 16-4 17-5 16-1 10-4 11-1 35-3 8-5 7-3 3-5 24-4 11-5 1h-18v13l-48 1-1-1-1-12-16-3-7-4-6-7-2-5-1-6v-23l3-8 6-6h14l5 7 1 21 2 9 4 4h10l4-3v-21l-3-22-5-19-6-33v-21l5-12 5-8 6-4 1-1 10 1 4 3v2l3 1 5 11 2 10 4 49 3 24h6l3-3h2l2-6v-15l-1-26v-79l2-26 4-16 6-17 11-25 6-13z" fill="#149076"/>
<path transform="translate(136,833)" d="m0 0 5 1 7 6 3 17 5 17 7 10 10 11 4 8v11l-4 13-6 16-1 10 4 11 10 16 8 14 1 7 3-1 2 13 3 14 1 7 19 1 1-24 6-10 6-7 4-9h2l2 2 5-3 2-5v-10l-4-15v-9l3-6 10-6 8-6 3-7-1-9-4-13v-8l5-12 7-6 2-1h7l5 4v8l-2 3h-2l-2 6-4 7v11l5 14v8l-3 7-9 8-6 5-2 5v27l-4 10-7 8-10 10-2 4v7l6 3v5l3 4 16 1-1 8h11l8 2 2 3v7l-4 4-9 4-4 1h-14l-5 47-2 12-8 15-7 7-11 7-9 3-15 1-11-2-8-3-1-2-5-3-9-8-5-8-5-16-5-45v-7l-6-2-5-15-1-9 2-1 21-1v-8l-2-16-3-14-6-12-6-9-4-11v-16l8-29 2-7v-10l-4-10-9-17-5-13-1-6v-13l3-6z" fill="#2056B4"/>
<path transform="translate(1282,505)" d="m0 0h16l10 4 6 5 7 12 5 15 5 32 5 25 4 14 9 39 5 27 2 14v8h-14l-28 1 2-17 10-65 2-26-42 2h-15l2 19 1 33 3 34 2 14v10l-5 2-43 8-2 1 1-6v-17l-4-24-6-29-7-29-3-11v-4l-9 5-5 3h-2l-2-7-5-37-2-13v-6l10-4 23-7 11-2 3 16 8 16 8 9h3l7-14 5-19 1-10-2-10 9-6 8-4z" fill="#2056B4"/>
<path transform="translate(636,669)" d="m0 0h137l22 1 5 4 12 36 16 47 2 5v3l3 1-2 1-171-1-3-5-6-17-15-45-6-16v-11z" fill="#FCFCFC"/>
<path transform="translate(610,786)" d="m0 0h65l4 10 7 27 4 27 1 12v37l-3 41-1 24-1 49-9 3h-3l3 5v2l4 2 6 4 16 1 10 4 4 5-1 6-10 5-7 1h-44l-6-4-3-4v-13l1-7h-7l-1-18-2-66-1-19-7-21-5-10-6-17-2-18-5-14-5-10-3-5v-7l6-25z" fill="#0D3B8C"/>
<path transform="translate(174,596)" d="m0 0 2 1-6 18h2l-1 21-3 42-2 51v30l2 10 1 1 33 1v3h-2l-1 10-1 1-28 1-7 45v12l23 2v4h-2l-2 8v8l1 5 3 1 5 6v2l4 2 8 9 2 7v8l-6 12-9 13-6 9-1 4v10l4 8 9 12 1 2v12l-4 11-2 3h-2l-4-11-9-15-8-13-3-9 1-10 7-19 3-10v-11l-4-8-12-13-5-8-5-17-3-17-7-6-6 1-5 6-1 3v13l3 12 11 23 4 8 1 3v10l-9 32-1 4v16l5 13 6 8 3 10 1 6-28 2-10 1h-3l-1-13-2-21v-68l3-30 5-39 7-52 3-20 2-18 5-26 6-23 13-41 13-36 8-19z" fill="#CBEFEE"/>
<path transform="translate(1391,660)" d="m0 0h37l14 3 12 6 5 4 4 7 2 7 1 19v107l-2 15-4 12-6 9-5 6-11 7-8 3-17 2h-14l-1-3 5-16 3-9 4-17 1-15-1-11 4-11 5-1 15-1 7-3 1-5-1-2-7-1h-28l-23-1-7-3-3-7h-3l-2 2 1-15-2-14-6-20-4-10v-12l6-14 9-10 8-5z" fill="#FCFBEA"/>
<path transform="translate(1306,593)" d="m0 0h22v18l-5 35-8 51-1 4 7-1 27-1 8 1 5 11 6 19 2 8 1 13-3 16-1 4-39 1h-27l-88-1 1-8 4-17 10-26 4-6 47-9v-10l-4-33-1-15-1-33-1-9v-10z" fill="#FE977B"/>
<path transform="translate(710,1095)" d="m0 0 359 1 31 1 5 11v8l-744-1-3-11v-8z" fill="#A4E5DE"/>
<path transform="translate(580,595)" d="m0 0 2 3 2 25 1 3 13 2 15 5 10 7 10 9 12 9h3l-2 6-3 5-9 2-4 1 1 11 6 16 23 69v3h-124v-19l-6-29v-7l3-11 8-16 1-4 5-5 12-15 6-8 1-10v-18l6-16 5-10z" fill="#2056B4"/>
<path transform="translate(1141,584)" d="m0 0 5 5 9 12 5 2h15l10-3 5-3 2-3 2 10 12-7 4-1 8 31 7 31 5 27 1 8v17l-2 9-5 11-5 14-4 14-3 13-6 1h-111v-1l37-1 8-26 9-28-8-3-1-4v-8l6-8-1-9-3-3v-12l7-7 5-8v-6l-4-8v-7l6-8v-11l-3-5-4 1-3 5-3 13-2 21-1 7-3 1-1-3v-10l2-11 2-40z" fill="#9DCCD0"/>
<path transform="translate(851,786)" d="m0 0h85l-3 5-10 7-41 20-12 8-8 8-7 13-3 25-1 50-3 30-3 23-4-2-6-11-6-10-15-26-13-15-9-11-9-13-6-16-2-13v-18l2-12 5-13 4-6 10-10 6-4 21-6z" fill="#0D3B8B"/>
<path transform="translate(526,840)" d="m0 0h1l2 21v25l-3 21-4 20-2 23-2 37-2 1-8-4-27-4v-129l1-4h-8v134l-23 3-17 6-8 5h-2l2-19 3-20 2-22 6-40 3-37 2-8 2-3h82z" fill="#9ACBCF"/>
<path transform="translate(387,663)" d="m0 0h2l3 13 3 7 5 10 12 1 26 1 4 1 2 23v52l-66 1h-50l-12-1-5-3-13-3 1-59 1-11h12l13 1h39l10-3 6-7 5-16z" fill="#EC306B"/>
<path transform="translate(1158,345)" d="m0 0h125l12 2 8 7 4 8 1 4v26l-2 6h-2l-1 5-8 7-7 2-109 1-14 1-11 6-8 5-5 2-1-1-1-11v-54l5-8 8-6z" fill="#9DCDD1"/>
<path transform="translate(1270,784)" d="m0 0h35l1 1v111h-2l-3-7-4-29-2-15-5-19-4-6-4-3h-8l-7 7v24l4 19 9 29v2h-2l1 26 3 20 5 17 3 18 2 10 2 25-3 6-2-2 2-4-1-5-8-3h-15l-18-1v2h2l-1 5-4 2 1 3 1 6h-16l2-2 6-3 1-3-12-1-1 2h-2l-3 21-1 11-5 4-1 17-2 8-7 2h-8l2-11 5-23 3-12 2-11 3-11 1-1 5-25 6-26 4-18 8-32 9-39 1-1 4-21 6-23 9-39z" fill="#9DCCD0"/>
<path transform="translate(722,436)" d="m0 0h132l9 4 5 5 4 7 1 5v62l-5-2-19-12-5-2-121-1-10-4-6-7-2-12v-21l3-10 7-9z" fill="#9ECDD1"/>
<path transform="translate(1207,785)" d="m0 0h47l-1 10-5 22-2 9-6 26-3 14-3 10-5 20-3 14-3 15-4 16-4 17-5 16-1 10-3 9-2-2-2-16-3-4h-9l-10 8-4 4h-1l-1-12v-79l2-26 4-16 6-17 11-25 6-13z" fill="#CA034E"/>
<path transform="translate(148,988)" d="m0 0 3 4 4 12 2 19 1 4v8l-1 1-23 1 4 15 3 9 5 2 4 32 2 25h-44v15l-1 4 18-1 31 1 1 2-3 1-48 1-2 1 1-5 1-21-9-11-22-14-9-9-8-16-2-10 1-9 2-11 7-10 5-5 7-6 14-7 21-5 4-1 17-2h18l-4-11z" fill="#A4E4DD"/>
<path transform="translate(1138,584)" d="m0 0h3l-1 31-1 18-2 11v13l2-1 2-14 1-14 4-16 4-4 4 1 3 5v11l-6 8v7l4 8v6l-6 9-6 6v12l3 3 1 9-6 8v8l1 4 8 2-4 14-5 15-8 26-1 1h-39l-3-12-8-42v-3h12l-5-14-3-10-4-27v-17l2-2h6l1 1v7l-1 3 3 1 1 15 1 9-1 3 5 1-2-13v-17l1-4 1-24 2-3 3 1 3 13 1 49h1v-32l-1-17v-23l3-7 3-1 1 1v11l-1 14h2l1-9 3-25 2-3h3l1 6 6 2-1 7-1 17 3-1 2-15v-13l2-12z" fill="#37AA8E"/>
<path transform="translate(1382,284)" d="m0 0 5 1 11 7 12 9 10 10 7 10 8 15 7 21 3 16 2 24v27l-2 31-3 1v-2h-4l-1 2h-2v2h-4l-1-3-2 1v-4l-5-1-2-2-1-6-3-1-1-4-5-1-1-3h-3l-4-7-8-8-2-5-5-2-3-1v-14l-5-12-1-2-1-16-2-10v-30l-1-12-2-4v-9l-2-4v-6l5-3h6z" fill="#BDD6DC"/>
<path transform="translate(602,826)" d="m0 0 3 1 5 8 6 15 1 4 2 18 7 19 5 11 6 18 2 51 1 34v18h-1l-1-17-70-1 3-23 5-45 5-23 3-15 6-25 4-18 6-23z" fill="#9BCCD0"/>
<path transform="translate(318,784)" d="m0 0h126v1l-44 1h-23l-4 17-4 16-2 12h-2l-3 11-8 19-13 25-14 23-7 10-4 5-3-7-3-16-4-17-5-19-1-3-1-12-6-21-9-40-1-4z" fill="#EC336B"/>
<path transform="translate(871,656)" d="m0 0h109l10 2 6 4 6 9 1 6v13l-1 11-5 10-4 3-12 3h-21l-21-1-1-1-3-14-5-17-4-1-4 2-4 4-10 8-12 7-4 1h-11l-13-5-9-5-10-9-7-8 1-9 6-9 5-3z" fill="#FECF0F"/>
<path transform="translate(1392,785)" d="m0 0h8l8 7v12l-6 26-5 13-4 10-4 13-4 8-3 15-1 8v10l4 24v10l-4 11-1 2h-2l-2 5-9 16-2 7v14l1 5 7 2 1 5h-8l1 15-2 7-1 1h-14l-2-10-3-10-7-14-8-11 1-2h2l1-10 9-21 4-11 1-13-1-10v-17l3-13 8-16 6-11 4-8 6-36 3-15 6-12z" fill="#148E77"/>
<path transform="translate(1319,784)" d="m0 0h43l1 39 1 15v13l-1 14-10 19-3 7-2 11v17l1 16-3 14-10 22-3 13-3 1-4-4-5-12-1-4v-32l-2-9v-137z" fill="#EC336B"/>
<path transform="translate(1081,650)" d="m0 0h1l3 29 4 19 5 13v3h-12l4 18 7 37v2h-165v-7l3-4 14-2-5-28v-5l2 2 3 17 3 12 2 1h17l19-2 27-2 15-3 14-4 9-2v-12l-11-14-7-15-3-11 1-7 9-6 20-12 14-7 3-2h3z" fill="#FE977A"/>
<path transform="translate(1116,409)" d="m0 0h8l3 3 1 4 1 14v25l4 14 12 28 10 18 14 23 4 7h11v2h2l5 35 1 12-3 5-9 4-5 1h-15l-6-3-12-16-7-10-4-10-5-13-4-13-3-16-9-61-6-22-2-3v-8l3-2 4 6h2l1-15 2-7z" fill="#FE977B"/>
<path transform="translate(146,1064)" d="m0 0 2 4 1 14h3l1 2h13l20-4 21-2 6-2 20-3 8-3h9l1-4-1 18-3 28-2 12-8 15-7 7-11 7-9 3-15 1-11-2-8-3-1-2-5-3-9-8-5-8-5-16-5-45z" fill="#2157B4"/>
<path transform="translate(1274,816)" d="m0 0h8l7 6 4 10 4 18 4 34 3 10 7 17v2h2l3 8 3 3 2 9v32l4 12 3 6 4 4 4 5 5 9 6 12 3 16-1 2h-23l-2-7-3-6-1-1-1 9v5h-13l-1-30-8-14-5-12-5-16-1-39-2-12-6-15-9-29-3-16v-24l6-7z" fill="#4DB9A2"/>
<path transform="translate(235,831)" d="m0 0h1l1 20 29 5 21 2 3 8 8 32 3 13 6 24v8l-5 6-6 10-9 14-14 22-13 21-6 9-3 4-7-2-7-4v-7l4-6 14-14 4-9 1-3v-27l3-6 8-7 7-6 2-6v-8l-5-14v-11l6-11 1-2h2l1-3v-8l-4-3h-7l-6 4-4 6-3 8v8l5 17-1 9-6 7-14 8-3 6v9l4 15v10l-3 6-5 3-2-1-2-16-4-10-3-8v-7l4-9 6-7 5-5 5-12 2-10-4-15-8-13-6-7-6-11 2-11 2-3 2-7z" fill="#ED356B"/>
<path transform="translate(976,299)" d="m0 0h16l10 3 9 5 9 8 8 14 3 11-1 15-7 14-7 8-14 9-11 3h-14l-13-5-10-7-9-10-4-8-1-3v-22l3-10 6-9 3-4h2l1-3 11-6z" fill="#94B7BE"/>
<path transform="translate(396,366)" d="m0 0 3 3 1 3v14l3 10 1 17v11l-2 13-5 13v33l-4 20-1 10-2 63-2 2-6-26-4-20-13-52-4-15-2-21-2-9-8-6-2-20-1-4v-9l3-9 7-8 10-5z" fill="#FE967A"/>
<path transform="translate(1471,811)" d="m0 0 1 3v7l-10 34-10 29-14 35-7 14 2 2-11-1-8 2-6 5-4 8-2 17-7 11-13 12-7 14-9-1-2-6v-14l4-11 10-17h2l3-10 1-3v-10l-4-24v-10l3-20 4-10 2-1v2l9-1 25-2 11-2 11-6 6-5 5-7 5-4 7-28z" fill="#CBEFEF"/>
<path transform="translate(124,1183)" d="m0 0h172l90 1v2l37 1 175 1h391l13 1v1l196 1 122 1 39 1h81v1l-20 1h-74l-53-1h-1016l-60 1-25 1h-36l-15-3-11-5-6-4z" fill="#DCF5F4"/>
<path transform="translate(365,831)" d="m0 0h3l5 18v34l-2 40-3 92h-1v-10l-5 1-26-1-3-8-8-34-9-38 5-9 10-15 12-21 12-23z" fill="#9DCCD0"/>
<path transform="translate(136,833)" d="m0 0 5 1 7 6 3 17 5 17 7 10 10 11 4 8v11l-4 13-6 16-1 10 4 11 10 16 8 14 1 7 3-1 2 13 3 14 1 8-18 1h-23v-9l-2-16-3-14-6-12-6-9-4-11v-16l8-29 2-7v-10l-4-10-9-17-5-13-1-6v-13l3-6z" fill="#4CB9A1"/>
<path transform="translate(680,404)" d="m0 0 6 1 7 4 3 5v7l-3 7-5 5-4 2h-10l-11-2-6 3-3 3-1 4-8 2-1 11v22l-6 14-7 8-9 6-13 4h-10l-13-5-8-7-3-5v-14l4-6 5-8v-12l3-6 8-6 8-4 11-4 6-5 6-12 5-5 4-2h32z" fill="#150420"/>
<path transform="translate(1422,933)" d="m0 0h6l9 3 6 9 3 11 4 27v31l-2 11-6 20-4 7-8-1-6-7-2-9v-5h-12l-3-3-5-9-9-3 2 5 7 9v1l-22 1h-14l-1-2 1-13v-8h8l-1-5 2-1 4-10 8-9 8-7 6-10 2-17 4-8 7-6zm-7 56-4 5-2 10h10l4-3-1-8-2-4z" fill="#4EBAA2"/>
<path transform="translate(1249 1e3)" d="m0 0h34l8 4 1 2h-2l2 4-2 4-4 12h-4l-2 5v6l7 7 3 9 5 2 2 14-4 3-11 4-11 6-4 5h-71l1-7 1-8 1 2 14-2 2-8 1-17 5-4 4-33 6-2 8 1 2 1-1 4-6 3h13l-1-5 1-2-2-1 5-2 1-5h-2z" fill="#A3E3DD"/>
<path transform="translate(961,878)" d="m0 0h4v116l-20 3-17 6-8 4h-3l-3 1v2h-2v2h-2v-3l-3-1 4-8 4-5 4-4v-7l-8-9-2-1 1-8 4-27 5-34 3-11 5-6z" fill="#9CCCD0"/>
<path transform="translate(775,514)" d="m0 0 14 1 5 3 3 4 3 17 4 21 5 16 10 16 10 8 14 9 7 5 7 8 9 12 7 7h11l-1-9 2-2 2 8 7 9 1 4 2 1-5 1-34 1-10 4-3 1-2 4-5 8-5-5-10-15-3-4v-2h-2l-12-17-9-15-6-12-6-20v-18l1-12v-18l-2-3-2 5-1 19-2 9-7 13-2-4-10-8-2-2-5-1 5-4 5-5 4-9 7-28z" fill="#FE977B"/>
<path transform="translate(444,846)" d="m0 0h31l-1 135-23 3-17 6-8 5h-2l2-19 3-20 2-22 6-40 3-37 2-8z" fill="#9ACCCF"/>
<path transform="translate(1450 1e3)" d="m0 0 15 6 7 8 1 9-1 9-6 9-4 5-6 13-1 3v12l4 8 5 7v2l7 1 40 15 10 5 3 3-13 1h-107v-12l4-36 1-12 7-2h2v-7l2-7 1-8 2-1 2 9 5 5v2h8l4-8 6-21z" fill="#A4E4DD"/>
<path transform="translate(1270,784)" d="m0 0h35l1 1v111h-2l-3-7-4-29-2-15-5-19-4-6-4-3h-8l-7 7v36l-6 25-3 13-9 18h-2l-1 5-3 9-2 10-2 23-3 12-3 9-6 21-5 43-5 4-1 17-2 8-7 2h-8l2-11 5-23 3-12 2-11 3-11 1-1 5-25 6-26 4-18 8-32 9-39 1-1 4-21 6-23 9-39z" fill="#D00E52"/>
<path transform="translate(1213,438)" d="m0 0h9l5 6 10 1h11l9 7 4 6 3 11 1 22-5 7-1 8 2 9 3 6 1 9-4 18-4 12-6 10-4-1-9-10-7-15-2-8-1-12-4-7-8-9-7-19 1-23-5-5-2-4v-10l5-6z" fill="#FD967B"/>
<path transform="translate(1278,898)" d="m0 0 3 1 4 9 2 12 1 39 8 24 8 15 2 3v30h13l-1-11 2-4 4 5 2 9h54l21-1-7-9-1-5 8 1 3 3 4 8v2l14 1-1 14-2 7-1 7-10 2-112-1v6h-1l-1-5-5-2-4-10-5-4-1-2v-6l3-6 4 1 1-6 6-11-2-25-4-20-2-11-5-18-2-16z" fill="#2157B4"/>
<path transform="translate(283,1050)" d="m0 0 50 1 9 38v3l-41 1h-31l-20-1-1 4h94l3 8 2 7v4l-102 1 2-24 3-27 3-1h12l11-4 4-1z" fill="#A3E4DD"/>
<path transform="translate(174,596)" d="m0 0 2 1-6 18h2l-1 21-3 42-2 51v30l2 10 1 1 33 1v3h-2l-1 10-1 1h-74l-1 2 1-10 4-33 5-26 6-23 13-41 13-36 8-19z" fill="#CEF0F0"/>
<path transform="translate(474,847)" d="m0 0h8v30l-1 103 13 1 14 2 8 4 1 6-7-1-12-3-17-2 1 23 5 5v9l-4 5h-10l-5-6v-7l6-7v-22l-21 3-18 7-9 8-1 5 4 5 1 2v6l-5 5-7 3 6 5 14 6 15 5 6 4 1 5-6 5-5 2h-19l-15-2h-29l-6-4-3-4v-23l1-2 1-11 41-1 2-8 1-13 10-5 11-5 12-3 8-1h10z" fill="#0F0D12"/>
<path transform="translate(391,676)" d="m0 0 2 4 7 13 12 1 26 1 4 1 2 23v52h-64l1-12 4-30 3-24 2-25z" fill="#CA014D"/>
<path transform="translate(468,987)" d="m0 0h6l1 22-6 7v7l4 5h10l3-4v-9l-5-5v-23l17 1 12 3 6 3 1 1 1 48-1 13h-1v-10l-59 1-2 2-11-4-14-5-10-6-3-4 8-3 4-2v-8l-4-6-1-4 7-8 6-4 16-6z" fill="#A3E3DC"/>
<path transform="translate(1342,699)" d="m0 0 14 1 5 11 6 19 2 8 1 13-3 16-1 4-39 1h-27v-3l3-3 3-14 7-48 1-3 7-1z" fill="#EC306B"/>
<path transform="translate(971,485)" d="m0 0 11 1 11 6 4 5 7 14 8 4 1 7-6 11-3 1v13l-7 6-6 2-1 4-4 2-7 9-8 5h-14l-10-5-6-5-2-6 1-17 3-10 4 1 17 1 6 3 7 6 3-1 4-11-1-7-7-6-9-4-10-4-5-5-1-5 5-8 7-5z" fill="#100D15"/>
<path transform="translate(1105,1114)" d="m0 0h1v6l-25 1-718-1-1 2v-3l20-1 5-1-20-1v-1h737z" fill="#D7F7F5"/>
<path transform="translate(839 1e3)" d="m0 0h1v12l-2 17h-1v-5l-129 1-2 1h-19l-6-4-7-7v-3l11-3 3-8h149z" fill="#A3E4DD"/>
<path transform="translate(1123,1097)" d="m0 0h56l-1 7-6 30-5 10-10 10-7 3h-20l-10-5-7-8-4-8-3-14-3-17-2-5 3-2z" fill="#FECF10"/>
<path transform="translate(892,652)" d="m0 0 92 1 11 4 7 7 3 10v22l-2 10-4 6-7 6-3 1-43 1-6 1h-77l-13 8-8 5-4-1v-60-3l5-8 5-5 10-4zm-21 4-17 1-6 4-5 8-1 9 11 12 9 7 13 6 6 2h11l10-4 10-7 12-10 5-1 3 8 5 17 1 7 1 1 21 1h21l12-3 5-5 4-8 1-11v-13l-2-8-6-8-7-4-8-1z" fill="#9FCDD1"/>
<path transform="translate(1084,644)" d="m0 0h6l1 1v5l-3 1-1 6h4l1 5-1 1v11l1 15 2 10 4 1v9l1 4h13l4-1-1-1v-6l1-2h2l2-7h1l-1 8-2 10h29l3 2-9 28-8 26-1 1h-39l-3-12-8-42v-3h12l-5-14-3-10-4-27v-17z" fill="#0D3B8B"/>
<path transform="translate(909 1e3)" d="m0 0 2 1zm45 0h12v22l-6 7 1 7 3 5 11 2 43 1 5-1h55v8l-3-1h-195v-16l12 1 3-13 6-15 8-6-1 5 2 1v3h2v-2h2v-2l5-3 1 3-6 5-7 13-5 5v6l4 5 2 1h8l3-5 1-7-5-6 1-4 4-6 11-7 9-4z" fill="#A3E3DD"/>
<path transform="translate(299,617)" d="m0 0h2l-3 21-5 32-2 21 9 2-1 61-1 11-13-1-24-3-1-1-1-22-4-11-1-6h9l3-12 8-23 10-24 5-21 4-16z" fill="#9CCDD0"/>
<path transform="translate(274,871)" d="m0 0h7l5 4v8l-2 3h-2l-2 6-4 7v11l5 14v8l-3 7-9 8-6 5-2 5v27l-4 10-7 8-10 10-2 4v9l-1 11h-19l-1-1 1-24 6-10 6-7 4-9h2l2 2 5-3 2-5v-10l-4-15v-9l3-6 10-6 8-6 3-7-1-9-4-13v-8l5-12 7-6z" fill="#4DB7A2"/>
<path transform="translate(452,652)" d="m0 0 7 1 8 6 5 8 4 8 2 2v95l-7-1h-16l-2-3-1-23-2-7-3 6-1 28h-56v-1h54l-1-63h1l1 9h4l2-13 2-6v-11l-3-7 2-10z" fill="#FCF8E7"/>
<path transform="translate(444,784)" d="m0 0 3 1v2h8l12-2h9l3 2 3 16 6 11 8 9 9 6 10 4 11 3v10h-82l-1 3-1-3 1-14z" fill="#FBF9E9"/>
<path transform="translate(1109,1090)" d="m0 0h3l1 8-9 1-3 1-1-2-31-1-359-1-346 1-6-1-1 3-1-7 750-1z" fill="#CDF0F0"/>
<path transform="translate(1278,705)" d="m0 0h1l1 5 1 18v24l-17 1-13 4-6 7-3 7h-30l1-8 4-17 10-26 4-6z" fill="#CA024D"/>
<path transform="translate(306,943)" d="m0 0h2l3 13 3 11 7 31 5 23v3h-55l-14-1 3-9 15-24 11-17 15-24z" fill="#9ECDD1"/>
<path transform="translate(1019 1e3)" d="m0 0h103l3 9 3 16 1 10v21l-5 4h-10l-5-5-2-9-1-21-4-6h-14l-4 4-49 1-5-4-2-7-7-8-2-1z" fill="#A3E4DD"/>
<path transform="translate(1296,1059)" d="m0 0h113l-1 10-9 1-6 2-28 3-26 5-12 3-9 3-4 1h-11l-3 16-4 1h-22l-6-4-2-3v-5l6-7 17-8 7-3z" fill="#1B4BA3"/>
<path transform="translate(871,656)" d="m0 0h109v1h-79l8 16 7 10 1 2h4l-1 3-6 4-6 5-12 7-4 1h-11l-13-5-9-5-10-9-7-8 1-9 6-9 5-3z" fill="#FE977A"/>
<path transform="translate(236,785)" d="m0 0h34l2 6 5 21 5 18 4 20 1 8-21-1-29-5-1-1-1-21 3-7 4-17v-9l-4-9z" fill="#0D3C8C"/>
<path transform="translate(845,1034)" d="m0 0h18l16 2v39l-3 3-5 1-46 1-8 1h-9l-10-4-3-5v-5l7-6 9-4 12-3 12-5 5-7 4-7z" fill="#0F0D12"/>
<path transform="translate(969,876)" d="m0 0h3v118l16 1 18 6 10 5 8 6 6 8 2 6 5 5v6l-6 7h-8l-5-5-1-6 2-5 4-5-4-6-10-7-10-3v-2l-10-1-17-2 1 23 5 5 1 6-5 8h-10l-4-6-1-7 6-7 1-22-26 3-16 8-5 4-3 5 1 4 4 5-1 7-3 5-1 1h-8l-5-4-2-3v-6l7-8 5-10 8-7 12-6 12-4 5-1h16v-117z" fill="#0F0F1A"/>
<path transform="translate(708,1028)" d="m0 0h129v5l7 1-2 5-4 7-2 1-5-1-64 1h-27l-20-1-4-1v-6l-5-5-8-3 3-2z" fill="#A3E4DD"/>
<path transform="translate(1189,1120)" d="m0 0h114l6 16 1 3-134-1-4-2v-3l14-1z" fill="#A3E4DD"/>
<path transform="translate(455,391)" d="m0 0 1 4-6 23-8 13-11 13-10 13-9 7-4 2-12-1v-15l5-13 2-5 1-6 1-17 2 2 2 5 3 2 2-7 4-4 8-4 3-2 14-2 1-1h7v-2h2z" fill="#9DCDD0"/>
<path transform="translate(170,785)" d="m0 0h28l9 28v8l-6 10-9 10-5 5-24-2-1-1v-12l7-45z" fill="#0D3B8C"/>
<path transform="translate(474,847)" d="m0 0h8v30l-1 103 13 1 14 2 8 4 1 6-7-1-12-3-17-2 1 23 5 5v9l-4 5h-10l-5-6v-7l6-7v-22l-21 3-18 7-9 8-3 6-1-3 1-13 10-5 11-5 12-3 8-1h10z" fill="#0F172C"/>
<path transform="translate(1138,584)" d="m0 0h3l-1 31-1 18-2 11v13l2-1 2-14 1-14 4-16 4-4 4 1 3 5v11l-6 8v7l4 8v6l-6 9-6 6v12l3 3 1 9-6 8v8l1 5h-18l-5-1 1-8 3-1-1-5 2-5 3-20 1-16-1-6 4-13v-12l2-1 2-15v-13l2-12z" fill="#39AC8F"/>
<path transform="translate(1130,1183)" d="m0 0h375l-3 2-16 4-12 1v-1l-425-1v-1l24-3z" fill="#CEF1F1"/>
<path transform="translate(1270,784)" d="m0 0h35l1 1v111h-2l-3-7-4-29-2-15-5-19-4-6-4-3h-8l-3 1-2-7v-9l-1-8v-5l-1-3z" fill="#ED386C"/>
<path transform="translate(249,1096)" d="m0 0h94l3 8 2 7v4l-102 1 1-16z" fill="#A3E4DD"/>
<path transform="translate(478,785)" d="m0 0h54l-4 13-3 15v23l-10-2-12-5-10-8-8-10-4-8-3-16z" fill="#9DCDD1"/>
<path transform="translate(972 1e3)" d="m0 0h10l17 3v2h5l8 4 9 7 3 6-5 5-1 7 3 6 7 2v1l-10 2-43-1-3-2 4-4 2-4-1-6-5-5z" fill="#A2E3DC"/>
<path transform="translate(1158,345)" d="m0 0h125l12 2 8 7 4 8 1 4v26l-2 6h-2l-1 5-8 7-7 2-109 1-14 1-11 6-8 5-5 2-1-1-1-11v-54l5-8 8-6zm4 4-9 3-6 6v2h-2l-2 6v54l4-1 14-9 115-1 11-1 9-6 5-6 2-11v-13l-3-12-6-8-8-3z" fill="#D3F4F3"/>
<path transform="translate(569 1e3)" d="m0 0 69 1 1 1v17h8l-1 5h-90l9-18 2-5z" fill="#A3E4DD"/>
<path transform="translate(1262,1095)" d="m0 0 5 2 5 5 2 1 26 1 2 10v5l-1-4h-111l3-14 1-4 14-1z" fill="#A2E3DD"/>
<path transform="translate(148,988)" d="m0 0 3 4 4 12 1 24h-88l6-8 10-6 8-4 21-5 4-1 17-2h18l-4-11z" fill="#A5E4DE"/>
<path transform="translate(633,694)" d="m0 0 3 1 8 25 16 48v3h-44l1-8 6-22z" fill="#0D3C8C"/>
<path transform="translate(667,1017)" d="m0 0h6l4 4v2l4 2 6 4 16 1 10 4 4 5-1 6-10 5-7 1h-44l-6-4-3-4v-13l2-8z" fill="#0F0D13"/>
<path transform="translate(146,1062)" d="m0 0h106l-2 8-4 1-9 1-9 3-15 2-6 2-21 2-20 4h-13l-1-3h-3z" fill="#1B4BA3"/>
<path transform="translate(534,1032)" d="m0 0h10l12 9 4 2 14 1 9 3 5 5-1 5-8 5-9 2-11 1h-30l-10-5-2-4v-13l1-8 7-2z" fill="#0F0D13"/>
<path transform="translate(940,725)" d="m0 0 2 2 3 17 3 12 2 1h17l19-2 27-2 15-3 14-4 9-2 1-1 1-8 4 1 5 5v2l-7 2-3 5-5 3-4 7-11 4-15 3-3 2-3 1-4-1-5 1h-72v-9l5-2 10-1-5-28z" fill="#FC9D78"/>
<path transform="translate(646,1027)" d="m0 0 1 3v13l1 3-66 1-8-2-14-1-11-7-3-3v-3l9-3z" fill="#A3E3DD"/>
<path transform="translate(235,831)" d="m0 0h1l1 20 29 5-1 8-6 18-4 17-6 20-5 13-6 16-1 4-1 25h-1l-2-7-6-17v-7l4-9 6-7 5-5 5-12 2-10-4-15-8-13-6-7-6-11 2-11 2-3 2-7z" fill="#9DCDD0"/>
<path transform="translate(468,987)" d="m0 0h6l1 22-6 7v7l3 4v2l-45-1 2-5v-6l-4-6-1-4 7-8 6-4 16-6z" fill="#A3E4DD"/>
<path transform="translate(358,464)" d="m0 0 4 1 5 19 14 56 5 25 1 4v9h-2l-6-12-7-11-17-26-1-4 2-4 5-4v-4l-9-2-1-1v-12l3-32z" fill="#0D3C8B"/>
<path transform="translate(396,366)" d="m0 0 3 3 1 3v14l3 10v6l-1 1h-5l-4-8-21 2-6 5h-2l-2 6-1 12-3-1v-2h-9l-3-12v-9l3-9 7-8 10-5z" fill="#150827"/>
<path transform="translate(155,1011)" d="m0 0h1l2 16v8l-1 1-23 1 2 11-14-1h-41l-22-1 3-13 4-5h90l-1-4z" fill="#A4E4DD"/>
<path transform="translate(987,559)" d="m0 0 3 1 4 13 15 3 2 2-14-2-1 15-5 10-6 5-8 4-7 1-9-4-5-4-4-8-1-3-1-16 3-1 1-2 3 1h14l9-6z" fill="#FC9D78"/>
<path transform="translate(663,432)" d="m0 0 18 3-1 4-1 21-10 1 1 3 8 1-1 5-4 6-15 8-6 3v3l-12-1 1-6 2-5v-28l2-5 4-2h4l1-5 6-5z" fill="#FE947A"/>
<path transform="translate(1213,438)" d="m0 0h9l5 6 10 1h11l9 7 4 6 3 11v14l-4-1-3-5-6-1-6-8-6-1-21 2-2 6-1 6h-5v-15l-5-5-2-4v-10l5-6z" fill="#0F0D15"/>
<path transform="translate(722,436)" d="m0 0h132l9 4 5 5 4 7 1 5v62l-5-2-19-12-5-2-121-1-10-4-6-7-2-12v-21l3-10 7-9zm5 3-10 4-6 8-3 8v22l4 9 5 5 4 3 4 1 122 1 10 5 9 6h3v-55l-3-7-7-7-6-3z" fill="#EDFAF9"/>
<path transform="translate(1283,1188)" d="m0 0h193l-4 3-17 2-46 1h-50l-39-1-269-2v-1l11-1h219z" fill="#A3E2DC"/>
<path transform="translate(85,1096)" d="m0 0h62l3 3 2 16v5h-44v15l-1 4 18-1 31 1 1 2-3 1-48 1-2 1 1-5 1-21-9-11-6-4-5-5z" fill="#A4E4DD"/>
<path transform="translate(504,244)" d="m0 0h7l2 2 2 19v13l-3 10-6 11-1 7-2 2h-10l-6-2-2-7v-23l2-15h4l4 4 2-10 5-10z" fill="#FE977B"/>
<path transform="translate(283,785)" d="m0 0h32l-2 25-5 39-2 10-5 2-1-1-2-13-5-18-9-40z" fill="#0E3C8D"/>
<path transform="translate(366,477)" d="m0 0 7 1 7 3h9l7-1v10l-3 13-1 10-2 63-2 2-6-26-4-20-12-48z" fill="#FECD13"/>
<path transform="translate(892,652)" d="m0 0 92 1 11 4 7 7 3 10v22l-2 10-4 6-7 6-3 1-43 1-6 1h-77l-13 8-8 5-4-1v-60-3l5-8 5-5 10-4zm-21 4-17 1-6 4-5 8-1 9-1 2v41l1 8 10-6 9-5 79-1h41l12-3 5-5 4-8 1-11v-13l-2-8-6-8-7-4-8-1z" fill="#FCFBEA"/>
<path transform="translate(662,618)" d="m0 0h2l5 12 6 11 9 11 7 5 4 1h11l4 1-1 5-4 3h-4l6 1v1h-64l8-16 7-16 3-12z" fill="#9DCBCF"/>
<path transform="translate(243,1027)" d="m0 0 10 1h75l3 14v4h-49l-1 2v-2l-19-2v-6l1-2h-16l-4-5z" fill="#A3E4DD"/>
<path transform="translate(397,465)" d="m0 0 7 1 2 1 4 23 2 18-2 3-7 1-1 5 6 6 1 8-7 17-5 11-3 7-3 4-1-2v-31l1-24 2-15 3-15z" fill="#0D3B8B"/>
<path transform="translate(1115,408)" d="m0 0h10l6 5 6 9-1 22v19l5 12 13 27 5 12 7 14 2 5-1 4-10-17-13-23-12-28-4-14v-25l-1-14-2-5-1-1h-8l-2 3-1 5-1 15h-4l-3-5-2 1v8l3 6 5 19 10 67-1 4-5-9-1-10-2-8v-12l-4-8v-19l-4-18-2-4-2-8v-9l7-12 5-5z" fill="#ACCACB"/>
<path transform="translate(134,1187)" d="m0 0h181l102 2 25 1v1l-126 1-75 1-32 1h-65l-6-2z" fill="#A4E2DC"/>
<path transform="translate(1159,1160)" d="m0 0h213l161 1v3h-173l-131 1h-34l-51-1v-2z" fill="#CDF0F0"/>
<path transform="translate(1249 1e3)" d="m0 0h34l8 4 1 2h-2l2 4-2 4-2 6-4 3h-58l-2-1 1-12 6-2 8 1 2 1-1 4-6 3h13l-1-5 1-2-2-1 5-2 1-5h-2z" fill="#A3E4DD"/>
<path transform="translate(269 1e3)" d="m0 0 1 2-1 3h52l3 8 2 11h-55l-14-1 3-9z" fill="#A5E3DD"/>
<path transform="translate(1307,510)" d="m0 0 5 2 7 10 6 15 4 21 4 27 5 19 10 42 6 32 2 14v8h-8v-1l-6-1 1-2 8-4-2-17-2-8-1-11-2-5-1-9-2-7-1-5-1-7-3-5-1-2-4-1-3 23-2 9-2 13-2 9-3 12h-1v-9l8-53 2-26-42 2h-14l2-2 6-2 18-1h28l4 1v-6l-1-2-3-24-2-13v-4l-2-1-2-5-3-9-4-8-6-7z" fill="#1B4CA4"/>
<path transform="translate(1286,1026)" d="m0 0 1 2-1 3h-4l-2 5v6l2 4-7 1h-51l-2-1v-9l2-10h60z" fill="#A3E3DC"/>
<path transform="translate(125,769)" d="m0 0 1 2h35l40 1-2 12-1 1h-74l-1 2 1-10z" fill="#FAFBFB"/>
<path transform="translate(1109,1090)" d="m0 0h3l1 8-9 1-3 1-1-2-31-1-169-1 1-2-67-1v-1l272-1z" fill="#CCEFEF"/>
<path transform="translate(880,1045)" d="m0 0 10 1h13l14-1 44 1 4-1 53 1 5-1h55v8l-3-1h-195z" fill="#D6F7F5"/>
<path transform="translate(1273,1183)" d="m0 0h232l-3 2-11 3-234-1v-2l3-1z" fill="#D6F7F5"/>
<path transform="translate(1278,898)" d="m0 0 3 1 4 9 2 12 1 39 8 24 8 15 2 3v29h-14l2-6 1-4-2-6-2-25-4-20-2-11-5-18-2-16z" fill="#ED3E6F"/>
<path transform="translate(104,1160)" d="m0 0h315l-2 2-11 1h-21l-34 1h-243l-1 4z" fill="#CDF0F0"/>
<path transform="translate(1450 1e3)" d="m0 0 15 6 7 8 1 9-1 9-6 9-1 1-23 1-2 1 3-9 5-17z" fill="#A4E2DD"/>
<path transform="translate(242,718)" d="m0 0 10 2 3 2 4 13 1 3v7l-4 2v13l-17-1-7-2 2-5 2-6-3-7v-11l2-7 2-2z" fill="#FE967B"/>
<path transform="translate(445,640)" d="m0 0 5 1 14 7 9 8 6 11v104h-1l-1-94-4-5-6-12-8-6-7-2 1 9v9l-2 10 3 7v11l-5 19-4 1-1-1-2-13v-9h6l-2-15-1-12z" fill="#F4FAF9"/>
<path transform="translate(1103,1023)" d="m0 0h24l2 17v21l-5 4h-10l-5-5-2-9-1-21-3-5z" fill="#A3E3DD"/>
<path transform="translate(372,1137)" d="m0 0h102l-3 3-7 1h-2l-35 1h-181l-3-1v-2l51-1h66z" fill="#CDF0F0"/>
<path transform="translate(1154,346)" d="m0 0h59l-3 2-37 1-16 2-6 4-4 5h-2l-1 6-1 54 7-4 11-7h90l5 1v1l-65 1-26 2-11 6-8 5-5 2-1-1-1-11v-54l5-8 8-6z" fill="#E5F8F7"/>
<path transform="translate(124,1183)" d="m0 0h172l8 2-3 2-43 1h-123l3 3-7-2-7-5z" fill="#D9F9F7"/>
<path transform="translate(954 1e3)" d="m0 0h12v22l-2 1-2-1-44-1-1 3-2-1 1-4 4-6 11-7 9-4z" fill="#A2E2DC"/>
<path transform="translate(972 1e3)" d="m0 0h10l17 3v2h5l8 4 9 7 3 6-2 1-4-1h-43l-3 1z" fill="#A1E2DB"/>
<path transform="translate(1038,1028)" d="m0 0h45l-3 9-1 19h-1l-1-10h-47l-2-2 5-3 3-4v-8z" fill="#A3E3DD"/>
<path transform="translate(575,680)" d="m0 0h4l3 3 10 6 5 4-1 5-8 11-7 6-6 3-7-2-5-4-1-2v-7l6-12z" fill="#2056B3"/>
<path transform="translate(258,746)" d="m0 0 2 1 1 13 30 4 16 2 8 3 1 2h-86v-22l3 4v4l23 3-1-11z" fill="#1F54B1"/>
<path transform="translate(955,508)" d="m0 0 8 4 11 4 8 6 3 5-1 7-4 9-3 1-10-8-3-1-17-1-2-4 5-12z" fill="#FE967A"/>
<path transform="translate(356,1092)" d="m0 0h197l-2 4-187 1-6-1-1 3z" fill="#CDF0F0"/>
<path transform="translate(163,844)" d="m0 0 23 1v4h-2l-2 8v8l1 5 3 1 5 6v2l4 2 8 9 2 7v8l-6 12-4 6-1-2 1-2h-2l-4-9-7-26-2-18-3-12-1-7-13-2z" fill="#9CCFD1"/>
<path transform="translate(987,559)" d="m0 0 3 1 4 13 5 1-3 2-1 7-4-1-6 3h-3v2l-10 3-9 1 1 9-8-2-3-5-1-3v-10l9-3-2-2 12-1 9-6z" fill="#FE957A"/>
<path transform="translate(1185,1050)" d="m0 0h6v9l-5 19-2 5-5 1h-17v-21l1-2 12-5 4-2 3-3z" fill="#0F0D13"/>
<path transform="translate(1293,1076)" d="m0 0h4l2 11v16l-3 1h-22l-6-4-2-3v-5l6-7 17-8z" fill="#0F0D12"/>
<path transform="translate(916,689)" d="m0 0h4l2 8v9l-6 4 1 2-4 2-1 2h-44l1-2h2v-2l8-7 13-1 10-4 10-7z" fill="#A3C4C8"/>
<path transform="translate(487 1e3)" d="m0 0h29v23h-30v-13l-5-5 1-3z" fill="#A3E4DD"/>
<path transform="translate(659,765)" d="m0 0 172 1-1 4-170 1z" fill="#AAC8CE"/>
<path transform="translate(1080,656)" d="m0 0h1v6l-1-2-7 3-3 2-2 5-5 5-3 4-5-1-4 1v6l5-1v-2l3 1-7 12-3 6h-2v6l-6-4-1-4 1-2-7 1 2 1 2 10 4 8-1 2-8-16-3-11 1-7 9-6 20-12 14-7 3-2h3z" fill="#FC9C77"/>
<path transform="translate(680,1023)" d="m0 0 157 1v4l-129 1-2 1h-19l-6-4z" fill="#DBFBF8"/>
<path transform="translate(1126,931)" d="m0 0 2 1-1 11v17l3 19 9 37 2 10 1 10v20l-2 30v11h-4v-13l1-8-12 2-13-3-8-5-4-7-3-12v-24l3 1 1 28 3 8 10 7 4 2 10 2 9-3 2-10v-15l-2-18-6-31-7-33-1-18z" fill="#38AB8E"/>
<path transform="translate(1062,1189)" d="m0 0h221l56 1 3 2h-144l-147-1v-1z" fill="#A0CDD2"/>
<path transform="translate(174,750)" d="m0 0 12 1 22 4-1 6-5 10h-32l2-16z" fill="#2055B2"/>
<path transform="translate(335 1e3)" d="m0 0 32 1 1 12h11v11l-2-4h-27l-10-1-5-17z" fill="#A4E3DD"/>
<path transform="translate(580,595)" d="m0 0 2 3 2 25v7l-3 10-8 11-6 5-1-3v-24l6-16 5-10z" fill="#9FCBCF"/>
<path transform="translate(468,987)" d="m0 0h6l1 22-2 1-1-4-21-1-22 1-1-4 7-6 18-7z" fill="#9ACBCE"/>
<path transform="translate(975,1137)" d="m0 0h128l-1 5h-112l-15-1-1-3z" fill="#CCEFEF"/>
<path transform="translate(376,1027)" d="m0 0h2l-2 19-12 1-19-1-2-7-2-11z" fill="#A4E4DD"/>
<path transform="translate(717,1044)" d="m0 0 3 1 20 1h27l66-1 3 1-1 4-12 5-5-1v-2l-2-1h-105l2-5z" fill="#CDF0F0"/>
<path transform="translate(909 1e3)" d="m0 0 2 1zm-1 1 1 2-1 3 2 1v3h2v-2h2v-2l5-3 1 3-6 5-7 13-5 5v6l4 5 8 2-1 2-10 1h-13l-9-1-1-1v-9l12 1 3-13 6-15z" fill="#A1E1DB"/>
<path transform="translate(481,987)" d="m0 0 17 1 12 3 6 3 1 1v30h-1l-1-19h-28l-6 2z" fill="#9CCCD0"/>
<path transform="translate(351,1070)" d="m0 0h207l2 3-36 1-34-1-113 1h-13l-12-1z" fill="#CDF0F0"/>
<path transform="translate(1509,1111)" d="m0 0 7 2 8 5v1l-13 1h-107v-6l107 1 1-1z" fill="#CCEFEF"/>
<path transform="translate(926,682)" d="m0 0 4 1 3 8 5 17 1 7 1 2h-77v-1h49l2-4 4-4 3-2v-9l-1-8-2-1 6-5z" fill="#A3CED2"/>
<path transform="translate(1128,602)" d="m0 0 4 1-1 7v17l1 1v11l-4 13 1 9-2 19-2 14-2 7v3l-2 1-1 7 4 2h-6l1-10v-3l-2 2 2-13v-10l2-6-1-5-1-3 3-6 2-6 1-4v-11l-2-6 1-5h2l-1-10-1-4 2-9z" fill="#138A77"/>
<path transform="translate(1171,1134)" d="m0 0 5 3 123 1 11 1v2l-2 1h-138l-3 2 2-5z" fill="#CCF0EF"/>
<path transform="translate(1422,993)" d="m0 0 2 2 1 10-1 24-1 1h-13l-3-3-5-9-4-5 7-7 4-9 1 4-1 3 10-1 3-2z" fill="#A3E2DC"/>
<path transform="translate(842,666)" d="m0 0h1v13l-1 1v41l1 7 9-6 9-5h80l-1 4h-77l-13 8-8 5-4-1v-60-3z" fill="#F2FBFA"/>
<path transform="translate(1159,1160)" d="m0 0 152 1 13 1-1 2-94 1h-34l-51-1v-2z" fill="#CDF0F0"/>
<path transform="translate(783,529)" d="m0 0 4 4v18l-1 12v23l-2-1-2-3-3 1-3 6h-2l-1 3-7 1-3 2 2-6 9-19 5-9 1-7 1-19zm-21 66 1 2-5 8-1-2zm-6 10v3zm-2 3v3z" fill="#ABC9CA"/>
<path transform="translate(441,851)" d="m0 0h1l1 19-1 13-1 1-1 12v21l-3 9 1 6-2 10-3 9v6l-2 9h-2l1 7 3 9 1 6h-2l1 3-7 4h-2l2-19 3-20 2-22 6-40 3-37z" fill="#97B6BC"/>
<path transform="translate(1191,1115)" d="m0 0h110l1 5h-108v-1l6-1-1-1-8-1z" fill="#D6F7F5"/>
<path transform="translate(893,657)" d="m0 0h8l8 16 7 10 1 2h4l-1 3-4-1-10-2-4-1 1 5-2 2-5-1-2-2v-3h-4l1-8 1-3-1-4-1-9 1-3z" fill="#FC9C77"/>
<path transform="translate(247,1115)" d="m0 0h101l1 5h-103z" fill="#D6F7F5"/>
<path transform="translate(1278,705)" d="m0 0h1l1 5 1 18v24h-15l2-1v-17l3-24 1-3z" fill="#EC2F6B"/>
<path transform="translate(1422,1138)" d="m0 0h112l2 1v3h-134l-2-2 1-1z" fill="#CDF0F0"/>
<path transform="translate(1101,623)" d="m0 0 3 1 2 20v51h2v3h-5l-2-4-2-18-2-5v-17l1-4 1-24z" fill="#1C967C"/>
<path transform="translate(1112,412)" d="m0 0 2 1-1 5-1 15h-4l-3-5-2 1v8l3 6 5 19 10 67-1 4-5-9-1-10-2-8v-12l-4-8v-19l-4-18-2-4-2-8v-9l7-12z" fill="#B0CCCD"/>
<path transform="translate(722,436)" d="m0 0h98v1l21 1v1l-114 1-10 4-6 9-2 6v22l4 9-1 2-5-1-2-12v-21l3-10 7-9z" fill="#DCF9F7"/>
<path transform="translate(299,617)" d="m0 0h2l-3 21-5 32-3 15h-1l-3-10-5-1 1-7 5-16 5-23 4-8z" fill="#9DDED8"/>
<path transform="translate(224,405)" d="m0 0h2l-3 9-8 22-10 32-12 48-5 27-2 5h-1v-8l3-15 2-15 11-44 9-29 6-16h2l3-9z" fill="#CFE3E5"/>
<path transform="translate(386,651)" d="m0 0h2v3h2l3 5 2 14 5 8 2 1 3 5 1 3 12 2h8l2 1 14 1v2l-30-1-12-1-4-6-4-8-3-17h-2l-2 11-4 12-6 7-2-2 3-9 3-1 3-13 2-14z" fill="#18479D"/>
<path transform="translate(1450 1e3)" d="m0 0 15 6 7 8 1 9-1 9-3 5-1-2 4-11h-20l-4-1 1-13z" fill="#A8E5DF"/>
<path transform="translate(1102,1159)" d="m0 0h16l5 2 10 2-2 2-18 1h-53l-5-4v-2z" fill="#CDF0F0"/>
<path transform="translate(101,1111)" d="m0 0 4 2 3 2h42l2 5h-44v15l-1 4 18-1 31 1 1 2-3 1-48 1-2 1 1-5 1-21z" fill="#D9F7F5"/>
<path transform="translate(300,1184)" d="m0 0h86v2l29 1 2 2-4 1-98-2-14-1z" fill="#CCEFEF"/>
<path transform="translate(820,436)" d="m0 0h34l9 4 5 5 4 7v56l-2 4-3-1h2l-1-55-3-7-9-8-3-1-12-1-83-1v-1z" fill="#F3FAFA"/>
<path transform="translate(1214,1184)" d="m0 0h46l-3 1v2h231l-2 2-12 1v-1l-251-1-9-2z" fill="#CDF0F0"/>
<path transform="translate(1084,644)" d="m0 0h6l1 1v5l-3 1-1 6h4l1 5-1 1v11l1 15 2 10 4 1v9l1 5h-2l-3-8v-4l-4 1-4-13-4-27v-17z" fill="#0E3978"/>
<path transform="translate(559,1023)" d="m0 0h88l-1 5h-90l2-4z" fill="#DAF9F7"/>
<path transform="translate(72,1022)" d="m0 0 2 1h81l1 5h-88z" fill="#D7F7F5"/>
<path transform="translate(1278,898)" d="m0 0 3 1 4 9 2 12 1 39 4 12-1 3-3 1-3-17-5-18-2-16z" fill="#EE3B6C"/>
<path transform="translate(61,1035)" d="m0 0 1 2-3 9h63l13 1 1 5-78-1 2 15 2 9-3-4-3-13 1-9 2-11z" fill="#DAF8F6"/>
<path transform="translate(1206,1049)" d="m0 0 11 2-1 18-2 8-7 2h-8l2-11 4-18z" fill="#0F0F1B"/>
<path transform="translate(1391,660)" d="m0 0h5l1 3-13 3-7 6-5 5-6 13-1 16-5 1v-2l-3-1v-12l6-14 9-10 8-5z" fill="#F9FCFB"/>
<path transform="translate(1296,1060)" d="m0 0h58l-1 2-10 2-21 4h-22l-1 3h-3z" fill="#0D3B8B"/>
<path transform="translate(1305,374)" d="m0 0h2v22l-1 2h-2l-1 5-8 7-7 2h-97v-1l60-1v-1l25-1 11-1 9-6 4-5 3-9h2z" fill="#D8F8F6"/>
<path transform="translate(262,1045)" d="m0 0h17l4 4v7l-4 4-6 3h-13v-9z" fill="#0F0F15"/>
<path transform="translate(1395,1184)" d="m0 0h107l-2 2-12 2-94-1-38-1v-1z" fill="#E2FCF9"/>
<path transform="translate(361,842)" d="m0 0h1l1 9v12l-5 14 1 11-4 1-6-7v-4l-3-1 2-6 10-21z" fill="#A4C5C8"/>
<path transform="translate(250,1092)" d="m0 0h92l1 4h-94z" fill="#CDF0F0"/>
<path transform="translate(583,1046)" d="m0 0h66l4 3v2h-53l-13 1-4-4z" fill="#CDF0F0"/>
<path transform="translate(961,878)" d="m0 0h4v116l-10 1 4-2h2l1-10-1-55 2-43 1-6z" fill="#87B7B9"/>
<path transform="translate(241,938)" d="m0 0 2 2-1 5v9l4 15v10l-3 6-5 3-2-1-1-10 1-25 4-13z" fill="#EE3E6D"/>
<path transform="translate(573,1070)" d="m0 0h128l9 1v1l-7 1h-99l-32-1z" fill="#CDF0F0"/>
<path transform="translate(258,1018)" d="m0 0 1 2-1 2 22 1 46 1 1 4-75 1 1-4z" fill="#D7F6F4"/>
<path transform="translate(69,1086)" d="m0 0 4 2 5 4 8-1 62 1v5h-62l5 5-5-2-12-8z" fill="#D1F1F1"/>
<path transform="translate(909,975)" d="m0 0 4 1 7 8v7l-5 5-9 10-3 3h-2l1-7 6-25z" fill="#0F0E18"/>
<path transform="translate(495,823)" d="m0 0 7 4 10 5 5 2 9 2v10h-70v-1l60-1-10-6-6-7-5-5z" fill="#F2FBFB"/>
<path transform="translate(235,831)" d="m0 0h1l1 20 4 1v2l-3 1-1 15-4 1-8-14 2-11 2-3 2-7z" fill="#E7F4F4"/>
<path transform="translate(574,677)" d="m0 0h5l8 6 10 7 3 3-2 6-6 9-7 8-8 4h-8l-7-5-2-4v-9l5-11 8-13zm1 3-12 20-1 3v7l4 5 7 3 6-2 8-6 7-9 3-5-1-4-10-7-6-3-1-2z" fill="#0D3B8B"/>
<path transform="translate(584,626)" d="m0 0 14 2 15 5 10 7 10 9 12 9h3l-2 6-3 5h-8l6-7-1-5-6-2v-2h-3l-12-12-4-2v-2l-12-2-7-2v-2l-11 1-1 2z" fill="#1949A1"/>
<path transform="translate(1341,626)" d="m0 0 3 3 5 22 5 27 2 14v8h-8v-1l-6-1 1-2 8-4-2-17-2-8-1-11-2-5-1-9-2-7-1-5z" fill="#1C4DA6"/>
<path transform="translate(457,1046)" d="m0 0h59v6h-57l-3-3z" fill="#DCFBF8"/>
<path transform="translate(680,1023)" d="m0 0 34 1-1 2 119 1v1l-124 1-2 1h-19l-6-4z" fill="#C9EDED"/>
<path transform="translate(1175,867)" d="m0 0h1l-1 25v79l1 34-6-1 1-11 1-10h1l-1-34-2-5-1-14 1-9h2v-12l2-35z" fill="#9BB4B9"/>
<path transform="translate(1306 1e3)" d="m0 0 5 5 8 7v17h-13z" fill="#F7FAF9"/>
<path transform="translate(1405,1116)" d="m0 0h93l1 3h-94z" fill="#DDFCF9"/>
<path transform="translate(1197,1092)" d="m0 0h69v6l-4-2-67 1v-1l5-1z" fill="#CDF0F0"/>
<path transform="translate(1031,1022)" d="m0 0 56 1-2 4-1 1-49 1-4-3z" fill="#D6F7F5"/>
<path transform="translate(1128,1040)" d="m0 0h1v21l-5 4h-10l-5-5-1-9h19z" fill="#A1E2DB"/>
<path transform="translate(1309,695)" d="m0 0 3 3 1 2v11l-1 8-2 6-2 9-6 6-1-2 2-16 1-15z" fill="#FC9C77"/>
<path transform="translate(1222,1046)" d="m0 0h61l3 2-1 4-66-1z" fill="#DBFAF7"/>
<path transform="translate(233,934)" d="m0 0h5l1 11-2 7-1 25h-1l-2-7-6-17v-7l4-9z" fill="#F1F7F7"/>
<path transform="translate(1263,873)" d="m0 0h1l-1 9-2 15-6 10-4 9v8l-4 7h-3l1 5v7l-3 5-2 18-2 9-4 10-2-1 5-15 2-15 1-14 4-16 3-8h2l3-9 6-12 4-20z" fill="#9DBBC0"/>
<path transform="translate(578,600)" d="m0 0 1 4-2 19-2 4-1 12h-2l-1 5-2 2v9l-3 1v-27l6-16 5-10z" fill="#95B7BE"/>
<path transform="translate(236,785)" d="m0 0h34l1 4-1-2h-4v3l-11 5-9 3-4-1-4-9z" fill="#2056B4"/>
<path transform="translate(1275,684)" d="m0 0h1l3 16v5l-5 2-43 8-2 1 2-9 1-9h1v5h2v2h2v3h2v2l11-2 3-3h3v2h10v-2l5-3 2-9 1-1z" fill="#19489F"/>
<path transform="translate(1161,409)" d="m0 0h90l5 1v1l-65 1-26 2-4 2-5-1 1-4z" fill="#F7FBFB"/>
<path transform="translate(168,617)" d="m0 0 1 3-6 16-10 29-11 37-10 40h-1v-7l6-27 9-31 5-16 4-12 5-12 7-19z" fill="#BAD9DD"/>
<path transform="translate(1273,886)" d="m0 0 5 3 2 9h-2l1 26 3 20 5 17v8l-2-4-4-17-2-5-4-23-1-4v-7l-3-7v-9l-1-3 1-3z" fill="#9DBFC4"/>
<path transform="translate(331,1044)" d="m0 0h1l1 7h-49l-2-2v-3h49z" fill="#D7F7F5"/>
<path transform="translate(1224,1021)" d="m0 0 2 2 61 1-1 3-2 1h-58l-2-1z" fill="#CEF0F0"/>
<path transform="translate(861,717)" d="m0 0h80l-1 4h-77l-3 1-1-4z" fill="#F2FBF8"/>
<path transform="translate(356,1092)" d="m0 0 115 1v2l-113 1-1 3z" fill="#DCFBF8"/>
<path transform="translate(853,614)" d="m0 0 4 2 9 12 7 3 9 2 2 3v5l-3 1h-8l-10-10-8-11-5-6z" fill="#AECBCC"/>
<path transform="translate(1192,538)" d="m0 0 4 1-5 2-1 2v8l1 3 1 15 3 24v4h2v2l9-3-1 3-9 5h-2l-2-7-5-37-2-13v-6z" fill="#1C4EA7"/>
<path transform="translate(981,317)" d="m0 0 3 1 2 27 5-2 16-11h3l-1 5-18 12-7 4h-2l-1-15z" fill="#D7F6F4"/>
<path transform="translate(953,540)" d="m0 0h7l8 6 1 1v7l-1 1h-6l-5-3-7 1-2-2v-7z" fill="#FCE4D1"/>
<path transform="translate(918,1023)" d="m0 0h44l2 1-2 4-3 2-1-1h-39l-2-4z" fill="#D0F2F1"/>
<path transform="translate(802,1092)" d="m0 0h32l67 1 1 2h-101l-1-2z" fill="#DDFCF9"/>
<path transform="translate(654,399)" d="m0 0 11 1 5 1-1 5h-2v2l-5 2h-5v-2h-19l1-5z" fill="#A3E4DD"/>
<path transform="translate(1279,506)" d="m0 0h6l-3 2-7 3-4 1-2 4h-2l-1 6 2 1-1 13-2 6-2 12h-2v5h-2l-2 6-5 7-5-1-6-5v-2l4 2 3 3h3l7-14 5-19 1-10-2-10 9-6z" fill="#18489F"/>
<path transform="translate(1359,1189)" d="m0 0h67l13 1-1 2-9 1h-34l-20-1h-3-17l-3-2z" fill="#9DCDD1"/>
<path transform="translate(298,277)" d="m0 0v3l-3 6-8 10-6 8-7 10-10 15-6 10-4 4-2 5h-2l2-6 14-23 12-17 13-17z" fill="#C4DDDF"/>
<path transform="translate(975,1023)" d="m0 0h44l3 1-2 4-43 1-4-3v-2z" fill="#D5F6F4"/>
<path transform="translate(1278,817)" d="m0 0h6l6 7 3 8v12l-1-2h-2v-2l-3-1-5-14h-2v-2l-6 2-4 2 1-5 3-4z" fill="#3AAC90"/>
<path transform="translate(709,491)" d="m0 0 5 1 7 5 4 1 67 1v1l-33 2h-36l-10-4-4-4z" fill="#F6FCFB"/>
<path transform="translate(1112,412)" d="m0 0 2 1-1 5-1 15h-4l-3-5-2 1v8l3 6 3 12v3h-2l-5-13-2-8v-9l7-12z" fill="#B5CFCF"/>
<path transform="translate(909 1e3)" d="m0 0 2 1zm-1 1 1 2-1 3 2 1v3h2v-2h2v-2l5-3 1 3-6 5-6 12-1-2h-9l-2 1 1-5 4-10z" fill="#A0E0DA"/>
<path transform="translate(1154,346)" d="m0 0h59l-3 2-37 1-16 2-6 4-5 5-1-4-3 1 2-4 8-6z" fill="#F6FBFB"/>
<path transform="translate(1179,1083)" d="m0 0h5l-1 7-5 4-9 1-6-2-2 3v-12z" fill="#A0E0DA"/>
<path transform="translate(124,1183)" d="m0 0h172v1h-161v2l2 1-2 1 3 3-7-2-7-5z" fill="#D0F1F1"/>
<path transform="translate(173,756)" d="m0 0 4 3 8 3 9 6 1 2-5 1h-20l1-12h2z" fill="#0F3E8D"/>
<path transform="translate(1173 1e3)" d="m0 0h3v7l-3 6-5 4h-6l-1-1-1-15z" fill="#A8E4DF"/>
<path transform="translate(719,437)" d="m0 0 2 1-1 1 3 2-8 5-5 9-1 4v22l4 9-1 2-5-1-2-12v-21l3-10 7-9z" fill="#D7F7F5"/>
<path transform="translate(892,652)" d="m0 0h5v2l2 1-1 1-44 2-5 3-5 8-2-2-2 1 2-5 5-5 8-4 3-1z" fill="#FBFBEC"/>
<path transform="translate(955,508)" d="m0 0 8 4 11 4 8 6 3 5v4l-6-1-2-6h-2v-2l-9-1-2-2-9-3-1-5z" fill="#FA9776"/>
<path transform="translate(431,1022)" d="m0 0 19 1h19l3 4v2l-45-1 2-5z" fill="#D7F7F5"/>
<path transform="translate(1408,1092)" d="m0 0h48l3 3-2 1h-50z" fill="#CDF0F0"/>
<path transform="translate(1307,510)" d="m0 0 5 2 7 10 6 15 4 21 3 22v5h-2l-1-2-3-24-2-13v-4l-2-1-2-5-3-9-4-8-6-7z" fill="#1C4DA6"/>
<path transform="translate(328,692)" d="m0 0h11l12 1h3l14 1v2l-4 1h-39l-13-1-4-2z" fill="#17469C"/>
<path transform="translate(363,458)" d="m0 0 2 2 2 10 5 5 14 2 6-4h2v-2h2v9l-7 2h-9l-14-5-1 3-2-11z" fill="#FC9C77"/>
<path transform="translate(503,1092)" d="m0 0h50l-2 4h-48z" fill="#D2F4F3"/>
<path transform="translate(1255,1161)" d="m0 0h56l13 1-1 2h-70l2-1z" fill="#D2F4F3"/>
<path transform="translate(1143,623)" d="m0 0h1v11l-2 19-4 22-4 17h-2v3h-2l1-10 3-16 2-15 1 3 2-1 2-14 1-14z" fill="#50BAA4"/>
<path transform="translate(689,510)" d="m0 0 3 3v2l3 1 3 5 3 9v8l-2 4 1 6 1 4 1 5-1 9h-1l-4-24-3-19-4-10z" fill="#9EC1C5"/>
<path transform="translate(262,1070)" d="m0 0h69l3 2-1 1h-71z" fill="#CDF0F0"/>
<path transform="translate(1328,592)" d="m0 0 2 1 1 8-4 34-2 9-2 15-4 22h-1v-9l8-53 1-8z" fill="#114093"/>
<path transform="translate(805,565)" d="m0 0 5 3 5 10 9 13 7 8 4 2-1 3-13-9-7-9-7-12z" fill="#B1CDCD"/>
<path transform="translate(574,649)" d="m0 0h2l-2 6-5 5-7 6-6 8-11 15-6 9-1-4 3-5 1-4 5-5 20-25z" fill="#194AA1"/>
<path transform="translate(1046,590)" d="m0 0 5 1 14 8 7 7 6 10v6l-1-2h-2l-4-7-14-14-8-5-5-2z" fill="#ADC7C7"/>
<path transform="translate(106,1135)" d="m0 0 1 4 18-1 31 1 1 2-3 1-48 1-2 1z" fill="#CDF0F0"/>
<path transform="translate(633,1023)" d="m0 0h14l-1 5h-90l1-2h71l1-2z" fill="#CCEFEF"/>
<path transform="translate(351,1070)" d="m0 0h49v2l-5 2h-31l-12-1z" fill="#CFF1F1"/>
<path transform="translate(1139,615)" d="m0 0 4 4 1 4-1 5-2 21-1 7-3 1-1-3v-10l2-11z" fill="#9CC4C9"/>
<path transform="translate(1226,528)" d="m0 0h3l3 16 8 16-1 3-4-6-3-3-3-5-4-10-1-5-6-1-7 1v-2z" fill="#1949A0"/>
<path transform="translate(392,288)" d="m0 0h2l-1 11-5 28-2 3h-3v-7l2-6 5-27h2z" fill="#F3FBFB"/>
<path transform="translate(147,1063)" d="m0 0h46l-3 2h-14l-7 3-11 1-9-1v-3h-2z" fill="#0D3B8B"/>
<path transform="translate(725,708)" d="m0 0h6l4 4v7l-3 2h-9l-3-5 1-5z" fill="#EDF7F4"/>
<path transform="translate(1302,354)" d="m0 0 3 3 3 9v26h-1v-18h-2v13h-2v5h-1v-20l-3-14 2-1z" fill="#D6F7F5"/>
<path transform="translate(775,518)" d="m0 0 5 1 1 10-2 10-2 1-2-1v-2l-5 1 4-18z" fill="#FC9D77"/>
<path transform="translate(1293,967)" d="m0 0 3 1 2 6v5l1 3h2v3h3l2 8 2 1 4 8-1 3h-3l-9-14-2-8-4-12z" fill="#3DAD92"/>
<path transform="translate(1362,785)" d="m0 0 2 4 4 1 1 1v7l-4 6v33l-2 1-1-15z" fill="#FCFBEA"/>
<path transform="translate(250,1092)" d="m0 0h20l22 1-1 3h-42z" fill="#CFF1F1"/>
<path transform="translate(253,900)" d="m0 0 1 2-5 17-5 13-4 10-2 1v-9l-4-1 8-8 5-12 2-7h2l1-5z" fill="#D3F1EC"/>
<path transform="translate(1272,659)" d="m0 0 3 3 4 33v5l-2-4-1-7-2 3-2-4-2-14 1-12z" fill="#2253A8"/>
<path transform="translate(647,1046)" d="m0 0 6 3v2l-10-1h-31l-16-1 1-2z" fill="#DBFAF7"/>
<path transform="translate(1268,595)" d="m0 0h2l2 10 1 9v38h-1l-3-36-1-3-1-15z" fill="#1C4CA5"/>
<path transform="translate(357,300)" d="m0 0h4l5 19 2 10v8l-3-1-4-14-4-20z" fill="#E0F8F7"/>
<path transform="translate(506,242)" d="m0 0 7 1 2 4 2 19v9l-2 10-8 16-2 7-2-1 1-1 2-10 6-10 2-8v-13l-2-19-1-1h-7l-3 3-3 7-1-4 4-7z" fill="#FCFBEA"/>
<path transform="translate(1331,1160)" d="m0 0 35 1-1 2-5 1h-37v-1l-12-1v-1z" fill="#C0E9E8"/>
<path transform="translate(457,1046)" d="m0 0h59v1h-52v3h50v1l-55 1-3-3z" fill="#CAEEEE"/>
<path transform="translate(487,1023)" d="m0 0h19l10 1v4h-30z" fill="#D3F4F3"/>
<path transform="translate(428,970)" d="m0 0 3 4 3 14h-2l1 3-7 4h-2l2-19z" fill="#94B7BE"/>
<path transform="translate(1178,1185)" d="m0 0h36l9 2v1h-59v-1l11-1z" fill="#DDFCF9"/>
<path transform="translate(293,693)" d="m0 0h7l-1 61h-1l-1-33-2-15 1-7-2-1z" fill="#C9DEDE"/>
<path transform="translate(1458,1188)" d="m0 0h18l-4 3-17 2h-22v-1l5-1 1-2z" fill="#ABE4DF"/>
<path transform="translate(1113,606)" d="m0 0 2 1v11l-1 14h2l1-9h1l-1 10h-4l-2-10-1 1-1 13h-1v-23l3-7z" fill="#43B399"/>
<path transform="translate(163,844)" d="m0 0 23 1v4h-2l-2 8v8l1 9v3h-2l-1-11-3-12-1-7-13-2z" fill="#9BDCD6"/>
<path transform="translate(1471,811)" d="m0 0 1 3v7l-3 10-4 9-2 6-2-2 2-10 5-21z" fill="#AAE6E0"/>
<path transform="translate(235,751)" d="m0 0 1 2h20v7l-17-1-7-2 2-5z" fill="#BEE0E1"/>
<path transform="translate(1172,1049)" d="m0 0h6l3 3-4 4-11 5-4 1 1-5 4-6z" fill="#ACD6D8"/>
<path transform="translate(1263,873)" d="m0 0h1l-1 9-2 15-6 10-4 9v8l-4 7-2-1 1-7h2l-1-7h2l3-9 6-12 4-20z" fill="#9AB5B9"/>
<path transform="translate(794,517)" d="m0 0 3 1 4 8 1 10 3 8v12l1 7-2 1-3-13-4-26-3-6z" fill="#B9D1D0"/>
<path transform="translate(1373,1190)" d="m0 0 2 1 31 1h23v1l-20 1h-50l-3-2 3-1h13z" fill="#A4E5DE"/>
<path transform="translate(1187,1030)" d="m0 0h6l-4 4-24 7-12 3-5-1 1-2 28-7z" fill="#39AC8F"/>
<path transform="translate(1392,1018)" d="m0 0 6 5 4 7h-18l1-4h2l1-4h2z" fill="#CFF3F0"/>
<path transform="translate(1125,596)" d="m0 0 2 4 5 1 1 3 3-1-1 19-2 5h-3v-17l1-7-6-2z" fill="#4BB8A0"/>
<path transform="translate(237,375)" d="m0 0 1 3-5 11-7 16-3 3-5 13-1-3 11-28 6-13z" fill="#CBE1E3"/>
<path transform="translate(1393,1015)" d="m0 0 8 1 3 3 4 8v4h-5v-2h-2l-7-9z" fill="#11172C"/>
<path transform="translate(861,717)" d="m0 0h26l7 1 23 1v1l-54 1-3 1-1-4z" fill="#D8F8F6"/>
<path transform="translate(144,688)" d="m0 0 1 4-7 26-6 24h-1v-7l6-27 5-18z" fill="#C0DCE1"/>
<path transform="translate(782,1047)" d="m0 0h40v2l-6 1h-35l-4-2z" fill="#DCFBF8"/>
<path transform="translate(940,730)" d="m0 0h1l4 21v7h-7v-14z" fill="#94B7BE"/>
<path transform="translate(1138,584)" d="m0 0h3l-1 31-1 18-3 20h-1v-10l2-12 2-38h-2l-1 10h-1l1-14z" fill="#4DBAA2"/>
<path transform="translate(1103,1023)" d="m0 0h24v5l-20 1-4-4z" fill="#D5F5F4"/>
<path transform="translate(906,600)" d="m0 0h5l-1 4h-2v2l-8 7-10 10v-3l1-4 5-7 8-7z" fill="#99B8BE"/>
<path transform="translate(981,317)" d="m0 0 3 1 1 16v13l3 1h-2v4l-4 1-1-15z" fill="#ECF6F6"/>
<path transform="translate(704,658)" d="m0 0 6 1-1 5-4 3h-10l-8-1 3-3 3-2 11-2z" fill="#A0C3C7"/>
<path transform="translate(1509,1111)" d="m0 0 7 2 8 5v1l-13 1h-14l2-1-1-4h13l1-1z" fill="#D2F1F1"/>
<path transform="translate(386,651)" d="m0 0h2v2h-2l-2 20-2 11-4 6-4 3-1-2 3-9 3-1 3-13 2-14z" fill="#1949A0"/>
<path transform="translate(1235,1024)" d="m0 0 48 1 1 2h-53v-2z" fill="#DCFBF8"/>
<path transform="translate(1042,719)" d="m0 0 8 5v2l3 1 6 3 3 5v4h-3v-2l-6-2v8h-1l-1-11-9-11z" fill="#FC9C77"/>
<path transform="translate(389,427)" d="m0 0 4 1-1 6-3 3-9-1-3-3v-3z" fill="#FCFBEA"/>
<path transform="translate(918,1023)" d="m0 0 33 1-1 3-25 1-6 1-2-4z" fill="#DFFAF8"/>
<path transform="translate(783,529)" d="m0 0 4 4v18l-1 12h-1l-1-17-3 1v-12z" fill="#BED5D2"/>
<path transform="translate(831,1045)" d="m0 0 5 1-1 4-12 5-5-1v-2l-2-1v-2l4-1 2 1v-3z" fill="#C8EDEC"/>
<path transform="translate(1465,1023)" d="m0 0 7 1 1 9-4 8-1-2 4-11h-20l-4-1 1-3z" fill="#DDF9F7"/>
<path transform="translate(1192,538)" d="m0 0 4 1-5 2-1 2v8l1 3 1 14-4-2-3-19v-6z" fill="#1C4DA7"/>
<path transform="translate(991,533)" d="m0 0 5 1v6l-5 6h-7v-4l3-5z" fill="#FC9678"/>
<path transform="translate(377,1023)" d="m0 0 1 4-2 1h-35v-1l12-1-3-2z" fill="#D7F8F6"/>
<path transform="translate(1173,886)" d="m0 0 1 3-2 32-3 1v-24l2-9z" fill="#A1C3C7"/>
<path transform="translate(386,653)" d="m0 0 4 1 1 3 2 17 3 8-1 3-3-5-3-17h-2l-2 11-2 3 2-21z" fill="#0D3B8B"/>
<path transform="translate(717,581)" d="m0 0 3 1v4l-4 4-3 4-5 1-1 2-1-8h2l1-5 6-2z" fill="#94B7BE"/>
<path transform="translate(425,307)" d="m0 0h3l-1 6-3 4h-2l-5 10-4 1-1-2 4-8 7-9z" fill="#EBF9F9"/>
<path transform="translate(1442,1046)" d="m0 0h22l-3 6-2-1h-19l1-4z" fill="#D8F7F5"/>
<path transform="translate(1222,1046)" d="m0 0 15 1v1h-7v2l21-1h13l21 1 1-2-1 4-66-1z" fill="#CFEEED"/>
<path transform="translate(171,749)" d="m0 0h2l-1 10-2 12-3-2-2-13 1-4z" fill="#A4E2DC"/>
<path transform="translate(1231,498)" d="m0 0h9l-1 6-3 2h-8l-4-4 1-3z" fill="#FCFBEA"/>
<path transform="translate(681,435)" d="m0 0 2 2h-2v18l-1 10-2 2v-2l-5 1-5-3 1-3h10v-21z" fill="#FAFAEA"/>
<path transform="translate(580,636)" d="m0 0h2l-2 6-8 10-4 2v-8l3-4 1-3 3-1v2l4-2z" fill="#99CACD"/>
<path transform="translate(1109,1046)" d="m0 0h19v6l-20-1z" fill="#D6F7F5"/>
<path transform="translate(1140,947)" d="m0 0 2 1 2 8 2 11 2 17v7l-2-1-5-31z" fill="#38AB8E"/>
<path transform="translate(1352,681)" d="m0 0h1v5h2l1 6v8h-8v-1l-6-1 1-2 8-4z" fill="#1A4BA2"/>
<path transform="translate(1305,374)" d="m0 0h2v22l-1 2h-2l-1 4h-5l4-10 1-5h2z" fill="#F4FBFB"/>
<path transform="translate(1182,1090)" d="m0 0 1 2-3 12-1 7h-2v-7l2-7h-18l1-5 8 2 10-2z" fill="#D5EFEC"/>
<path transform="translate(844,678)" d="m0 0 4 1v2l10 5 3 4v2l3 1-1 2-7-2-11-11z" fill="#FC9B77"/>
<path transform="translate(734,576)" d="m0 0 2 1-10 10-11 9-5 5h-2v-6l6-3 1-2 6-1 3-6 5-3z" fill="#A5C5C8"/>
<path transform="translate(953,540)" d="m0 0h7l8 6 1 1v7l-1 1h-6l3-1 1-4 1-3-5 1-8-4-3-3z" fill="#FD9479"/>
<path transform="translate(496,255)" d="m0 0 1 4-2 6-3-1-2-3h-2l-2 15v23l1 7-2-1-2-14 1-16 2-15 2-2 6 1z" fill="#FCFBEA"/>
<path transform="translate(1088,702)" d="m0 0 5 5 1 7h-6v-2h-6l-1-5 2-3 4-1z" fill="#F59F7E"/>
<path transform="translate(1232,698)" d="m0 0h1v5h2v2h2v3h2v2h6l1 2-15 3-2 1 2-9z" fill="#19499F"/>
<path transform="translate(717,1044)" d="m0 0 3 1 20 1 1 2h-11l-5-1v2l3 1v1h-17l2-5z" fill="#CAEEEE"/>
<path transform="translate(1174 1e3)" d="m0 0h2v7l-3 6-5 4h-6l6-3-6-2v-2l7-2z" fill="#9ED8D4"/>
<path transform="translate(1081,1120)" d="m0 0h25v3h-45v-1h20z" fill="#9FD3D4"/>
<path transform="translate(1279,506)" d="m0 0h6l-3 2-7 3-4 1-2 4h-2l-1 6 2 1-1 10h-1l-1-7h-1l-2-10 9-6z" fill="#194AA2"/>
<path transform="translate(337,237)" d="m0 0 2 1-36 36-2 3-2-1 9-10 14-15 12-11z" fill="#E1F1F2"/>
<path transform="translate(845,220)" d="m0 0 2 1-31 31h-6l-2-1 1-2 6 1 7-8 12-12 8-7z" fill="#E6F7F7"/>
<path transform="translate(1090,650)" d="m0 0 1 2-1 3 3 1 1 21-2 7h-1l-1-10v-11l1-4v-2l-4 1-1-3 2-4z" fill="#1B967C"/>
<path transform="translate(1197,1092)" d="m0 0h21v2l2 1-1 1-11 1h-13v-1l5-1z" fill="#D2F3F2"/>
<path transform="translate(1286,920)" d="m0 0h1l1 39 4 12-1 3-3 1-3-17-1-8h2z" fill="#FF977B"/>
<path transform="translate(370,1046)" d="m0 0h6v6h-30v-3l19-1v-1z" fill="#D6F7F5"/>
<path transform="translate(253,886)" d="m0 0 2 3 2-1-2 11-3 4-2 3-2-8v-5l2-1 2-5z" fill="#A9E1DC"/>
<path transform="translate(298,277)" d="m0 0v3l-3 6-8 10-5 6-5 3 2-4 12-16z" fill="#D2E4E6"/>
<path transform="translate(1280,347)" d="m0 0h15l7 6-1 6-4-2-5-5-5-3-7-1z" fill="#F3FBFB"/>
<path transform="translate(1101,625)" d="m0 0 3 1 2 18v17l-2 1-2-26z" fill="#0D3986"/>
<path transform="translate(1252,374)" d="m0 0h6l2 2v6l-3 2h-5l-2-2 1-6z" fill="#EEF9F9"/>
<path transform="translate(1281,1032)" d="m0 0h2l3 6 1 10-5-2-3-4v-6z" fill="#143778"/>
<path transform="translate(578,628)" d="m0 0h3v2h2v5l-3 1-2 5-3-1v-2h-2l1-7 4-1z" fill="#9FC3C7"/>
<path transform="translate(482,307)" d="m0 0h11l13 1 3 1-1 4-12-2-12-1-2-1z" fill="#1C4DA7"/>
<path transform="translate(1422,1035)" d="m0 0 2 3 2 7 2 2-1 5h-7l1-16z" fill="#CCEFEF"/>
<path transform="translate(725,1047)" d="m0 0h18l19 1v2h-35l-2-1z" fill="#DDFCF9"/>
<path transform="translate(908,975)" d="m0 0 1 2-6 25-2 8-3-3v-5l3-6 3-8 3-12z" fill="#144397"/>
<path transform="translate(1323,639)" d="m0 0h2l-1 15-3 17-2 10h-1v-9z" fill="#124296"/>
<path transform="translate(243,1027)" d="m0 0 9 1 2 5 4 1v2h-11l-4-5z" fill="#ACD8D7"/>
<path transform="translate(608,1024)" d="m0 0h21l-1 3h-28l1-2z" fill="#E7FCFA"/>
<path transform="translate(926,682)" d="m0 0 4 1 2 7-8 1-6-2 4-5z" fill="#F5FBFB"/>
<path transform="translate(1226,374)" d="m0 0 5 1 2 6-3 3-6-1-1-1v-5z" fill="#F0FAFA"/>
<path transform="translate(1138,635)" d="m0 0 2 3 1 3v8l-1 7-3 1-1-3v-10z" fill="#9BCACE"/>
<path transform="translate(701,566)" d="m0 0 2 2v4h2l1 6h2l2 6-2 7-3-3-4-18z" fill="#9EC1C5"/>
<path transform="translate(1172,983)" d="m0 0 3 3 1 19-6-1 1-11z" fill="#96C1C2"/>
<path transform="translate(970,534)" d="m0 0 5 1 2 1h5l-1 6-4 2-8-7z" fill="#FB9577"/>
<path transform="translate(790,525)" d="m0 0 5 1 2 4-3 4h-2l-2 9h-1l-1-15z" fill="#FC9C77"/>
<path transform="translate(1293,1015)" d="m0 0 2 2 1 5-4 8h-5l1-7z" fill="#12112F"/>
<path transform="translate(237,869)" d="m0 0 6 3 3 6-1 5-4-2-6-8-1-2z" fill="#BAD7DC"/>
<path transform="translate(449,795)" d="m0 0h2l1 3v8l-1 3-4 1-2-7 1-3z" fill="#FBFCFC"/>
<path transform="translate(1198,374)" d="m0 0 6 1 1 6-2 3h-5l-2-2 1-7z" fill="#EFFAF9"/>
<path transform="translate(898,1022)" d="m0 0 9 1-1 4-6 5v-3h-5v-5z" fill="#C7ECEB"/>
<path transform="translate(444,667)" d="m0 0 2 1 2 27-10-1 2-2h4v-2h2l-1-2-1-11z" fill="#1D4EA8"/>
<path transform="translate(1319,1016)" d="m0 0 5 5 1 9h-6l-1-10z" fill="#F0446E"/>
<path transform="translate(444,847)" d="m0 0h18v1l-12 2-2 5-4-1-2 2v-7z" fill="#A1C3C7"/>
<path transform="translate(262,1045)" d="m0 0 2 2 2 7-1 8-5 1v-9z" fill="#16021B"/>
<path transform="translate(954 1e3)" d="m0 0h12v9h-1v-5l-4-1-8 3v-2l-5-1-1-2z" fill="#95C7CA"/>
<path transform="translate(481,987)" d="m0 0 17 1 6 1v1l-10 1-3 2v-2h-9l1 3-1 5h-1z" fill="#89B8BA"/>
<path transform="translate(1094,665)" d="m0 0h2l3 10v9l-5-1v-9l-1-8z" fill="#A1DBD8"/>
<path transform="translate(1439,663)" d="m0 0 6 1 9 5 5 4 3 5-4-1-8-6-8-5z" fill="#FDFDFD"/>
<path transform="translate(557,786)" d="m0 0h53v7l-4-4-3-1-46-1z" fill="#1C4CA4"/>
<path transform="translate(1091,689)" d="m0 0h1l2 10 4 1v9l1 5h-2l-3-8v-4l-4 1-2-6 2-2z" fill="#116F7C"/>
<path transform="translate(1101,429)" d="m0 0h1l1 8 3 6 3 12v3h-2l-5-13-2-10z" fill="#BFD5D2"/>
<path transform="translate(362,315)" d="m0 0 2 2 4 12v8l-3-1-3-9z" fill="#F7FCFC"/>
<path transform="translate(1410,1024)" d="m0 0h13l-1 5h-12l-1-4z" fill="#DAF9F7"/>
<path transform="translate(193,986)" d="m0 0 2 1v7l-4 7h-2v-13z" fill="#CDF2F0"/>
<path transform="translate(371,856)" d="m0 0h1v26l-2-3-2-11 1-8z" fill="#A1C3C7"/>
<path transform="translate(258,786)" d="m0 0h13l-1 3v-2h-4v3l-11 5-3-1 5-5z" fill="#1C4CA4"/>
<path transform="translate(1129,603)" d="m0 0h3l-1 7-1 3-1 15-2-1v-21z" fill="#0E4E7B"/>
<path transform="translate(664,480)" d="m0 0h2l-1 3-6 4v4l2 1-9-2v-4z" fill="#D2E2E0"/>
<path transform="translate(707,460)" d="m0 0h1l1 21 4 9-1 2-5-1-1-3z" fill="#D5F6F4"/>
<path transform="translate(1138,1076)" d="m0 0 2 1v20h-4v-13l1-7z" fill="#3BAD91"/>
<path transform="translate(633,1023)" d="m0 0h14v3l-5 1h-14l1-3z" fill="#D7F6F4"/>
<path transform="translate(689,402)" d="m0 0 5 1 3 3v7l-4-2v-2l-5-2-2-1 1-3z" fill="#9EDED8"/>
<path transform="translate(238,1024)" d="m0 0 6 2v5l1 4h-7l-1-10z" fill="#150725"/>
<path transform="translate(1340,960)" d="m0 0 1 3-5 13v13l-2 2-4-6 3-1 1-10z" fill="#184BA3"/>
<path transform="translate(184,545)" d="m0 0 2 3-2 19-1 6-3-2 2-15z" fill="#A8CACF"/>
<path transform="translate(781,466)" d="m0 0h7l1 1v6l-6 1-3-2v-5z" fill="#F5FBFB"/>
<path transform="translate(753,466)" d="m0 0h7l1 1v6l-6 1-3-2v-5z" fill="#F4FBFA"/>
<path transform="translate(667,648)" d="m0 0 5 1 5 3 2 6-7-1-3-2v-4l-3-1z" fill="#A1C3C7"/>
<path transform="translate(790,601)" d="m0 0h2l8 16 10 15-1 2-8-11-6-10-4-8z" fill="#94B7BE"/>
<path transform="translate(782,546)" d="m0 0h2l1 3v11l-1 3h-3v-16z" fill="#94B7BE"/>
<path transform="translate(1022,856)" d="m0 0h5l-1 3 14 1v1l-22 1-3-2 1-2z" fill="#C2E6E7"/>
<path transform="translate(1102,677)" d="m0 0 3 4 1 3 1 13h-3l-1-2-1-10-1-1v-6z" fill="#0D3986"/>
<path transform="translate(1154,413)" d="m0 0h2l3 4-13 8v-3l2-5z" fill="#D8F8F6"/>
<path transform="translate(1105,1114)" d="m0 0h1v6h-13l3-1-1-2-4-2h13z" fill="#CFF1F0"/>
<path transform="translate(1253,705)" d="m0 0h3v2h13v1l-16 3h-8l1-2 4-1z" fill="#16459A"/>
<path transform="translate(1174,1050)" d="m0 0 6 2-1 3-10 5h-5l1-2h2v-2l4-2h3z" fill="#BEE5E6"/>
<path transform="translate(309,1024)" d="m0 0h17l1 3h-20l-2-2z" fill="#DFFCF9"/>
<path transform="translate(368,549)" d="m0 0 3 3 10 16 3 5v3h-2l-6-10-5-10-3-5z" fill="#1C4CA4"/>
<path transform="translate(498,1024)" d="m0 0h18v4l-17-1z" fill="#E4FCF9"/>
<path transform="translate(1053,735)" d="m0 0 4 1 5 5v2l-8 1-1-1z" fill="#F7FBF3"/>
<path transform="translate(862,1173)" d="m0 0h33l1 2-9 1h-25z" fill="#9DCDD1"/>
<path transform="translate(896,683)" d="m0 0 6 1 1 5-2 2-5-1-2-2 1-4z" fill="#FBFCF4"/>
<path transform="translate(1107,668)" d="m0 0 3 1v17l-2 2-1-2z" fill="#9DCFD2"/>
<path transform="translate(1188,588)" d="m0 0 4 2v4l-7 5-2-2 1-4z" fill="#F49E7C"/>
<path transform="translate(1189,567)" d="m0 0 3 2 1 5v13l-2 3-2-16z" fill="#1D4FA8"/>
<path transform="translate(1265,525)" d="m0 0h1l1 11-2 6-1 7-3 1 1-9z" fill="#16459A"/>
<path transform="translate(403,511)" d="m0 0h7v2l-5 1 2 5 3 3v8l-2-4-3-5-4-4 1-5z" fill="#1C4CA4"/>
<path transform="translate(202,467)" d="m0 0 2 1-1 7-4 17h-3l4-17z" fill="#A7C8CD"/>
<path transform="translate(574,469)" d="m0 0 4 1-1 7-3 4v-2l-3-1 1-6z" fill="#A1E0DA"/>
<path transform="translate(809,466)" d="m0 0h6l1 1v5l-1 1h-6l-2-4z" fill="#FBFCFC"/>
<path transform="translate(972 1e3)" d="m0 0h10l7 1-1 2-4 2h-6l-2-1v-3h-3v5h-1z" fill="#94C8CA"/>
<path transform="translate(952,683)" d="m0 0 5 1 1 4-2 3h-5l-1-1v-5z" fill="#FCFCF4"/>
<path transform="translate(1269,595)" d="m0 0 2 2 2 17v6l-2 2-2-14z" fill="#0D3B8B"/>
<path transform="translate(243,924)" d="m0 0 1 2-3 8-2 9h-1v-9l-4-1 8-8z" fill="#9EDBD6"/>
<path transform="translate(297,759)" d="m0 0h1v6l-13-1v-2l4-2h7z" fill="#B9DADA"/>
<path transform="translate(262,326)" d="m0 0 2 1-2 5-4 7-4 4-2 5h-2l2-6z" fill="#D3E7E8"/>
<path transform="translate(840,1173)" d="m0 0h10l10 1v2h-26l-1-2z" fill="#9DCDD1"/>
<path transform="translate(1161,1038)" d="m0 0 6 1-2 2-12 3-5-1 1-2z" fill="#38AB8E"/>
<path transform="translate(1331,989)" d="m0 0 4 2 7 11 5 11-1 4-8-16-6-9z" fill="#38AB8E"/>
<path transform="translate(1251,912)" d="m0 0 1 2-1 5-1 8-3 4-2-1 1-7h2l-1-7h2z" fill="#97B7BD"/>
<path transform="translate(258,746)" d="m0 0 2 1v13h-3l-2-11z" fill="#141932"/>
<path transform="translate(1133,608)" d="m0 0h1v9l-1 8h-3v-12z" fill="#9DCDD1"/>
<path transform="translate(1328,558)" d="m0 0h1l3 22v5h-2l-1-2-2-19z" fill="#1D4FA9"/>
<path transform="translate(261,1045)" d="m0 0h1l-2 18h10v1h-14l3-13z" fill="#0E438A"/>
<path transform="translate(831,1045)" d="m0 0 5 1-1 4-2 1h-6l-2-4z" fill="#D0F4F1"/>
<path transform="translate(267,906)" d="m0 0 4 1 1 5v3l-4 1-2-3v-6z" fill="#38AB8E"/>
<path transform="translate(351,417)" d="m0 0 5 1 1 4-2 3h-2v2h-2l-1-8z" fill="#FC9D77"/>
<path transform="translate(425,307)" d="m0 0h3l-1 6-4 4-2-2-3 2 2-5z" fill="#D6F7F5"/>
<path transform="translate(201,908)" d="m0 0 1 4-7 11-1-2 1-2h-2l-2-3 1-4v3h2v2h2l1-4h2z" fill="#ACE4E0"/>
<path transform="translate(1465,813)" d="m0 0h1v11l-4 17-5 4 2-5 4-12z" fill="#D5F6F4"/>
<path transform="translate(1013,577)" d="m0 0 10 1 5 3v3l-10-3-7-2z" fill="#C1B9B1"/>
<path transform="translate(207,748)" d="m0 0 4 1 1 4-2 2h-6l-1-2 1-4z" fill="#9FE1DA"/>
<path transform="translate(242,718)" d="m0 0 7 1-5 4-8 4 1-4 2-4z" fill="#F09E7F"/>
<path transform="translate(1137,593)" d="m0 0h2v16l-2 2-1-1v-11z" fill="#33A78B"/>
<path transform="translate(697,545)" d="m0 0h2l2 6 1 6-1 9h-1l-3-16z" fill="#9DBFC4"/>
<path transform="translate(348,417)" d="m0 0h1l1 12 8 6-1 3-4-4-6-4v-11z" fill="#FCFBEA"/>
<path transform="translate(392,288)" d="m0 0h2l-1 11-1 6-3-3 1-12h2z" fill="#DCF6F5"/>
<path transform="translate(1317,683)" d="m0 0h1v16l3 2h-7l2-17z" fill="#114093"/>
<path transform="translate(1235,498)" d="m0 0h5v4l-5 3h-5l3-6z" fill="#FBFCFA"/>
<path transform="translate(209,448)" d="m0 0 1 4-5 16h-2l1-8 4-11z" fill="#A4C6CB"/>
<path transform="translate(1140,415)" d="m0 0h2v6l6-2-2 4-4 4-2-1z" fill="#EAFCFA"/>
<path transform="translate(1173,1007)" d="m0 0h1l-1 8-9 3-2-1v-2l7-2z" fill="#9DCDD1"/>
<path transform="translate(1422,993)" d="m0 0 2 2v9l-1 1h-15v-6l2-2-1 7 10-1 3-2z" fill="#CFECED"/>
<path transform="translate(1435,938)" d="m0 0h4l3 5v6l-5-4v-2l-2-1z" fill="#5EB8A4"/>
<path transform="translate(841,606)" d="m0 0 9 3 3 5-1 2-10-7z" fill="#9CBDC2"/>
<path transform="translate(298,277)" d="m0 0v3l-3 6-5 7-2-2 2-5z" fill="#CAE1E3"/>
<path transform="translate(1140,1062)" d="m0 0h1v9l-1 6-7-1 5-6 1-7z" fill="#37AA8D"/>
<path transform="translate(237,1028)" d="m0 0h1v7l8-1 1 3h6v1h-14l-2-1z" fill="#144397"/>
<path transform="translate(899,1008)" d="m0 0 2 3-7 17-1-3 2-5 1-9z" fill="#1C4DA6"/>
<path transform="translate(1182,976)" d="m0 0 2 1-6 8-1 10-2 2v-14l5-5z" fill="#0F3F91"/>
<path transform="translate(1277,889)" d="m0 0 2 4 1 5h-2v23h-1l-1-26z" fill="#94B7BE"/>
<path transform="translate(1099,654)" d="m0 0h1l1 10v11l-2-2-1-5v-12z" fill="#0D3B8B"/>
<path transform="translate(389,561)" d="m0 0h1v15l-2 2-2-9v-4h3z" fill="#C4AF9D"/>
<path transform="translate(892,652)" d="m0 0h5v2l2 1h-27v-1l16-1z" fill="#FCFCFA"/>
<path transform="translate(1128,602)" d="m0 0 3 1-3 3-1 21h-1l-1-9-1-4 2-9z" fill="#128F75"/>
<path transform="translate(1030,582)" d="m0 0 9 3 4 4-8-1-7-3 2-1z" fill="#B8B9B4"/>
<path transform="translate(734,576)" d="m0 0 2 1-10 10-5 3 1-4 2-3 5-3z" fill="#9BBDC3"/>
<path transform="translate(626,410)" d="m0 0h2l1 3-6 8-2-4 3-5z" fill="#9ADCD5"/>
<path transform="translate(1147,350)" d="m0 0 2 1-1 2 4 1-5 6-2-4-3 1 2-4z" fill="#D8F8F6"/>
<path transform="translate(1176,1113)" d="m0 0h1v8l-3 11 2 1h-4l1-8z" fill="#DDF4F0"/>
<path transform="translate(1237,1042)" d="m0 0 7 1 4 3h-15z" fill="#9DCDD1"/>
<path transform="translate(174,753)" d="m0 0 5 3v2l5 2-4 1-6-3-2 1 1-5z" fill="#1C4CA5"/>
<path transform="translate(892,687)" d="m0 0 3 3 2 7-1 2h-2l-4-4 1-4z" fill="#FC9D77"/>
<path transform="translate(1082,654)" d="m0 0h1v6h2v19h-1l-2-16z" fill="#309E88"/>
<path transform="translate(1317,648)" d="m0 0h3l-1 10-3 2-1-9h2z" fill="#FC9D77"/>
<path transform="translate(389,618)" d="m0 0h5l1 1v6h-5l-1-1z" fill="#10090F"/>
<path transform="translate(378,1019)" d="m0 0h1v9l-2-4h-12l1-2 12-1z" fill="#86C2C9"/>
<path transform="translate(963,984)" d="m0 0 2 1v9l-10 1 4-2h2l1-8z" fill="#81B7B6"/>
<path transform="translate(213,432)" d="m0 0 2 1-2 9-2 7h-3l3-11z" fill="#A9C9CE"/>
<path transform="translate(1278,898)" d="m0 0 3 1 2 6-2-1v-2h-2v22h-1z" fill="#FF977B"/>
<path transform="translate(662,641)" d="m0 0 5 1 2 4-5 1 1 2-4 1-1-6z" fill="#A0C3C7"/>
<path transform="translate(189,531)" d="m0 0 1 3-3 13-2 1v-8l2-7z" fill="#A3C7CB"/>
<path transform="translate(249,348)" d="m0 0h3l-2 6-4 7h-1v-6z" fill="#C0DADD"/>
<path transform="translate(79,1018)" d="m0 0 1 4h10v1l-17 1 1-4z" fill="#ACD4D7"/>
<path transform="translate(1366 1e3)" d="m0 0h7l1 5h-7z" fill="#0F0C15"/>
<path transform="translate(233,758)" d="m0 0 16 1v2h-15z" fill="#1B4CA5"/>
<path transform="translate(926,682)" d="m0 0 4 1 2 7-5-5-4 2-3 3-2-2 6-5z" fill="#E4F4EE"/>
<path transform="translate(261,1036)" d="m0 0h2l-1 8h11v1l-13 1-1-9z" fill="#18519C"/>
<path transform="translate(1292,970)" d="m0 0 2 1 5 14-1 4-5-11z" fill="#58B9A6"/>
<path transform="translate(547,683)" d="m0 0v3l-8 12-1-4 5-8z" fill="#1D4EA7"/>
<path transform="translate(392,590)" d="m0 0h3v6l-5 1-2-4z" fill="#130515"/>
<path transform="translate(1282,1189)" d="m0 0 16 1v2h-17z" fill="#A0D7D6"/>
<path transform="translate(1454,1063)" d="m0 0 1 3v12l1 5-3-4-2-5 1-6z" fill="#E5F8F8"/>
<path transform="translate(1193,1044)" d="m0 0 2 1-2 3-1 5-1-3-10 2-1-2 7-2z" fill="#16499C"/>
<path transform="translate(1422,1035)" d="m0 0 2 3 2 7 1 2-7-1 1-10z" fill="#9BD6D4"/>
<path transform="translate(234,745)" d="m0 0 3 1-2 6-4 2v-7z" fill="#101C2F"/>
<path transform="translate(1100,684)" d="m0 0 3 1 1 12h3l1-2v3h-5l-2-4z" fill="#128F75"/>
<path transform="translate(1307,510)" d="m0 0 5 2 5 7-2 2-8-9z" fill="#1B4CA5"/>
<path transform="translate(1282,1030)" d="m0 0 6 1-1 4 1 5-1 5h-1l-2-10-1-3-2-1z" fill="#2157A6"/>
<path transform="translate(234,985)" d="m0 0h2l2 3-1 5-3 2-1-1z" fill="#CFE7E3"/>
<path transform="translate(426,987)" d="m0 0 2 2 5 1-5 4-4 1 1-6z" fill="#8FC6C6"/>
<path transform="translate(1248,918)" d="m0 0 1 3-1 2h-2v7l-4 2 2-8 2-5z" fill="#9EC3C8"/>
<path transform="translate(1391,660)" d="m0 0h5l1 3-3 1h-8v-3z" fill="#F6FCFA"/>
<path transform="translate(1505,640)" d="m0 0h1v9l-2 13h-1v-14z" fill="#EBFAF9"/>
<path transform="translate(1187,548)" d="m0 0 2 4 1 7v8l-2-1-1-6z" fill="#0E3D8E"/>
<path transform="translate(476,495)" d="m0 0 1 3-5 6h-2l-1 3-1-4 1-2h3l2-4z" fill="#A1E2DB"/>
<path transform="translate(1367,1009)" d="m0 0 5 1-2 7h-3z" fill="#A5D6D8"/>
<path transform="translate(918 1e3)" d="m0 0 2 1v2l-6 5-3 3h-2v-2h2l1-4h2v-2z" fill="#9CDAD6"/>
<path transform="translate(1287,962)" d="m0 0h2l3 11-4 2z" fill="#FD907A"/>
<path transform="translate(1091,700)" d="m0 0 1 2h2l3 8v3h-2v-2h-2l-2-6z" fill="#101928"/>
<path transform="translate(446,689)" d="m0 0 2 1v5l-10-1 2-2h4v-2z" fill="#2052A4"/>
<path transform="translate(1320,671)" d="m0 0h1v12l-2 6h-1l-1-11 2-1z" fill="#1C4DA5"/>
<path transform="translate(369,373)" d="m0 0 4 1h-3l-2 4-2 1-7-1 4-3z" fill="#0F3A88"/>
<path transform="translate(1304,756)" d="m0 0h1v7h-2v2l-4-2 2-4z" fill="#FC9C77"/>
<path transform="translate(254,753)" d="m0 0h2v7h-2v-5l-4 1-12-1v-1z" fill="#EBF6EC"/>
<path transform="translate(1293,967)" d="m0 0 3 1 2 6-1 5-2-1-2-7z" fill="#38AB8E"/>
<path transform="translate(241,938)" d="m0 0 2 2-2 13h-1l-1-5-1-3z" fill="#F66873"/>
<path transform="translate(254,721)" d="m0 0 5 1-1 11-2-3z" fill="#CFE1E1"/>
<path transform="translate(1090,650)" d="m0 0 1 2-1 3 3 1v3h-2v-2l-4 1-1-3 2-4z" fill="#2DA389"/>
<path transform="translate(174,596)" d="m0 0 2 1-5 15h-2l-1 2 1-5z" fill="#DFF7F6"/>
<path transform="translate(1125,551)" d="m0 0 3 3 3 8-1 4-4-7z" fill="#9BBCC1"/>
<path transform="translate(506,247)" d="m0 0 4 1 1 5-7-1v-4z" fill="#FC9D77"/>
<path transform="translate(992,1070)" d="m0 0 15 1v1l-7 1h-9l-1-2z" fill="#CDF0F0"/>
<path transform="translate(748,616)" d="m0 0 2 1-2 5h-2v2l-5 4-2-1z" fill="#C2D7D3"/>
<path transform="translate(992,533)" d="m0 0 4 1v6l-3 3-1-3z" fill="#FC8D79"/>
<path transform="translate(1265,519)" d="m0 0 1 3 2 1-1 10h-1l-1-7h-1v-6z" fill="#1B4BA3"/>
<path transform="translate(1241,469)" d="m0 0 4 1 4 4 1 4-2-1v-2l-4-1-3-2z" fill="#FC9D77"/>
<path transform="translate(1162,1092)" d="m0 0 8 3-1 2h-8z" fill="#CAEAEA"/>
<path transform="translate(257,1056)" d="m0 0h1v6l-1 1 9 1v1h-12l-1-3h2z" fill="#3079A3"/>
<path transform="translate(1319,1030)" d="m0 0h7l5 2v1h-12z" fill="#1949A0"/>
<path transform="translate(233,934)" d="m0 0h5l1 11-2 5h-1v-14l-4-1z" fill="#D1EFED"/>
<path transform="translate(1257,900)" d="m0 0 1 2-5 10-3 1 2-6 3-6z" fill="#ADAFAD"/>
<path transform="translate(242,854)" d="m0 0h12l4 3-13-1z" fill="#A6E1DC"/>
<path transform="translate(1121,699)" d="m0 0 2 2v3l-2 1-1 7 4 2h-6l1-10z" fill="#128F75"/>
<path transform="translate(1316,667)" d="m0 0h1l-1 10-2 2-1-5 1-4z" fill="#FC9D77"/>
<path transform="translate(1123,620)" d="m0 0 3 1v6l-4 1-1-3z" fill="#4DBAA2"/>
<path transform="translate(238,1024)" d="m0 0 6 2-2 4-5-2z" fill="#13081E"/>
<path transform="translate(155,649)" d="m0 0 2 4-4 9-2 1 3-11z" fill="#C2E0E3"/>
<path transform="translate(1109,438)" d="m0 0h2l-1 9 1 4h-2l-2-11z" fill="#FC9D77"/>
<path transform="translate(1118,412)" d="m0 0h5l1 3-4 2-5-1z" fill="#FC9D77"/>
<path transform="translate(224,405)" d="m0 0h2l-3 9-2 5h-1v-6z" fill="#A1C7CB"/>
<path transform="translate(1166,1052)" d="m0 0 4 4h-3v2l-2 1 1 2-4 1 1-5z" fill="#9CDFD8"/>
<path transform="translate(1022,856)" d="m0 0h5l-1 4h-9l2-1v-2z" fill="#CDEFED"/>
<path transform="translate(937,754)" d="m0 0 1 4h5v1l-12 2h-3l1-2 7-1-1-3z" fill="#BFD5D2"/>
<path transform="translate(257,741)" d="m0 0 2 2-1 4-3 1-2-6z" fill="#FC9C77"/>
<path transform="translate(137,715)" d="m0 0 1 3-3 10h-1v-8z" fill="#BDD8DE"/>
<path transform="translate(183,560)" d="m0 0h1l-1 13-3-2 1-9z" fill="#A6CFD4"/>
<path transform="translate(499,309)" d="m0 0h10l-1 4-9-2z" fill="#19489F"/>
<path transform="translate(306,270)" d="m0 0 2 1-9 10h-3z" fill="#A6C9CD"/>
<path transform="translate(724,212)" d="m0 0h7l4 2v3l-9-3z" fill="#BEDEE1"/>
<path transform="translate(1476,1187)" d="m0 0h12l-2 2-12 1 2-1z" fill="#CEEFEF"/>
<path transform="translate(1392,1018)" d="m0 0 6 5-3 1-2-2-6 3 1-3h2z" fill="#A6D9D8"/>
<path transform="translate(928,761)" d="m0 0 1 3-2 7-2-1 1-3h-2l-1-4z" fill="#A4C5C8"/>
<path transform="translate(935,739)" d="m0 0 4 1-1 5-3 2-1-4z" fill="#A1C3C7"/>
<path transform="translate(1141,669)" d="m0 0h1l1 12 3 3-1 4-4-6z" fill="#4DBAA2"/>
<path transform="translate(1094,674)" d="m0 0h1l-1 9 3 1-3 2-2-1v-6z" fill="#48B69D"/>
<path transform="translate(1117,668)" d="m0 0 5 2-1 5h-3z" fill="#48B79E"/>
<path transform="translate(1279,506)" d="m0 0h6l-3 2-7 3-5 1 3-3z" fill="#1D4FA9"/>
</svg>
