<svg xml:space="preserve" style="max-height: 500px" viewBox="319.06 333.9 3049.62 3027.3599999999997" y="0px" x="0px" xmlns:xlink="http://www.w3.org/1999/xlink" xmlns="http://www.w3.org/2000/svg" version="1.1" width="3049.62" height="3027.3599999999997">
<g id="Background">
	<g>
		<g>
			<rect height="3710" width="3710" style="fill:#FFFFFF;"/>
		</g>
	</g>
</g>
<g id="Illustration">
	<g>
		<path d="M2600.323,611.788c94.156,134.79-16.244,353.317,123.467,454.689&#xA;&#9;&#9;&#9;c135.999,98.679,303.069-63.069,431.238,21.874c190.133,126.007,155.411,702.591-122.573,1060.834&#xA;&#9;&#9;&#9;c-83.599,107.736-153.452,149.655-184.388,271.499c-66.431,261.631,167.041,417.266,122.611,546.664&#xA;&#9;&#9;&#9;c-100.039,291.358-1638.568,535.841-2255.895-339.785c-288.316-408.954-331.455-999.487-73.853-1447.999&#xA;&#9;&#9;&#9;C1106.413,369.109,2389.053,309.345,2600.323,611.788z" style="fill:#F4F7FA;"/>
		<g>
			<path d="M1112.371,1954.99c30.543,15.508,68.915,1.269,85.708-31.803&#xA;&#9;&#9;&#9;&#9;c16.791-33.073,5.643-72.454-24.9-87.962c-1.583-0.804-3.197-1.479-4.818-2.125c5.675-18.3,9.954-36.744,12.823-55.193&#xA;&#9;&#9;&#9;&#9;c1.751-0.005,3.508-0.034,5.293-0.194c34.847-3.106,62.504-35.126,61.774-71.523c-0.729-36.396-29.57-63.382-64.417-60.276&#xA;&#9;&#9;&#9;&#9;c-1.821,0.164-3.61,0.451-5.389,0.767c-3.64-18.037-8.627-35.655-14.919-52.707c1.602-0.938,3.197-1.907,4.755-2.999&#xA;&#9;&#9;&#9;&#9;c29.813-20.887,39.345-62.112,21.29-92.078c-18.055-29.965-56.861-37.324-86.675-16.438c-1.527,1.071-2.965,2.227-4.385,3.4&#xA;&#9;&#9;&#9;&#9;c-11.776-13.017-24.691-25.08-38.664-36.09c0.982-1.611,1.944-3.243,2.814-4.956c16.792-33.072,38.734-69.199,7.952-84.227&#xA;&#9;&#9;&#9;&#9;c-71.21-34.762-101.767-5.004-118.559,28.069c-0.87,1.713-1.62,3.452-2.341,5.196c-17.134-4.784-34.495-8.092-51.953-9.917&#xA;&#9;&#9;&#9;&#9;c0.108-1.839,0.193-3.681,0.156-5.546c-0.73-36.395,10.069-56.09-24.909-56.77c-76.278-1.483-102.013,31.625-101.283,68.018&#xA;&#9;&#9;&#9;&#9;c0.037,1.903,0.197,3.762,0.385,5.61c-17.48,4.983-34.647,11.353-51.357,19.058c-0.794-1.622-1.618-3.236-2.561-4.803&#xA;&#9;&#9;&#9;&#9;c-18.055-29.966-56.861-37.326-86.676-16.437c-29.814,20.889-39.345,62.113-21.289,92.078c0.925,1.535,1.938,2.971,2.967,4.388&#xA;&#9;&#9;&#9;&#9;c-13.203,13.204-25.567,27.541-36.993,42.922c-1.477-0.928-2.975-1.833-4.557-2.636c-30.544-15.509-68.916-1.269-85.708,31.803&#xA;&#9;&#9;&#9;&#9;c-16.791,33.072-5.643,72.454,24.9,87.962c1.583,0.804,3.198,1.478,4.818,2.125c-5.675,18.3-9.953,36.742-12.822,55.193&#xA;&#9;&#9;&#9;&#9;c-1.751,0.005-3.508,0.034-5.292,0.192c-34.848,3.108-62.505,35.129-61.776,71.525c0.73,36.395,29.571,63.38,64.419,60.274&#xA;&#9;&#9;&#9;&#9;c1.82-0.161,3.609-0.448,5.388-0.764c3.64,18.037,8.627,35.655,14.919,52.708c-1.602,0.938-3.197,1.907-4.755,2.999&#xA;&#9;&#9;&#9;&#9;c-29.813,20.886-39.346,62.112-21.29,92.078c18.055,29.966,77.831,43.887,107.644,23c1.528-1.07-18.005-8.789-16.585-9.962&#xA;&#9;&#9;&#9;&#9;c11.777,13.017,24.691,25.08,38.665,36.09c-0.982,1.61-1.945,3.243-2.814,4.956c-16.792,33.072-5.643,72.454,24.9,87.961&#xA;&#9;&#9;&#9;&#9;c30.543,15.508,68.916,1.269,85.707-31.803c0.869-1.713,1.619-3.453,2.34-5.196c17.134,4.784,34.494,8.092,51.952,9.917&#xA;&#9;&#9;&#9;&#9;c-0.109,1.838-0.193,3.681-0.156,5.546c0.729,36.395,29.57,63.381,64.417,60.275c34.847-3.107,62.505-35.129,61.775-71.523&#xA;&#9;&#9;&#9;&#9;c-0.037-1.902-0.197-3.761-0.386-5.609c17.481-4.982,34.648-11.353,51.357-19.058c0.793,1.624,1.618,3.237,2.562,4.802&#xA;&#9;&#9;&#9;&#9;c18.055,29.967,56.859,37.328,86.674,16.439c29.814-20.888,39.346-62.112,21.291-92.079c-0.926-1.534-1.94-2.969-2.968-4.386&#xA;&#9;&#9;&#9;&#9;c13.203-13.204,25.568-27.541,36.993-42.922C1109.29,1953.281,1110.788,1954.186,1112.371,1954.99z M731.617,1959.821&#xA;&#9;&#9;&#9;&#9;c-110.896-56.304-151.373-199.29-90.406-319.368c60.966-120.08,200.288-171.777,311.185-115.473&#xA;&#9;&#9;&#9;&#9;c110.896,56.306,151.373,199.291,90.406,319.369C981.835,1964.428,842.514,2016.126,731.617,1959.821z" style="fill:#AABBCC;"/>
			<path d="M1186.476,1777.713c34.847-3.107,62.504-35.13,61.774-71.524&#xA;&#9;&#9;&#9;&#9;c-0.729-36.395-29.57-63.383-64.417-60.276c-1.821,0.163-3.61,0.451-5.389,0.766c-3.64-18.037-8.627-35.654-14.919-52.706&#xA;&#9;&#9;&#9;&#9;c1.602-0.937,3.197-1.907,4.755-3c29.813-20.886,66.698-71.355,45.664-99.311c-39.921-53.058-81.235-30.091-111.049-9.206&#xA;&#9;&#9;&#9;&#9;c-1.527,1.071-2.965,2.226-4.385,3.399c-11.776-13.017-24.691-25.08-38.664-36.091c0.982-1.611,1.944-3.242,2.814-4.955&#xA;&#9;&#9;&#9;&#9;c9.139-17.999,9.946-37.844,3.91-54.715c-28.796,50.683-57.205,101.579-85.105,152.752&#xA;&#9;&#9;&#9;&#9;c88.47,64.828,116.637,192.585,61.337,301.503c-46.862,92.297-140.012,144.123-230.968,137.629&#xA;&#9;&#9;&#9;&#9;c-4.058,10.523-8.042,21.101-12.386,31.522c-11.79,28.279-25.184,55.976-38.595,83.638c8.434,1.59,16.906,2.842,25.401,3.731&#xA;&#9;&#9;&#9;&#9;c-0.11,1.839-0.194,3.682-0.157,5.546c0.729,36.396,22.826,67.318,85.981,63.969c34.936-1.853,40.941-38.822,40.21-75.217&#xA;&#9;&#9;&#9;&#9;c-0.037-1.901-0.197-3.761-0.385-5.608c17.48-4.982,34.647-11.354,51.356-19.058c0.793,1.624,1.618,3.237,2.562,4.802&#xA;&#9;&#9;&#9;&#9;c18.055,29.968,80.691,42.699,110.505,21.812c29.815-20.888,15.514-67.485-2.54-97.452c-0.926-1.535-1.94-2.97-2.968-4.387&#xA;&#9;&#9;&#9;&#9;c13.203-13.203,25.568-27.541,36.993-42.922c1.477,0.929,2.976,1.833,4.558,2.635c30.543,15.509,68.915,1.269,85.708-31.804&#xA;&#9;&#9;&#9;&#9;c16.791-33.07,5.643-72.454-24.9-87.961c-1.583-0.804-3.197-1.478-4.818-2.124c5.675-18.3,9.954-36.745,12.823-55.193&#xA;&#9;&#9;&#9;&#9;C1182.933,1777.901,1184.691,1777.871,1186.476,1777.713z" style="fill:#AABBCC;"/>
			<path d="M1145.222,1958.726c30.543,15.508,68.916,1.268,85.707-31.803&#xA;&#9;&#9;&#9;&#9;c16.791-33.073,5.643-72.454-24.9-87.962c-1.582-0.803-3.198-1.479-4.817-2.125c5.674-18.3,9.954-36.744,12.823-55.193&#xA;&#9;&#9;&#9;&#9;c1.751-0.006,3.507-0.034,5.293-0.194c34.847-3.106,62.504-35.127,61.775-71.523c-0.729-36.396-29.57-63.383-64.418-60.276&#xA;&#9;&#9;&#9;&#9;c-1.822,0.164-3.61,0.451-5.389,0.767c-3.64-18.037-8.628-35.655-14.92-52.707c1.604-0.938,3.199-1.907,4.756-2.999&#xA;&#9;&#9;&#9;&#9;c29.813-20.887,39.346-62.112,21.29-92.078c-18.056-29.966-56.862-37.326-86.675-16.438c-1.528,1.071-2.966,2.227-4.385,3.4&#xA;&#9;&#9;&#9;&#9;c-11.776-13.018-24.691-25.081-38.664-36.09c0.982-1.61,1.944-3.243,2.814-4.956c16.791-33.072,5.643-72.454-24.9-87.963&#xA;&#9;&#9;&#9;&#9;c-30.544-15.507-68.917-1.268-85.708,31.805c-0.87,1.713-1.62,3.452-2.341,5.196c-17.134-4.784-34.494-8.092-51.953-9.918&#xA;&#9;&#9;&#9;&#9;c0.109-1.839,0.194-3.681,0.157-5.546c-0.731-36.394-29.571-63.381-64.419-60.275c-34.847,3.106-62.505,35.128-61.775,71.523&#xA;&#9;&#9;&#9;&#9;c0.038,1.903,0.198,3.763,0.386,5.61c-17.479,4.983-34.646,11.353-51.356,19.058c-0.794-1.622-1.619-3.236-2.561-4.803&#xA;&#9;&#9;&#9;&#9;c-18.056-29.967-56.862-37.326-86.676-16.437c-29.815,20.889-39.345,62.112-21.289,92.078c0.924,1.535,1.937,2.971,2.967,4.388&#xA;&#9;&#9;&#9;&#9;c-13.203,13.204-25.568,27.541-36.993,42.921c-1.478-0.926-2.976-1.832-4.559-2.634c-30.543-15.509-68.915-1.269-85.707,31.803&#xA;&#9;&#9;&#9;&#9;c-16.791,33.072-5.643,72.454,24.9,87.962c1.582,0.803,3.197,1.478,4.818,2.125c-5.675,18.3-9.955,36.743-12.823,55.194&#xA;&#9;&#9;&#9;&#9;c-1.751,0.004-3.507,0.034-5.293,0.191c-34.847,3.108-62.504,35.129-61.775,71.525c0.73,36.396,29.572,63.381,64.419,60.275&#xA;&#9;&#9;&#9;&#9;c1.821-0.161,3.61-0.448,5.388-0.764c3.64,18.036,8.627,35.655,14.92,52.708c-1.603,0.938-3.199,1.906-4.756,2.999&#xA;&#9;&#9;&#9;&#9;c-29.812,20.886-39.345,62.112-21.29,92.078c18.056,29.967,56.862,37.325,86.675,16.439c1.528-1.071,2.966-2.226,4.386-3.399&#xA;&#9;&#9;&#9;&#9;c11.775,13.017,24.691,25.081,38.664,36.09c-0.983,1.611-1.945,3.243-2.814,4.956c-16.791,33.071-5.643,72.454,24.9,87.961&#xA;&#9;&#9;&#9;&#9;c30.545,15.508,68.917,1.268,85.709-31.804c0.869-1.713,1.619-3.453,2.34-5.196c17.134,4.784,34.495,8.092,51.953,9.917&#xA;&#9;&#9;&#9;&#9;c-0.109,1.838-0.194,3.681-0.157,5.546c0.731,36.395,29.572,63.38,64.418,60.274c34.847-3.106,62.505-35.129,61.774-71.523&#xA;&#9;&#9;&#9;&#9;c-0.038-1.902-0.197-3.762-0.385-5.609c17.48-4.983,34.646-11.353,51.356-19.059c0.794,1.623,1.618,3.237,2.562,4.802&#xA;&#9;&#9;&#9;&#9;c18.056,29.967,56.861,37.327,86.674,16.439c29.815-20.889,39.345-62.113,21.29-92.08c-0.925-1.534-1.938-2.969-2.968-4.386&#xA;&#9;&#9;&#9;&#9;c13.203-13.204,25.568-27.542,36.993-42.922C1142.142,1957.017,1143.639,1957.922,1145.222,1958.726z M764.469,1963.557&#xA;&#9;&#9;&#9;&#9;c-110.897-56.304-151.373-199.29-90.407-319.369c60.966-120.078,200.289-171.776,311.185-115.472&#xA;&#9;&#9;&#9;&#9;c110.897,56.304,151.373,199.29,90.407,319.369C1014.687,1968.163,875.365,2019.861,764.469,1963.557z" style="fill:#D8DEE8;"/>
		</g>
		<g>
			<path d="M3036.54,1238.087c36.431,18.497,82.203,1.514,102.233-37.936&#xA;&#9;&#9;&#9;&#9;c20.029-39.449,6.731-86.424-29.701-104.921c-1.889-0.958-3.814-1.764-5.747-2.534c6.769-21.829,11.873-43.829,15.295-65.836&#xA;&#9;&#9;&#9;&#9;c2.089-0.007,4.184-0.041,6.313-0.232c41.566-3.705,74.555-41.899,73.685-85.313c-0.87-43.414-35.271-75.603-76.838-71.898&#xA;&#9;&#9;&#9;&#9;c-2.172,0.195-4.306,0.537-6.428,0.914c-4.342-21.514-10.291-42.53-17.796-62.87c1.912-1.119,3.814-2.275,5.672-3.577&#xA;&#9;&#9;&#9;&#9;c35.562-24.914,46.932-74.088,25.395-109.832c-21.536-35.743-67.825-44.521-103.386-19.608c-1.821,1.278-3.536,2.656-5.23,4.056&#xA;&#9;&#9;&#9;&#9;c-14.046-15.527-29.451-29.916-46.119-43.049c1.171-1.921,2.319-3.869,3.356-5.912c20.03-39.449,46.202-82.542,9.485-100.467&#xA;&#9;&#9;&#9;&#9;c-84.939-41.465-121.389-5.968-141.418,33.481c-1.037,2.043-1.932,4.118-2.792,6.198c-20.438-5.706-41.146-9.652-61.969-11.83&#xA;&#9;&#9;&#9;&#9;c0.129-2.194,0.23-4.39,0.186-6.616c-0.87-43.412,12.01-66.905-29.713-67.717c-90.984-1.768-121.682,37.723-120.811,81.133&#xA;&#9;&#9;&#9;&#9;c0.044,2.27,0.234,4.488,0.46,6.692c-20.851,5.943-41.328,13.542-61.259,22.732c-0.948-1.935-1.931-3.86-3.055-5.729&#xA;&#9;&#9;&#9;&#9;c-21.536-35.744-67.824-44.523-103.387-19.607c-35.562,24.917-46.931,74.089-25.394,109.832c1.104,1.831,2.312,3.544,3.539,5.234&#xA;&#9;&#9;&#9;&#9;c-15.749,15.75-30.497,32.851-44.126,51.198c-1.762-1.106-3.549-2.187-5.436-3.144c-36.432-18.499-82.204-1.513-102.234,37.936&#xA;&#9;&#9;&#9;&#9;c-20.029,39.448-6.731,86.424,29.701,104.922c1.888,0.959,3.815,1.763,5.747,2.535c-6.769,21.828-11.873,43.827-15.295,65.836&#xA;&#9;&#9;&#9;&#9;c-2.088,0.006-4.184,0.04-6.312,0.229c-41.567,3.707-74.557,41.902-73.687,85.316c0.87,43.413,35.273,75.6,76.84,71.895&#xA;&#9;&#9;&#9;&#9;c2.171-0.192,4.305-0.534,6.427-0.912c4.342,21.515,10.29,42.53,17.795,62.87c-1.911,1.118-3.814,2.275-5.672,3.577&#xA;&#9;&#9;&#9;&#9;c-35.562,24.913-46.932,74.087-25.394,109.832c21.536,35.744,92.837,52.349,128.399,27.435&#xA;&#9;&#9;&#9;&#9;c1.823-1.277-21.476-10.483-19.783-11.883c14.048,15.527,29.452,29.916,46.12,43.049c-1.171,1.921-2.319,3.869-3.356,5.911&#xA;&#9;&#9;&#9;&#9;c-20.03,39.448-6.731,86.424,29.701,104.921c36.432,18.497,82.204,1.514,102.232-37.936c1.037-2.043,1.932-4.119,2.792-6.198&#xA;&#9;&#9;&#9;&#9;c20.438,5.706,41.145,9.652,61.969,11.829c-0.129,2.193-0.23,4.39-0.186,6.616c0.87,43.412,35.272,75.602,76.837,71.896&#xA;&#9;&#9;&#9;&#9;c41.566-3.706,74.557-41.903,73.686-85.314c-0.045-2.269-0.234-4.486-0.46-6.691c20.851-5.943,41.328-13.542,61.259-22.733&#xA;&#9;&#9;&#9;&#9;c0.946,1.937,1.93,3.861,3.056,5.728c21.536,35.745,67.823,44.525,103.386,19.608c35.562-24.916,46.932-74.088,25.396-109.833&#xA;&#9;&#9;&#9;&#9;c-1.105-1.829-2.313-3.542-3.54-5.231c15.749-15.75,30.498-32.851,44.126-51.198&#xA;&#9;&#9;&#9;&#9;C3032.865,1236.049,3034.653,1237.128,3036.54,1238.087z M2582.373,1243.849c-132.278-67.161-180.56-237.715-107.837-380.945&#xA;&#9;&#9;&#9;&#9;c72.721-143.232,238.906-204.897,371.185-137.737c132.278,67.162,180.56,237.716,107.837,380.946&#xA;&#9;&#9;&#9;&#9;C2880.836,1249.344,2714.652,1311.011,2582.373,1243.849z" style="fill:#AABBCC;"/>
			<path d="M3124.934,1026.63c41.566-3.706,74.555-41.903,73.685-85.315&#xA;&#9;&#9;&#9;&#9;c-0.87-43.413-35.271-75.604-76.838-71.898c-2.172,0.194-4.306,0.537-6.428,0.913c-4.342-21.515-10.291-42.529-17.796-62.869&#xA;&#9;&#9;&#9;&#9;c1.912-1.117,3.814-2.275,5.672-3.578c35.562-24.913,79.559-85.113,54.468-118.459c-47.618-63.288-96.898-35.894-132.46-10.981&#xA;&#9;&#9;&#9;&#9;c-1.821,1.278-3.536,2.655-5.23,4.055c-14.046-15.527-29.451-29.915-46.119-43.049c1.171-1.922,2.319-3.868,3.356-5.91&#xA;&#9;&#9;&#9;&#9;c10.901-21.469,11.864-45.14,4.664-65.264c-34.349,60.455-68.235,121.164-101.514,182.204&#xA;&#9;&#9;&#9;&#9;c105.528,77.328,139.125,229.717,73.163,359.636c-55.897,110.093-167.008,171.912-275.501,164.165&#xA;&#9;&#9;&#9;&#9;c-4.84,12.551-9.592,25.17-14.773,37.6c-14.064,33.731-30.041,66.769-46.037,99.764c10.06,1.897,20.166,3.391,30.299,4.451&#xA;&#9;&#9;&#9;&#9;c-0.131,2.194-0.232,4.392-0.187,6.616c0.87,43.413,27.227,80.297,102.56,76.302c41.672-2.211,48.834-46.307,47.963-89.72&#xA;&#9;&#9;&#9;&#9;c-0.045-2.267-0.234-4.486-0.459-6.689c20.85-5.943,41.327-13.544,61.258-22.733c0.946,1.937,1.93,3.861,3.056,5.728&#xA;&#9;&#9;&#9;&#9;c21.536,35.746,96.25,50.932,131.812,26.016c35.563-24.916,18.505-80.496-3.03-116.241c-1.105-1.831-2.313-3.543-3.54-5.233&#xA;&#9;&#9;&#9;&#9;c15.749-15.749,30.498-32.851,44.126-51.197c1.762,1.108,3.55,2.187,5.437,3.143c36.431,18.5,82.203,1.514,102.233-37.936&#xA;&#9;&#9;&#9;&#9;c20.029-39.447,6.731-86.424-29.701-104.921c-1.889-0.959-3.814-1.763-5.747-2.533c6.769-21.829,11.873-43.829,15.295-65.834&#xA;&#9;&#9;&#9;&#9;C3120.708,1026.853,3122.804,1026.818,3124.934,1026.63z" style="fill:#AABBCC;"/>
			<path d="M3075.726,1242.543c36.432,18.498,82.204,1.513,102.232-37.936&#xA;&#9;&#9;&#9;&#9;c20.028-39.449,6.731-86.424-29.701-104.921c-1.887-0.959-3.814-1.765-5.746-2.534c6.769-21.829,11.873-43.829,15.295-65.836&#xA;&#9;&#9;&#9;&#9;c2.089-0.007,4.184-0.041,6.313-0.232c41.566-3.705,74.555-41.9,73.686-85.313c-0.87-43.414-35.271-75.604-76.838-71.898&#xA;&#9;&#9;&#9;&#9;c-2.173,0.195-4.307,0.537-6.428,0.914c-4.342-21.514-10.292-42.53-17.797-62.87c1.913-1.119,3.816-2.275,5.673-3.577&#xA;&#9;&#9;&#9;&#9;c35.561-24.914,46.932-74.087,25.395-109.832c-21.537-35.744-67.825-44.522-103.386-19.608c-1.823,1.278-3.538,2.656-5.231,4.056&#xA;&#9;&#9;&#9;&#9;c-14.046-15.528-29.452-29.917-46.119-43.049c1.172-1.921,2.319-3.868,3.356-5.911c20.029-39.449,6.732-86.424-29.701-104.923&#xA;&#9;&#9;&#9;&#9;c-36.434-18.497-82.205-1.512-102.234,37.937c-1.037,2.043-1.932,4.118-2.792,6.198c-20.438-5.707-41.145-9.652-61.97-11.83&#xA;&#9;&#9;&#9;&#9;c0.13-2.194,0.232-4.391,0.188-6.616c-0.871-43.412-35.273-75.602-76.839-71.896c-41.566,3.705-74.556,41.901-73.685,85.313&#xA;&#9;&#9;&#9;&#9;c0.045,2.27,0.236,4.488,0.46,6.692c-20.85,5.943-41.327,13.542-61.258,22.732c-0.948-1.935-1.931-3.86-3.055-5.729&#xA;&#9;&#9;&#9;&#9;c-21.537-35.745-67.825-44.522-103.387-19.607c-35.563,24.917-46.932,74.088-25.394,109.832c1.102,1.831,2.31,3.544,3.539,5.234&#xA;&#9;&#9;&#9;&#9;c-15.749,15.75-30.498,32.851-44.126,51.197c-1.763-1.105-3.549-2.185-5.438-3.143c-36.432-18.499-82.203-1.513-102.232,37.936&#xA;&#9;&#9;&#9;&#9;c-20.029,39.448-6.731,86.424,29.701,104.921c1.887,0.958,3.814,1.763,5.747,2.534c-6.769,21.829-11.874,43.827-15.295,65.836&#xA;&#9;&#9;&#9;&#9;c-2.089,0.005-4.184,0.04-6.313,0.228c-41.566,3.707-74.556,41.903-73.686,85.315c0.871,43.414,35.274,75.602,76.839,71.896&#xA;&#9;&#9;&#9;&#9;c2.172-0.192,4.307-0.534,6.427-0.912c4.342,21.513,10.29,42.53,17.797,62.87c-1.912,1.118-3.815,2.273-5.673,3.577&#xA;&#9;&#9;&#9;&#9;c-35.561,24.913-46.931,74.088-25.395,109.831c21.537,35.745,67.826,44.522,103.386,19.608c1.823-1.277,3.538-2.655,5.232-4.055&#xA;&#9;&#9;&#9;&#9;c14.046,15.527,29.451,29.917,46.118,43.049c-1.172,1.922-2.32,3.869-3.357,5.912c-20.029,39.448-6.731,86.424,29.701,104.921&#xA;&#9;&#9;&#9;&#9;c36.434,18.497,82.205,1.512,102.234-37.936c1.037-2.043,1.931-4.119,2.792-6.198c20.438,5.706,41.146,9.652,61.97,11.829&#xA;&#9;&#9;&#9;&#9;c-0.13,2.193-0.231,4.39-0.188,6.616c0.872,43.412,35.273,75.6,76.839,71.896c41.566-3.705,74.557-41.902,73.685-85.313&#xA;&#9;&#9;&#9;&#9;c-0.045-2.269-0.235-4.487-0.46-6.691c20.851-5.943,41.326-13.542,61.258-22.733c0.947,1.936,1.93,3.861,3.056,5.728&#xA;&#9;&#9;&#9;&#9;c21.538,35.745,67.824,44.524,103.386,19.609c35.563-24.916,46.932-74.088,25.396-109.834c-1.103-1.829-2.312-3.542-3.54-5.231&#xA;&#9;&#9;&#9;&#9;c15.749-15.75,30.498-32.853,44.126-51.198C3072.051,1240.505,3073.837,1241.584,3075.726,1242.543z M2621.559,1248.305&#xA;&#9;&#9;&#9;&#9;c-132.279-67.16-180.559-237.715-107.838-380.947c72.721-143.23,238.907-204.896,371.184-137.736&#xA;&#9;&#9;&#9;&#9;c132.279,67.16,180.56,237.716,107.839,380.946C2920.022,1253.801,2753.837,1315.466,2621.559,1248.305z" style="fill:#D8DEE8;"/>
		</g>
		<g>
			<linearGradient y2="5282.5767" x2="695.327" y1="103.522" x1="3675.9299" gradientUnits="userSpaceOnUse" id="SVGID_1_">
				<stop style="stop-color:#FFC444" offset="0"/>
				<stop style="stop-color:#F36F56" offset="0.9964"/>
			</linearGradient>
			<path d="M2700.016,2128.67l-254.622,3.579c-28.974,0.407-46.396,37.568-29.851,64.265&#xA;&#9;&#9;&#9;&#9;c84.195,135.887-12.874,267.414-91.791,275.696c-92.266,9.683-185.924-42.839-176.946-162.194&#xA;&#9;&#9;&#9;&#9;c3.887-51.643,17.01-93.164,30.617-123.586c12.445-27.835-5.912-59.951-33.884-59.58l-326.016,4.332v301.741&#xA;&#9;&#9;&#9;&#9;c0,23.025,22.539,37.602,41.443,26.32c27.246-16.256,68.066-31.379,123.038-27.8c109.593,7.132,171.414,103.373,132.063,185.271&#xA;&#9;&#9;&#9;&#9;c-76.232,158.643-177.382,123.195-235.003,83.599c-18.923-13.003-44.751,3.427-44.751,28.339v347.483l865.704-75.395V2128.67z" style="fill:url(#SVGID_1_);"/>
			<path d="M1889.166,3012.214v-237.81c30.804,14.013,61.386,20.071,91.338,18.097&#xA;&#9;&#9;&#9;&#9;c50.964-3.348,123.13-32.275,179.71-150.564c24.413-51.046,24.255-108.927-0.429-159.121c-0.312-0.637-0.629-1.274-0.951-1.905&#xA;&#9;&#9;&#9;&#9;c39.392,34.395,93.482,52.141,151.929,49.441c5.269-0.243,10.604-0.663,15.864-1.235c60.966-6.682,121.76-58.72,151.663-129.248&#xA;&#9;&#9;&#9;&#9;c28.684-67.665,25.587-143.185-7.91-211.52l181.549-3.395v764.367L1889.166,3012.214z M2115.343,2424.625&#xA;&#9;&#9;&#9;&#9;c-33.671-29.803-78.281-48.317-128.318-51.803c-10.04-0.7-20.112-0.895-29.931-0.577c-29.729,0.964-58.036,6.5-84.571,16.543&#xA;&#9;&#9;&#9;&#9;v-199.116l248.211-4.449c-14.316,38.121-23.188,78.868-26.404,121.426C2091.02,2350.484,2098.244,2390.54,2115.343,2424.625z" style="opacity:0.3;fill:#FFFFFF;"/>
			
				<linearGradient y2="4066.98" x2="245.8834" y1="2374.0925" x1="1510.0546" gradientUnits="userSpaceOnUse" id="SVGID_00000111181781688091657190000016293535785199818930_">
				<stop style="stop-color:#E38DDD" offset="0.0036"/>
				<stop style="stop-color:#9571F6" offset="1"/>
			</linearGradient>
			<path d="M1879.063,2700.313&#xA;&#9;&#9;&#9;&#9;c57.621,39.596,158.771,75.044,235.003-83.599c39.352-81.898-22.469-178.139-132.063-185.271&#xA;&#9;&#9;&#9;&#9;c-54.972-3.58-95.792,11.543-123.038,27.8c-18.904,11.282-41.443-3.295-41.443-26.32v-301.741l-316.632,4.207&#xA;&#9;&#9;&#9;&#9;c-32.283,0.429-52.482-36.135-36.261-65.685c111.1-202.388-69.082-290.337-114.98-287.393&#xA;&#9;&#9;&#9;&#9;c-50.978,3.272-211.512,30.67-211.512,153.939c0,55.842,16.114,102.995,33.698,137.781c15.238,30.14-5.476,66.479-38.851,66.924&#xA;&#9;&#9;&#9;&#9;l-300.335,4.005v1018.41l1001.663-87.235v-347.483C1834.312,2703.74,1860.14,2687.31,1879.063,2700.313z" style="fill:url(#SVGID_00000111181781688091657190000016293535785199818930_);"/>
			<path d="M879.459,3110.79v-917.952l253.524-4.275c31.79-0.536,60.497-17.516,76.867-45.361&#xA;&#9;&#9;&#9;&#9;c16.518-28.099,17.644-62.161,3.012-91.217c-18.796-37.321-28.344-76.253-28.344-115.65&#xA;&#9;&#9;&#9;&#9;c0-92.804,160.075-106.622,168.184-107.255c13.534,0.312,65.509,20.375,90.395,65.629&#xA;&#9;&#9;&#9;&#9;c22.167,40.305,16.487,91.339-16.946,152.007c-15.75,28.578-15.759,62.582-0.031,90.856&#xA;&#9;&#9;&#9;&#9;c15.674,28.176,43.66,44.651,74.773,44.128l274.518-4.615v257.388c0,20.866,7.649,40.062,21.514,54.04&#xA;&#9;&#9;&#9;&#9;c13.396,13.502,30.923,20.49,49.332,19.702c10.992-0.47,21.993-3.847,31.819-9.752c23.094-13.869,49.699-21.491,79.029-22.682&#xA;&#9;&#9;&#9;&#9;c6.866-0.279,13.96-0.2,21.078,0.238c45.151,2.78,83.307,25.205,99.809,58.47c7.203,14.524,13.185,37.216,0.779,62.932&#xA;&#9;&#9;&#9;&#9;c-28.295,58.681-61.34,89.612-98.274,91.737c-29.427,1.693-58.579-13.826-77.9-27.188c-11.712-8.097-25.358-11.981-39.473-11.219&#xA;&#9;&#9;&#9;&#9;c-38.949,2.103-70.811,38.186-70.811,80.42v303.335L879.459,3110.79z" style="opacity:0.3;fill:#FFFFFF;"/>
			
				<linearGradient y2="4811.3652" x2="-461.397" y1="-688.7602" x1="2703.9856" gradientUnits="userSpaceOnUse" id="SVGID_00000039108641431629480810000002946759973783245725_">
				<stop style="stop-color:#AA80F9" offset="0"/>
				<stop style="stop-color:#6165D7" offset="0.9964"/>
			</linearGradient>
			<path d="M832.649,2144.96l300.335-4.005&#xA;&#9;&#9;&#9;&#9;c33.375-0.445,54.089-36.784,38.851-66.924c-17.584-34.786-33.698-81.939-33.698-137.781&#xA;&#9;&#9;&#9;&#9;c0-123.27,160.534-150.668,211.512-153.939c45.898-2.944,226.08,85.005,114.98,287.393c-16.221,29.55,3.978,66.114,36.261,65.685&#xA;&#9;&#9;&#9;&#9;l316.632-4.207v-307.207c0-25.617,26.874-39.527,46.004-24.251c89.763,71.695,215.008,11.232,235.987-40.928&#xA;&#9;&#9;&#9;&#9;c24.82-61.703,31.571-188.176-95.669-229.763c-67.466-22.048-117.146-5.544-149.286,15.408&#xA;&#9;&#9;&#9;&#9;c-19.135,12.47-44.13-3.236-44.13-27.754v-295.768l-977.78-56.385V2144.96z" style="fill:url(#SVGID_00000039108641431629480810000002946759973783245725_);"/>
			<path d="M896.4,2080.358v-848.395l858.49,45.524v237.279c0,25.098,9.264,48.72,26.044,66.474&#xA;&#9;&#9;&#9;&#9;c15.87,16.787,36.606,26.341,58.351,26.94c15.78,0.435,31.201-3.994,44.598-12.802c19.083-12.545,40.63-18.53,64.033-17.823&#xA;&#9;&#9;&#9;&#9;c13.315,0.402,27.46,2.992,42.035,7.681c32.039,10.319,52.612,27.002,62.995,51.014c13.479,31.167,8.721,71.767-1.981,98.247&#xA;&#9;&#9;&#9;&#9;c-5.764,11.433-46.023,39.936-94.035,39.228c-23.38-0.345-43.987-7.538-61.223-21.403&#xA;&#9;&#9;&#9;&#9;c-14.484-11.646-31.543-17.982-49.347-18.298c-46.354-0.822-84.313,39.265-84.313,89.358v248.797l-234.202,2.026&#xA;&#9;&#9;&#9;&#9;c49.327-106.193,30.156-184.258,3.832-232.551c-44.179-81.037-132.823-120.21-179.152-121.047&#xA;&#9;&#9;&#9;&#9;c-2.558-0.046-5.003,0.012-7.3,0.145c-132.358,7.871-268.613,77.634-268.613,215.384c0,48.704,9.87,96.521,29.335,142.398&#xA;&#9;&#9;&#9;&#9;L896.4,2080.358z" style="opacity:0.3;fill:#FFFFFF;"/>
			<g style="opacity:0.3;">
				
					<linearGradient y2="4829.7119" x2="-509.0636" y1="-744.2303" x1="2698.8013" gradientUnits="userSpaceOnUse" id="SVGID_00000083801019565710802920000003403658808855633836_">
					<stop style="stop-color:#AA80F9" offset="0"/>
					<stop style="stop-color:#6165D7" offset="0.9964"/>
				</linearGradient>
				<path d="M1548.01,1700.978&#xA;&#9;&#9;&#9;&#9;&#9;c-36.781-203.325,21.526-346.001,76.793-490.762l-792.153-45.681v980.427l300.334-4.005&#xA;&#9;&#9;&#9;&#9;&#9;c33.377-0.445,54.091-36.786,38.853-66.925c-17.585-34.786-33.699-81.94-33.699-137.781&#xA;&#9;&#9;&#9;&#9;&#9;c0-123.271,160.535-150.668,211.514-153.939c45.897-2.944,226.079,85.005,114.979,287.393&#xA;&#9;&#9;&#9;&#9;&#9;c-16.221,29.549,3.978,66.114,36.261,65.685l310.671-4.128C1687.688,2020.429,1584.4,1902.155,1548.01,1700.978z" style="fill:url(#SVGID_00000083801019565710802920000003403658808855633836_);"/>
			</g>
			<g style="opacity:0.3;">
				
					<linearGradient y2="5326.8184" x2="526.5986" y1="-108.0131" x1="3654.4038" gradientUnits="userSpaceOnUse" id="SVGID_00000058562637866567140340000006188801374435987087_">
					<stop style="stop-color:#FFC444" offset="0"/>
					<stop style="stop-color:#F36F56" offset="0.9964"/>
				</linearGradient>
				<path d="M1817.522,2136.584v296.338&#xA;&#9;&#9;&#9;&#9;&#9;c0,23.025,22.54,37.602,41.443,26.321c27.246-16.257,68.066-31.381,123.038-27.802&#xA;&#9;&#9;&#9;&#9;&#9;c109.594,7.132,171.415,103.374,132.063,185.272c-76.232,158.641-177.382,123.196-235.002,83.599&#xA;&#9;&#9;&#9;&#9;&#9;c-18.924-13.003-44.752,3.426-44.752,28.34v347.482l560.778-48.839c-25.098-157.682-70.321-281.344-119.753-379.201&#xA;&#9;&#9;&#9;&#9;&#9;C2147.174,2394.384,1968.435,2270.637,1817.522,2136.584z" style="fill:url(#SVGID_00000058562637866567140340000006188801374435987087_);"/>
			</g>
		</g>
		<g>
			<g>
				
					<linearGradient y2="382.4246" x2="2847.0891" y1="1117.6604" x1="2286.5635" gradientUnits="userSpaceOnUse" id="SVGID_00000027602827631982663080000010314085961140063636_">
					<stop style="stop-color:#444B8C" offset="0"/>
					<stop style="stop-color:#26264F" offset="0.9964"/>
				</linearGradient>
				<path d="M3002.709,789.036&#xA;&#9;&#9;&#9;&#9;&#9;c0-28.761-23.841-53.998-53.334-56.376l-1005.408-93.307c-32.797-2.644-56.065,32.413-56.065,62.869v353.894&#xA;&#9;&#9;&#9;&#9;&#9;c0,30.457,26.667,56.678,59.464,58.562l1002.009,57.56c29.493,1.694,53.334-20.251,53.334-49.012V789.036z" style="fill:url(#SVGID_00000027602827631982663080000010314085961140063636_);"/>
				
					<linearGradient y2="453.5619" x2="2972.1016" y1="1199.4736" x1="2403.437" gradientUnits="userSpaceOnUse" id="SVGID_00000083050300025666888210000008431071485952851893_">
					<stop style="stop-color:#444B8C" offset="0"/>
					<stop style="stop-color:#26264F" offset="0.9964"/>
				</linearGradient>
				<polygon points="2461.268,1222.705 &#xA;&#9;&#9;&#9;&#9;&#9;2370.228,1118.873 2551.463,1129.47" style="fill:url(#SVGID_00000083050300025666888210000008431071485952851893_);"/>
			</g>
			<g>
				
					<linearGradient y2="370.5106" x2="2860.4854" y1="1105.7465" x1="2299.9597" gradientUnits="userSpaceOnUse" id="SVGID_00000031896993452580695600000009420785363707758990_">
					<stop style="stop-color:#FF9085" offset="0"/>
					<stop style="stop-color:#FB6FBB" offset="1"/>
				</linearGradient>
				<path d="M3014.52,775.913&#xA;&#9;&#9;&#9;&#9;&#9;c0-28.761-23.841-53.998-53.334-56.376l-1002.01-80.79c-32.797-2.644-59.464,19.896-59.464,50.352v353.894&#xA;&#9;&#9;&#9;&#9;&#9;c0,30.457,26.667,56.678,59.464,58.562l1002.01,57.56c29.493,1.694,53.334-20.252,53.334-49.012V775.913z" style="fill:url(#SVGID_00000031896993452580695600000009420785363707758990_);"/>
				
					<linearGradient y2="440.4401" x2="2983.9114" y1="1186.3508" x1="2415.2476" gradientUnits="userSpaceOnUse" id="SVGID_00000060713689664345288700000000871653284091768966_">
					<stop style="stop-color:#FF9085" offset="0"/>
					<stop style="stop-color:#FB6FBB" offset="1"/>
				</linearGradient>
				<polygon points="2473.078,1209.583 &#xA;&#9;&#9;&#9;&#9;&#9;2382.039,1105.75 2563.273,1116.347" style="fill:url(#SVGID_00000060713689664345288700000000871653284091768966_);"/>
			</g>
			<g style="opacity:0.5;">
				<path d="M2000.954,810.079l934.541,70.317c12.791,0.962,23.7-9.156,23.7-21.984&#xA;&#9;&#9;&#9;&#9;&#9;c0-11.51-8.856-21.083-20.332-21.978l-934.542-72.833c-12.81-0.999-23.757,9.127-23.757,21.978v2.517&#xA;&#9;&#9;&#9;&#9;&#9;C1980.563,799.63,1989.453,809.213,2000.954,810.079z" style="fill:#FFFFFF;"/>
				<path d="M2938.761,911.954l-934.541-68.535c-12.776-0.938-23.658,9.176-23.658,21.985v2.532&#xA;&#9;&#9;&#9;&#9;&#9;c0,11.573,8.949,21.175,20.492,21.99l934.541,66.019c12.756,0.901,23.598-9.203,23.598-21.99v-0.015&#xA;&#9;&#9;&#9;&#9;&#9;C2959.195,922.39,2950.281,912.799,2938.761,911.954z" style="fill:#FFFFFF;"/>
				<path d="M2938.662,987.474l-934.541-64.237c-12.74-0.876-23.558,9.223-23.558,21.993v2.546&#xA;&#9;&#9;&#9;&#9;&#9;c0,11.61,9.007,21.231,20.593,21.997l934.542,61.719c12.718,0.841,23.497-9.25,23.497-21.997v-0.029&#xA;&#9;&#9;&#9;&#9;&#9;C2959.195,997.879,2950.222,988.268,2938.662,987.474z" style="fill:#FFFFFF;"/>
			</g>
		</g>
		
			<linearGradient y2="1923.4796" x2="2287.4868" y1="667.5685" x1="3187.2444" gradientUnits="userSpaceOnUse" id="SVGID_00000095313138359405594360000010132652848114599068_">
			<stop style="stop-color:#FF9085" offset="0"/>
			<stop style="stop-color:#FB6FBB" offset="1"/>
		</linearGradient>
		<path d="M2047.062,1569.459&#xA;&#9;&#9;&#9;c32.14-20.952,81.82-37.457,149.286-15.408c127.24,41.588,120.489,168.06,95.669,229.763&#xA;&#9;&#9;&#9;c-20.98,52.16-146.225,112.623-235.987,40.928c-19.13-15.276-46.004-1.366-46.004,24.251v307.207l326.017-4.332&#xA;&#9;&#9;&#9;c27.971-0.372,46.328,31.745,33.883,59.58c-13.606,30.422-26.729,71.943-30.616,123.586&#xA;&#9;&#9;&#9;c-8.979,119.355,84.68,171.878,176.946,162.195c78.917-8.283,175.986-139.809,91.791-275.697&#xA;&#9;&#9;&#9;c-16.546-26.697,0.877-63.858,29.851-64.265l254.622-3.579v-856.451l-889.587-51.299v295.768&#xA;&#9;&#9;&#9;C2002.933,1566.223,2027.927,1581.929,2047.062,1569.459z" style="fill:url(#SVGID_00000095313138359405594360000010132652848114599068_);"/>
		<path d="M2503.261,2440.988c-38.762,1.431-73.705-11.432-93.333-34.471&#xA;&#9;&#9;&#9;c-14.639-17.189-20.727-39.494-18.578-68.15c2.732-36.448,11.177-70.79,25.081-102.023c13.827-31.077,12.359-66.933-3.941-96.032&#xA;&#9;&#9;&#9;c-16.419-29.31-44.961-46.685-76.447-46.413l-271.016,2.344V1897.85c26.194,12.076,54.758,18.396,84.407,18.558&#xA;&#9;&#9;&#9;c82.856,0.453,166.261-47.291,190.757-108.479c19.594-48.944,29.997-125.514,0.511-194.329&#xA;&#9;&#9;&#9;c-16.455-38.414-52.403-89.735-130.495-115.631c-23.566-7.819-47.051-12.246-69.789-13.144&#xA;&#9;&#9;&#9;c-28.864-1.139-56.446,3.212-82.428,13.001V1308.37l786.442,41.703v748.683l-206.536,1.946&#xA;&#9;&#9;&#9;c-32.183,0.303-61.617,20.701-76.707,53.292c-15.057,32.526-12.972,71.161,5.427,100.701&#xA;&#9;&#9;&#9;c32.879,52.799,25.889,96.27,14.229,123.523c-16.041,37.508-46.705,59.992-67.468,62.073&#xA;&#9;&#9;&#9;C2510.015,2440.627,2506.617,2440.864,2503.261,2440.988z" style="opacity:0.3;fill:#FFFFFF;"/>
		<g>
			
				<linearGradient gradientTransform="matrix(-0.9683 0.25 0.25 0.9683 6434.1914 -847.0762)" y2="1668.2183" x2="4016.0085" y1="1554.853" x1="4052.6855" gradientUnits="userSpaceOnUse" id="SVGID_00000150062660365983100860000000708970600320039071_">
				<stop style="stop-color:#FFC444" offset="0"/>
				<stop style="stop-color:#F36F56" offset="0.9964"/>
			</linearGradient>
			<path d="M2910.167,1704.305&#xA;&#9;&#9;&#9;&#9;c0.729-3.214-2.433-15.633-0.687-18.364c2.864-4.477,1.286-5.234,5.234-8.792c2.026-1.824,3.818-4.266,3.583-7.087&#xA;&#9;&#9;&#9;&#9;c-0.519-6.205-16.369-30.865-16.369-30.865s-8.474,8.492-3.995,13.336c4.479,4.844,8.072,10.405,3.883,15.037&#xA;&#9;&#9;&#9;&#9;c-4.19,4.632-6.176,10.882-6.65,17.395c-0.475,6.513,3.933,24.901,3.933,24.901S2908.42,1712.007,2910.167,1704.305z" style="fill:url(#SVGID_00000150062660365983100860000000708970600320039071_);"/>
			
				<linearGradient gradientTransform="matrix(-0.9683 0.25 0.25 0.9683 6434.1914 -847.0762)" y2="1840.068" x2="4105.8018" y1="1840.068" x1="3924.1514" gradientUnits="userSpaceOnUse" id="SVGID_00000035531026356502083880000006003838710224927663_">
				<stop style="stop-color:#AA80F9" offset="0"/>
				<stop style="stop-color:#6165D7" offset="0.9964"/>
			</linearGradient>
			<path d="M2911.994,1700.318&#xA;&#9;&#9;&#9;&#9;c12.017,25.489,31.935,63.713,62.358,106.228c59.198,82.726,94.125,92.191,129.106,165.406&#xA;&#9;&#9;&#9;&#9;c8.424,17.631,30.818,68.192,27.077,132.912c-1.597,27.619-3.236,50.505-19.577,64.828&#xA;&#9;&#9;&#9;&#9;c-35.269,30.91-122.906,7.816-147.685-40.971c-21.151-41.644,21.585-66.396,11.835-133.422&#xA;&#9;&#9;&#9;&#9;c-9.861-67.794-58.889-78.928-81.839-153.04c-10.736-34.672-14.84-80.135,1.102-138.709&#xA;&#9;&#9;&#9;&#9;C2900.245,1702.47,2906.12,1701.397,2911.994,1700.318z" style="fill:url(#SVGID_00000035531026356502083880000006003838710224927663_);"/>
			<path d="M2995.748,3100.362l1.363,16.452c0.295,3.567-1.947,6.837-5.395,7.797&#xA;&#9;&#9;&#9;&#9;c-12.144,3.38-40.675,10.205-62.965,6.868c-29.109-4.358,47.207-31.117,47.207-31.117H2995.748z" style="fill:#26264F;"/>
			
				<linearGradient gradientTransform="matrix(-1 0 0 1 6682.1514 0)" y2="2900.4209" x2="3704.8215" y1="3198.3162" x1="3703.3391" gradientUnits="userSpaceOnUse" id="SVGID_00000024694434129208062100000005969356378101583796_">
				<stop style="stop-color:#FFC444" offset="0"/>
				<stop style="stop-color:#F36F56" offset="0.9964"/>
			</linearGradient>
			<path d="M2992.188,3069.223l3.56,31.138&#xA;&#9;&#9;&#9;&#9;c0,0-12.313,8.344-19.79,0l-15.197-28.295L2992.188,3069.223z" style="fill:url(#SVGID_00000024694434129208062100000005969356378101583796_);"/>
			<path d="M2612.857,3116.99l-5.046,18.615c-1.546,4.972-5.945,8.499-11.134,8.929&#xA;&#9;&#9;&#9;&#9;c-18.17,1.508-60.309,4.02-79.005-3.103c-24.187-9.213,70.931-27.2,70.931-27.2L2612.857,3116.99z" style="fill:#26264F;"/>
			
				<linearGradient gradientTransform="matrix(-1 0 0 1 6682.1514 0)" y2="2918.0115" x2="4080.1326" y1="3192.9109" x1="4078.7646" gradientUnits="userSpaceOnUse" id="SVGID_00000174581389674109569500000004460523272304099241_">
				<stop style="stop-color:#FFC444" offset="0"/>
				<stop style="stop-color:#F36F56" offset="0.9964"/>
			</linearGradient>
			<path d="M2621.833,3092.281l-8.976,22.229&#xA;&#9;&#9;&#9;&#9;c0,0-15.241,8.922-28.799,1.787l7.405-27.252L2621.833,3092.281z" style="fill:url(#SVGID_00000174581389674109569500000004460523272304099241_);"/>
			
				<linearGradient gradientTransform="matrix(-1 0 0 1 6682.1514 0)" y2="3137.1277" x2="3799.4802" y1="2466.9717" x1="3725.6257" gradientUnits="userSpaceOnUse" id="SVGID_00000098216682436568899780000009204638077921333890_">
				<stop style="stop-color:#311944" offset="0"/>
				<stop style="stop-color:#893976" offset="1"/>
			</linearGradient>
			<path d="M2973.952,2453.775&#xA;&#9;&#9;&#9;&#9;c9.806,18.453,21.934,46.533,26.165,81.969c6.602,55.289-12.227,76.552-25.292,154.551&#xA;&#9;&#9;&#9;&#9;c-8.316,49.642-17.026,101.645-4.711,164.408c10.407,53.045,26.328,65.332,32.559,118.784&#xA;&#9;&#9;&#9;&#9;c5.431,46.596-0.975,86.109-7.522,112.832c-11.17,0.454-22.339,0.913-33.508,1.367c-36.601-48.862-77.935-117.71-104.457-206.389&#xA;&#9;&#9;&#9;&#9;c-8.314-27.796-4.506-21.882-17.949-305.116c-1.45-30.558-3.189-66.342,20.515-93.001&#xA;&#9;&#9;&#9;&#9;C2892.485,2446.371,2952.285,2451.083,2973.952,2453.775z" style="fill:url(#SVGID_00000098216682436568899780000009204638077921333890_);"/>
			
				<linearGradient gradientTransform="matrix(-1 0 0 1 6682.1514 0)" y2="2671.6882" x2="4030.4255" y1="2859.5139" x1="3824.3643" gradientUnits="userSpaceOnUse" id="SVGID_00000178198174780869749830000004167654793965700539_">
				<stop style="stop-color:#311944" offset="0"/>
				<stop style="stop-color:#893976" offset="1"/>
			</linearGradient>
			<path d="M2929.275,2438.277&#xA;&#9;&#9;&#9;&#9;c28.462,20.755,29.845,68.26,23.706,98.471c-9.814,48.301-41.506,65.439-166.334,195.191&#xA;&#9;&#9;&#9;&#9;c-17.885,18.592-28.442,29.902-39.662,48.071c-32.712,52.97-32.855,102.462-37.309,136.719&#xA;&#9;&#9;&#9;&#9;c-5.921,45.544-25.286,108.953-86.005,183.635c-5.287,1.352-14.436,2.917-25.37,0.769c-6.497-1.276-11.726-3.488-15.5-5.47&#xA;&#9;&#9;&#9;&#9;c-1.998-74.655,3.71-184.896,42.853-310.913c44.693-143.882,114.156-247.755,163.207-310.005&#xA;&#9;&#9;&#9;&#9;C2839.561,2427.827,2898.325,2415.705,2929.275,2438.277z" style="fill:url(#SVGID_00000178198174780869749830000004167654793965700539_);"/>
			
				<linearGradient gradientTransform="matrix(-1 0 0 1 6682.1514 0)" y2="2583.9392" x2="4163.832" y1="2446.0796" x1="4234.4639" gradientUnits="userSpaceOnUse" id="SVGID_00000116216485380384463220000017313830318264458418_">
				<stop style="stop-color:#FFC444" offset="0"/>
				<stop style="stop-color:#F36F56" offset="0.9964"/>
			</linearGradient>
			<path d="M2491.672,2471.738&#xA;&#9;&#9;&#9;&#9;c0,0-11.476-2.084-16.201-8.834c-4.725-6.75-9.533-13.501-14.892-15.526c-5.359-2.025,0.717,10.801,4.092,16.875&#xA;&#9;&#9;&#9;&#9;c3.375,6.076-0.675,13.484-17.551,14.167c-16.875,0.684-29.565,0-29.565,0s4.411,26.758,61.877,16.759&#xA;&#9;&#9;&#9;&#9;c0,0,16.945-8.451,24.39-6.602c7.446,1.85,3.375,0,3.375,0l1.11-16.287L2491.672,2471.738z" style="fill:url(#SVGID_00000116216485380384463220000017313830318264458418_);"/>
			<g>
				
					<linearGradient gradientTransform="matrix(0.9506 0.3105 -0.3105 0.9506 9292.6885 395.1405)" y2="3637.5444" x2="-5351.6553" y1="3405.095" x1="-5536.4136" gradientUnits="userSpaceOnUse" id="SVGID_00000136410100626854283050000004346206977840850821_">
					<stop style="stop-color:#FFC444" offset="0"/>
					<stop style="stop-color:#F36F56" offset="0.9964"/>
				</linearGradient>
				<path d="M2986.879,1985.425&#xA;&#9;&#9;&#9;&#9;&#9;c-3.649-16.448,5.126-31.008,7.057-34.143c8.082-13.126,10.064-14.871,13.693-17.021l5.03-2.732c0,0,0.289-0.097,0.591-0.186&#xA;&#9;&#9;&#9;&#9;&#9;c3.184-0.938,13.841-0.673,15.97-0.094c6.805,1.85,12.586,30.307,8.302,69.85c0.202,1.528,0.394,3.067,0.575,4.619&#xA;&#9;&#9;&#9;&#9;&#9;c0.201,1.727,0.386,3.443,0.557,5.148c1.396,14.015,10.072,26.272,22.751,32.406c24.213,11.711,27.046,16.989,26.4,19.515&#xA;&#9;&#9;&#9;&#9;&#9;c-1.684,6.591-29.898,5.627-50.211,2.133c-44.302-7.621-71.148,7.146-68.374-0.674c1.208-3.404,25.009-15.188,35.475-38.232&#xA;&#9;&#9;&#9;&#9;&#9;c-2.606,5.737,2.198-12.409,3.298-18.614C3005.292,2005.8,2989.567,1997.542,2986.879,1985.425z" style="fill:url(#SVGID_00000136410100626854283050000004346206977840850821_);"/>
				<path d="M2999.01,1919.474c-0.639,12.29,4.426,25.731,7.259,28.003c0.365,0.294,2.416,2.106,4.182,5.107&#xA;&#9;&#9;&#9;&#9;&#9;c0.24,0.409,0.446,0.883,0.619,1.491c2.264,7.891-10.551,16.323-8.367,19.92c1.585,2.61,10.138-0.29,11.013,1.936&#xA;&#9;&#9;&#9;&#9;&#9;c0.825,2.096-6.362,5.944-5.433,8.45c0.701,1.892,5.073,0.439,7.615,3.418c1.267,1.484,0.811,2.581,1.998,6.97&#xA;&#9;&#9;&#9;&#9;&#9;c0.672,2.482,1.651,5.212,2.443,6.744c3.848,7.448,15.728,10.749,18.202,7.99c0.688-0.769,0.173-1.476,0.98-4.139&#xA;&#9;&#9;&#9;&#9;&#9;c0,0,0.748-2.469,2.649-5.266c2.717-3.996,8.885-6.621,15.186-10.649c11.668-7.46,15.098-14.179,16.142-16.456&#xA;&#9;&#9;&#9;&#9;&#9;c0.372-0.811,0.609-1.425,0.78-1.868c3.419-8.894,4.167-22.196,0.548-30.602c-6.064-14.082-21.81-8.426-33.652-22.699&#xA;&#9;&#9;&#9;&#9;&#9;c-13.664-16.469-3.826-37.403-11.581-40.204C3021.046,1874.532,3000.191,1896.751,2999.01,1919.474z" style="fill:#26264F;"/>
				
					<linearGradient gradientTransform="matrix(0.9506 0.3105 -0.3105 0.9506 9292.6885 395.1405)" y2="3630.793" x2="-5343.1655" y1="3398.3457" x1="-5527.9219" gradientUnits="userSpaceOnUse" id="SVGID_00000114060893223515094580000015776677974318905230_">
					<stop style="stop-color:#FFC444" offset="0"/>
					<stop style="stop-color:#F36F56" offset="0.9964"/>
				</linearGradient>
				<path d="M3007.28,1971.352&#xA;&#9;&#9;&#9;&#9;&#9;c3.24-3.971,8.317,0.209,8.052,5.564c-0.265,5.356-5.76,10.635-10.734,9.3C2999.625,1984.88,3002.92,1976.697,3007.28,1971.352z" style="fill:url(#SVGID_00000114060893223515094580000015776677974318905230_);"/>
				<path d="M3010.218,1962.53l-7.489,8.702c0,0-8.147,10.719-12.207,4.376&#xA;&#9;&#9;&#9;&#9;&#9;c-3.317-5.182-4.254-5.123-4.485-4.927c-0.044,0.038-0.059,0.097-0.069,0.093c-0.062-0.02,0.664-2.451,1.313-4.589&#xA;&#9;&#9;&#9;&#9;&#9;c-2.007,2.568-4.809,6.756-6.684,12.497c-1.821,5.576-3.771,11.547-0.9,17.544c0.167,0.347,3.342,6.737,9.827,8.599&#xA;&#9;&#9;&#9;&#9;&#9;c0,0,2.551,0.732,13.57-0.583c0,0-11.451-9.315-11.519-11.381c-0.186-5.619,7.736-8.212,14.128-19.357&#xA;&#9;&#9;&#9;&#9;&#9;C3008.169,1969.205,3009.485,1965.257,3010.218,1962.53z" style="fill:#26264F;"/>
			</g>
			
				<linearGradient gradientTransform="matrix(-0.9999 0.0145 0.0145 0.9999 6567.5918 2.6561)" y2="2612.0623" x2="3873.5261" y1="2101.5762" x1="3557.0249" gradientUnits="userSpaceOnUse" id="SVGID_00000092453434245364375090000012193731596858454674_">
				<stop style="stop-color:#AA80F9" offset="0"/>
				<stop style="stop-color:#6165D7" offset="0.9964"/>
			</linearGradient>
			<path d="M2864.943,2093.798&#xA;&#9;&#9;&#9;&#9;c19.521-16.586,50.983-38.865,94.436-53.19c44.694-14.732,39.867-0.544,126.474-11.781c6.919-0.898,19.026-2.126,29.225,4.886&#xA;&#9;&#9;&#9;&#9;c15.54,10.691,17.26,34.358,17.075,50.732c-0.678,60.365-28.25,111.217-43.859,163.49c-23.822,79.78,2.488,88.299-25.794,198.848&#xA;&#9;&#9;&#9;&#9;c-16.885,66.001-32.474,87.237-49.129,101.462c-38.481,32.864-88.201,33.027-105.586,33.086&#xA;&#9;&#9;&#9;&#9;c-58.353,0.194-77.231-27.343-139.24-32.875c-4.518-0.403-12.702-0.997-20.091-6.659c-19.805-15.181-15.041-52.486-12.091-72.107&#xA;&#9;&#9;&#9;&#9;c19.775-131.504,61.814-231.087,61.814-231.087C2814.345,2200.308,2836.396,2150.803,2864.943,2093.798z" style="fill:url(#SVGID_00000092453434245364375090000012193731596858454674_);"/>
			
				<linearGradient gradientTransform="matrix(-0.9999 0.0145 0.0145 0.9999 6567.5918 2.6561)" y2="2612.7095" x2="3872.4778" y1="2102.2305" x1="3555.981" gradientUnits="userSpaceOnUse" id="SVGID_00000018918055111365243630000015492307939000552611_">
				<stop style="stop-color:#AA80F9" offset="0"/>
				<stop style="stop-color:#6165D7" offset="0.9964"/>
			</linearGradient>
			<path d="M2736.364,2469.69&#xA;&#9;&#9;&#9;&#9;c19.775-131.507,61.814-231.087,61.814-231.087c13.557-32.116,31.315-72.191,53.509-117.885&#xA;&#9;&#9;&#9;&#9;c74.413,68.501,86.417,103.964,77.735,123.589c-12.507,28.267-68.639,25.375-75.313,57.441&#xA;&#9;&#9;&#9;&#9;c-7.162,34.415,52.815,60.219,44.677,95.736c-6.801,29.683-52.71,29.204-56.165,56.165&#xA;&#9;&#9;&#9;&#9;c-3.269,25.515,34.319,53.457,65.101,63.824c49.149,16.554,93.527-7.464,104.671-14.042c22.35-13.194,37.534-30.91,47.847-48.142&#xA;&#9;&#9;&#9;&#9;c-16.021,59.281-30.959,79.365-46.868,92.953c-38.481,32.864-88.201,33.029-105.586,33.088&#xA;&#9;&#9;&#9;&#9;c-58.353,0.195-77.231-27.344-139.24-32.874c-4.518-0.404-12.702-0.998-20.091-6.662&#xA;&#9;&#9;&#9;&#9;C2728.65,2526.613,2733.415,2489.311,2736.364,2469.69z" style="opacity:0.3;fill:url(#SVGID_00000018918055111365243630000015492307939000552611_);"/>
			
				<linearGradient gradientTransform="matrix(-1 0 0 1 6682.1514 0)" y2="2579.3435" x2="4097.605" y1="2068.7527" x1="3781.0388" gradientUnits="userSpaceOnUse" id="SVGID_00000055696696874741407400000010259958102859501985_">
				<stop style="stop-color:#AA80F9" offset="0"/>
				<stop style="stop-color:#6165D7" offset="0.9964"/>
			</linearGradient>
			<path d="M3015.797,2050.282&#xA;&#9;&#9;&#9;&#9;c-28.661-2.503-71.803-2.563-119.138,13.617c-114.493,39.137-181.131,148.55-209.343,194.872&#xA;&#9;&#9;&#9;&#9;c-49.782,81.74-60.993,143.714-133.769,186.495c-20.122,11.827-38.418,18.349-50.408,21.96&#xA;&#9;&#9;&#9;&#9;c-0.162,11.358-0.324,22.717-0.486,34.075c71.508-10.266,121.165-33.093,153.177-51.906&#xA;&#9;&#9;&#9;&#9;c59.166-34.774,81.871-69.837,175.303-125.095c40.669-24.053,42.178-20.847,60.42-33.188&#xA;&#9;&#9;&#9;&#9;C2938.06,2259.645,2992.154,2195.561,3015.797,2050.282z" style="fill:url(#SVGID_00000055696696874741407400000010259958102859501985_);"/>
			
				<linearGradient gradientTransform="matrix(-1 0 0 1 6682.1514 0)" y2="3141.2207" x2="3762.3071" y1="2471.0684" x1="3688.4529" gradientUnits="userSpaceOnUse" id="SVGID_00000039104159517376005150000003507784274279190172_">
				<stop style="stop-color:#311944" offset="0"/>
				<stop style="stop-color:#893976" offset="1"/>
			</linearGradient>
			<path d="M2883.687,2881.399&#xA;&#9;&#9;&#9;&#9;c-15.074-52.628,40.442-80.013,31.001-160.476c-4.334-36.932-17.542-44.038-12.766-65.648&#xA;&#9;&#9;&#9;&#9;c7.532-34.074,49.121-55.978,97.171-70.413c-4.767,27.797-15.742,54.536-24.267,105.433&#xA;&#9;&#9;&#9;&#9;c-8.316,49.642-17.026,101.645-4.711,164.408c10.407,53.045,26.328,65.332,32.559,118.784c2.316,19.873,2.403,38.353,1.32,55.208&#xA;&#9;&#9;&#9;&#9;c-6.38-16.252-15.138-33.556-27.305-50.652C2934.816,2919.224,2895.708,2923.369,2883.687,2881.399z" style="opacity:0.3;fill:url(#SVGID_00000039104159517376005150000003507784274279190172_);"/>
		</g>
		<g>
			<g>
				
					<linearGradient gradientTransform="matrix(-1 0 0 1 230.2854 0)" y2="920.6129" x2="-434.1517" y1="419.6046" x1="-1171.7478" gradientUnits="userSpaceOnUse" id="SVGID_00000108291363340187292600000008847323598685041304_">
					<stop style="stop-color:#311944" offset="0"/>
					<stop style="stop-color:#6B3976" offset="1"/>
				</linearGradient>
				<path d="M1361.509,686.1&#xA;&#9;&#9;&#9;&#9;&#9;c13.876-8.996,1.232-35.167,0.485-91.38c-0.916-68.886,17.38-81.722,2.685-108.748c-17.969-33.048-63.201-46.724-93.169-47.368&#xA;&#9;&#9;&#9;&#9;&#9;c-6.609-0.141-8.154-3.751-63.527,10.589c-99.76,25.837-124.734-1.859-169.409,25.806&#xA;&#9;&#9;&#9;&#9;&#9;c-43.162,26.731-24.262,56.004-66.175,87.351c-67.938,50.812-139.381-4.122-187.936,38.381&#xA;&#9;&#9;&#9;&#9;&#9;c-45.927,40.202-46.985,142.629,1.323,198.526c54.764,63.367,153.513,44.329,219.7,31.764&#xA;&#9;&#9;&#9;&#9;&#9;c13.926-2.642,84.263-17.414,157.498-71.468c40.513-29.904,68.33-61.837,86.028-85.366c4.153-4.675,10.635-10.338,19.191-11.25&#xA;&#9;&#9;&#9;&#9;&#9;c10.271-1.097,18.523,5.187,22.499,7.94C1311.582,685.337,1347.878,694.936,1361.509,686.1z" style="fill:url(#SVGID_00000108291363340187292600000008847323598685041304_);"/>
				
					<linearGradient y2="1351.1315" x2="1323.7111" y1="741.0333" x1="1490.1013" gradientUnits="userSpaceOnUse" id="SVGID_00000164484068222585734890000011537034891464097179_">
					<stop style="stop-color:#FFC444" offset="0"/>
					<stop style="stop-color:#F36F56" offset="0.9964"/>
				</linearGradient>
				<path d="M1305.755,648.347&#xA;&#9;&#9;&#9;&#9;&#9;c17.841-16.254,81.51,15.073,123.704,56.652c49.571,48.849,45.76,88.454,89.02,149.138&#xA;&#9;&#9;&#9;&#9;&#9;c21.505,30.169,58.376,70.783,123.705,106.36c-4.625,11.56-9.25,23.124-13.873,34.683c-31.587,1.9-93.6,0.783-151.452-36.993&#xA;&#9;&#9;&#9;&#9;&#9;c-40.188-26.243-60.866-61.014-100.582-129.486C1336.419,759.982,1283.454,668.667,1305.755,648.347z" style="fill:url(#SVGID_00000164484068222585734890000011537034891464097179_);"/>
				
					<linearGradient gradientTransform="matrix(-0.831 -0.5562 -0.5562 0.831 1166.3326 279.3084)" y2="806.1026" x2="-1088.1666" y1="806.1026" x1="-1196.5651" gradientUnits="userSpaceOnUse" id="SVGID_00000016071109407206052830000013290639706128939699_">
					<stop style="stop-color:#311944" offset="0"/>
					<stop style="stop-color:#6B3976" offset="1"/>
				</linearGradient>
				<path d="M1695.419,1603.359l-20.288-43.104&#xA;&#9;&#9;&#9;&#9;&#9;c-2.882-6.123-7.376-11.347-13-15.112l-10.045-6.723c0,0-24.013-0.638-27.75,14.457c-0.804,19.167,36.446,61.996,60.003,79.003&#xA;&#9;&#9;&#9;&#9;&#9;c3.912,2.823,9.488,6.586,12.876,4.649C1702.952,1633.249,1698.927,1615.618,1695.419,1603.359z" style="fill:url(#SVGID_00000016071109407206052830000013290639706128939699_);"/>
				
					<linearGradient gradientTransform="matrix(-1 0 0 1 230.2854 0)" y2="1108.0894" x2="-1275.5933" y1="1638.7545" x1="-1452.4812" gradientUnits="userSpaceOnUse" id="SVGID_00000019670031660624249000000000916913417112139189_">
					<stop style="stop-color:#FFC444" offset="0"/>
					<stop style="stop-color:#F36F56" offset="0.9964"/>
				</linearGradient>
				<path d="M1657.294,1514.983&#xA;&#9;&#9;&#9;&#9;&#9;c-3.195,18.488,0.847,28.127,5.203,33.526c3.066,3.8,27.947,44.824,17.727,51.448c-4.612,2.989-36.221-36.262-39.286-42.276&#xA;&#9;&#9;&#9;&#9;&#9;c-2.776-5.446-4.581-4.161-4.743-18.999c-0.105-9.77-2.092-17.632-3.654-22.552&#xA;&#9;&#9;&#9;&#9;&#9;C1640.793,1515.747,1649.043,1515.366,1657.294,1514.983z" style="fill:url(#SVGID_00000019670031660624249000000000916913417112139189_);"/>
				
					<linearGradient gradientTransform="matrix(-1 0 0 1 230.2854 0)" y2="1395.0687" x2="-1421.3893" y1="1395.0687" x1="-1482.1404" gradientUnits="userSpaceOnUse" id="SVGID_00000021800404674668178990000009197969580150724759_">
					<stop style="stop-color:#311944" offset="0"/>
					<stop style="stop-color:#6B3976" offset="1"/>
				</linearGradient>
				<path d="M1693.223,1368.458&#xA;&#9;&#9;&#9;&#9;&#9;c0,0,22.455,26.793,18.8,56.167c-3.654,29.371-42.979-13.571-48.461-28.084c-5.484-14.512-11.888-35.19-11.888-35.19&#xA;&#9;&#9;&#9;&#9;&#9;S1679.251,1344.196,1693.223,1368.458z" style="fill:url(#SVGID_00000021800404674668178990000009197969580150724759_);"/>
				
					<linearGradient gradientTransform="matrix(-1 0 0 1 230.2854 0)" y2="1264.2792" x2="-1418.1497" y1="1561.8798" x1="-1517.3496" gradientUnits="userSpaceOnUse" id="SVGID_00000012452649611606863970000003598543141968602292_">
					<stop style="stop-color:#FFC444" offset="0"/>
					<stop style="stop-color:#F36F56" offset="0.9964"/>
				</linearGradient>
				<path d="M1684.657,1326.535&#xA;&#9;&#9;&#9;&#9;&#9;c0,0-6.092,31.215,5.527,47.69c5.786,8.206,13.592,15.166,11.297,21.845c-1.538,4.476-7.379,7.692-12.326,7.184&#xA;&#9;&#9;&#9;&#9;&#9;c-9.473-0.973-14.723-15.494-18.427-25.737c-5.47-15.128-8.519-47.5-8.519-47.5L1684.657,1326.535z" style="fill:url(#SVGID_00000012452649611606863970000003598543141968602292_);"/>
				
					<linearGradient y2="1191.7809" x2="1707.8761" y1="1191.7809" x1="1500.6085" gradientUnits="userSpaceOnUse" id="SVGID_00000080177214249947488720000016060542031033547966_">
					<stop style="stop-color:#311944" offset="0"/>
					<stop style="stop-color:#893976" offset="1"/>
				</linearGradient>
				<path d="M1666.76,1352.849&#xA;&#9;&#9;&#9;&#9;&#9;c6.906-2.515,13.811-5.031,20.717-7.546c10.773-24.607,23.921-65.023,19.53-114.147&#xA;&#9;&#9;&#9;&#9;&#9;c-11.295-126.333-128.138-193.278-141.119-200.443c-31.835,15.974-64.08,38.506-65.248,66.913&#xA;&#9;&#9;&#9;&#9;&#9;c-1.465,35.659,47.113,54.508,92.777,106.651C1620.829,1235.574,1650.118,1282.211,1666.76,1352.849z" style="fill:url(#SVGID_00000080177214249947488720000016060542031033547966_);"/>
				
					<linearGradient y2="1239.9404" x2="1675.6124" y1="1239.9404" x1="1130.0302" gradientUnits="userSpaceOnUse" id="SVGID_00000143618306914728986180000009914811646331937411_">
					<stop style="stop-color:#311944" offset="0"/>
					<stop style="stop-color:#893976" offset="1"/>
				</linearGradient>
				<path d="M1659.317,1529.433&#xA;&#9;&#9;&#9;&#9;&#9;c22.817-89.131,16.987-161.864,10.406-203.765c-9.949-63.329-30.184-192.148-116.189-240.182&#xA;&#9;&#9;&#9;&#9;&#9;c-18.781-10.49-45.63-19.883-78.354-49.045c-27.327-24.353-44.696-49.966-55.177-68.011&#xA;&#9;&#9;&#9;&#9;&#9;c-115.022-33.742-221.114-20.068-267.929,41.62c-5.409,7.128-18.952,22.589-21.571,45.387&#xA;&#9;&#9;&#9;&#9;&#9;c-5.912,51.438,44.63,113.364,101.343,126.296c72.078,16.436,113.893-57.573,177.752-32.95&#xA;&#9;&#9;&#9;&#9;&#9;c17.863,6.888,33.008,23.957,63.297,58.095c38.533,43.427,60.193,83.499,68.388,99.534&#xA;&#9;&#9;&#9;&#9;&#9;c24.401,47.747,42.906,82.994,45.604,128.674c0.628,10.641,1.004,32.141,13.468,55.328c9.568,17.8,22.537,29.667,32.186,36.999&#xA;&#9;&#9;&#9;&#9;&#9;C1641.467,1528.086,1650.391,1528.761,1659.317,1529.433z" style="fill:url(#SVGID_00000143618306914728986180000009914811646331937411_);"/>
				
					<linearGradient gradientTransform="matrix(-1 0 0 1 230.2854 0)" y2="1234.4939" x2="-1185.4088" y1="1567.4546" x1="-1290.6152" gradientUnits="userSpaceOnUse" id="SVGID_00000138545541941551872000000008249231801652804542_">
					<stop style="stop-color:#AA80F9" offset="0"/>
					<stop style="stop-color:#6165D7" offset="0.9964"/>
				</linearGradient>
				<path d="M1130.502,1055.437&#xA;&#9;&#9;&#9;&#9;&#9;c2.62-22.798,16.162-38.259,21.571-45.387c46.815-61.688,152.907-75.361,267.929-41.62&#xA;&#9;&#9;&#9;&#9;&#9;c10.48,18.045,27.849,43.658,55.176,68.011c32.724,29.163,59.573,38.556,78.355,49.045&#xA;&#9;&#9;&#9;&#9;&#9;c52.518,29.332,80.488,88.779,96.591,145.051c-23.893-37.046-44.345-46.895-60.173-47.071&#xA;&#9;&#9;&#9;&#9;&#9;c-22.655-0.251-32.778,19.118-59.829,16.474c-28.914-2.826-35.524-26.733-58.962-29.48c-7.015-0.822-15.647,0.26-26.014,5.779&#xA;&#9;&#9;&#9;&#9;&#9;c-13.835-14.486-24.147-23.061-35.549-27.457c-63.859-24.623-105.675,49.386-177.752,32.95&#xA;&#9;&#9;&#9;&#9;&#9;C1175.132,1168.801,1124.59,1106.875,1130.502,1055.437z" style="opacity:0.3;fill:url(#SVGID_00000138545541941551872000000008249231801652804542_);"/>
				
					<linearGradient y2="1114.6469" x2="1599.7328" y1="1114.6469" x1="1114.7965" gradientUnits="userSpaceOnUse" id="SVGID_00000103943906445172170330000001345631096243281837_">
					<stop style="stop-color:#311944" offset="0"/>
					<stop style="stop-color:#893976" offset="1"/>
				</linearGradient>
				<path d="M1599.721,1125.351&#xA;&#9;&#9;&#9;&#9;&#9;c-13.019-0.691-33.067-1.092-57.249,1.297c-114.768,11.342-146.407,68.111-241.26,81.964&#xA;&#9;&#9;&#9;&#9;&#9;c-22.438,3.278-122.342,17.868-165.613-39.885c-31.065-41.464-26.365-112.91,7.614-141.011&#xA;&#9;&#9;&#9;&#9;&#9;c14.38-11.893,28.618-11.562,120.715-10.729c34.683,0.314,69.368,0.426,104.05,0.868&#xA;&#9;&#9;&#9;&#9;&#9;c146.813,1.871,174.889-8.297,201.602,15.986C1582.04,1045.168,1600.262,1069.499,1599.721,1125.351z" style="fill:url(#SVGID_00000103943906445172170330000001345631096243281837_);"/>
				<g>
					<g>
						
							<linearGradient y2="1024.8995" x2="864.9479" y1="932.4602" x1="1126.0886" gradientUnits="userSpaceOnUse" id="SVGID_00000070804286520959501680000003021568659655848082_">
							<stop style="stop-color:#FFC444" offset="0"/>
							<stop style="stop-color:#F36F56" offset="0.9964"/>
						</linearGradient>
						<path d="M1289.785,654.305&#xA;&#9;&#9;&#9;&#9;&#9;&#9;&#9;c0,0-115.884-33.795-166.921,23.979c-9.37,10.607-16.778,24.555-22.169,51.48c-27.471,137.206,76.435,219.616,35.498,291.999&#xA;&#9;&#9;&#9;&#9;&#9;&#9;&#9;c-16.256,28.744-44.889,37.405-65.235,89.063c-3.444,8.745-15.904,40.377-4.471,50.345&#xA;&#9;&#9;&#9;&#9;&#9;&#9;&#9;c10.069,8.778,26.627-9.755,56.042-6.176c31.149,3.79,38.427,27.719,59.385,24.235c13.665-2.273,19.554-13.938,39.685-43.024&#xA;&#9;&#9;&#9;&#9;&#9;&#9;&#9;c29.143-42.108,43.715-63.162,54.161-70.545c41.213-29.127,73.068,8.858,120.066-19.984&#xA;&#9;&#9;&#9;&#9;&#9;&#9;&#9;c17.015-10.443,80.058-91.612,61.511-69.315l0,0c-44.147-55.075-54.406-100.513-55.46-132.105&#xA;&#9;&#9;&#9;&#9;&#9;&#9;&#9;c-1.157-34.636,8.827-50.377,0-91.322c0,0-9.849-45.684-45.382-84.913C1351.393,662.391,1345.313,656.526,1289.785,654.305z" style="fill:url(#SVGID_00000070804286520959501680000003021568659655848082_);"/>
					</g>
				</g>
				<g>
					
						<linearGradient y2="602.6668" x2="1272.0496" y1="684.7066" x1="1275.516" gradientUnits="userSpaceOnUse" id="SVGID_00000085227868956944154070000015255411332064968606_">
						<stop style="stop-color:#FFFFFF" offset="0"/>
						<stop style="stop-color:#D8DEE8" offset="1"/>
					</linearGradient>
					<path d="M1252.578,579.14&#xA;&#9;&#9;&#9;&#9;&#9;&#9;c1.569,7.333,9.558,46.677-6.54,56.8c-3.489,2.196-10.194,3.452-23.604,5.966c-8.78,1.645-16.146,2.654-21.342,3.276&#xA;&#9;&#9;&#9;&#9;&#9;&#9;c0.751,6.597,2.973,17.336,10.587,27.104c21.344,27.382,64.139,20.297,70.242,19.185c21.526-3.92,42.709-10.571,47.824-14.635&#xA;&#9;&#9;&#9;&#9;&#9;&#9;c7.789-6.19,13.914-10.833,17.536-15.551c-8.331-4.025-25.148-14.642-36.436-18.116c-8.435-2.595-16.352-4.447-23.555-5.776&#xA;&#9;&#9;&#9;&#9;&#9;&#9;c-1.183-7.6-2.369-15.2-3.552-22.801C1273.35,602.773,1262.963,590.957,1252.578,579.14z" style="fill:url(#SVGID_00000085227868956944154070000015255411332064968606_);"/>
					<path d="M1251.823,598.748c0,0,2.909,28.833,30.937,33.914c25.095,4.55,43.987-56.093,31.143-71.779&#xA;&#9;&#9;&#9;&#9;&#9;&#9;c-4.284-5.232-14.86-10.21-24.029-9.947c-6.448,0.187-28.228,8.481-31.268,30.274c-4.338-4.57-9.743-5.883-12.408-3.97&#xA;&#9;&#9;&#9;&#9;&#9;&#9;c-3.38,2.428-1.57,9.486-1.158,11.084C1246.463,593.866,1250.08,597.3,1251.823,598.748z" style="fill:#FFFFFF;"/>
				</g>
				
					<linearGradient y2="1003.5848" x2="1460.7162" y1="1003.5848" x1="1061.7587" gradientUnits="userSpaceOnUse" id="SVGID_00000018946221665278315960000001672618637279497358_">
					<stop style="stop-color:#FFC444" offset="0"/>
					<stop style="stop-color:#F36F56" offset="0.9964"/>
				</linearGradient>
				<path d="M1457.336,976.362&#xA;&#9;&#9;&#9;&#9;&#9;c-5.312-6.627-10.108-13.106-14.481-19.446c-24.347-8.158-45.412-11.194-62.403-12.018c-38.328-1.859-59.316,7.159-85.406-8.541&#xA;&#9;&#9;&#9;&#9;&#9;c-29.614-17.821-24.372-42.559-52.951-56.368c-30.078-14.533-51.345,1.89-80.281-3.416c-17.475-3.204-38.76-14.89-60.482-48.98&#xA;&#9;&#9;&#9;&#9;&#9;c16.634,82.076,65.011,140.857,34.861,194.168c-16.256,28.744-44.889,37.405-65.235,89.063&#xA;&#9;&#9;&#9;&#9;&#9;c-3.444,8.745-15.904,40.377-4.471,50.345c10.069,8.778,26.627-9.755,56.042-6.176c31.149,3.79,38.428,27.719,59.385,24.235&#xA;&#9;&#9;&#9;&#9;&#9;c13.665-2.273,19.554-13.938,39.685-43.024c29.144-42.108,43.715-63.162,54.161-70.545&#xA;&#9;&#9;&#9;&#9;&#9;c41.213-29.127,73.068,8.858,120.066-19.984C1412.84,1035.234,1475.883,954.065,1457.336,976.362z" style="opacity:0.3;fill:url(#SVGID_00000018946221665278315960000001672618637279497358_);"/>
			</g>
			<g>
				
					<linearGradient gradientTransform="matrix(-1 0 0 1 1740.2787 0)" y2="1011.7452" x2="527.5996" y1="1011.7452" x1="241.0042" gradientUnits="userSpaceOnUse" id="SVGID_00000019647169795400998230000014954852192512868782_">
					<stop style="stop-color:#40447E" offset="0"/>
					<stop style="stop-color:#3C3B6B" offset="0.9964"/>
				</linearGradient>
				<path d="M1492.255,990.445l-262.207,12.759&#xA;&#9;&#9;&#9;&#9;&#9;c-3.609,0.176-6.901,2.11-8.81,5.176l-7.255,11.646c-3.611,5.796,0.728,13.273,7.553,13.013l277.74-10.581L1492.255,990.445z" style="fill:url(#SVGID_00000019647169795400998230000014954852192512868782_);"/>
				
					<linearGradient gradientTransform="matrix(-1 0 0 1 1740.2787 0)" y2="1017.3558" x2="245.6263" y1="830.9593" x1="57.7266" gradientUnits="userSpaceOnUse" id="SVGID_00000020380920563137816740000009879407744377782409_">
					<stop style="stop-color:#40447E" offset="0"/>
					<stop style="stop-color:#3C3B6B" offset="0.9964"/>
				</linearGradient>
				<path d="M1764.972,844.43l-270.889,5.25&#xA;&#9;&#9;&#9;&#9;&#9;c-8.016,0.155-15.355,4.522-19.315,11.49l-93.806,165.042l286.092-11.398c7.852-0.313,15.018-4.565,19.054-11.308&#xA;&#9;&#9;&#9;&#9;&#9;l86.911-145.197C1776.719,852.129,1772.175,844.29,1764.972,844.43z" style="fill:url(#SVGID_00000020380920563137816740000009879407744377782409_);"/>
				
					<linearGradient gradientTransform="matrix(-1 0 0 1 1740.2787 0)" y2="1017.3561" x2="245.6269" y1="830.9595" x1="57.7271" gradientUnits="userSpaceOnUse" id="SVGID_00000113347900355658847940000000831755420088801166_">
					<stop style="stop-color:#40447E" offset="0"/>
					<stop style="stop-color:#3C3B6B" offset="0.9964"/>
				</linearGradient>
				<path d="M1474.767,861.171&#xA;&#9;&#9;&#9;&#9;&#9;c3.961-6.97,11.301-11.336,19.317-11.491l5.936-0.115c0.885,8.744,3.568,16.743,8.919,23.201&#xA;&#9;&#9;&#9;&#9;&#9;c16.703,20.162,44.455,7.726,65.139,29.063c22.721,23.438,1.731,51.34,22.046,73.155c21.383,22.96,55.96,4.266,95.707,18.96&#xA;&#9;&#9;&#9;&#9;&#9;l-5.723,9.562c-4.036,6.744-11.201,10.996-19.053,11.309l-286.092,11.398L1474.767,861.171z" style="opacity:0.3;fill:url(#SVGID_00000113347900355658847940000000831755420088801166_);"/>
			</g>
			<g>
				
					<linearGradient y2="948.6848" x2="837.9694" y1="856.2455" x1="1099.1097" gradientUnits="userSpaceOnUse" id="SVGID_00000031889840868111334000000006973495854886551941_">
					<stop style="stop-color:#FFC444" offset="0"/>
					<stop style="stop-color:#F36F56" offset="0.9964"/>
				</linearGradient>
				<path d="M1251.415,981.683&#xA;&#9;&#9;&#9;&#9;&#9;c3.412-9.013,6.826-18.024,10.239-27.037c-37.719-10.343-89.886-25.621-143.394-44.741c-8.38-2.995-18.336-6.704-21.597-15.522&#xA;&#9;&#9;&#9;&#9;&#9;c-9.149-24.736,49.016-50.369,71.628-104.381c20.912-49.953,9.402-119.275-14.868-127.465&#xA;&#9;&#9;&#9;&#9;&#9;c-50.503-17.042-229.596,205.885-165.632,299.86C1023.947,1015.519,1135.42,1023.978,1251.415,981.683z" style="fill:url(#SVGID_00000031889840868111334000000006973495854886551941_);"/>
			</g>
			<path d="M1261.653,954.646c23.68-12.579,52.025,0.315,53.852,1.177&#xA;&#9;&#9;&#9;&#9;c5.203,2.456,12.776,6.831,20.426,14.647c0.866,1.18,11.137,15.413,7.396,19.974c-3,3.654-14.615,0.625-28.576-8.057&#xA;&#9;&#9;&#9;&#9;c-5.852-0.82-14.564-1.574-25-0.613c-19.166,1.768-27.945,7.822-34.903,2.596c-5.094-3.826-6.831-11.915-4.997-17.929&#xA;&#9;&#9;&#9;&#9;C1251.819,959.98,1257.645,956.776,1261.653,954.646z" style="fill:#FFFFFF;"/>
		</g>
		<g>
			
				<linearGradient y2="3096.7424" x2="1184.4451" y1="3007.6226" x1="919.3139" gradientUnits="userSpaceOnUse" id="SVGID_00000097467222838391506630000012363268027161795233_">
				<stop style="stop-color:#AB316D" offset="0"/>
				<stop style="stop-color:#792D3D" offset="1"/>
			</linearGradient>
			<path d="M1066.932,3175.751&#xA;&#9;&#9;&#9;&#9;c-1.061,9.182-5.525,16.58-11.403,18.894c-14.684,5.779-33.685,7.961-55.899,7.989c-22.555,0.028-41.811-2.263-56.614-8.128&#xA;&#9;&#9;&#9;&#9;c-5.697-2.257-10.071-9.292-11.284-18.138l-39.383-287.035h207.676L1066.932,3175.751z" style="fill:url(#SVGID_00000097467222838391506630000012363268027161795233_);"/>
			
				<linearGradient y2="3022.9805" x2="932.2686" y1="2800.1379" x1="1038.8456" gradientUnits="userSpaceOnUse" id="SVGID_00000092456003227366577330000014737790473120806275_">
				<stop style="stop-color:#FFC444" offset="0"/>
				<stop style="stop-color:#F36F56" offset="0.9964"/>
			</linearGradient>
			<path d="M1100.025,2889.333&#xA;&#9;&#9;&#9;&#9;c0,8.819-46.49,15.968-103.838,15.968c-57.348,0-103.838-7.149-103.838-15.968c0-8.819,46.49-15.969,103.838-15.969&#xA;&#9;&#9;&#9;&#9;C1053.536,2873.364,1100.025,2880.513,1100.025,2889.333z" style="fill:url(#SVGID_00000092456003227366577330000014737790473120806275_);"/>
			
				<linearGradient y2="2445.9651" x2="937.3253" y1="2164.7668" x1="1225.1398" gradientUnits="userSpaceOnUse" id="SVGID_00000172414805494274818790000000339163080014401933_">
				<stop style="stop-color:#FFC444" offset="0"/>
				<stop style="stop-color:#F36F56" offset="0.9964"/>
			</linearGradient>
			<path d="M1004.767,2888.228&#xA;&#9;&#9;&#9;&#9;c7.555,0,15.11,0,22.665,0c155.663-110.822,184.082-190.069,177.57-243.834c-5.756-47.527-37.514-64.469-84.783-182.472&#xA;&#9;&#9;&#9;&#9;c-28.179-70.345-42.268-105.517-41.171-143.717c2.4-83.488,55.285-94.375,83.969-203.464&#xA;&#9;&#9;&#9;&#9;c11.433-43.482,30.376-115.526-3.23-185.701c-36.052-75.285-115.581-127.45-135.533-113.02&#xA;&#9;&#9;&#9;&#9;c-13.231,9.568-0.157,48.534,12.809,87.183c34.345,102.37,78.647,125.852,83.155,185.701&#xA;&#9;&#9;&#9;&#9;c2.785,36.972-12.306,52.128-46.015,122.724c-68.261,142.956-105.156,220.223-90.428,295.508&#xA;&#9;&#9;&#9;&#9;c20.142,102.965,119.551,113.82,125.954,203.464C1114.936,2783.516,1054.231,2847.213,1004.767,2888.228z" style="fill:url(#SVGID_00000172414805494274818790000000339163080014401933_);"/>
			
				<linearGradient y2="2915.4783" x2="869.1138" y1="2439.0959" x1="922.0452" gradientUnits="userSpaceOnUse" id="SVGID_00000000219517317550334280000007510399757908142235_">
				<stop style="stop-color:#FFC444" offset="0"/>
				<stop style="stop-color:#F36F56" offset="0.9964"/>
			</linearGradient>
			<path d="M893.346,1785.323&#xA;&#9;&#9;&#9;&#9;c-21.61-2.863-68.691,88.813-67.821,187.316c0.845,95.69,46.164,109.668,59.747,208.308&#xA;&#9;&#9;&#9;&#9;c17.252,125.276-51.059,137.492-40.37,259.982c9.779,112.051,69.449,130.552,103.347,284.204&#xA;&#9;&#9;&#9;&#9;c14.94,67.719,16.922,125.646,16.148,164.709c7.536,0,15.072,0,22.607,0c46.158-95.808,57.804-175.402,59.747-230.915&#xA;&#9;&#9;&#9;&#9;c4.963-141.832-51.68-176.174-32.296-314.885c12.884-92.198,43.244-115.208,30.681-192.161&#xA;&#9;&#9;&#9;&#9;c-7.745-47.442-27.325-87.948-59.747-155.02c-30.961-64.049-45.732-77.858-64.592-134.028&#xA;&#9;&#9;&#9;&#9;C903.243,1810.552,904.027,1786.739,893.346,1785.323z" style="fill:url(#SVGID_00000000219517317550334280000007510399757908142235_);"/>
			
				<linearGradient y2="3085.0981" x2="771.4125" y1="2420.1477" x1="877.2753" gradientUnits="userSpaceOnUse" id="SVGID_00000181798119798975093590000012739675494554530447_">
				<stop style="stop-color:#FFC444" offset="0"/>
				<stop style="stop-color:#F36F56" offset="0.9964"/>
			</linearGradient>
			<path d="M940.175,2886.613&#xA;&#9;&#9;&#9;&#9;c2.803-34.568,1.234-83.664-24.222-130.798c-42.852-79.344-108.226-69.498-161.479-140.487&#xA;&#9;&#9;&#9;&#9;c-56.011-74.665-65.029-193.984-29.066-279.36c34.565-82.058,96.613-100.267,96.888-174.398&#xA;&#9;&#9;&#9;&#9;c0.223-59.951-41.109-103.13-35.525-106.576c5.746-3.547,52.537,40.305,71.258,104.948c7.318,25.271,10.331,53.663,0,130.812&#xA;&#9;&#9;&#9;&#9;c-15.596,116.464-33.156,131.634-32.503,174.397c1.373,89.993,89.985,101.045,135.643,201.85&#xA;&#9;&#9;&#9;&#9;c20.71,45.726,37.383,116.573,12.918,222.842C962.783,2888.767,951.479,2887.69,940.175,2886.613z" style="fill:url(#SVGID_00000181798119798975093590000012739675494554530447_);"/>
		</g>
	</g>
</g>
</svg>