<?xml version="1.0" encoding="utf-8"?>
<!-- Generator: Adobe Illustrator 27.5.0, SVG Export Plug-In . SVG Version: 6.00 Build 0)  -->
<svg version="1.1" xmlns="http://www.w3.org/2000/svg" xmlns:xlink="http://www.w3.org/1999/xlink" x="0px" y="0px"
	 viewBox="0 0 500 500" style="enable-background:new 0 0 500 500;" xml:space="preserve">
<g id="BACKGROUND">
	<rect style="fill:#FFFFFF;" width="500" height="500"/>
</g>
<g id="OBJECTS">
	<path style="fill:#C6D8ED;" d="M110.927,58.724h-2.413c0.195-1.122,0.309-2.275,0.309-3.458c0-10.341-7.798-18.724-17.418-18.724
		c-3.803,0-7.311,1.325-10.175,3.549c-4.534-3.188-10.657-5.149-17.402-5.149c-13.963,0-25.283,8.383-25.283,18.724
		c0,1.753,0.333,3.448,0.941,5.058h-2.438c-5.247,0-9.5,4.253-9.5,9.5c0,5.247,4.253,9.5,9.5,9.5h73.88c5.246,0,9.5-4.253,9.5-9.5
		C120.427,62.978,116.173,58.724,110.927,58.724z"/>
	<path style="fill:#C6D8ED;" d="M274.416,70.011c0.029-0.294,0.043-0.593,0.043-0.896c0-4.787-3.582-8.666-8-8.666
		c-1.467,0-2.84,0.436-4.022,1.184c-0.232-6.586-5.125-11.851-11.145-11.851c-5.082,0-9.363,3.752-10.715,8.881
		c-2.071-1.177-4.617-1.881-7.381-1.881c-6.91,0-12.512,4.346-12.512,9.706c0,1.033,0.212,2.027,0.598,2.961h-2.215
		c-3.834,0-6.942,3.108-6.942,6.942s3.108,6.942,6.942,6.942h52.612c3.834,0,6.943-3.108,6.943-6.942
		C278.623,73.529,276.891,71.073,274.416,70.011z"/>
	<path style="fill:#C6D8ED;" d="M424.406,75.856c0.618-1.964,0.966-4.058,0.966-6.241c0-10.954-8.433-19.833-18.833-19.833
		c-8.757,0-16.097,6.303-18.205,14.829c-2.111-1.764-4.828-2.829-7.795-2.829c-6.72,0-12.167,5.447-12.167,12.166
		c0,0.625,0.061,1.234,0.152,1.834h-2.152c-4.418,0-8,3.582-8,8c0,4.419,3.582,8,8,8h57c4.418,0,8-3.581,8-8
		C431.372,79.714,428.334,76.364,424.406,75.856z"/>
	<g>
		<polygon style="fill:#C6D8ED;" points="144.116,399.578 174.283,386.38 204.45,414.912 174.283,428.912 		"/>
		<line style="fill:none;stroke:#353C73;stroke-miterlimit:10;" x1="155.844" y1="402.489" x2="175.283" y2="393.984"/>
		<line style="fill:none;stroke:#353C73;stroke-miterlimit:10;" x1="161.474" y1="406.741" x2="180.913" y2="398.236"/>
		<line style="fill:none;stroke:#353C73;stroke-miterlimit:10;" x1="166.853" y1="411.898" x2="186.293" y2="403.394"/>
		<line style="fill:none;stroke:#353C73;stroke-miterlimit:10;" x1="172.193" y1="417.151" x2="191.633" y2="408.647"/>
	</g>
	<g>
		<polygon style="fill:#B7C1DA;" points="332.834,449 290.963,430.295 289.813,420.653 303.334,404.167 345.501,423 		"/>
		<polygon style="fill:#C6D8ED;" points="289.813,420.653 299.25,423.75 290.963,430.295 		"/>
	</g>
	<g>
		<polygon style="fill:#C6D8ED;" points="305.422,393.333 316.057,434.31 349.333,432.025 338,391.667 		"/>
		<g>
			<line style="fill:none;stroke:#353C73;stroke-miterlimit:10;" x1="335.584" y1="400.415" x2="313.17" y2="401.561"/>
			<line style="fill:none;stroke:#353C73;stroke-miterlimit:10;" x1="337.584" y1="408.415" x2="315.17" y2="409.561"/>
			<line style="fill:none;stroke:#353C73;stroke-miterlimit:10;" x1="339.584" y1="416.415" x2="317.17" y2="417.561"/>
			<line style="fill:none;stroke:#353C73;stroke-miterlimit:10;" x1="341.584" y1="424.415" x2="319.17" y2="425.561"/>
		</g>
	</g>
	<g>
		<path style="fill:#5686C4;" d="M389.25,411.75h45.496c0,0,2.754-17.416-11.496-7.583c0,0,4.75-15.417-9.25-15.417
			c-9.5,0-11.75,11.5-11.75,11.5s-6.75-4.5-11.5,0.738C386.54,405.631,389.25,411.75,389.25,411.75z"/>
		<line style="fill:none;stroke:#353C73;stroke-miterlimit:10;" x1="411.676" y1="398.469" x2="413.5" y2="411.75"/>
		<line style="fill:none;stroke:#353C73;stroke-miterlimit:10;" x1="412.588" y1="405.109" x2="416" y2="400.415"/>
	</g>
	<g>
		<path style="fill:#5686C4;" d="M213.448,458.083h36.25c0,0,2.796-18.25-10.25-18.25c-11.242,0-12.492,11-12.492,11
			S215.198,445.583,213.448,458.083z"/>
		<line style="fill:none;stroke:#353C73;stroke-miterlimit:10;" x1="239.698" y1="447.333" x2="235.357" y2="458.083"/>
	</g>
	<g>
		<path style="fill:#5686C4;" d="M73,441.001h42.25c0,0,3.75-17.833-11.75-14.417c0,0,0-11.928-10.75-12.006
			C82,414.5,80.542,429.24,80.542,429.24S68.75,427.502,73,441.001z"/>
		<line style="fill:none;stroke:#353C73;stroke-miterlimit:10;" x1="92" y1="420.735" x2="96.935" y2="441.001"/>
		<line style="fill:none;stroke:#353C73;stroke-miterlimit:10;" x1="95.503" y1="435.121" x2="100.75" y2="430.868"/>
		<line style="fill:none;stroke:#353C73;stroke-miterlimit:10;" x1="89" y1="423.987" x2="94.468" y2="429.24"/>
	</g>
	<g>
		<path style="fill:#353C73;" d="M117.178,394.501c-0.106,0.264-1.019,0.147-2.039-0.261c-1.02-0.408-1.761-0.953-1.655-1.218
			c0.106-0.265,1.019-0.147,2.039,0.26C116.543,393.69,117.284,394.235,117.178,394.501z"/>
		<path style="fill:#353C73;" d="M122.625,396.917c0,0.409-0.594,0.742-1.326,0.742c-0.732,0-1.326-0.333-1.326-0.742
			c0-0.41,0.594-0.742,1.326-0.742C122.031,396.175,122.625,396.507,122.625,396.917z"/>
	</g>
	<g>
		<path style="fill:#353C73;" d="M241.592,411.446c0,0.309-0.708,0.56-1.581,0.56c-0.874,0-1.582-0.251-1.582-0.56
			c0-0.309,0.708-0.559,1.582-0.559C240.884,410.888,241.592,411.138,241.592,411.446z"/>
		<path style="fill:#353C73;" d="M240.761,407.344c-0.118,0.438-1.037,0.573-2.052,0.3c-1.015-0.273-1.742-0.852-1.624-1.29
			c0.118-0.438,1.038-0.573,2.053-0.3C240.152,406.327,240.88,406.905,240.761,407.344z"/>
		<path style="fill:#353C73;" d="M248.987,418.638c-0.161,0.239-0.65,0.192-1.094-0.104c-0.444-0.297-0.673-0.732-0.512-0.973
			c0.161-0.239,0.65-0.193,1.094,0.104C248.919,417.962,249.148,418.397,248.987,418.638z"/>
	</g>
	<path style="fill:#353C73;" d="M356.023,438.787c-0.225,0.299-0.944,0.139-1.606-0.358c-0.663-0.497-1.018-1.143-0.794-1.442
		c0.225-0.298,0.943-0.138,1.605,0.359C355.892,437.844,356.247,438.488,356.023,438.787z"/>
	<g>
		<path style="fill:#353C73;" d="M352.011,442.294c0,0.258-1.001,0.469-2.234,0.469s-2.234-0.211-2.234-0.469
			c0-0.259,1.001-0.469,2.234-0.469S352.011,442.035,352.011,442.294z"/>
	</g>
	<g>
		<path style="fill:#353C73;" d="M438.744,436.81c0,0.241-0.986,0.437-2.202,0.437c-1.216,0-2.202-0.195-2.202-0.437
			c0-0.24,0.986-0.435,2.202-0.435C437.758,436.375,438.744,436.57,438.744,436.81z"/>
		<path style="fill:#353C73;" d="M428.945,440.693c0,0.229-0.578,0.415-1.29,0.415c-0.713,0-1.291-0.186-1.291-0.415
			c0-0.229,0.578-0.416,1.291-0.416C428.367,440.277,428.945,440.464,428.945,440.693z"/>
		<path style="fill:#353C73;" d="M444.391,441.315c0,0.344-0.855,0.623-1.91,0.623c-1.055,0-1.91-0.279-1.91-0.623
			c0-0.344,0.855-0.622,1.91-0.622C443.535,440.693,444.391,440.972,444.391,441.315z"/>
	</g>
	<g>
		<path style="fill:#353C73;" d="M46.324,411.529c-0.162,0.255-0.868,0.096-1.577-0.355c-0.709-0.45-1.154-1.021-0.992-1.275
			c0.162-0.255,0.868-0.096,1.577,0.355C46.041,410.704,46.486,411.275,46.324,411.529z"/>
		<path style="fill:#353C73;" d="M39.063,411.055c0,0.229-0.798,0.413-1.782,0.413c-0.984,0-1.782-0.185-1.782-0.413
			c0-0.229,0.798-0.413,1.782-0.413C38.266,410.642,39.063,410.825,39.063,411.055z"/>
		<path style="fill:#353C73;" d="M39.868,403.988c0,0.147-0.346,0.268-0.773,0.268c-0.427,0-0.774-0.12-0.774-0.268
			c0-0.148,0.347-0.269,0.774-0.269C39.522,403.72,39.868,403.84,39.868,403.988z"/>
	</g>
	<g>
		<path style="fill:#353C73;" d="M125.111,450.985c0,0.5-0.688,0.905-1.538,0.905s-1.539-0.405-1.539-0.905s0.688-0.905,1.539-0.905
			S125.111,450.485,125.111,450.985z"/>
		<path style="fill:#353C73;" d="M133.801,442.205c0,0.45-0.607,0.815-1.357,0.815s-1.358-0.365-1.358-0.815
			c0-0.448,0.608-0.814,1.358-0.814S133.801,441.757,133.801,442.205z"/>
		<path style="fill:#353C73;" d="M120.764,448.698c-0.15,0.478-1.141,0.591-2.214,0.254c-1.073-0.336-1.822-0.995-1.672-1.473
			c0.149-0.477,1.141-0.591,2.214-0.254C120.165,447.563,120.914,448.222,120.764,448.698z"/>
	</g>
	<g>
		<path style="fill:#353C73;" d="M378.636,391.47c-0.084,0.258-0.555,0.336-1.052,0.173c-0.497-0.161-0.832-0.501-0.748-0.759
			c0.083-0.258,0.555-0.335,1.051-0.173C378.385,390.872,378.72,391.212,378.636,391.47z"/>
		<path style="fill:#353C73;" d="M371.439,392.928c-0.004,0.211-0.474,0.375-1.05,0.366c-0.576-0.008-1.041-0.186-1.038-0.396
			c0.003-0.21,0.473-0.375,1.049-0.366C370.977,392.539,371.442,392.718,371.439,392.928z"/>
		<path style="fill:#353C73;" d="M373.505,390.816c-0.063,0.245-0.567,0.324-1.126,0.181c-0.558-0.146-0.959-0.461-0.895-0.705
			c0.063-0.243,0.567-0.323,1.125-0.179C373.166,390.258,373.568,390.572,373.505,390.816z"/>
	</g>
	<g>
		<path style="fill:#5686C4;" d="M40.677,344.25c0,0,2-2.5,8.5-2.5c0,0,4.798-10.25,18.149-8.5s14.432,12.5,14.432,12.5
			s10.669-1.084,8.919,12.583h-53.25L40.677,344.25z"/>
		<line style="fill:none;stroke:#353C73;stroke-miterlimit:10;" x1="48.427" y1="351.06" x2="55.927" y2="358.333"/>
		<line style="fill:none;stroke:#353C73;stroke-miterlimit:10;" x1="59.427" y1="341.5" x2="57.927" y2="358.333"/>
		<line style="fill:none;stroke:#353C73;stroke-miterlimit:10;" x1="55.927" y1="344.431" x2="58.677" y2="349.916"/>
	</g>
	<g>
		<path style="fill:#5686C4;" d="M412,345c0-6.173-4.523-11.194-10.197-11.474c3.435-7.078,1.835-15.072-3.822-18.223
			c-5.911-3.292-13.997-0.045-18.062,7.254c-0.752,1.35-1.31,2.744-1.689,4.14c-2.538-5.102-8.621-8.697-15.729-8.697
			c-9.389,0-17,6.268-17,14c0,0.046,0.008,0.09,0.009,0.136c-1.81-1.035-3.899-1.636-6.134-1.636
			c-6.835,0-12.375,5.54-12.375,12.375c0,0.726,0.075,1.432,0.194,2.123L327.185,345l0.028,0.123
			c0.059,0.319,0.134,0.632,0.217,0.942l2.819,12.268H408l3.782-11.015C411.925,346.569,412,345.794,412,345z"/>
		<line style="fill:none;stroke:#353C73;stroke-miterlimit:10;" x1="341.584" y1="341.5" x2="353.5" y2="358.333"/>
		<line style="fill:none;stroke:#353C73;stroke-miterlimit:10;" x1="360.75" y1="336.176" x2="371" y2="358.333"/>
		<line style="fill:none;stroke:#353C73;stroke-miterlimit:10;" x1="366.395" y1="348.377" x2="374" y2="339.75"/>
		<line style="fill:none;stroke:#353C73;stroke-miterlimit:10;" x1="394" y1="337.75" x2="388.392" y2="358.333"/>
		<line style="fill:none;stroke:#353C73;stroke-miterlimit:10;" x1="387.25" y1="349.916" x2="388.898" y2="356.473"/>
	</g>
	<g>
		<path style="fill:#5686C4;" d="M206.797,336.953c-3.366,0-6.394,1.292-8.38,3.525c0,0,0.583-8.978-9.441-8.978
			c-3.16,0-5.951,1.372-7.672,3.474c-1.756-5.987-9.142-9.301-16.752-7.413c-7.523,1.865-12.474,8.12-11.385,14.17
			c-0.896-0.145-1.827-0.23-2.791-0.23c-17.625,0-7.125,17.504-7.125,17.504l70.75-0.671
			C214,358.333,221.75,336.953,206.797,336.953z"/>
		<line style="fill:none;stroke:#353C73;stroke-miterlimit:10;" x1="165.75" y1="337.75" x2="181.167" y2="359.004"/>
		<line style="fill:none;stroke:#353C73;stroke-miterlimit:10;" x1="177.352" y1="353.744" x2="182.167" y2="348.377"/>
		<line style="fill:none;stroke:#353C73;stroke-miterlimit:10;" x1="161.25" y1="341.5" x2="170.596" y2="344.431"/>
		<line style="fill:none;stroke:#353C73;stroke-miterlimit:10;" x1="206.5" y1="348.377" x2="200" y2="359.004"/>
	</g>
	
		<line style="fill:none;stroke:#353C73;stroke-width:2;stroke-miterlimit:10;" x1="20.333" y1="358.333" x2="479.667" y2="358.333"/>
	<g>
		<g>
			<path style="fill:#B7C1DA;" d="M285.249,183.667c0,0-1-16.313-35.249-16.313c-34.25,0-35.25,16.313-35.25,16.313"/>
			<path style="fill:#F9C1AC;" d="M256.664,155.293c0,0-3.25,13.083,6.969,17.581c0,0-2.787,6.541-13.935,6.541h0.604
				c-11.149,0-13.934-6.541-13.934-6.541c10.217-4.497,6.967-17.581,6.967-17.581H256.664z"/>
			<ellipse style="fill:#F9C1AC;" cx="248.922" cy="134.614" rx="22.463" ry="25.106"/>
			<path style="fill:#2A4F9A;" d="M272.635,123.198c0.361-0.454,0.558-0.991,0.558-1.631c0-12.06-10.866-13.582-24.27-13.582
				c-13.404,0-24.27,3.917-24.27,8.75c0,1.134,0.604,2.216,1.693,3.21c-1.423,2.813-2.344,7.212-2.344,12.172
				c0,8.496,6.007,15.383,6.007,15.383s-3.548-16.5,1.02-24.855c4.437,1.745,10.811,2.84,17.895,2.84
				c7.192,0,13.652,0.262,18.097-0.24c4.366,9.369,1.673,21.13,1.673,21.13s5.059-6.383,5.059-14.258
				C273.75,128.739,273.331,125.641,272.635,123.198z"/>
		</g>
		<g>
			<path style="fill:#C6D8ED;" d="M241.385,374.295c0.632,5.486,0.059,9.455-14.178,10.19c-15.692,0.81-19.187-0.536-19.819-6.022
				c-0.632-5.486,18.933-1.677,21.914-15.123l10.795-0.22C240.098,363.119,241.129,372.074,241.385,374.295z"/>
			<path style="fill:#C6D8ED;" d="M259.375,374.295c-0.631,5.486-0.059,9.455,14.178,10.19c15.692,0.81,19.188-0.536,19.819-6.022
				c0.632-5.486-18.933-1.677-21.914-15.123l-10.796-0.22C260.662,363.119,259.631,372.074,259.375,374.295z"/>
			<polygon style="fill:#2A4F9A;" points="242.409,364 226.909,364 224.409,283.666 247.409,283.666 			"/>
			<polygon style="fill:#2A4F9A;" points="273.5,364 259.25,364 255.25,283.666 280.5,283.666 			"/>
		</g>
	</g>
	<path style="fill:#FFFFFF;stroke:#000000;stroke-miterlimit:10;" d="M36.605,203.323"/>
	<g>
		<g>
			<path style="fill:none;stroke:#353C73;stroke-miterlimit:10;" d="M97,173.424c0,0,1.002-1.056,2.89-2.759"/>
			<path style="fill:none;stroke:#353C73;stroke-miterlimit:10;stroke-dasharray:7.5389,7.5389;" d="M105.677,165.838
				c17.705-13.71,60.337-37.978,107.604-1.535"/>
			<path style="fill:none;stroke:#353C73;stroke-miterlimit:10;" d="M216.24,166.659c1.015,0.835,2.032,1.697,3.05,2.589"/>
		</g>
	</g>
	<g>
		<g>
			<path style="fill:none;stroke:#353C73;stroke-miterlimit:10;" d="M273.75,165.667c0,0,1.145-0.888,3.284-2.277"/>
			<path style="fill:none;stroke:#353C73;stroke-miterlimit:10;stroke-dasharray:7.9377,7.9377;" d="M283.869,159.358
				c19.919-10.707,66.424-27.432,113.971,14.609"/>
			<path style="fill:none;stroke:#353C73;stroke-miterlimit:10;" d="M400.782,176.643c0.961,0.899,1.923,1.823,2.885,2.771"/>
		</g>
	</g>
	<g>
		<g>
			<path style="fill:none;stroke:#353C73;stroke-miterlimit:10;" d="M118.821,287.645c0,0,0.681,1.304,2.306,3.259"/>
			<path style="fill:none;stroke:#353C73;stroke-miterlimit:10;stroke-dasharray:7.8811,7.8811;" d="M126.787,296.366
				c7.235,5.715,20.133,12.134,41.57,12.134c24.442,0,37.028-8.344,42.978-14.477"/>
			<path style="fill:none;stroke:#353C73;stroke-miterlimit:10;" d="M213.899,291.033c1.521-2.027,2.108-3.389,2.108-3.389"/>
		</g>
	</g>
	<g>
		<path style="fill:#C6D8ED;" d="M300.818,283.666c0,0,0-35.832,0-42.096c0-6.154,21.202,10.097,21.202-7.555v-0.698
			c0-19.422-21.202-1.401-21.202-7.555c0-11.867,0-42.095-0.001-42.096h-100c0,0,0,31.833,0,37.929
			c0,5.61,21.723-7.262,21.723,11.42c0,15.984-21.723,6.763-21.723,12.339c0,8.812,0,38.311,0,38.311
			S300.817,283.666,300.818,283.666z"/>
		<path style="fill:#FEFEFF;" d="M259.728,233.167h-0.422c7.818-2.306,13.541-9.55,13.541-18.106v-0.112
			c0-10.406-8.466-18.872-18.872-18.872h-17.14v74.678h0.5v0.268h22.393c11.179,0,20.274-8.466,20.274-18.872v-0.111
			C280.002,241.633,270.907,233.167,259.728,233.167z M237.836,197.077h16.14c9.854,0,17.872,8.018,17.872,17.872v0.112
			c0,9.855-8.018,17.872-17.88,17.872l-14.747,0.232h-1.385V197.077z M279.002,252.15c0,9.855-8.647,17.872-19.274,17.872h-21.893
			v-35.856h1.341v0.001l0.053-0.001l20.499,0.001c10.627,0,19.274,8.018,19.274,17.872V252.15z"/>
	</g>
	<g>
		<path style="fill:#C6D8ED;" d="M412.875,283.666c0,0,0-35.832,0-42.096c0-6.154,21.201,10.097,21.201-7.555v-0.698
			c0-19.422-21.201-1.401-21.201-7.555c0-11.867,0-42.095-0.002-42.096h-100c0,0,0,31.833,0,37.929
			c0,5.61,21.724-7.262,21.724,11.42c0,15.984-21.724,6.763-21.724,12.339c0,8.812,0,38.311,0,38.311
			S412.873,283.666,412.875,283.666z"/>
		<g>
			<path style="fill:#FEFEFF;" d="M372.227,269.127c-15.17,0-27.512-15.907-27.512-35.461c0-19.553,12.342-35.461,27.512-35.461
				c4.621,0,9.19,1.503,13.213,4.347l-0.578,0.816c-3.852-2.724-8.222-4.163-12.635-4.163c-14.618,0-26.512,15.459-26.512,34.461
				c0,19.002,11.894,34.461,26.512,34.461c4.543,0,9.026-1.521,12.964-4.398l0.59,0.807
				C381.671,267.54,376.984,269.127,372.227,269.127z"/>
		</g>
	</g>
	<g>
		<g>
			<path style="fill:#F9C1AC;" d="M81.938,217c0,0,5.667,3,16.417,2.5l-4,14.166c0,0-19-4.5-20.25-8.333
				C72.855,221.5,81.938,217,81.938,217z"/>
			<path style="fill:#353C73;" d="M81.938,217c0,0-4.635-1.336-8-6c-10.446-14.479-28.334-7.678-28.334-7.678
				c-1.137-0.154-2.199-0.204-3.198-0.171l0.844-1.425c0,0-32.5-1.315-20.108,39.472l6.303-1.394
				c0.698,4.855,1.494,8.196,1.494,8.196l0.667,22.333h46.75l-4.75-43.667l4.75,3L81.938,217z"/>
			<path style="fill:none;stroke:#FFFFFF;stroke-miterlimit:10;" d="M34.652,217c0,0-3.942,8.614,4.953,20.557"/>
		</g>
		<g>
			<path style="fill:#F9C1AC;" d="M42.258,194.443c0,0,1.929,7.653-5.488,10.122c0,0,2.73,6.435,8.834,6.435
				c8.896,0,11.896-7.677,11.896-7.677s-6.637-0.254-5.818-9.539C52.5,184.5,42.258,194.443,42.258,194.443z"/>
			<ellipse style="fill:#F9C1AC;" cx="45.604" cy="169.615" rx="22.463" ry="25.106"/>
			<path style="fill:#5686C4;" d="M67.023,155.293c0,0-7.113-14.218-21.419-10.784c-13.855-3.796-21.259,10.784-21.259,10.784
				s-3.846,5.889-3.846,14.322c0,8.434,5.353,15.718,7.333,15.718c1.981,0-2.166-8.233-2.166-16.666
				c0-0.928-0.018-1.805-0.047-2.647c4.412,0.049,13.61-0.683,18.318-7.125c0,0-0.334,8.44-6.667,10.72
				c0,0,13.334-2.72,14.334-10.72c0,0,3.344,6.758,14.147,7.001c-0.031,0.877-0.05,1.798-0.05,2.771
				c0,8.434-4.147,16.666-2.167,16.666c1.981,0,7.333-7.285,7.333-15.718C70.869,161.182,67.023,155.293,67.023,155.293z"/>
		</g>
		<g>
			<path style="fill:#353C73;" d="M33.294,367.284l0.379-2.507l-14.338-2.166l-2.053,13.596c-0.697,4.613,30.83,10.155,31.538,5.471
				C49.842,374.91,43.072,369.895,33.294,367.284z"/>
			<path style="fill:#353C73;" d="M78.771,361.535l-0.146-2.531l-14.476,0.84l0.797,13.727c0.27,4.658,32.262,3.574,31.988-1.156
				C96.537,365.582,88.877,362.071,78.771,361.535z"/>
			<polygon style="fill:#B7C1DA;" points="31.605,270.333 19.336,362.611 35.271,366.667 50.637,298.5 60.059,298.667 
				60.105,361.695 81.938,360.333 78.355,270.333 			"/>
			<polygon style="fill:#5686C4;" points="79.691,276.772 29.5,276.772 30.5,270.333 79.691,270.333 			"/>
		</g>
		<g>
			<path style="fill:#F9C1AC;" d="M94.25,243.775c-3.75-3.725-9.346,1.444-12.312,2.475c-32.571,11.318-43.955-8.33-43.957-8.334
				l-12.914,2.856c0.062,0.143,0.119,0.28,0.183,0.426C36.77,267.5,86.171,256.25,86.171,256.25v-2.5
				C89.592,253.25,98,247.5,94.25,243.775z"/>
		</g>
	</g>
	<g>
		<path style="fill:#353C73;" d="M458.076,123.334c20.634,1.306,25.915,14,25.915,46.333c0,44.229,9.009,54.16-35.324,54
			c-27.366-0.099-25.444-32.94-25.077-45.388C424.072,161.922,410.667,120.334,458.076,123.334z"/>
		<polygon style="fill:#F9C1AC;" points="455.416,284.5 458.496,367.5 467.081,366.75 478.746,284.5 		"/>
		<polygon style="fill:#F9C1AC;" points="434.746,284.5 440,367.5 449.076,367.5 458.076,284.5 		"/>
		<path style="fill:#B7C1DA;" d="M436.167,264c0,0-6.417,27-6.667,42c0,0,18.5,10,54,2.5c0,0,2.084-22.25-2.333-38L436.167,264z"/>
		<path style="fill:#2A4F9A;" d="M450.376,364h-13.38c0,0,0.169,7.626-0.786,9.8c-0.959,2.177-4.446,3.274-5.711,3.994
			c-1.811,1.029-4.543,2.11-4.083,7.265c0.229,2.569,16.718,1.08,20.915-1.309c2.009-1.142,0.98-4.076,1.393-8.904
			C448.95,372.216,450.376,364,450.376,364z"/>
		<path style="fill:#2A4F9A;" d="M470.126,364h-13.38c0,0,0.169,7.626-0.786,9.8c-0.959,2.177-4.446,3.274-5.711,3.994
			c-1.811,1.029-4.543,2.11-4.083,7.265c0.229,2.569,16.718,1.08,20.915-1.309c2.009-1.142,0.98-4.076,1.393-8.904
			C468.7,372.216,470.126,364,470.126,364z"/>
		<g>
			<path style="fill:#2A4F9A;" d="M477.5,250c-5.339-13.333-4.433-36.105-4.433-36.105l-8.567-21.02l-18.593-5.254
				c0,0-7.574,2.045-11.907,13.045c-2.845,7.222-13.881,9.415-21.125,10.07v9.636c8.16,0.925,21.701,1.137,27.125-6.477
				c0,0,8.165,15.921,1.333,30.771c-2.137,4.645-8.583,17.833-8.583,26.833c0,0,22.241,5.417,51.241,0.75
				C483.991,272.25,482.839,263.334,477.5,250z"/>
		</g>
		<ellipse style="fill:#F9C1AC;" cx="451.906" cy="159.282" rx="22.463" ry="25.106"/>
		<path style="fill:#F9C1AC;" d="M424.667,232.25c0,0-13.001-7-18.334,0c-5.333,7,10.251,13.25,18.334,9.75V232.25z"/>
		<path style="fill:#2A4F9A;" d="M459.181,187.621c0,0,16.82,5.712,16.486,20.045c-0.334,14.333-7.333,39.667-51,34.333v-11.667
			c0,0,38.332,8.333,38.666-29.333"/>
		<path style="fill:#F9C1AC;" d="M446.333,180.399c0,0,2,6.934-3.333,10.934c0,0,8.001,12.667,18.667,0
			c0,0-5.388-4.109-2.027-13.055l-11.973,2.121"/>
		<path style="fill:none;stroke:#FFFFFF;stroke-miterlimit:10;" d="M463.26,203.322c0,0,2.004,18.935-19.253,26.431"/>
		<path style="fill:none;stroke:#FFFFFF;stroke-miterlimit:10;" d="M440,213.895c0,0-4-7.145-2.5-12.145"/>
		<path style="fill:#353C73;" d="M427.75,143.75c0,0,14.668,6,24.584-3.75c0,0,6.76,10.326,23.338,2.788
			c0,0-8.504-12.288-23.338-12.288C437.5,130.5,427.75,143.75,427.75,143.75z"/>
	</g>
	<g>
		<path style="fill:#F9C1AC;" d="M207.373,203.323c0,5.839-4.038,10.572-9.017,10.572c-4.981,0-4.981-21.145,0-21.145
			C203.336,192.75,207.373,197.483,207.373,203.323z"/>
		<path style="fill:#F9C1AC;" d="M294.121,203.322c0-5.839,4.037-10.572,9.018-10.572c4.98,0,4.98,21.145,0,21.145
			C298.158,213.895,294.121,209.162,294.121,203.322z"/>
	</g>
	<g>
		<path style="fill:#C6D8ED;" d="M186.17,225.762c0-11.867,0-42.095,0-42.095h-100v42.414c-5.059-1.77-21.07-6.267-22.153,7.236
			v0.698c1.083,13.503,17.094,9.006,22.153,7.236v42.414h100c0,0,0-35.832,0-42.095c0-6.154,21.203,10.096,21.203-7.555v-0.698
			C207.373,213.895,186.17,231.917,186.17,225.762z"/>
		<path style="fill:#FEFEFF;" d="M165.505,265.534l0.917-0.4l-31.244-71.659l-31.48,71.658l0.916,0.402l13.78-31.369h33.435
			L165.505,265.534z M118.833,233.167l16.341-37.198l16.219,37.198H118.833z"/>
	</g>
	<g>
		<path style="fill:#F9C1AC;" d="M94.25,243.775c-3.75-3.725-9.346,1.444-12.312,2.475c-32.571,11.318-43.955-8.33-43.957-8.334
			l-12.914,2.856c0.062,0.143,0.119,0.28,0.183,0.426C36.77,267.5,86.171,256.25,86.171,256.25v-2.5
			C89.592,253.25,98,247.5,94.25,243.775z"/>
	</g>
</g>
<g id="DESIGNED_BY_FREEPIK">
	<g id="XMLID_76_">
		<g id="XMLID_929_">
			<path id="XMLID_958_" style="fill:#353C73;" d="M181.087,472.134c-0.246,0-0.435,0.085-0.567,0.255
				c-0.133,0.17-0.199,0.421-0.199,0.753v2.393c-0.304-0.332-0.617-0.579-0.937-0.739c-0.321-0.159-0.715-0.24-1.182-0.24
				c-0.807,0-1.458,0.283-1.953,0.849c-0.494,0.566-0.742,1.355-0.742,2.369c0,0.479,0.063,0.923,0.188,1.335
				c0.124,0.412,0.307,0.77,0.549,1.074c0.241,0.305,0.526,0.539,0.857,0.703c0.33,0.164,0.689,0.246,1.078,0.246
				c0.293,0,0.563-0.04,0.809-0.122c0.247-0.08,0.477-0.199,0.689-0.356c0.212-0.155,0.426-0.358,0.644-0.607v0.16
				c0,0.297,0.072,0.525,0.217,0.685c0.145,0.16,0.328,0.24,0.549,0.24c0.226,0,0.409-0.077,0.552-0.231
				c0.143-0.154,0.213-0.386,0.213-0.694v-7.147c0-0.305-0.066-0.534-0.199-0.69C181.52,472.212,181.332,472.134,181.087,472.134z
				 M180.021,478.975c-0.141,0.306-0.329,0.533-0.563,0.682c-0.236,0.148-0.496,0.223-0.781,0.223c-0.28,0-0.539-0.078-0.777-0.236
				c-0.237-0.154-0.424-0.387-0.561-0.695c-0.136-0.31-0.205-0.683-0.205-1.122c0-0.415,0.063-0.78,0.193-1.096
				c0.128-0.314,0.31-0.556,0.543-0.724c0.233-0.168,0.499-0.252,0.795-0.252c0.285,0,0.547,0.082,0.787,0.245
				c0.239,0.165,0.429,0.402,0.569,0.713c0.141,0.311,0.21,0.682,0.21,1.113C180.232,478.283,180.163,478.667,180.021,478.975z"/>
			<path id="XMLID_954_" style="fill:#353C73;" d="M188.452,478.054c0.233-0.122,0.35-0.385,0.35-0.793
				c0-0.438-0.113-0.87-0.338-1.294c-0.225-0.423-0.564-0.769-1.019-1.035c-0.453-0.268-0.996-0.399-1.628-0.399
				c-0.487,0-0.93,0.077-1.33,0.233c-0.4,0.156-0.737,0.381-1.01,0.674c-0.272,0.293-0.48,0.643-0.623,1.054
				c-0.143,0.409-0.213,0.853-0.213,1.332c0,1.017,0.289,1.822,0.867,2.415c0.577,0.593,1.387,0.891,2.427,0.891
				c0.456,0,0.858-0.06,1.207-0.178c0.352-0.12,0.641-0.268,0.874-0.448c0.231-0.181,0.404-0.368,0.519-0.565
				c0.115-0.196,0.172-0.366,0.172-0.514c0-0.166-0.052-0.294-0.155-0.386c-0.103-0.09-0.237-0.137-0.403-0.137
				c-0.154,0-0.273,0.036-0.356,0.107c-0.203,0.19-0.366,0.34-0.492,0.451s-0.265,0.216-0.415,0.313
				c-0.15,0.098-0.305,0.167-0.466,0.214c-0.16,0.044-0.337,0.067-0.531,0.067c-0.289,0-0.553-0.07-0.792-0.213
				c-0.239-0.143-0.432-0.355-0.576-0.636c-0.144-0.281-0.219-0.605-0.222-0.974h3.168
				C187.89,478.234,188.219,478.174,188.452,478.054z M184.297,477.315c0.055-0.547,0.212-0.96,0.472-1.238
				c0.259-0.28,0.59-0.418,0.994-0.418c0.423,0,0.764,0.137,1.024,0.411c0.259,0.275,0.409,0.69,0.448,1.245H184.297z"/>
			<path id="XMLID_952_" style="fill:#353C73;" d="M193.878,477.617c-0.319-0.17-0.729-0.316-1.231-0.439
				c-0.424-0.104-0.756-0.19-0.997-0.261c-0.242-0.07-0.434-0.161-0.576-0.27c-0.143-0.108-0.213-0.247-0.213-0.418
				c0-0.186,0.097-0.342,0.291-0.465c0.194-0.126,0.437-0.188,0.73-0.188c0.286,0,0.511,0.047,0.677,0.142
				c0.166,0.096,0.31,0.223,0.433,0.381c0.151,0.189,0.284,0.331,0.401,0.426c0.116,0.096,0.258,0.144,0.424,0.144
				c0.23,0,0.407-0.061,0.532-0.178c0.124-0.119,0.187-0.271,0.187-0.457c0-0.171-0.058-0.345-0.175-0.523
				c-0.116-0.178-0.286-0.34-0.51-0.485c-0.223-0.147-0.502-0.265-0.837-0.351c-0.333-0.088-0.71-0.131-1.13-0.131
				c-0.535,0-0.99,0.085-1.367,0.259c-0.378,0.172-0.665,0.402-0.859,0.69c-0.194,0.289-0.291,0.597-0.291,0.92
				c0,0.364,0.105,0.671,0.315,0.921c0.21,0.249,0.489,0.45,0.839,0.602c0.351,0.152,0.804,0.298,1.362,0.435
				c0.494,0.12,0.849,0.244,1.066,0.375c0.216,0.131,0.323,0.338,0.323,0.622c0,0.187-0.104,0.352-0.311,0.497
				c-0.208,0.144-0.474,0.216-0.798,0.216c-0.4,0-0.715-0.07-0.947-0.213c-0.232-0.144-0.431-0.357-0.597-0.647
				c-0.082-0.149-0.169-0.267-0.261-0.351c-0.091-0.082-0.221-0.124-0.39-0.124c-0.194,0-0.355,0.064-0.481,0.19
				c-0.128,0.126-0.191,0.278-0.191,0.456c0,0.27,0.099,0.537,0.296,0.805c0.198,0.267,0.505,0.489,0.92,0.667
				c0.415,0.179,0.914,0.268,1.495,0.268c0.609,0,1.127-0.082,1.552-0.246c0.425-0.164,0.747-0.405,0.964-0.725
				c0.218-0.318,0.326-0.701,0.326-1.148c0-0.297-0.081-0.56-0.246-0.792C194.438,477.988,194.196,477.787,193.878,477.617z"/>
			<path id="XMLID_950_" style="fill:#353C73;" d="M196.486,474.543c-0.238,0-0.431,0.081-0.579,0.243
				c-0.149,0.162-0.222,0.404-0.222,0.724v4.636c0,0.316,0.073,0.56,0.222,0.73c0.148,0.17,0.341,0.255,0.579,0.255
				c0.238,0,0.433-0.083,0.588-0.249c0.154-0.166,0.232-0.412,0.232-0.736v-4.683c0-0.288-0.078-0.515-0.232-0.677
				C196.919,474.624,196.724,474.543,196.486,474.543z"/>
			<path id="XMLID_949_" style="fill:#353C73;" d="M196.504,472.204c-0.217,0-0.409,0.073-0.573,0.223
				c-0.165,0.149-0.246,0.337-0.246,0.567c0,0.254,0.08,0.449,0.24,0.588c0.16,0.138,0.353,0.208,0.579,0.208
				c0.217,0,0.405-0.071,0.563-0.212c0.158-0.14,0.238-0.335,0.238-0.584c0-0.258-0.081-0.453-0.244-0.588
				C196.9,472.272,196.714,472.204,196.504,472.204z"/>
			<path id="XMLID_945_" style="fill:#353C73;" d="M203.626,474.543c-0.217,0-0.396,0.077-0.535,0.231
				c-0.139,0.154-0.208,0.372-0.208,0.652v0.221c-0.289-0.376-0.602-0.651-0.938-0.829c-0.337-0.175-0.734-0.264-1.193-0.264
				c-0.384,0-0.736,0.068-1.056,0.204c-0.321,0.138-0.604,0.34-0.849,0.609c-0.245,0.268-0.433,0.599-0.566,0.991
				c-0.133,0.392-0.199,0.831-0.199,1.317c0,0.653,0.108,1.228,0.327,1.728c0.217,0.498,0.529,0.886,0.934,1.163
				c0.406,0.276,0.88,0.415,1.422,0.415c0.45,0,0.839-0.091,1.166-0.272c0.327-0.182,0.614-0.447,0.864-0.797
				c-0.008,0.531-0.02,0.916-0.036,1.155c-0.016,0.24-0.07,0.465-0.164,0.674c-0.093,0.209-0.255,0.373-0.486,0.489
				c-0.232,0.117-0.557,0.176-0.977,0.176c-0.205,0-0.387-0.02-0.545-0.057c-0.159-0.038-0.294-0.095-0.406-0.171
				c-0.112-0.078-0.216-0.171-0.309-0.28c-0.093-0.108-0.183-0.217-0.27-0.323c-0.178-0.21-0.386-0.315-0.624-0.315
				c-0.189,0-0.352,0.062-0.486,0.188c-0.135,0.123-0.202,0.284-0.202,0.482c0,0.262,0.119,0.516,0.356,0.764
				c0.238,0.247,0.576,0.448,1.014,0.605c0.439,0.155,0.938,0.233,1.496,0.233c0.609,0,1.119-0.061,1.528-0.184
				c0.409-0.122,0.741-0.311,0.994-0.563c0.253-0.254,0.438-0.574,0.551-0.961c0.115-0.389,0.173-0.852,0.173-1.39v-4.706
				c0-0.384-0.051-0.678-0.155-0.882C204.146,474.646,203.938,474.543,203.626,474.543z M202.6,478.908
				c-0.151,0.291-0.346,0.508-0.586,0.653c-0.239,0.144-0.493,0.217-0.762,0.217c-0.455,0-0.826-0.168-1.113-0.505
				c-0.287-0.336-0.431-0.834-0.431-1.49c0-0.648,0.139-1.149,0.419-1.501c0.279-0.352,0.649-0.528,1.113-0.528
				c0.475,0,0.858,0.184,1.148,0.553c0.291,0.367,0.437,0.882,0.437,1.542C202.825,478.265,202.749,478.617,202.6,478.908z"/>
			<path id="XMLID_944_" style="fill:#353C73;" d="M210.978,475.61c-0.165-0.339-0.418-0.602-0.753-0.788
				c-0.337-0.187-0.718-0.279-1.146-0.279c-0.439,0-0.828,0.088-1.166,0.264c-0.338,0.177-0.65,0.452-0.935,0.828v-0.195
				c0-0.193-0.034-0.358-0.104-0.493c-0.069-0.134-0.162-0.234-0.276-0.302c-0.114-0.068-0.244-0.102-0.387-0.102
				c-0.233,0-0.416,0.076-0.552,0.229c-0.134,0.152-0.201,0.383-0.201,0.691v4.683c0,0.316,0.076,0.56,0.226,0.73
				c0.15,0.17,0.342,0.255,0.576,0.255c0.241,0,0.438-0.082,0.59-0.246c0.152-0.164,0.228-0.411,0.228-0.739v-2.03
				c0-0.66,0.04-1.11,0.119-1.353c0.11-0.3,0.284-0.537,0.522-0.71c0.237-0.172,0.5-0.258,0.788-0.258
				c0.444,0,0.74,0.143,0.888,0.425c0.148,0.282,0.223,0.691,0.223,1.226v2.7c0,0.316,0.074,0.56,0.226,0.73
				c0.15,0.17,0.346,0.255,0.587,0.255c0.238,0,0.431-0.083,0.578-0.249c0.149-0.166,0.224-0.412,0.224-0.736v-3.016
				c0-0.357-0.017-0.648-0.048-0.878C211.155,476.023,211.085,475.809,210.978,475.61z"/>
			<path id="XMLID_939_" style="fill:#353C73;" d="M217.821,478.054c0.233-0.122,0.35-0.385,0.35-0.793
				c0-0.438-0.113-0.87-0.338-1.294c-0.226-0.423-0.565-0.769-1.019-1.035c-0.453-0.268-0.996-0.399-1.628-0.399
				c-0.487,0-0.93,0.077-1.33,0.233c-0.4,0.156-0.736,0.381-1.009,0.674c-0.273,0.293-0.481,0.643-0.624,1.054
				c-0.142,0.409-0.213,0.853-0.213,1.332c0,1.017,0.289,1.822,0.866,2.415c0.578,0.593,1.387,0.891,2.428,0.891
				c0.455,0,0.858-0.06,1.208-0.178c0.351-0.12,0.64-0.268,0.872-0.448c0.232-0.181,0.405-0.368,0.52-0.565
				c0.114-0.196,0.172-0.366,0.172-0.514c0-0.166-0.051-0.294-0.154-0.386c-0.103-0.09-0.238-0.137-0.404-0.137
				c-0.154,0-0.273,0.036-0.356,0.107c-0.201,0.19-0.366,0.34-0.492,0.451c-0.128,0.111-0.266,0.216-0.415,0.313
				c-0.151,0.098-0.307,0.167-0.466,0.214c-0.161,0.044-0.338,0.067-0.532,0.067c-0.288,0-0.553-0.07-0.792-0.213
				c-0.239-0.143-0.431-0.355-0.575-0.636c-0.145-0.281-0.219-0.605-0.223-0.974h3.169
				C217.26,478.234,217.588,478.174,217.821,478.054z M213.666,477.315c0.056-0.547,0.212-0.96,0.471-1.238
				c0.259-0.28,0.591-0.418,0.995-0.418c0.423,0,0.765,0.137,1.024,0.411c0.259,0.275,0.409,0.69,0.448,1.245H213.666z"/>
			<path id="XMLID_936_" style="fill:#353C73;" d="M224.206,472.134c-0.245,0-0.434,0.085-0.567,0.255
				c-0.132,0.17-0.199,0.421-0.199,0.753v2.393c-0.304-0.332-0.617-0.579-0.938-0.739c-0.32-0.159-0.714-0.24-1.181-0.24
				c-0.808,0-1.458,0.283-1.953,0.849c-0.495,0.566-0.741,1.355-0.741,2.369c0,0.479,0.062,0.923,0.187,1.335
				c0.125,0.412,0.308,0.77,0.549,1.074c0.241,0.305,0.527,0.539,0.857,0.703c0.33,0.164,0.689,0.246,1.077,0.246
				c0.293,0,0.563-0.04,0.81-0.122c0.248-0.08,0.476-0.199,0.689-0.356c0.211-0.155,0.426-0.358,0.643-0.607v0.16
				c0,0.297,0.072,0.525,0.217,0.685c0.145,0.16,0.328,0.24,0.549,0.24c0.226,0,0.41-0.077,0.552-0.231
				c0.143-0.154,0.213-0.386,0.213-0.694v-7.147c0-0.305-0.065-0.534-0.199-0.69C224.641,472.212,224.452,472.134,224.206,472.134z
				 M223.141,478.975c-0.14,0.306-0.328,0.533-0.564,0.682c-0.235,0.148-0.495,0.223-0.781,0.223c-0.281,0-0.54-0.078-0.776-0.236
				c-0.238-0.154-0.425-0.387-0.562-0.695c-0.137-0.31-0.205-0.683-0.205-1.122c0-0.415,0.064-0.78,0.193-1.096
				c0.129-0.314,0.31-0.556,0.543-0.724c0.233-0.168,0.499-0.252,0.795-0.252c0.285,0,0.547,0.082,0.787,0.245
				c0.239,0.165,0.43,0.402,0.57,0.713c0.14,0.311,0.21,0.682,0.21,1.113C223.352,478.283,223.281,478.667,223.141,478.975z"/>
			<path id="XMLID_933_" style="fill:#353C73;" d="M233.586,474.938c-0.406-0.255-0.877-0.383-1.415-0.383
				c-0.467,0-0.859,0.084-1.175,0.252c-0.317,0.168-0.627,0.411-0.932,0.728v-2.476c0-0.297-0.068-0.524-0.202-0.686
				c-0.135-0.159-0.326-0.239-0.576-0.239c-0.237,0-0.423,0.084-0.555,0.252c-0.133,0.168-0.198,0.416-0.198,0.744v7.075
				c0,0.305,0.068,0.535,0.205,0.692c0.136,0.156,0.319,0.233,0.549,0.233c0.226,0,0.412-0.077,0.558-0.233
				c0.146-0.157,0.22-0.388,0.22-0.692v-0.16c0.178,0.205,0.322,0.36,0.43,0.463c0.109,0.103,0.241,0.203,0.395,0.3
				c0.154,0.098,0.341,0.175,0.561,0.234c0.22,0.06,0.454,0.089,0.704,0.089c0.407,0,0.781-0.082,1.119-0.246
				c0.338-0.164,0.626-0.397,0.864-0.698c0.237-0.3,0.418-0.655,0.543-1.064c0.124-0.41,0.187-0.859,0.187-1.35
				c0-0.665-0.112-1.241-0.336-1.725C234.305,475.564,233.991,475.193,233.586,474.938z M232.796,479.348
				c-0.295,0.354-0.646,0.531-1.053,0.531c-0.479,0-0.866-0.174-1.161-0.521c-0.295-0.346-0.442-0.841-0.442-1.486
				c0-0.44,0.069-0.818,0.207-1.136c0.138-0.319,0.328-0.563,0.57-0.73c0.24-0.168,0.516-0.252,0.825-0.252
				c0.3,0,0.563,0.084,0.789,0.252c0.225,0.168,0.399,0.406,0.521,0.716c0.123,0.308,0.184,0.677,0.184,1.103
				C233.238,478.486,233.09,478.993,232.796,479.348z"/>
			<path id="XMLID_931_" style="fill:#353C73;" d="M240.529,474.641c-0.112-0.065-0.23-0.098-0.353-0.098
				c-0.171,0-0.302,0.029-0.395,0.09c-0.093,0.058-0.181,0.173-0.264,0.344c-0.083,0.17-0.176,0.406-0.279,0.705l-1.3,3.71
				l-1.371-3.988c-0.091-0.277-0.195-0.489-0.314-0.638c-0.119-0.148-0.295-0.223-0.529-0.223c-0.135,0-0.264,0.035-0.389,0.107
				c-0.124,0.07-0.222,0.166-0.294,0.285c-0.071,0.117-0.107,0.246-0.107,0.385c0,0.131,0.062,0.341,0.184,0.629l1.995,5.022
				l-0.148,0.362c-0.111,0.265-0.208,0.466-0.294,0.601c-0.085,0.139-0.181,0.234-0.288,0.289c-0.107,0.056-0.254,0.084-0.44,0.084
				c-0.075,0-0.163-0.013-0.266-0.036c-0.083-0.024-0.168-0.036-0.256-0.036c-0.221,0-0.388,0.051-0.501,0.151
				c-0.113,0.101-0.169,0.245-0.169,0.431c0,0.272,0.119,0.461,0.356,0.564c0.237,0.103,0.593,0.153,1.068,0.153
				c0.487,0,0.873-0.073,1.161-0.223c0.287-0.147,0.517-0.361,0.691-0.638c0.174-0.277,0.353-0.659,0.535-1.146l2.113-5.531
				c0.051-0.143,0.095-0.283,0.13-0.421c0.037-0.14,0.061-0.246,0.078-0.321c0-0.123-0.032-0.239-0.093-0.35
				C240.729,474.794,240.642,474.706,240.529,474.641z"/>
		</g>
		<g id="XMLID_365_">
			<g id="XMLID_380_">
				<path id="XMLID_928_" style="fill:#353C73;" d="M262.93,472.129c-0.533,0-0.954,0.068-1.26,0.204
					c-0.308,0.137-0.527,0.354-0.654,0.652c-0.13,0.301-0.191,0.702-0.191,1.211v0.487h-0.387c-0.543,0-0.815,0.191-0.815,0.582
					c0,0.174,0.065,0.315,0.196,0.423c0.132,0.111,0.316,0.164,0.559,0.164h0.446v4.294c0,0.318,0.074,0.563,0.228,0.729
					c0.154,0.17,0.344,0.254,0.573,0.254c0.243,0,0.438-0.084,0.589-0.254c0.155-0.167,0.23-0.411,0.23-0.729v-4.294h0.396
					c0.291,0,0.517-0.035,0.681-0.107c0.166-0.071,0.245-0.24,0.245-0.503c0-0.373-0.307-0.559-0.926-0.559h-0.396v-0.387
					c0-0.321,0.043-0.567,0.122-0.739c0.087-0.172,0.273-0.26,0.565-0.26c0.108,0,0.241,0.014,0.39,0.034
					c0.155,0.026,0.268,0.038,0.33,0.038c0.134,0,0.252-0.055,0.348-0.16c0.102-0.107,0.15-0.235,0.15-0.385
					C264.35,472.358,263.879,472.129,262.93,472.129z"/>
				<path id="XMLID_926_" style="fill:#353C73;" d="M268.089,474.795c-0.32-0.171-0.648-0.255-0.99-0.255
					c-0.342,0-0.61,0.084-0.818,0.255c-0.202,0.171-0.4,0.421-0.592,0.755c-0.015-0.334-0.08-0.584-0.199-0.755
					c-0.119-0.171-0.313-0.255-0.583-0.255c-0.525,0-0.788,0.364-0.788,1.093v4.514c0,0.323,0.078,0.568,0.226,0.732
					c0.149,0.169,0.34,0.251,0.579,0.251c0.236,0,0.432-0.081,0.586-0.247c0.15-0.163,0.233-0.41,0.233-0.736v-1.356
					c0-0.486,0.014-0.899,0.045-1.238c0.033-0.337,0.09-0.631,0.17-0.878c0.084-0.243,0.201-0.425,0.353-0.554
					c0.149-0.122,0.345-0.186,0.582-0.186c0.172,0,0.374,0.036,0.602,0.108c0.227,0.073,0.371,0.112,0.434,0.112
					c0.157,0,0.304-0.064,0.44-0.194c0.135-0.126,0.204-0.292,0.204-0.488C268.571,475.192,268.411,474.966,268.089,474.795z"/>
				<path id="XMLID_922_" style="fill:#353C73;" d="M274.176,478.052c0.233-0.122,0.351-0.385,0.351-0.791
					c0-0.44-0.112-0.87-0.339-1.296c-0.222-0.423-0.565-0.77-1.018-1.033c-0.453-0.27-0.997-0.403-1.629-0.403
					c-0.488,0-0.931,0.078-1.329,0.232c-0.402,0.157-0.735,0.381-1.008,0.675c-0.275,0.295-0.484,0.644-0.624,1.055
					c-0.145,0.41-0.218,0.854-0.218,1.333c0,1.017,0.293,1.823,0.87,2.418c0.576,0.593,1.385,0.889,2.429,0.889
					c0.453,0,0.857-0.061,1.207-0.179c0.349-0.117,0.64-0.269,0.874-0.446c0.232-0.182,0.404-0.368,0.522-0.566
					c0.111-0.194,0.167-0.365,0.167-0.512c0-0.167-0.048-0.294-0.152-0.386c-0.104-0.093-0.237-0.139-0.405-0.139
					c-0.152,0-0.271,0.038-0.355,0.108c-0.202,0.189-0.367,0.34-0.493,0.449c-0.128,0.113-0.264,0.218-0.415,0.313
					c-0.15,0.097-0.307,0.17-0.466,0.213c-0.16,0.048-0.336,0.069-0.531,0.069c-0.29,0-0.552-0.07-0.792-0.212
					c-0.24-0.145-0.431-0.357-0.578-0.636c-0.145-0.28-0.216-0.606-0.222-0.974h3.171
					C273.615,478.233,273.942,478.173,274.176,478.052z M270.02,477.313c0.055-0.546,0.213-0.957,0.472-1.236
					c0.26-0.28,0.592-0.418,0.995-0.418c0.426,0,0.764,0.136,1.024,0.412c0.261,0.273,0.407,0.688,0.446,1.242H270.02z"/>
				<path id="XMLID_919_" style="fill:#353C73;" d="M280.916,478.052c0.232-0.122,0.352-0.385,0.352-0.791
					c0-0.44-0.116-0.87-0.341-1.296c-0.222-0.423-0.564-0.77-1.013-1.033c-0.46-0.27-1.003-0.403-1.634-0.403
					c-0.486,0-0.932,0.078-1.33,0.232c-0.4,0.157-0.736,0.381-1.009,0.675c-0.273,0.295-0.48,0.644-0.622,1.055
					c-0.145,0.41-0.218,0.854-0.218,1.333c0,1.017,0.291,1.823,0.868,2.418c0.58,0.593,1.387,0.889,2.43,0.889
					c0.453,0,0.859-0.061,1.208-0.179c0.348-0.117,0.641-0.269,0.872-0.446c0.234-0.182,0.408-0.368,0.518-0.566
					c0.116-0.194,0.171-0.365,0.171-0.512c0-0.167-0.047-0.294-0.15-0.386c-0.104-0.093-0.238-0.139-0.406-0.139
					c-0.151,0-0.27,0.038-0.355,0.108c-0.202,0.189-0.367,0.34-0.492,0.449c-0.127,0.113-0.264,0.218-0.415,0.313
					c-0.152,0.097-0.307,0.17-0.469,0.213c-0.157,0.048-0.335,0.069-0.527,0.069c-0.291,0-0.556-0.07-0.795-0.212
					c-0.238-0.145-0.431-0.357-0.575-0.636c-0.144-0.28-0.218-0.606-0.222-0.974h3.17
					C280.354,478.233,280.682,478.173,280.916,478.052z M276.762,477.313c0.053-0.546,0.211-0.957,0.47-1.236
					c0.261-0.28,0.592-0.418,0.995-0.418c0.425,0,0.764,0.136,1.026,0.412c0.257,0.273,0.407,0.688,0.446,1.242H276.762z"/>
				<path id="XMLID_390_" style="fill:#353C73;" d="M286.927,474.938c-0.42-0.257-0.883-0.387-1.379-0.387
					c-0.415,0-0.79,0.09-1.114,0.268c-0.331,0.176-0.648,0.452-0.952,0.827v-0.194c0-0.297-0.071-0.52-0.218-0.678
					c-0.144-0.155-0.329-0.233-0.56-0.233c-0.233,0-0.419,0.078-0.554,0.228c-0.133,0.154-0.199,0.382-0.199,0.691v6.995
					c0,0.354,0.051,0.62,0.145,0.807c0.102,0.183,0.301,0.274,0.607,0.274c0.517,0,0.777-0.358,0.777-1.068v-2.434
					c0.286,0.358,0.586,0.635,0.9,0.817c0.314,0.187,0.704,0.279,1.166,0.279c0.385,0,0.741-0.076,1.079-0.228
					c0.334-0.152,0.622-0.372,0.868-0.653c0.245-0.283,0.44-0.632,0.58-1.05c0.14-0.418,0.21-0.878,0.21-1.376
					c0-0.677-0.122-1.261-0.366-1.758C287.676,475.571,287.346,475.195,286.927,474.938z M286.45,478.94
					c-0.137,0.313-0.32,0.546-0.552,0.704c-0.229,0.153-0.48,0.233-0.748,0.233c-0.454,0-0.828-0.179-1.133-0.536
					c-0.307-0.358-0.46-0.862-0.46-1.504c0-0.687,0.155-1.204,0.462-1.558c0.307-0.35,0.685-0.527,1.131-0.527
					c0.281,0,0.54,0.083,0.77,0.247c0.229,0.163,0.411,0.398,0.542,0.705c0.13,0.306,0.196,0.674,0.196,1.101
					C286.658,478.248,286.589,478.627,286.45,478.94z"/>
				<path id="XMLID_389_" style="fill:#353C73;" d="M289.9,474.54c-0.238,0-0.428,0.079-0.58,0.244
					c-0.146,0.163-0.222,0.403-0.222,0.722v4.642c0,0.313,0.076,0.555,0.222,0.729c0.152,0.17,0.342,0.254,0.58,0.254
					s0.432-0.082,0.588-0.251c0.154-0.164,0.231-0.409,0.231-0.731v-4.688c0-0.286-0.077-0.512-0.231-0.675
					C290.332,474.619,290.139,474.54,289.9,474.54z"/>
				<path id="XMLID_388_" style="fill:#353C73;" d="M289.917,472.199c-0.217,0-0.407,0.076-0.571,0.223
					c-0.166,0.149-0.247,0.339-0.247,0.568c0,0.253,0.08,0.447,0.242,0.586c0.158,0.138,0.35,0.209,0.576,0.209
					c0.22,0,0.408-0.071,0.566-0.21c0.157-0.14,0.236-0.335,0.236-0.585c0-0.257-0.082-0.454-0.244-0.591
					C290.314,472.267,290.13,472.199,289.917,472.199z"/>
				<path id="XMLID_387_" style="fill:#353C73;" d="M297.258,479.569l-1.662-2.614l0.861-0.788c0.438-0.395,0.658-0.714,0.658-0.951
					c0-0.192-0.068-0.354-0.2-0.483c-0.138-0.128-0.306-0.192-0.509-0.192c-0.169,0-0.313,0.043-0.432,0.13
					c-0.121,0.086-0.29,0.251-0.517,0.486l-1.822,1.913v-3.933c0-0.329-0.074-0.581-0.221-0.751
					c-0.147-0.171-0.344-0.257-0.593-0.257c-0.256,0-0.457,0.093-0.596,0.283c-0.136,0.188-0.207,0.462-0.207,0.82v6.914
					c0,0.323,0.073,0.568,0.215,0.732c0.141,0.169,0.339,0.251,0.588,0.251c0.213,0,0.405-0.084,0.566-0.254
					c0.164-0.167,0.247-0.406,0.247-0.719v-1.29l0.88-0.83l1.428,2.352c0.182,0.278,0.329,0.472,0.435,0.58
					c0.107,0.109,0.261,0.16,0.459,0.16c0.226,0,0.412-0.073,0.553-0.222c0.142-0.15,0.214-0.351,0.214-0.609
					c0-0.089-0.029-0.189-0.082-0.288C297.47,479.909,297.379,479.765,297.258,479.569z"/>
				<path id="XMLID_386_" style="fill:#353C73;" d="M299.45,479.343c-0.251,0-0.459,0.087-0.63,0.262
					c-0.171,0.173-0.257,0.381-0.257,0.622c0,0.287,0.091,0.51,0.269,0.665c0.179,0.159,0.389,0.238,0.633,0.238
					c0.237,0,0.444-0.079,0.624-0.241c0.175-0.157,0.264-0.38,0.264-0.662c0-0.243-0.089-0.454-0.264-0.626
					C299.909,479.43,299.698,479.343,299.45,479.343z"/>
				<path id="XMLID_385_" style="fill:#353C73;" d="M306.835,478.416c-0.166,0-0.308,0.055-0.422,0.156
					c-0.113,0.104-0.219,0.245-0.318,0.427c-0.177,0.31-0.381,0.538-0.616,0.69c-0.23,0.149-0.509,0.225-0.834,0.225
					c-0.24,0-0.463-0.045-0.666-0.141c-0.201-0.094-0.372-0.229-0.516-0.409c-0.144-0.18-0.252-0.398-0.325-0.652
					c-0.075-0.256-0.114-0.537-0.114-0.842c0-0.646,0.147-1.161,0.44-1.533c0.293-0.375,0.682-0.561,1.158-0.561
					c0.333,0,0.606,0.075,0.82,0.227c0.219,0.147,0.425,0.376,0.623,0.674c0.108,0.158,0.209,0.27,0.299,0.339
					c0.09,0.069,0.201,0.104,0.338,0.104c0.202,0,0.377-0.068,0.524-0.203c0.143-0.135,0.214-0.3,0.214-0.491
					c0-0.192-0.062-0.397-0.192-0.617c-0.127-0.218-0.315-0.424-0.556-0.62c-0.245-0.192-0.54-0.352-0.891-0.474
					c-0.353-0.124-0.736-0.185-1.156-0.185c-0.674,0-1.26,0.139-1.747,0.419c-0.485,0.278-0.858,0.673-1.113,1.183
					c-0.259,0.511-0.387,1.098-0.387,1.765c0,0.982,0.281,1.765,0.841,2.35c0.563,0.582,1.345,0.876,2.349,0.876
					c0.469,0,0.894-0.065,1.269-0.191c0.377-0.126,0.688-0.295,0.935-0.503c0.248-0.207,0.434-0.425,0.553-0.655
					c0.122-0.23,0.183-0.446,0.183-0.647c0-0.169-0.066-0.331-0.198-0.481C307.198,478.493,307.033,478.416,306.835,478.416z"/>
				<path id="XMLID_382_" style="fill:#353C73;" d="M313.646,475.453c-0.288-0.291-0.628-0.518-1.026-0.675
					c-0.4-0.16-0.847-0.238-1.336-0.238c-0.482,0-0.924,0.078-1.326,0.233c-0.398,0.158-0.737,0.38-1.02,0.669
					c-0.281,0.288-0.498,0.637-0.648,1.045c-0.146,0.408-0.225,0.857-0.225,1.349c0,0.485,0.076,0.93,0.22,1.332
					c0.151,0.401,0.369,0.75,0.657,1.048c0.284,0.292,0.626,0.521,1.016,0.676c0.393,0.159,0.835,0.239,1.326,0.239
					c0.492,0,0.937-0.08,1.336-0.234c0.394-0.157,0.735-0.382,1.02-0.675c0.286-0.291,0.502-0.642,0.656-1.05
					c0.145-0.408,0.222-0.854,0.222-1.336c0-0.488-0.075-0.932-0.221-1.339C314.148,476.096,313.933,475.749,313.646,475.453z
					 M312.455,479.368c-0.29,0.373-0.682,0.558-1.171,0.558c-0.324,0-0.604-0.086-0.846-0.253c-0.24-0.168-0.424-0.409-0.554-0.729
					c-0.129-0.316-0.193-0.685-0.193-1.108c0-0.428,0.066-0.803,0.197-1.124c0.13-0.321,0.314-0.564,0.556-0.728
					c0.242-0.163,0.522-0.245,0.84-0.245c0.489,0,0.881,0.182,1.171,0.555c0.289,0.367,0.436,0.881,0.436,1.542
					C312.891,478.486,312.744,478.999,312.455,479.368z"/>
				<path id="XMLID_381_" style="fill:#353C73;" d="M323.569,474.814c-0.32-0.173-0.705-0.263-1.146-0.263
					c-0.38,0-0.726,0.081-1.038,0.241c-0.314,0.161-0.607,0.408-0.882,0.738c-0.191-0.326-0.431-0.572-0.725-0.735
					c-0.292-0.162-0.642-0.244-1.048-0.244c-0.395,0-0.748,0.079-1.07,0.241c-0.319,0.156-0.62,0.403-0.903,0.738v-0.153
					c0-0.261-0.073-0.466-0.221-0.616c-0.15-0.145-0.335-0.221-0.558-0.221c-0.226,0-0.412,0.078-0.556,0.238
					c-0.14,0.157-0.21,0.389-0.21,0.694v4.636c0,0.337,0.078,0.592,0.235,0.765c0.156,0.171,0.358,0.258,0.604,0.258
					c0.248,0,0.447-0.087,0.603-0.258c0.149-0.173,0.227-0.428,0.227-0.765v-2.189c0-0.683,0.086-1.206,0.253-1.566
					c0.169-0.369,0.517-0.55,1.048-0.55c0.264,0,0.459,0.071,0.582,0.22c0.121,0.142,0.197,0.33,0.226,0.552
					c0.027,0.226,0.04,0.544,0.04,0.952v2.581c0,0.342,0.078,0.594,0.232,0.768c0.148,0.17,0.35,0.255,0.595,0.255
					c0.254,0,0.454-0.085,0.61-0.255c0.156-0.174,0.23-0.426,0.23-0.768v-2.153c0-0.694,0.063-1.178,0.178-1.452
					c0.109-0.209,0.259-0.383,0.451-0.508c0.191-0.125,0.395-0.191,0.608-0.191c0.264,0,0.463,0.071,0.596,0.215
					c0.128,0.142,0.209,0.318,0.238,0.528c0.029,0.21,0.044,0.486,0.044,0.837v2.725c0,0.337,0.078,0.592,0.234,0.765
					c0.157,0.171,0.356,0.258,0.604,0.258c0.252,0,0.458-0.085,0.611-0.255c0.154-0.174,0.229-0.426,0.229-0.768v-3.163
					c0-0.629-0.068-1.091-0.206-1.386C324.128,475.237,323.889,474.987,323.569,474.814z"/>
			</g>
			<g id="XMLID_366_">
				<path id="XMLID_379_" style="fill:#353C73;" d="M245.273,477.443c-0.001-0.003-0.001-0.006-0.001-0.011
					C245.272,477.438,245.272,477.44,245.273,477.443z"/>
				<path id="XMLID_378_" style="fill:#353C73;" d="M245.355,477.961c0.001,0,0.001,0,0.001,0c-0.03-0.146-0.055-0.294-0.073-0.438
					C245.301,477.669,245.326,477.816,245.355,477.961z"/>
				<path id="XMLID_377_" style="fill:#353C73;" d="M245.891,479.466c-0.003-0.007-0.006-0.014-0.01-0.021
					C245.885,479.452,245.888,479.459,245.891,479.466z"/>
				<path id="XMLID_376_" style="fill:#353C73;" d="M245.84,479.365c-0.014-0.027-0.027-0.056-0.04-0.083
					C245.812,479.311,245.826,479.338,245.84,479.365z"/>
				<path id="XMLID_375_" style="fill:#353C73;" d="M245.505,478.541c0.08,0.25,0.175,0.492,0.286,0.724
					c-0.113-0.236-0.206-0.478-0.284-0.724H245.505z"/>
				<path id="XMLID_374_" style="fill:#353C73;" d="M250.736,470.682l-0.076-0.26c0.299-0.063,0.523-0.329,0.523-0.647
					c0-0.363-0.296-0.659-0.66-0.659c-0.365,0-0.66,0.296-0.66,0.659c0,0.317,0.225,0.584,0.522,0.647l0.084,0.289
					c-1.021,0.141-1.834,0.539-1.834,0.539l0.144,0.44c0.617-0.206,1.153-0.331,1.64-0.383c0.476-0.051,0.833-0.073,1.126-0.073
					c0.313,0,0.545,0.025,0.81,0.069l0.075-0.476C252.43,470.828,251.697,470.603,250.736,470.682z"/>
				<path id="XMLID_373_" style="fill:#353C73;" d="M245.453,473.189c-0.017,0.023-0.497,0.465-0.876,1.279
					c-0.016-0.025-0.035-0.051-0.056-0.074c-0.114-0.124-0.272-0.188-0.474-0.184c-0.003,0-0.006,0-0.01,0
					c-0.124,0-0.21-0.042-0.266-0.093c0.056-0.07,0.089-0.16,0.089-0.258c0-0.23-0.188-0.419-0.419-0.419
					c-0.23,0-0.417,0.189-0.417,0.419c0,0.231,0.188,0.417,0.417,0.417c0.037,0,0.071-0.005,0.105-0.012
					c0.102,0.113,0.266,0.214,0.504,0.209c0.124-0.002,0.214,0.03,0.273,0.097c0.07,0.075,0.093,0.185,0.1,0.267
					c-0.001,0.002-0.001,0.004-0.002,0.004c-0.272,0.743-0.194,1.668-0.194,1.668l0.661,0.025c0.014-0.336,0.061-0.925,0.232-1.393
					c0.329-0.906,0.741-1.472,0.757-1.496l0.004-0.005c0.024-0.031,0.047-0.06,0.071-0.089l-0.196-0.142L245.453,473.189z"/>
				<path id="XMLID_372_" style="fill:#353C73;" d="M257.294,471.787c-0.23,0-0.419,0.186-0.419,0.417
					c0,0.037,0.006,0.071,0.016,0.104c-0.115,0.104-0.215,0.267-0.211,0.506c0.002,0.123-0.03,0.213-0.097,0.273
					c-0.053,0.047-0.119,0.071-0.185,0.087c-0.492-0.689-1.098-1.109-1.098-1.109l-0.474,0.509c0.358,0.326,0.725,0.734,1.08,1.244
					c0.246,0.352,0.499,0.806,0.71,1.258l0.64-0.304c0,0-0.292-0.722-0.703-1.369c0.071-0.025,0.143-0.063,0.206-0.12
					c0.126-0.113,0.188-0.272,0.184-0.474c-0.001-0.13,0.041-0.218,0.093-0.275c0.071,0.054,0.16,0.089,0.258,0.089
					c0.232,0,0.418-0.188,0.418-0.419C257.712,471.974,257.525,471.787,257.294,471.787z"/>
				<path id="XMLID_371_" style="fill:#353C73;" d="M255.633,477.537c-0.88,0.429-2.33,0.996-4.236,1.262
					c-0.749,0.104-1.475,0.143-2.143,0.143c-0.869,0-1.638-0.064-2.227-0.14c-0.672-0.084-1.198-0.188-1.52-0.261
					c0.078,0.245,0.171,0.487,0.284,0.724c0.002,0.006,0.005,0.013,0.008,0.018c0.013,0.027,0.027,0.056,0.04,0.083
					c0.014,0.027,0.027,0.055,0.041,0.079c0.004,0.008,0.007,0.015,0.01,0.021c0.19,0.357,0.417,0.684,0.676,0.968
					c0.899,0.984,1.816,1.139,1.825,1.141l0.015,0.002l0.013,0.005c0.009,0.003,0.821,0.265,2.057,0.265
					c1.215,0,2.409-0.244,3.545-0.729c0.842-0.431,1.639-1.085,2.033-1.668c0.306-0.452,0.526-0.934,0.656-1.434
					c0.069-0.266,0.124-0.692,0.092-1.141C256.555,477.042,256.163,477.279,255.633,477.537z"/>
				<path id="XMLID_367_" style="fill:#353C73;" d="M252.322,471.655c-0.265-0.044-0.477-0.068-0.777-0.068
					c-0.279,0-0.626,0.022-1.088,0.07c-0.465,0.049-0.982,0.171-1.583,0.373c-0.842,0.282-1.604,0.725-2.204,1.28l-0.02,0.019
					c-0.089,0.081-0.275,0.254-0.488,0.525c-0.025,0.037-0.408,0.578-0.709,1.408c-0.226,0.621-0.216,1.526-0.216,1.537v0.001
					c0,0.212,0.013,0.423,0.036,0.632c0,0.005,0,0.008,0.001,0.011c0.003,0.027,0.007,0.053,0.01,0.08
					c0.019,0.144,0.043,0.291,0.074,0.438c0.438,0.112,3.048,0.721,5.967,0.314c1.829-0.254,3.218-0.795,4.061-1.204
					c0.701-0.34,1.151-0.647,1.325-0.773c-0.173-0.643-0.651-1.65-1.089-2.278C254.367,472.228,253.016,471.77,252.322,471.655z
					 M248.679,476.914c-0.972,0-1.759-0.787-1.759-1.76c0-0.972,0.788-1.76,1.759-1.76c0.973,0,1.761,0.788,1.761,1.76
					C250.439,476.127,249.651,476.914,248.679,476.914z M253.828,475.617c-0.601,0-1.088-0.489-1.088-1.09
					c0-0.603,0.487-1.09,1.088-1.09s1.09,0.487,1.09,1.09C254.918,475.128,254.429,475.617,253.828,475.617z"/>
			</g>
		</g>
	</g>
</g>
</svg>
