<?xml version="1.0" encoding="UTF-8"?>
<svg version="1.1" viewBox="0 0 1600 1066" width="5000" height="3334" xmlns="http://www.w3.org/2000/svg">
<path transform="translate(697,125)" d="m0 0h1l3 23 4 4 19 2 4 2-35 35-14 8-12 3-12 1-13 13 10 4 4-1 6-4 3-1h11l8 5 6 7 2 6 5-3 9 1 9 6 2 6h6l5 3 2 3v5l-3 3-8 2-9 1h-45l-24-3-7-1 23 23 13 10 14 8 12 4 5 1h26l15-4 16-7 15-10 14-11 15-14 13-12 8-8 8-7 10-9 5-2-2-6v-5l4-3h15l9-6 21-10 21-6 22-3h23l15 3 10 4 9 7 7 7 8 13 2 5 3 1v-24l2-2 7 1 50 19 52 20 5 3-1 5-11 5-40 15-28 11-2 1 11 5 8 2h25l20-4 27-8 39-12 32-8 19-3 23-1 20 2 19 5 16 7 10 6 10 9 8 9 7 14 3 11 1 8v17l-3 18-5 17-8 18-18 34-9 21-4 15-2 15 1 17 5 17 9 16 10 12 24-8h7l6 3 3 3 1 3v10l-4 21 12 12 11 15 7 15 2 8v19l-5 16-8 16-10 15-14 18-7 11-5 11-3 13-1 10v18l1 18v30l-4 16-5 10-11 12-14 9-16 7-21 6-20 4-27 14-23 9-25 7-20 4-26 3-26 1-35-1 2 18-2 1h-12l-1-5 3-8 2-6-2-2-18-3-2-1-2 6h-2l1 15-3 3-31 1-4-1 1-3 13-6-67-1-12-3-12-7-11-11-1 1-43 2-3 3h-2l1-4-7 1h-37l-1 4-12 2h-5l-3-5-53 1h-60l12 26 2 7-3 4h-5l-3-4-12-27-3-6-46 1-10 7-13 6-16 3-3 9-5 10-6 1-3-4 3-9 3-6-26-1-16-3 5 11 6 9v5l-1 1h-12l-19-5-14-7-10-9-4-6-105-1-1-2 2-5 1-1h47v-8l-21-1-35-3-15-2 3 9 14 31-1 6-6 1-4-5-19-43-6-2-28-6-20-7-6-3-3 9-12 26-11 25-4 6h-5l-2-2v-6l19-42 8-18v-3l-11-7-11-10-10-13-10-19-6-16-3-13v-21l4-12 7-12 13-13 14-10 3-2h3l-3-9-19-1-3-3-3-16 1-5 4-2 16-1-9-19-10-26-9-29-5-22-2-9-7-16-4-14-1-5v-23l4-13 7-11 9-8 10-6 22-8 8-5 3-6-1-9-5-12-12-22-8-20-3-12-1-8v-20l3-17 6-17 12-23 12-17 12-14 7-8 7-7 14-9 16-6 23-4 42-5 3 1-14 12-9 9-12 16-9 15-8 18-6 21-3 21v23l3 20 4 16 6 15 15 14 12 11 10 10 7 8 13 14 9 11 7 8 22 8 23 5 8 1-2-9 2-4-1-1-21-4-15-5-19-9-17-12-12-11-11-12-10-15-8-16-6-16-4-19-1-9v-21l3-20 6-20 9-19 8-12 8-10 16-16 14-10 16-9 18-7 17-4 19-2h11l18 2 17 4 16 6 17 9 11 8 12 10 4-2 7-7-11-10-16-11-19-11h-56l-36-2-30-4-25-6-15-6-10-7-7-9-3-7 1-7 3-2h13l9 2 2-12 6-9 9-6 6-2h14l12 4 6 3 4-2 6-5 9-4 4-1h16l12 5 10 9 8 13 3 6 6-5h13l12 5 7 6 5 8 1 3 10 1 9 6 4 6v7l-3 4h-2v3l4 2 12 11 6 5 1 2 6 1 6-6h2l2-4 10-9 12-12 2-3 1-14 4-12 6-10zm-91 107-3 3 3 3h2v-6zm-1 20-10 10 3 5 10 13 10 18 7 19 4 17 1 8v28l-3 18-5 17-7 16-10 16-9 11-15 15-17 12-18 9-3 10-10 2-1 8 2 1 19-7 21-11 14-10 12-11 10-10 11-15 8-14 7-15 5-15 4-19 1-8v-26l-2-15-4-17-7-19-9-17-10-14-8-10zm-125 8-15 3-13 5-13 7-10 8-8 7-8 10-8 14-5 12-4 16-1 17 2 17 5 16 8 16 9 12 11 11 13 9 14 7 13 4 13 2h19l16-3 16-6 14-8 15-13 11-14 8-16 5-15 2-13v-18l-4-20-7-16-9-14-3-4-4 2-7 7 1 4 7 10 6 13 4 18v19l-3 14-6 15-8 12-8 9-12 9-14 7-14 4-5 1h-21l-14-3-12-5-11-6-12-11-7-8-8-14-5-15-2-12v-13l3-16 5-13 6-11 11-13 12-9 16-8 16-4 14-1 16 2 15 5 13 7 10 8h3l9-9-5-6-13-9-14-7-17-5-7-1zm8 54-12 3-10 6-8 8-6 12-2 8v11l4 13 7 10 8 7 11 5 4 1h16l12-4 9-7 7-8 4-8 2-7v-15l-4-12-1-2-5 2-7 6 1 7v13l-5 10-8 7-6 2h-14l-10-5-6-7-3-8v-11l4-10 7-7 11-4h8l11 4h4l7-9-2-4-11-5-9-2zm-50 587v4h42l-2-3-13-1-11 1z" fill="#EDCAF8"/>
<path transform="translate(397,232)" d="m0 0 3 1-14 12-9 9-12 16-9 15-8 18-6 21-3 21v23l3 20 4 16 6 15 15 14 12 11 10 10 7 8 13 14 18 22 15 20 10 14 8 12-2 1-13-4-10-2h-20l-7 3-12 9-11 9-7 5-4-10 1-4 6-10 5-11 7-23 4-21h-3l-1 9-6 25-7 18-6 10h-3l-20-54-18-53-3-3 14 43 16 45 9 24-2 1-21-9-14-8-12-9-2-1 3 5 13 9 19 10 18 7 4 10-1 5-17 17-10 13-8 13-6 14-2 8v17l4 12 5 7-1 2-8 6-3 3h67l17-6 19-9 13-8h8l20 2 5 5 5 6 2 1 65 1 3-9 17-35 13-28 8-16 5-6 8-3h104l6 4 8-10 11-13 9-10 13-10 19-9 12-3h22l13 4 13 7 12 11 5 7 1 55 1 7h27l5 8 13 26 10 19 21 41 23 45 7 14 4 7 3-4 18-35 9-16 3 3 9 16 4 5 35 1-2-11 20 8 12 2 1 3-1 16v13l1 11 1 25 8-18 18-39 19-41 14-30 18-39 22-22 8-7 13-11 20-15 14-10 20-13 19-11 26-14 29-13 18-7 4-1h7l6 3 3 3 1 3v10l-4 21 12 12 11 15 7 15 2 8v19l-5 16-8 16-10 15-14 18-7 11-5 11-3 13-1 10v18l1 18v30l-4 16-5 10-11 12-14 9-16 7-21 6-20 4-27 14-23 9-25 7-20 4-26 3-26 1-35-1 2 18-2 1h-12l-1-5 3-8 2-6-2-2-18-3-2-1-2 6h-2l1 15-3 3-31 1-4-1 1-3 13-6-67-1-12-3-12-7-11-11-1 1-43 2-3 3h-2l1-4-7 1h-37l-1 4-12 2h-5l-3-5-53 1h-60l12 26 2 7-3 4h-5l-3-4-12-27-3-6-46 1-10 7-13 6-16 3-3 9-5 10-6 1-3-4 3-9 3-6-26-1-16-3 5 11 6 9v5l-1 1h-12l-19-5-14-7-10-9-4-6-105-1-1-2 2-5 1-1h47v-8l-21-1-35-3-15-2 3 9 14 31-1 6-6 1-4-5-19-43-6-2-28-6-20-7-6-3-3 9-12 26-11 25-4 6h-5l-2-2v-6l19-42 8-18v-3l-11-7-11-10-10-13-10-19-6-16-3-13v-21l4-12 7-12 13-13 14-10 3-2h3l-3-9-19-1-3-3-3-16 1-5 4-2 16-1-9-19-10-26-9-29-5-22-2-9-7-16-4-14-1-5v-23l4-13 7-11 9-8 10-6 22-8 8-5 3-6-1-9-5-12-12-22-8-20-3-12-1-8v-20l3-17 6-17 12-23 12-17 12-14 7-8 7-7 14-9 16-6 23-4zm41 669v4h42l-2-3-13-1-11 1z" fill="#9CFDFB"/>
<path transform="translate(1345,523)" d="m0 0h7l6 3 3 3 1 3v10l-4 21 12 12 11 15 7 15 2 8v19l-5 16-8 16-10 15-14 18-7 11-5 11-3 13-1 10v18l1 18v30l-4 16-5 10-11 12-14 9-16 7-21 6-20 4-27 14-23 9-25 7-20 4-26 3-26 1-35-1 2 18-2 1h-12l-1-5 3-8 2-6-2-2-18-3-2-1-2 6-10-1-1-4 3-17 1-6 3-42v-72l-4-20h18l-2-11 20 8 12 2 1 3-1 16v13l1 11 1 25 8-18 18-39 19-41 14-30 18-39 22-22 8-7 13-11 20-15 14-10 20-13 19-11 26-14 29-13 18-7z" fill="#232265"/>
<path transform="translate(785,526)" d="m0 0h22l13 4 13 7 12 11 5 7 1 55 1 7h27l5 8 13 26 10 19 21 41 23 45 7 14 4 7 3-4 18-35 9-16 3 3 9 16 4 5 17 1 4 15 1 5v72l-3 42-3 18-1 8 8 2 1 15-3 3-31 1-4-1 1-3 13-6-67-1-12-3-12-7-7-7-6-9-10-23-7-16v-11l-4 2-17-37-6-14 1-4-2-4-3-1-13-28-13-29-18-40-17-38-4 4-29 44-29 43-29 44-29 43-16 24h-2l-19-42-2-5 1-6 20-45 17-38 3-5 35-1 6-12 1-3v-7l-1-1-9-1-249-1 2-4 11-13 2-2 7 8 2 1 65 1 3-9 17-35 13-28 8-16 5-6 8-3h104l6 4 8-10 11-13 9-10 13-10 19-9z" fill="#F0B44C"/>
<path transform="translate(936,178)" d="m0 0h23l15 3 10 4 9 7 7 7 8 13 2 5 3 1v-24l2-2 7 1 50 19 52 20 5 3-1 5-11 5-40 15-28 11-2 1 11 5 8 2h25l20-4 27-8 39-12 32-8 19-3 23-1 20 2 19 5 16 7 10 6 10 9 8 9 7 14 3 11 1 8v17l-3 18-5 17-8 18-18 34-9 21-4 15-2 15 1 17 5 17 9 16 10 12v2l-20 9-17 8-23 13-17 10-25 17-21 16-13 11-8 7-10 9-12 12-1-2 9-20 6-4 1-18v-97l-10-1h-96l-3-4v-6l13-16 18-22 13-16 14-17 9-11 26-32 11-13 11-14 11-13 18-22 14-17 9-11 7-9-13-3-10-1h-16l-17 2-24 5-31 9-32 10-25 6-9 1h-13l-10-2-12-6-8-8-9-12-8-14v-1l-31 1-88 4h-14l-5-3-3-6-13-51v-5l4-3h15l9-6 21-10 21-6z" fill="#F1DBFA"/>
<path transform="translate(697,125)" d="m0 0h1l3 23 4 4 19 2 4 2-35 35-14 8-12 3-12 1-59 59 3 5 10 13 10 18 7 19 4 17 1 8v28l-3 18-5 17-7 16-10 16-9 11-16 16-17 12-16 8h-2l-1 7-4 4-2 1h-13l-6-2h-8l-7 4-1 31 3 4 9-1 5-2h10l2 4-3 20-3 7h-8l-18-5-5-2-2-5-2-37-4-3h-9l-3-7 2-6-1-1-21-4-15-5-19-9-17-12-12-11-11-12-10-15-8-16-6-16-4-19-1-9v-21l3-20 6-20 9-19 8-12 8-10 16-16 14-10 16-9 18-7 17-4 19-2h11l18 2 17 4 16 6 17 9 11 8 12 10 4-2 7-7-11-10-16-11-19-11h-56l-36-2-30-4-25-6-15-6-10-7-7-9-3-7 1-7 3-2h13l9 2 2-12 6-9 9-6 6-2h14l12 4 6 3 4-2 6-5 9-4 4-1h16l12 5 10 9 8 13 3 6 6-5h13l12 5 7 6 5 8 1 3 10 1 9 6 4 6v7l-3 4h-2v3l4 2 12 11 6 5 1 2 6 1 6-6h2l2-4 10-9 12-12 2-3 1-14 4-12 6-10zm-91 107-3 3 3 3h2v-6zm-126 28-15 3-13 5-13 7-10 8-8 7-8 10-8 14-5 12-4 16-1 17 2 17 5 16 8 16 9 12 11 11 13 9 14 7 13 4 13 2h19l16-3 16-6 14-8 15-13 11-14 8-16 5-15 2-13v-18l-4-20-7-16-9-14-3-4-4 2-7 7 1 4 7 10 6 13 4 18v19l-3 14-6 15-8 12-8 9-12 9-14 7-14 4-5 1h-21l-14-3-12-5-11-6-12-11-7-8-8-14-5-15-2-12v-13l3-16 5-13 6-11 11-13 12-9 16-8 16-4 14-1 16 2 15 5 13 7 10 8h3l9-9-5-6-13-9-14-7-17-5-7-1zm8 54-12 3-10 6-8 8-6 12-2 8v11l4 13 7 10 8 7 11 5 4 1h16l12-4 9-7 7-8 4-8 2-7v-15l-4-12-1-2-5 2-7 6 1 7v13l-5 10-8 7-6 2h-14l-10-5-6-7-3-8v-11l4-10 7-7 11-4h8l11 4h4l7-9-2-4-11-5-9-2z" fill="#4CAAFB"/>
<path transform="translate(1160,502)" d="m0 0h6l4 2 1 2v102l-1 11-6 4-14 30-18 39-14 30-18 39-19 41-6 13h-1l-1-26-1-11v-13l1-18-12-2-15-6-5-3 2 6v5h-35l-6-8-9-16-3 4-17 33-10 18-3-3-5-9-19-38-10-19-12-24-10-19-21-41-4-7h-20l-7-1-2-8v-79l1-22 3-4z" fill="#EDCAF8"/>
<path transform="translate(794,647)" d="m0 0 3 3 16 36 16 35 13 29 14 31v2l4 1 2 5-1 3 18 40 5 10 3-1 1 11 7 16 10 23 2 4-2 2-43 2-3 3h-2l1-4-7 1h-37l-1 4-12 2h-5l-3-5-53 1h-60l-9-19-13-30-1-2 4-4 29-44 29-43 29-44 29-43 16-24z" fill="#EDCAF8"/>
<path transform="translate(844,586)" d="m0 0h6l1 24 1 7h27l5 8 13 26 10 19 21 41 23 45 7 14 4 7 3-4 18-35 9-16 3 3 9 16 4 5 17 1 4 15 1 5v72l-3 42-3 18-1 8 8 2 1 15-3 3-31 1-4-1 1-3 13-6-67-1-12-3-12-7-7-7-6-9-10-23-7-16v-11l-4 2-17-37-6-14 1-4-2-4-3-1-4-8 1-4-2-7 1-12v-6l1-1-2-5-2-33-2-42-2-28-2-41v-8l-3-1z" fill="#F3C847"/>
<path transform="translate(1115,508)" d="m0 0h50v108h-23l-149-2-57-1-3-2v2h-21l-55-1-1-1-1-13v-42l1-40 1-6 26-1z" fill="#4CAAFB"/>
<path transform="translate(1262,252)" d="m0 0 9 1 6 5 2 4v13l-13 220-2 9-6 8-10 5h-12l-22-2-15 33-19 40-8 18-2 1v-103l-10-1h-96l-3-4v-6l13-16 18-22 13-16 14-17 9-11 26-32 11-13 11-14 11-13 18-22 14-17 9-11 28-34z" fill="#F0B34C"/>
<path transform="translate(1356,563)" d="m0 0 4 2 10 10 11 15 7 15 2 8v19l-5 16-8 16-10 15-14 18-7 11-5 11-3 13-1 10v18l1 18v30l-4 16-5 10-11 12-14 9-16 7-21 6-20 4-27 14-23 9-25 7-9 2h-5l-3-8-8-20-1-5-9 1-42 9-9 2 14 9 14 7 9 4v2l-9-2-16-8-11-7-5-4-13 1 1-6 10-1 3-9 11-17 4-5 6-2-6 8-7 10-7 13 10-1 40-8 9-2-5-11-8-19 1-3 24-13 13-8 11-7 19-13 17-13 11-9 14-12 28-28 9-11 10-12 13-18 11-17 13-23 11-23 11-28 9-30z" fill="#F1DAFA"/>
<path transform="translate(354,709)" d="m0 0h49l13 2h15l12-2h60l-2 18 2-1 2-15 1-2h27l5 18 4 20 9 11 4 13v14l-4 19-1 11-7 11-12 25-12 22-2 3-9-1-11-6-3-3 3-9 6-15 6-21 1-6v-22l-3-9-4-6h-3l-6 4-3 1h-18l6 16 7 32 9 54v5l12-1 15 14 8 11 5 12 4 6-8 4h-15l-12-5-11-7-12-12v-5l3 2h8l2-1v-7l-2-6-12 3h-5l-9-11-8-14-1-5-6-2-13-7v-34h2l-6-15h-8l-1 11h-19l-21-4v2l22 4 18 2v26l-6-2-24-15-17-12-13-10-11-9-10-9-8-7-11-11 1-5 13-29 23-2v-3l-9 2h-12l3-9 4-9 4 2 7 8-1-5-7-8 1-5z" fill="#212164"/>
<path transform="translate(397,232)" d="m0 0 3 1-14 12-9 9-12 16-9 15-8 18-6 21-3 21v23l3 20 4 16 5 14-4-2-8-6-6-2-9 1-5 4-3 7-4 31-2 34v18l2 35 4 30 7 34-1 3-26-14-25-12-28-11h-12l-5 5-2 6-3-4-6-14-4-14-1-5v-23l4-13 7-11 9-8 10-6 22-8 8-5 3-6-1-9-5-12-12-22-8-20-3-12-1-8v-20l3-17 6-17 12-23 12-17 12-14 7-8 7-7 14-9 16-6 23-4z" fill="#F1DAFA"/>
<path transform="translate(327,407)" d="m0 0 10 1 9 6 10 9 8 7 16 15 9 9 7 8 13 14 18 22 15 20 10 14 8 12-2 1-13-4-10-2h-20l-7 3-12 9-11 9-7 5-4-10 1-4 6-10 5-11 7-23 4-21h-3l-1 9-6 25-7 18-6 10h-3l-20-54-18-53-3-3 14 43 16 45 9 24-2 1-21-9-14-8-12-9-2-1 3 5 13 9 19 10 18 7 4 10-1 5-17 17-10 13-8 13-6 14-2 8v17l4 12 5 7-1 2-8 6-4 4h-8l-12-13 2-12v-27l-3-20-2-1 3 19v29l-2 8-6-5-9-11-13-15-11-14-11-13-10-13-2-3-2 1 11 14 13 16 8 10 14 17 12 14 3 5-19-1-20-4-8-2v2l11 3 16 3 24 2 8 10v1h-56l-8-16-8-19-11-33-7-29v-11l4-6 3-2h12l28 11 33 16 18 10-5-25-5-32-2-22-1-22v-18l2-34 4-31 4-8 5-4z" fill="#9D5599"/>
<path transform="translate(487,217)" d="m0 0h11l18 2 17 4 16 6 17 9 11 8 13 11-2 4-26 26-4-1-11-9-14-8-18-6-11-2h-24l-15 3-13 5-13 7-10 8-7 6-8 10-8 14-5 12-4 16-1 17 2 17 5 16 8 16 9 12 10 10 13 9 14 7 13 4 13 2 22 1 2 4 7 4 5 4 1 3 5-2 8-1 8 4 4 6 1 3v9l-3 7-4 2h-13l-6-2h-8l-7 4-1 31 3 4 9-1 5-2h10l2 4-3 20-3 7h-8l-18-5-5-2-2-5-2-37-4-3h-9l-3-7 2-6-1-1-21-4-15-5-19-9-17-12-12-11-11-12-10-15-8-16-6-16-4-19-1-9v-21l3-20 6-20 9-19 8-12 8-10 16-16 14-10 16-9 18-7 17-4z" fill="#4CAAFB"/>
<path transform="translate(1345,523)" d="m0 0h7l6 3 3 3 1 3v10l-4 19-7 23-8 24-12 28-13 25-11 18-11 16-13 17-11 13-11 12-24 24-11 9-13 11-8 5-2-1v-2l-4-2-12-12-5-4v-2l-4-2-1-3-4-2-3-2h-2l1-4-8 7-7 7-8 7-9 9-8 7-1 1 15 1h12l15-1 21-4h3l-1 3-17 4-9 1h-44l-13 12-11 9-13 11-10 8h-2v-7l13-11 10-8 22-18-2-25v-10l2-21 4-16 1-2h2l-1 8-3 16-1 10v20l1 16 6-4 16-15 12-11 15-14 40-40-3-18v-28l3-19 1-4h3l-1 9-2 13v30l2 13 8-7 33-36 18-20 2-4-2-6-1-7v-22l1-18-7 1-5-5-2-9 22-12 16-8 19-9 25-10z" fill="#463280"/>
<path transform="translate(936,178)" d="m0 0h23l15 3 10 4 9 7 7 7 8 13 2 5 3 1v-24l2-2 7 1 50 19 52 20 5 3-1 5-11 5-40 15-28 11-20 8-11 4-4-1-1-1v-16l-87 4-47 2h-14l-5-3-3-6-13-51v-5l4-3h15l9-6 21-10 21-6z" fill="#F4C946"/>
<path transform="translate(790,308)" d="m0 0 5 1 1 1v26l174-16h6l3 3-1 10-14 55-6 5-8 1-149-7-5-1v18l-2 2-6-1-42-16-57-22-16-6-2-2v-5l14-6 102-39z" fill="#4CAAFC"/>
<path transform="translate(330,438)" d="m0 0 3 1 14 41 17 47 8 21 4-4 6-13 6-18 6-27h3l-1 12-6 23-6 16-7 13-2 2 1 6 3 6 14-12 16-12 6-2h20l21 5 14 6v9l5 7 8 4 11 1 6-3 5 2 17 13 5 5 2 8-1 11-5 8-3 4h-2l-2 4-30 30-4-2-9-6-7-2h-13l-24 7-20 4h-17l-8-3-5-5-6 2-9 7-6 9h-2l-1 4-4 7-2 5-5-2-7-8-5-10-2-7v-17l5-16 7-13 8-11 9-11 15-15-1-6-2-5v-3l-11-3-23-11-12-8-7-6v-3l5 2 12 9 17 9 16 6-20-55-17-50z" fill="#4CAAFB"/>
<path transform="translate(1262,252)" d="m0 0 9 1 6 5 2 4v13l-12 203-1 5-16-8-11-7-13-8-16-10-15-9-11-7-13-8-8-5-10-6-4 1-5 5-12 15-30 39-4 5-3-1 2-5 12-15 13-17 10-13 14-18 13-17 10-13 13-17 14-18 10-13 13-17 21-27-3-5h-3l2-5 12-14 8-10z" fill="#F4C947"/>
<path transform="translate(1024,619)" d="m0 0h5l4 2 3-2 7 1h2 64l54 1 1 2-14 30-18 39-14 30-18 39-19 41-6 13h-1l-1-26-1-11v-13l1-18-12-2-15-6-6-4v-2l-6-1-3-3-5-1-2-5 1-2-3-1 2-2 7-2h4l-6-20v-2l-14-1-7-3v-2l-11-1v2l-6 2h-9l8-16 2-6 11 2 15 1 6-12-6-4v-8l5-12-1-4-1-8z" fill="#E68755"/>
<path transform="translate(665,214)" d="m0 0h11l8 5 6 7 2 6 5-3 9 1 9 6 2 6h6l5 3 2 3v5l-3 3-8 2-9 1h-45l-24-3-7-1 23 23 13 10 14 8 12 4 5 1h26l15-4 16-7 15-10 14-11 15-14 13-12 8-8 8-7 10-9 5-2 5 18 1 8-12 9-15 13-7 7-8 7-12 12-8 7-15 12-9 6v2l-29 11h-23l-10-2-12-5-12-7-13-11-16-16 8 25 4 21 1 10v25l-3 22-7 25-9 20-9 15-12 16-12 13-11 10-17 12-18 10-20 8-11 3h-4l1-17 5-3 16-6 21-11 14-10 12-11 9-9 11-15 8-14 7-15 5-15 4-19 1-8v-26l-2-15-4-17-7-19-9-17-10-14-7-9 2-4 32-32 8 1 4 2 4-1 6-4z" fill="#F1DBFB"/>
<path transform="translate(603,577)" d="m0 0h104l5 4 1 6-23 58-14 35-3 3h-213l2-4 11-13 2-2 7 8 2 1 65 1 3-9 17-35 13-28 8-16 5-6z" fill="#202164"/>
<path transform="translate(788,762)" d="m0 0 4 1 6 11 14 3 5 1 10-7 5 2 10 7-1 8-2 7 7 10 2 6 14 2 1 1 2 17-10 6-2 1-2 12-2 7 7 10-2 5-8 10-14-3-10 7-6 2-2 14-7 2-11 1-7-12-14-3-5-1-10 7-5-2-10-8 3-14-7-10-2-6-10-1-4-1-3-15 1-4 11-6 3-14 1-5-7-10 2-5 8-10 9 2 5 1 14-9h2l1-9 1-5 8-2z" fill="#CC8DE8"/>
<path transform="translate(476,133)" d="m0 0h16l12 5 10 9 8 13 3 6 6-5h13l12 5 7 6 5 8 1 3 10 1 9 6 4 6v7l-3 4h-2v3l4 2 12 11 6 5 1 2 6 2-6 7-8 8-5-3-12-10-15-10-16-9h-56l-36-2-30-4-25-6-15-6-10-7-7-9-3-7 1-7 3-2h13l9 2 2-12 6-9 9-6 6-2h14l12 4 6 3 4-2 6-5 9-4zm130 99-3 3 3 3h2v-6z" fill="#EECAF8"/>
<path transform="translate(844,586)" d="m0 0h6l1 24 1 7h27l5 8 13 26 10 19 21 41 17 33-1 2-2-1 1 4 2 5v6l-6 4-2 11 3 4-1 4-3 5-9-1-9 6-2 7-10 1-3-5v-2l-12-1-4 3h-8l-1-4h-3l2 4v3h4l2 11 1 2v12l-1 10h-2l-1 3-13-29-7-16 1-4-2-4-3-1-4-8 1-4-2-7 1-12v-6l1-1-2-5-2-33-2-42-2-28-2-41v-8l-3-1z" fill="#E99352"/>
<path transform="translate(1257,564)" d="m0 0h3l3 9 3 3 8-1v9l-1 10v22l2 10 1 4-12 14-16 17-7 8-14 15-9 10-4 2-3-13v-30l4-22h-3l-1 9-2 14v28l3 15-1 4-45 45-5-3-7-6-7-8-16-16h-3l-1-5-3 1 2-6 15-32 12-26 8-7 13-13 8-7 13-11 20-15 14-10 20-13z" fill="#453280"/>
<path transform="translate(1207,801)" d="m0 0h44l29 3 21 4 5 3 2 4-1 6-7 8-14 14-11 9-15 11-12 8-16 9-19 9-20 7-21 6-9 2h-5l-3-8-8-20-1-5-9 1-42 9-9 2 14 9 14 7 9 4v2l-9-2-16-8-11-7-5-4-13 1 1-6 10-1 3-9 11-17 4-5 6-2-6 8-7 10-7 13 10-1 40-8 9-2-5-11-8-19 1-3 24-13 13-8 11-7 2-1z" fill="#9056C6"/>
<path transform="translate(598,743)" d="m0 0 3 4 20 45 3 7-1 6-18 41-16 36-13 30-3 6h-27l-16-3-11-14-12-11h-12l-11-64-6-27-5-14v-2l18-1 8-4 3-2 5 6 3 6 1 5v22l-5 21-7 19-4 9 2 4 11 6 9 2 2-5 12-22 13-27 11-15 7-11 20-30 15-22z" fill="#F3C847"/>
<path transform="translate(324,776)" d="m0 0 4 2 14 14 11 9 9 8 20 15 21 14 20 12 2 1v-26l-18-1-20-4-2-1v-2l9 1 12 2 19 1 1-11 8-1 4 8 2 8h-2l1 34 18 9 7 14 7 10 4 5 10-1 7-2 3 7v7l-3 2h-8l-2-2 1 5 11 11 14 8 8 3h15l8-3 2 3v5l-1 1h-12l-19-5-14-7-10-9-4-6-105-1-1-2 2-5 1-1h47v-8l-21-1-35-3-15-2-4-6-32-72-5-11 2-6zm114 125v4h42l-2-3-13-1-11 1z" fill="#E0C3FC"/>
<path transform="translate(594,263)" d="m0 0h2l13 17 10 18 7 19 4 17 1 8v28l-3 18-5 17-7 16-10 16-9 11-16 16-17 12-16 8h-2l-2-9-4-6-7-3-8 1-5 2-3-5-7-5-5-3-3-4 16-3 16-6 14-8 14-12 11-14 8-16 5-15 2-13v-18l-4-20-7-16-9-14-3-5z" fill="#4CAAFB"/>
<path transform="translate(720,572)" d="m0 0h1l2 106 1 35v3l-4 1-5 9 3 1 2-5h2l2 9 1 15 1 4-29 43-29 44-9 13h-2l-19-42-2-5 1-6 20-45 17-38 3-5 35-1 6-12 1-3v-7l-1-1-9-1-36-1 5-10 22-56 12-30v-5z" fill="#EEA456"/>
<path transform="translate(231,567)" d="m0 0h12l28 11 33 16 23 13 11 7-6 17-1 4v17l4 12 5 7-1 2-8 6-4 4h-8l-12-13 2-12v-27l-3-20-2-1 3 19v29l-2 8-6-5-9-11-13-15-11-14-11-13-10-13-2-3-2 1 11 14 13 16 8 10 14 17 12 14 3 5-19-1-20-4-8-2v2l11 3 16 3 24 2 8 10v1h-56l-8-16-8-19-11-33-7-29v-11l4-6z" fill="#814A96"/>
<path transform="translate(264,718)" d="m0 0 3 4 19 42 16 36-3 9-12 26-13 30-3 2-11-7-11-10-10-13-10-19-6-16-3-13v-21l4-12 7-12 13-13 14-10z" fill="#F2DBFB"/>
<path transform="translate(1345,523)" d="m0 0h7l6 3 3 3 1 3v10l-4 19-5 17-4-3-1 3-10-10-2-7-2 4-13 16-8 10-11 13-9 11-11 13-1 2 27-3 19-5h2v3l-11 4-16 3-25 2-10 11-7 8-9 10-7 8-15 16-11 12 4 2 14 2h11l16-2 14-4h4l-1 3-13 4-10 2h-30l-9-2h-5l-12 13-47 47-8 7-9 9-8 7-1 1 15 1h12l15-1 21-4h3l-1 3-17 4-9 1h-44l-13 12-11 9-13 11-10 8h-2v-7l13-11 10-8 22-18-2-25v-10l2-21 4-16 1-2h2l-1 8-3 16-1 10v20l1 16 6-4 16-15 12-11 15-14 40-40-3-18v-28l3-19 1-4h3l-1 9-2 13v30l2 13 8-7 33-36 18-20 2-4-2-6-1-7v-22l1-18-7 1-5-5-2-9 22-12 16-8 19-9 25-10z" fill="#814A96"/>
<path transform="translate(848,203)" d="m0 0 88 8 14 1 4 8 11 12 9 11 9 10 9 11v1l-5 1-82 4-26 1h-14l-5-3-3-6-13-51v-5z" fill="#E68755"/>
<path transform="translate(942,761)" d="m0 0 2 1 1 20 2 10v16l4 73 2 31-2 4h-16l-12-5-9-7-7-8-7-14-13-30v-11l-4 2-2-4v-5h2v-22l-2-6v-7h-4l-2-7h3l1 4 5-1 4-1 3-2 12 2 3 5v2l10-1 1-7 10-7 9 2 2-5 1-4-3-4 2-11z" fill="#EFB34C"/>
<path transform="translate(1262,252)" d="m0 0 9 1 6 5 2 4v13l-6 103-1 11-5-1-15-9-14-9-7-4-16-10-11-8-2-3-12 16-11 14-13 17-14 18-13 17-10 13-14 18-13 17-4 5-3-1 2-5 12-15 13-17 10-13 14-18 13-17 10-13 13-17 14-18 10-13 13-17 21-27-3-5h-3l2-5 12-14 8-10z" fill="#F7D944"/>
<path transform="translate(970,320)" d="m0 0h6l3 3-1 10-14 55-6 5-8 1-86-4-19-2 3-1 2-4 8-9 5-6h2l2-4 10-13 5-5 10-11 3-7 10-2z" fill="#3F68F8"/>
<path transform="translate(992,722)" d="m0 0 3 3 9 16 4 5 17 1 4 15 1 5v72l-3 42-2 14h-3l-5-8-14-27-16-32-10-19-14-28v-4l20-39z" fill="#DD5C5F"/>
<path transform="translate(1257,564)" d="m0 0h3l3 9 3 3 8-1v9l-1 10v22l2 10 1 4-12 14-16 17-7 8-14 15-9 10-4 2-3-13v-30l4-22h-3l-1 9-1 6-2 2-6-1-4-5-7-6-7-8-5-6 4-5 11-9 18-14 17-12 20-13z" fill="#653984"/>
<path transform="translate(472,134)" d="m0 0h5l1 1h6l-1 8-5 18-2 9-4 16-2 10 28-7h7l-2 9v3l-7 2-14 1-4 2-13 2-2 4h-11l-30-5-18-5-12-5-10-7-7-9-3-7 1-7 3-2h13l9 2 2-12 6-9 9-6 6-2h14l12 4 6 3 4-2 6-5z" fill="#E1C4FC"/>
<path transform="translate(361,400)" d="m0 0 6 1 11 8 16 12 9 7 11 8 8 6 14 11 17 12 4 4 14 10 10 9 3 3-1-10 3-6 5-3h10l5 3h11l4-6 4-3 8-1 8 4 4 6 1 3v9l-3 7-4 2h-13l-6-2h-8l-7 4-1 31 3 4 9-1 5-2h10l2 4-3 20-3 7h-8l-18-5-5-2-2-5-2-37-4-3h-9l-3-7 2-6-1-1-21-4-15-5-19-9-17-12-12-11-11-12-10-15-8-16-3-7z" fill="#427BF9"/>
<path transform="translate(362,738)" d="m0 0 2 3 4 5 21 13 16 10 10 8 6 5 9 12 5 14-1 2h-8l-1 11h-19l-21-4v2l22 4 18 2v26l-6-2-24-15-17-12-13-10-11-9-10-9-8-7-11-11 1-5 13-29 23-2z" fill="#463280"/>
<path transform="translate(612,245)" d="m0 0 5 2 14 7 10 16 8 16 4 9 6 18 4 21 1 10v25l-3 22-7 25-9 20-9 15-12 16-12 13-11 10-17 12-18 10-20 8-11 3h-4l1-17 5-3 16-6 21-11 14-10 12-11 9-9 11-15 8-14 7-15 5-15 4-19 1-8v-26l-2-15-4-17-7-19-9-17-10-14-7-9 2-4z" fill="#F4E3FC"/>
<path transform="translate(964,507)" d="m0 0h203v93l-1 17-4 1-222-3 2 2 14 1 68 1-2 5 1 8 1 4-5 12v8l6 3-7 14-15-1-11-3-1 6-6 12-2 3-5-1-9-7-9-9-9-14-5-12-2-7v-4l-4-1-4-6-1-5 2-7-2-2-66-1-14-1-1-6v-76l1-22 1-1zm151 1-232 1-26 1-1 6-1 40v42l1 13 1 1 55 1h21v-2l3 2 206 3h23v-108z" fill="#EDC9F7"/>
<path transform="translate(1255,513)" d="m0 0 4 5 9 13 5 5v2l4 2 9 8-5 4-19 10-21 13-22 15-21 16-13 11-8 7-10 9-12 12-1-2 9-20 6-4 1-11 14-30 16-34 11-24 3-6 22 2h12z" fill="#EDC9F7"/>
<path transform="translate(598,743)" d="m0 0 3 4 20 45 3 7-1 6-18 41-14 31-4-1-10-8-13-13-9-11-12-16-1-2 7-11 8-11 7-11 18-27 15-22z" fill="#E26C5B"/>
<path transform="translate(518,618)" d="m0 0h2v10l2 12 5 8 8 4h9l14-5 3-1-3 9-9 19h-65l-9-9v-2l-3-1-20-2h-8l-17 10-17 8-15 5h-68l6-7 6-4 8 6h2l4-10 3-5h2l2-4 6-8 11-7 3 1 5 5 7 2h17l20-4 24-7h13l9 3 9 7 4-2 29-29z" fill="#EEA356"/>
<path transform="translate(374,569)" d="m0 0 5 5 9 12 7 10 2 5-12 16-6 13-1 10h2v-7l4-10 7-11 7-8 4 2 7 9 14 19 7 10v2l2 1-7 3-16 3h-17l-8-3-5-5-6 2-9 7-6 9h-2l-1 4-4 7-2 5-5-2-7-8-5-10-2-7v-17l5-16 7-13 8-11 9-11z" fill="#4067F7"/>
<path transform="translate(785,526)" d="m0 0h22l13 4 13 7 12 11 5 7v31l-12 3-8 6-7 9-2 3h-3l-1-17v-7h-2l-29 43-27 40-19 28-3 2-1-4 26-39 8-11 8-12-1-15-1-62-1-18-1-6z" fill="#F4C946"/>
<path transform="translate(838,588)" d="m0 0h5l1 8 2 41 3 45 2 42 1 16 2 6h-2l1 11-1 7v6l2 1-2 2-8-16-19-42-16-36-14-31-1-2 16-24 17-25 9-8z" fill="#E68755"/>
<path transform="translate(355,345)" d="m0 0h6l3 3v2l5 2 12 9 9 7 5 3 3 5 5 16 8 16 9 12 10 10 13 9 14 7 13 4 13 2 22 1 2 4 7 4 5 4 2 5-4 6h-11l-5-3h-10l-5 3-2 7 1 8h-3l-7-8-13-10-9-6-4-4-17-12-10-8-13-10-14-10-7-6-6-4-12-9-5-3h-5l-5-19-1-6v-29z" fill="#4484FB"/>
<path transform="translate(1288,704)" d="m0 0 2 1-3 18v27l1 16v16l-2 13-3 10-32-3h-44l-26 2 5-5 12-8 17-13 11-9 14-12 28-28 9-11 10-12z" fill="#ECC8F7"/>
<path transform="translate(1336,561)" d="m0 0 2 1 2 7 8 8 1-2 3 1-1 8-8 24-12 28-13 25-11 18-3 4-6-2-5-6-7-6-7-8-8-7v-2h-2l-1-5h-2l2-4 9-10 32-3 20-5v-3l-16 5-12 2-11 1h-9l2-4 22-26 9-11 13-16z" fill="#814A97"/>
<path transform="translate(306,486)" d="m0 0h3l3 52 4 30 7 34-1 3-26-14-21-10 2-1-8-19-3-12-1-7v-14l3-12 6-11 8-8 12-7z" fill="#E0C3FC"/>
<path transform="translate(897,721)" d="m0 0h7l4 6 11 2 4-3 4 1 5 4v10l5 7 7 2 1 10-6 4-2 11 3 4-1 4-3 5-9-1-9 6-2 7-10 1-3-5v-2l-12-1-4 3-4-1-5-4 1-8-5-8-8-3-1-3v-7l5-3h2l1-11-3-5 1-4 3-5 9 1 8-5 3-8z" fill="#CC8DE8"/>
<path transform="translate(869,618)" d="m0 0h11l10 19 21 41 15 29 10 20 9 17-1 2-2-1v4h-5l-6-8v-10l-5-4-4 1-3 2-11-2-4-6h-7l-3 1-2 7-9 6-7-3v-12l-5 3h-2l1-4 4-3h2l-1-8-2-25-2-50-1-13z" fill="#EFB24E"/>
<path transform="translate(697,125)" d="m0 0h1l3 23 4 4 19 2 4 2-35 35-14 8-12 3-12 1-115 115-4-2-2-3 8-7 16-17 12-11 19-19 7-8 15-14 11-12h2l2-4 10-9 12-12 2-3 1-14 4-12 6-10z" fill="#242367"/>
<path transform="translate(429,809)" d="m0 0h5l4 8 2 8h-2l1 34 18 9 7 14 7 10 4 5 10-1 7-2 3 7v7l-3 2h-8l-2-2 1 5 11 11 14 8 8 3h15l8-3 2 3v5l-1 1h-12l-19-5-14-7-10-9-4-6-105-1-1-2 2-5 1-1h47v-80l-18-1-20-4-2-1v-2l9 1 12 2 19 1 1-11zm9 92v4h42l-2-3-13-1-11 1z" fill="#9C5498"/>
<path transform="translate(936,178)" d="m0 0h23l15 3 10 4 9 7 7 7 8 13 2 6-38-3-69-6-43-4 5-4 23-12 21-7 17-3z" fill="#F1DAFA"/>
<path transform="translate(533,709)" d="m0 0h51l14 32v3l-15 22-32 48h-1v-10l4-19v-14l-4-13-9-11-6-28z" fill="#ECC8F7"/>
<path transform="translate(665,214)" d="m0 0h11l8 5 6 7 2 6 5-3 9 1 9 6 2 6h6l5 3 2 3v5l-3 3-8 2-9 1h-45l-24-3-13-3-9-4-6-4 6-7 21-21 8 1 4 2 4-1 6-4z" fill="#EECAF8"/>
<path transform="translate(992,669)" d="m0 0 11 2 26 2 4 3 6 2 18-2 13 3 8 6 10 10 7 11 2 5v4l-15 4-5 1-2-4-1 14-4 3h-13l-12-4-4-2-2-9-4-2-6-20v-2l-14-1-7-3v-2l-11-1v2l-6 2h-9l8-16z" fill="#9C5499"/>
<path transform="translate(397,232)" d="m0 0 3 1-14 12-9 9-12 16-9 15-8 18-6 21-3 21v23l3 20 4 16 5 14-4-2-8-6-11-3-5-19-2-14v-35l3-19 4-15 7-19 10-19 12-17 10-12-3-2z" fill="#F4E3FB"/>
<path transform="translate(1160,502)" d="m0 0h6l4 2 1 2v102l-1 11-5 3-120-2-1 2-3-2-7 1h-4l-1-1-73-1-14-1-3-4 161 2 65 1 1-17 1-93-311 2-1 22v82l80 1 3 4h-79l-7-1-2-8v-79l1-22 3-4z" fill="#4DAAFB"/>
<path transform="translate(948,322)" d="m0 0h6l-4 2-1 4-3 4h-2l-2 4-12 14-13 15-7 8-12 14-2 4-32-1-19-2 3-1 2-4 8-9 5-6h2l2-4 10-13 5-5 10-11 3-7 10-2z" fill="#427BF9"/>
<path transform="translate(674,714)" d="m0 0h2l1 58v44h2l1 3-21 31h-2l-19-42-2-5 1-6 20-45z" fill="#E68755"/>
<path transform="translate(528,465)" d="m0 0 8 1 6 4 4 8v9l-3 7-4 2h-13l-6-2h-8l-7 4-1 31 3 4 9-1 5-2h10l2 4-3 20-3 7h-8l-18-5-5-2-2-5-2-37-4-3h-9l-3-7 2-6 6-5-1-10 3-6 5-3h10l5 3h11l4-6 4-3z" fill="#232266"/>
<path transform="translate(992,722)" d="m0 0 3 3 9 16 4 5 17 1 4 15 1 5v47l-1-3-4-2-11-6-11-8-14-8-13-8-6-4-3-4 2-6 14-27z" fill="#E26C5B"/>
<path transform="translate(1097,713)" d="m0 0 1 2 6 1 9 6 3 3-2 6-16 34-15 33-7 16-2 1-1-26-1-11v-13l1-18-12-2-15-6-6-4v-2l-6-1-3-3-5-1-2-5 1-2-3-1 2-2 7-2h7l3 4v7l9 3 7 2h13l3-2 1-15 2 1 1 3 16-4h4z" fill="#E57859"/>
<path transform="translate(1267,646)" d="m0 0 2 1v5h2l10 10v2l4 2 1 3 4 2 1 3 4 2 5 5 3 2-2 5-14 19-9 11h-3l-7-4-3-4v-5l2-2 13-4 1-2-18 5-16 2h-11l-14-2-5-2 6-7 9-10 15-16 10-11 6-7z" fill="#653984"/>
<path transform="translate(629,815)" d="m0 0h2l19 42 1 5-11 17-6 10-9 10-8 7-15 8-17 4-1-3 16-35 20-45z" fill="#E57958"/>
<path transform="translate(334,847)" d="m0 0 10 3 22 6 21 4 36 4 2 1v32l-21-1-35-3-15-2-4-6-16-36z" fill="#F1DAFA"/>
<path transform="translate(248,604)" d="m0 0 5 4 11 14 9 11 14 17 12 14 3 5-19-1-20-4-8-2v2l11 3 16 3 24 2 8 10v1h-56l-8-16-8-19-8-23v-4l4-1v-5h2v-2h2l1-3 3-1 2-2z" fill="#824B97"/>
<path transform="translate(529,311)" d="m0 0 6 3 6 7-1 5-17 13-5 4 1 7v13l-5 10-9 8-6 2h-14l-10-5-7-8-3-8v-11l4-10 8-8 11-4h8l11 4h4l9-11z" fill="#4CAAFB"/>
<path transform="translate(584,763)" d="m0 0 3 3v18l1 57 1 28 3 3-1 5-4-1-10-8-13-13-9-11-12-16-1-2 7-11 8-11 7-11 18-27z" fill="#DD5C5F"/>
<path transform="translate(1257,564)" d="m0 0h3l3 9 3 3 8-1v9l-1 10v22l2 10 1 4-12 14-9-6-7-8-5-4v-2l-4-2-6-6v-2l-4-2-6-7-5-5-2-4-1-4 14-10 20-13z" fill="#6F438B"/>
<path transform="translate(1342,549)" d="m0 0h3l-2 5-14 17-11 14-11 13-9 11-12 14-5 7 27-3 19-5h2v3l-11 4-16 3-25 2-10 11-7 8-9 10-7 8-15 16-11 12 4 2 14 2h11l16-2 14-4h4l-1 3-13 4-10 2h-30l-9-2h-5l-12 13-47 47-8 7-9 9-8 7-1 1 15 1h12l15-1 21-4h3l-1 3-17 4-9 1h-44l-13 12-11 9-13 11-10 8h-2v-7l13-11 10-8 22-18-2-25v-10l2-21 4-16 1-2h2l-1 8-3 16-1 10v20l1 16 6-4 16-15 12-11 15-14 40-40-3-18v-28l3-19 1-4h3l-1 9-2 13v30l2 13 8-7 33-36 18-20 2-4-2-6-1-7v-22l3-23 1-2 3 1-3 25v21l2 10 5-5 13-15 11-13 11-14 11-13 10-13z" fill="#F0EFFC"/>
<path transform="translate(676,710)" d="m0 0h28l-1 3 2 1v13l1 29 1 16 1 5-27 40-2 1v-2h-2l-1-22v-32l-1-50z" fill="#E99452"/>
<path transform="translate(667,871)" d="m0 0h81l1 3-3 12 12 9 5-2 7-5 12 3 7 1 4 6-4 2-49 1h-60l-9-19-4-9z" fill="#F1DAFA"/>
<path transform="translate(983,824)" d="m0 0 3 1 12 23 12 24 10 19 4 5-1 11 8 2 1 15-3 3-31 1-4-1 1-3 13-6-43-1v-1l21-1 1-2-1-26-1-18-1-6z" fill="#F7D944"/>
<path transform="translate(621,709)" d="m0 0h44l-3 9-19 42-12 27h-2l-19-42-5-13 15-22z" fill="#E57859"/>
<path transform="translate(950,213)" d="m0 0h12l32 3 2 2 2 4v4l6 1 3 6 13 15 12 14 8 10-1 3-21 8-4-1-1-1v-16h-21l-9-10-8-10-10-11-9-11-5-6z" fill="#F0B34C"/>
<path transform="translate(848,203)" d="m0 0 12 1 3 1 4 6 8 10 12 13 5 7v3l5 2 5 6v2h2l7 8 3 5-2 2-7 1-26 1h-14l-5-3-3-6-13-51v-5z" fill="#E36D5B"/>
<path transform="translate(1015,192)" d="m0 0 7 1 50 19 52 20 5 3-1 5-11 5-32 12h-3l-5-8-9-10-9-11-6-7-2-4v-3l-6-1-16-6-5-1v19h-4l-1-5v-10l-5 1-1-3v-14z" fill="#FBEE40"/>
<path transform="translate(997,686)" d="m0 0 9 1 3 3 6 2 14 2 6 20v2l-11 3-1 1 2 1v3l2 2 1 2 4 1 4 3 4 1 3 9v5h-35l-6-8-12-21-10-20-2-3v-4l13-1 5-2z" fill="#4CA9FB"/>
<path transform="translate(817,531)" d="m0 0 7 1 10 6 10 9 6 8v31l-12 3-8 6-7 9-2 3h-3l-1-17v-7h-2l-29 43-27 40-19 28-3 2-1-4 26-39 8-11 20-30 25-37 4-7-2-3-1-31z" fill="#F7D944"/>
<path transform="translate(324,315)" d="m0 0h1l-1 10-2 14v35l3 19 3 11-1 4-6 3-4 6-3 16-2 12-10-20-5-16-2-14v-13l3-17 5-15 11-21z" fill="#E0C3FC"/>
<path transform="translate(501,776)" d="m0 0 5 4 4 8 1 5v22l-5 21-7 19-4 9 2 4 11 6 4 2-6 12-3 2h-8l-11-64-6-27-5-14v-2l18-1 8-4z" fill="#E68755"/>
<path transform="translate(865,868)" d="m0 0h13l-2 6-3 6 3-1 5-11h14l10 23 2 4-2 2-43 2-3 3h-2l1-4-7 1h-37l2-11 12-7 4-3 14 3 9-12z" fill="#F1DAFA"/>
<path transform="translate(273,709)" d="m0 0h65l3 3-1 5-10 22-10-1-15-4-3 1 13 4 13 3-3 9-8 16-5-5-10-11-13-17-16-24z" fill="#653984"/>
<path transform="translate(518,618)" d="m0 0h2v10l2 12 5 8 8 4h9l14-5 3-1-3 9-9 19h-52l-4-10v-2h-2l-5-8 1-4 30-30z" fill="#E26C5B"/>
<path transform="translate(307,815)" d="m0 0 3 3 16 36 10 23 4 8v3l-10-1-23-5-20-7-5-3 3-9 12-26 9-21z" fill="#F1DBFB"/>
<path transform="translate(1322,627)" d="m0 0h3v2h-2l1 4 6 1-1 6-11 21-11 18-3 4-6-2-5-6-7-6-7-8-8-7v-2h-2l-1-5h-2l2-4 9-10 32-3z" fill="#6F438B"/>
<path transform="translate(911,210)" d="m0 0h13l26 2 4 8 11 12 9 11 9 10 9 11v1l-5 1-31 1-2-5-9-10-9-11-10-11-3-3-9-11z" fill="#E99452"/>
<path transform="translate(1141,870)" d="m0 0h6l1 6 8 20 2 6v3l-21 3-11 1-26 1-5-2-4-10v-7l5 2 16 8 11 4-1-2-15-6-17-10-5-5 43-9z" fill="#473482"/>
<path transform="translate(869,618)" d="m0 0h11l10 19-1 3v12l3 51v5l4 1-4 1-1 2 3 1h-2l1 8 1 2-2 7-9 6-7-3v-12l-5 3h-2l1-4 4-3h2l-1-8-2-25-2-50-1-13z" fill="#EEA456"/>
<path transform="translate(1233,283)" d="m0 0 5 1 2 2-1 2 2 1-12 15-10 13-13 17-14 18-10 13-13 17-20 26-1 1h-5l-7-5 1-4 9-11 8-10 11-13 11-14 11-13 18-22 14-17 9-11z" fill="#F4C947"/>
<path transform="translate(1126,707)" d="m0 0 3 3v3h3l17 17v2l4 2 1 3 4 2 7 6-2 4-10 9-16 15-11 10-4 1-2-16v-20l3-21 3-13h-2l-2 9-2-2-2 1 2-6 3-7z" fill="#232265"/>
<path transform="translate(1104,620)" d="m0 0 59 1 1 2-14 30-6 12-1-3-5-5-36-22-15-10-2-1h-8l-1-2 3-1z" fill="#E99452"/>
<path transform="translate(411,786)" d="m0 0 4 2 10 14v19h-19l-21-4v2l22 4 18 2v26l-6-2-24-15-17-12 1-4v-3l5-2v-3l23-23 4 1z" fill="#232265"/>
<path transform="translate(322,606)" d="m0 0 5 1 11 7-6 17-1 4v17l4 12 5 7-1 2-8 6-4 4h-8l-12-13 2-12v-39l3-2 4-2 5-6z" fill="#6E428B"/>
<path transform="translate(1084,693)" d="m0 0 4 2 7 11 2 5v4l-15 4-5 1-2-4-1 14-4 3h-13l-12-4-4-2-2-9-4-2-3-9v-4l11-1 14-4 13-1 11-2z" fill="#814A97"/>
<path transform="translate(1345,523)" d="m0 0h7l6 3 3 3 1 3v10l-4 19-5 17-4-3-1 3-10-10-1-8 8-11h-3l-2 4-5 5-6 1-17-17 1-5 3-3 25-10z" fill="#9D5599"/>
<path transform="translate(1245,810)" d="m0 0h3l-2 4-11 14-6 11-2 4 11-4 13-4 25-8 12-5h4l-1 3-37 13-24 8 5 4 15 6 8 2v3l-9-1-12-5-11-6-3-1-33 10-21 6v2l9 7 14 7 11 3v3l-11-2-12-5-13-10-3-3-7 1-42 10-29 6 14 9 14 7 9 4v2l-9-2-16-8-11-7-5-4-13 1 1-6 10-1 3-9 11-17 4-5 6-2-6 8-7 10-7 13 10-1 40-8 23-5 6-1 3-10 9-15 11-12 4-1-6 8-8 10-8 15v3l24-6 13-4 17-5h2l1-6 5-9 9-12z" fill="#F0EDFC"/>
<path transform="translate(1277,302)" d="m0 0 5 5 6 10 4 11 2 12v13l-3 19-7 21-8 16-5 9h-1l2-40 4-68z" fill="#EECAF8"/>
<path transform="translate(662,215)" d="m0 0 5 1 1 2-1 10-2 9-5 18-5 2h-8l-17-3-11-5-6-4 6-7 21-21 8 1 4 2 4-1z" fill="#E0C3FC"/>
<path transform="translate(231,567)" d="m0 0h12l28 11v7l-8 7-7 8-6 1-7-9-2 1 8 10 1 5-4 2-3 1-1 2h-2l-2 7-5 2-7-27-2-9v-11l4-6z" fill="#9D5599"/>
<path transform="translate(1129,832)" d="m0 0 2 1 2 6 9 22 3 4-15 4-42 8h-5l8-16 9-12 4-5z" fill="#473381"/>
<path transform="translate(398,604)" d="m0 0 4 2 7 9 14 19 7 10v2l2 1-7 3-16 3h-17l1-2-7-11-4-3-2 3v-7l4-10 7-11z" fill="#4484FB"/>
<path transform="translate(425,496)" d="m0 0 6 1 16 6 23 5h9v3 9l3 6 5 2-2 5-13 15-2 2-10-5-8-11-8-12-16-21z" fill="#F4E2FB"/>
<path transform="translate(379,757)" d="m0 0h7l19 12 10 8 6 5 9 12 5 14-1 2h-8v5h-1l-1-13-8-11-1-3-3-1-4-4-45-1-5-4-3-5v-12z" fill="#653984"/>
<path transform="translate(915,325)" d="m0 0h7l-4 2 1 4-7 7-9 11-11 12-7 9-8 8-8 10-11 1-13-1 3-1 2-4 8-9 5-6h2l2-4 10-13 5-5 10-11 3-7 10-2z" fill="#4484FB"/>
<path transform="translate(1041,736)" d="m0 0 20 8 12 2 1 3-2 27-2-2-5 1h-15l-16-3-3-1v52h-1l-1-56-4-20h18z" fill="#6F438B"/>
<path transform="translate(1024,206)" d="m0 0 8 1 19 7 5 10 12 13 7 8 6 8 2 5-20 7-10-13-12-13-9-11-5-6-2-1-1 3z" fill="#F8DA43"/>
<path transform="translate(374,569)" d="m0 0 5 5 9 12 7 10 2 5-12 16-6 13-4-5-14-18-7-10-2-2 1-4 11-12z" fill="#4179F9"/>
<path transform="translate(1119,516)" d="m0 0h12l8 5 5 6 2 7-1 9-4 7-6 5-5 2h-10l-8-4-6-7-2-5v-9l5-10 7-5z" fill="#F8FBFC"/>
<path transform="translate(1018,515)" d="m0 0h9l10 5 5 7 1 3v11l-4 8-6 5-4 2h-13l-8-5-4-5-2-5v-11l3-6 5-5z" fill="#F8FAFC"/>
<path transform="translate(1069,515)" d="m0 0h9l9 4 6 8 1 3v12l-5 8-5 4-4 2h-13l-8-5-5-7-1-3v-10l4-8 7-6z" fill="#F8FAFC"/>
<path transform="translate(397,232)" d="m0 0 3 1-14 12-9 9-12 16-9 15-2 4h-2l-1-2-10 9-9 10-4 3 1-7 6-16 10-19 12-17 10-12-3-2z" fill="#F5EBFD"/>
<path transform="translate(444,659)" d="m0 0h8l20 2 3 3-9 11-6 8h212v1h-278l1-2 17-6 19-9z" fill="#4DA9FB"/>
<path transform="translate(816,580)" d="m0 0 2 3v24h2l-2 5-17 25-20 30-3-1v-11l-1-13v-4l8-12 29-43z" fill="#F4C947"/>
<path transform="translate(542,827)" d="m0 0 5 5 10 13 7 8-2 4-19 14-13 9-17 12-3 1-5-6 6-11h6l2-5 12-22 10-21z" fill="#EFB24C"/>
<path transform="translate(964,507)" d="m0 0h203v93l-1 17-4 1-216-3-8-1v-1h55l149 2 23 1v-108l-50 1-258 1-1 46v42l1 13 55 1 22 1v1h-65l-14-1-1-6v-76l1-22 1-1z" fill="#C3E9FC"/>
<path transform="translate(581,873)" d="m0 0 4 1 5 3-1 5-13 30-3 6h-27l-16-3-1-4 16-11 12-9 10-7 5-4 8-6z" fill="#F7D944"/>
<path transform="translate(863,205)" d="m0 0 18 1 4 2 8 11 9 10 9 11 2 4 4 2 11 13 4 5 1 4-7 1h-14l1-3-7-8-2-4h-2l-6-8-4-2-4-7-12-14-8-9-4-5z" fill="#E57859"/>
<path transform="translate(1106,577)" d="m0 0h38l1 1v27l-2 2h-37l-2-3v-24z" fill="#BFE6FB"/>
<path transform="translate(1055,577)" d="m0 0h37l2 2v26l-2 2h-37l-2-2v-26z" fill="#BFE6FB"/>
<path transform="translate(1e3 577)" d="m0 0h37l2 2v26l-2 2h-37l-2-2v-26z" fill="#C0E6FC"/>
<path transform="translate(871,581)" d="m0 0h120l1 1v8l-1 1h-120l-1-1v-7z" fill="#C0E6FC"/>
<path transform="translate(871,563)" d="m0 0h120l1 1v8l-1 1h-120l-1-1v-7z" fill="#C0E6FC"/>
<path transform="translate(871,545)" d="m0 0h120l1 1v8l-1 1h-120l-1-1v-7z" fill="#C0E6FC"/>
<path transform="translate(871,527)" d="m0 0h120l1 1v8l-1 1h-120l-1-1v-7z" fill="#C0E6FC"/>
<path transform="translate(697,125)" d="m0 0h1l2 16v8l-48 48h-1v-14l4-12 6-10z" fill="#FBEC40"/>
<path transform="translate(704,153)" d="m0 0h10l14 2-6 7-29 29-14 8-12 3h-11l6-7z" fill="#FBEF40"/>
<path transform="translate(1074,715)" d="m0 0 2 1 1 3 11-3h10v10l-3 9-6 7-8 4h-16l-15-5-10-6v-2l-6-1-3-3-5-1-2-5 1-2-3-1 2-2 7-2h7l3 4v7l9 3 7 2h13l3-2z" fill="#EEA356"/>
<path transform="translate(481,508)" d="m0 0h7l5 4 2 37 1 5 5 1 5 2-2 6-5 6-5 2-11-1-8-4-6-8v-7l11-13 7-10-5-1-4-7v-9z" fill="#EEA256"/>
<path transform="translate(933,611)" d="m0 0 5 2 11 12 1 11 6 11 10 9 17 9 9 4-1 6-6 12-2 3-5-1-9-7-9-9-9-14-5-12-2-7v-4l-4-1-4-6-1-5 2-7-4-4z" fill="#EEA256"/>
<path transform="translate(875,792)" d="m0 0h3l1 4 5-1 4-1 3-2 6 1 4 66 1 25-2-2-13-30v-11l-4 2-2-4v-5h2v-22l-2-6v-7h-4z" fill="#EEA55C"/>
<path transform="translate(1256,269)" d="m0 0h6l4 5-2 22-1 6-4-1 2-20v-7h-4l-11 14-13 17-14 18-13 17-20 26-14 18-12 16-11 14-20 26-14 18-13 17-4 5-3-1 2-5 12-15 13-17 10-13 14-18 13-17 10-13 13-17 14-18 10-13 13-17 14-18 20-26z" fill="#FCFAFC"/>
<path transform="translate(1262,252)" d="m0 0 9 1 6 5 2 4v13l-2 30-3 2-5-3-3-2h-3l1-15 1-13-3-4h-6l-7 8-7 9-3 1-2-4h-3l2-5 12-14 8-10z" fill="#FBEC40"/>
<path transform="translate(699,620)" d="m0 0h3l2 5v35l1 21-1 2h-31l5-10z" fill="#E99352"/>
<path transform="translate(438,859)" d="m0 0 19 9 7 14 7 10 4 5 3 3v2h-13l-11 1-14-1-2-1z" fill="#F0DAFA"/>
<path transform="translate(512,493)" d="m0 0h8l6 2 7 1v10l-2 17-1 7-9 1-8 3h-6l-4-5 1-31 5-4z" fill="#EEA256"/>
<path transform="translate(815,618)" d="m0 0h1l1 8 1 27 3 43v6l-3-3-16-35-7-16-1-2 16-24z" fill="#E57958"/>
<path transform="translate(788,792)" d="m0 0h12l10 3 10 6 8 8 5 10 2 7v15l-4 11-6 9-9 8-12 5-12 1-1-4 1-1 12-2 9-4 7-5 7-11 2-6v-18l-7-14-8-7-8-4-4-1h-17l-10 4-10 9-6 12-1 4v12l3 10 4 7-2 4-5-5-5-12-1-6v-8l3-11 4-8 8-9 10-6z" fill="#F7EFFC"/>
<path transform="translate(846,217)" d="m0 0 4 2 11 12 9 11 11 12 4 5v2l3 1 4 6 6 1v1l-19 1h-14l-5-3-3-6-11-43z" fill="#DE5C5E"/>
<path transform="translate(638,879)" d="m0 0 1 2-7 11-11 11-11 7-11 5-15 3 1-5 14-31 11 3h11l15-5z" fill="#FBED40"/>
<path transform="translate(1024,633)" d="m0 0 17 6-1 5-1 2 5-1-1 5-3 1-2 5 6-1 7 19v3l-6 2-9-1-6-3-1-1-11-1 6-13-6-4v-8z" fill="#EDA056"/>
<path transform="translate(586,208)" d="m0 0 1 2 4 2 12 11 6 5 1 2 6 2-6 7-8 8-5-3-12-10-15-10-16-9v-1l23-3zm20 24-3 3 3 3h2v-6z" fill="#F4EAFD"/>
<path transform="translate(506,709)" d="m0 0h27l5 18 4 20-1 2-11-8-25-12-3-2 2-7 1-9z" fill="#663A84"/>
<path transform="translate(330,438)" d="m0 0 3 1 14 41 17 47 8 21 4-4 6-13 6-18 6-27h3l-1 12-6 23-6 16-7 13-2 2 1 6 2 5-1 4h-2l-4-9v-3l-11-3-23-11-12-8-7-6v-3l5 2 12 9 17 9 16 6-20-55-17-50z" fill="#F1E0F9"/>
<path transform="translate(509,815)" d="m0 0h1l-1 10-6 20-8 19 2 4 11 6 4 2-6 12-3 2h-8l-9-53v-7l5-2 10-7z" fill="#E99352"/>
<path transform="translate(650,862)" d="m0 0h2l10 23 6 12-1 4h-44l6-7 6-8 9-15z" fill="#F1DBFB"/>
<path transform="translate(276,745)" d="m0 0 2 1 18 41 6 13-3 9-4 7-4-4-8-15-6-16-3-14v-13z" fill="#E1C4FD"/>
<path transform="translate(518,618)" d="m0 0h2v10l2 12 1 4-24 15-3 1 1 4 12 7 6 2v1h-18l-4-10v-2h-2l-5-8 1-4 30-30z" fill="#DA5B61"/>
<path transform="translate(936,211)" d="m0 0 14 1 4 8 11 12 9 11 9 10 9 11v1l-5 1h-8l-12-14-9-10-9-11-9-10-4-5v-2l-2-1z" fill="#EEA456"/>
<path transform="translate(1233,283)" d="m0 0 5 1 2 2-1 2 2 1-12 15-10 13-13 17-8 10-5-2-3-5 5-8 11-13 11-14 12-14z" fill="#F7D944"/>
<path transform="translate(1024,619)" d="m0 0h5l4 2 3-2 7 1 3 5 7 2 3 4v7l-1 2 3 1v5l-2 2-6 2-7 5-5 1 1-5 4-2 1-4-5 1 2-7-12-3-7-4-1-8z" fill="#262367"/>
<path transform="translate(272,709)" d="m0 0 4 4 12 18 9 12 9 11 11 13-7 17-3 4-14-31-10-23-8-16z" fill="#DFC2FC"/>
<path transform="translate(241,591)" d="m0 0 3 1 10 13 13 16 9 11 22 26 6 7 2-7v-29l-2-13v-6l3 1 3 20v27l-2 12 11 12v2h-4v-2h-2l-7-8v-2l-24-1-16-3-11-4v-2l8 1 20 4 18 1-12-14-9-11-11-13-11-14-13-16-5-8z" fill="#EBE5FA"/>
<path transform="translate(388,616)" d="m0 0 4 1 12 16 10 14v2l3 1-1 2-7 1h-17l1-2-7-11-4-3-2 3v-7l4-10z" fill="#427BF8"/>
<path transform="translate(529,311)" d="m0 0 6 3 6 7-1 5-17 13-28 22h-3l1-5 14-17 8-11z" fill="#F7DA47"/>
<path transform="translate(261,667)" d="m0 0 9 1 12 2 24 2 8 10v1h-56l-1-5 1-5 2-3-1-2z" fill="#70438B"/>
<path transform="translate(441,661)" d="m0 0 3 1 7 11 7 9v1l-64 1 1-2 17-6 19-9z" fill="#4585FA"/>
<path transform="translate(826,565)" d="m0 0h7l6 3 4 4v4h-3l-4-5-2-1h-8l-5 4-16 24-19 28-27 40-19 28-3 2-1-4 26-39 8-11 20-30 25-37 4-6z" fill="#FCFAFC"/>
<path transform="translate(501,776)" d="m0 0 5 4 4 8-2 4-19 13-4 3h-3v5h-1l-4-17-4-11v-2l18-1 8-4z" fill="#E57759"/>
<path transform="translate(700,148)" d="m0 0 5 5-64 64-9 2h-3l24-24z" fill="#222165"/>
<path transform="translate(1141,870)" d="m0 0h6l1 6 8 20 2 6v3l-17 2-3-10-3-7-6-16 3-2z" fill="#6F448D"/>
<path transform="translate(444,521)" d="m0 0 26 5 17 2-2 5-13 15-2 2-10-5-8-11-8-12z" fill="#E1C3FC"/>
<path transform="translate(459,755)" d="m0 0 5 1 16 7 17 9 4 3-2 4-8 4-19 1-7-16-6-11z" fill="#653984"/>
<path transform="translate(374,569)" d="m0 0 5 5 9 12 7 10 2 5-8 11-4-4-12-16-7-10-2-1 2-4z" fill="#4383FA"/>
<path transform="translate(625,709)" d="m0 0h40l-3 9-16 36-2 1-1-7-1-34 1-4h-18z" fill="#E78855"/>
<path transform="translate(1077,764)" d="m0 0 5 2 10 6 1 4-16 35-2 4h-1l-1-26-1-11v-13z" fill="#E26B5B"/>
<path transform="translate(1129,832)" d="m0 0 2 1 2 6 9 22 3 4-15 4-4-1-7-17-3-8-1-4z" fill="#6E428A"/>
<path transform="translate(704,153)" d="m0 0h10l14 2-6 7-16 16h-5l-7-10-4 2-32 32-2-1z" fill="#F7DA44"/>
<path transform="translate(781,318)" d="m0 0 5 1 2 3v22h-4v-21l-18 6-56 21-19 7h-4v-4l29-11 54-20z" fill="#EBF8FC"/>
<path transform="translate(899,737)" d="m0 0h13l8 4 7 8 3 9-1 10-4 8-8 7-5 2h-8v-4l10-3 7-6 3-7v-8l-3-7-5-5-7-3h-8l-8 4-5 6-2 6 1 10 3 6-4 3-5-10v-12l5-10 8-6z" fill="#F8F1FC"/>
<path transform="translate(424,397)" d="m0 0 6 1 10 8 11 8 8 6 6 4 8 6 2 4-7 1-12-5-11-6-12-11-8-9-2-3z" fill="#4486FB"/>
<path transform="translate(444,709)" d="m0 0h59l-2 18-30-9-6-2-21-5z" fill="#653984"/>
<path transform="translate(618,840)" d="m0 0 1 4-1 7h1l1 19v13l1 3h-11l-10-3 1-5 16-36z" fill="#E36D5A"/>
<path transform="translate(697,125)" d="m0 0h1l2 16v8l-12 12-6-3-6-6-1-5z" fill="#F7D944"/>
<path transform="translate(1237,680)" d="m0 0 3 4 10 10v2l6 3v2l3 1-2 1-10 1h-11l-14-2-5-2 5-6 8-7z" fill="#493381"/>
<path transform="translate(560,646)" d="m0 0 1 2-11 24-1 1h-31l3-2h2v-2l11-7 3-1 2-8 12-3z" fill="#EEA356"/>
<path transform="translate(1212,651)" d="m0 0h1v7l3 1 7 8 6 6 5 2-2 4-16 17h-2l-3-13v-30z" fill="#493482"/>
<path transform="translate(626,278)" d="m0 0 5 3 8 17 7 22 3 18 2 21-1 9-4 25-5 16-4-1 6-24 2-14v-26l-2-15-4-17-7-19-7-14z" fill="#F5EBFD"/>
<path transform="translate(1277,581)" d="m0 0h1l2 6 6 9 4 4v2l4 1 2 4-9 10-8 10-2-1-2-10v-21z" fill="#71448C"/>
<path transform="translate(304,621)" d="m0 0 2 2 1 6v29l-2 8-6-5-9-11-4-5v-2l4-1 2-4 8-7 3-5z" fill="#71448C"/>
<path transform="translate(789,822)" d="m0 0h9l5 3 3 6-1 8-4 5-5 2-8-1-5-5-1-2v-9l5-6z" fill="#CC8DE8"/>
<path transform="translate(1051,820)" d="m0 0 2 4 2 28v8l-5 10-5 11 10 1v5l-10 2h-5l-1 5-2 3 1-8 3-10 3-15 6-35z" fill="#D25A67"/>
<path transform="translate(1245,810)" d="m0 0h3l-2 4-11 14-6 11-2 4 11-4 13-4 25-8 12-5h4l-1 3-37 13-24 8 5 4 15 6 8 2v3l-9-1-12-5-11-6-3-1-8 2v-4l9-2 1-6 5-9 9-12z" fill="#F5EBFB"/>
<path transform="translate(1023,202)" d="m0 0h6l56 21 29 11v3l-7-1-70-26-13-4v19h-4v-19z" fill="#FCFBFC"/>
<path transform="translate(501,844)" d="m0 0 1 4-7 16 2 4 11 6 4 2-6 12-3 2h-8l-5-30v-10l5-2z" fill="#ED9F56"/>
<path transform="translate(789,817)" d="m0 0h9l7 4 4 5 1 3v10l-4 6-5 4-2 1h-11l-6-4-4-5-1-3v-9l4-7zm0 5-6 5-1 2v9l3 5 6 3 8-1 5-4 2-5-1-8-5-5-2-1z" fill="#F7EFFC"/>
<path transform="translate(1031,716)" d="m0 0h7l3 4v7l9 3 7 2 11 1v1l-8 1v6l-2 2-5-1-12-6-1-3-6-1-3-3-5-1-2-5 1-2-3-1 2-2z" fill="#ED9F55"/>
<path transform="translate(856,508)" d="m0 0h114v1l-87 1h-26l-1 46v42l1 13 55 1 22 1v1h-65l-14-1-1-6v-76l1-22z" fill="#DBEFFC"/>
<path transform="translate(1300,608)" d="m0 0 2 1 1 5 5 2 7 6 7 1-1 2-20 4-11 1h-9l2-4 10-12z" fill="#71448C"/>
<path transform="translate(506,557)" d="m0 0 20 4-2 1 1 3 2 1 1 13h-2l1 3-2 1-1-1-1 2-11-9-11-8z" fill="#DFC4FC"/>
<path transform="translate(281,645)" d="m0 0h2l9 11 10 12v1l-19-1-16-3-2-2h3v-2l8-6 4-4z" fill="#71448B"/>
<path transform="translate(1020,912)" d="m0 0 9 1h2l1 11-3 3-31 1-4-1 1-3z" fill="#29276B"/>
<path transform="translate(535,722)" d="m0 0 2 1 5 24-1 2-11-8-18-9 4-4z" fill="#473380"/>
<path transform="translate(1171,564)" d="m0 0 10 6h5l2-1-3 9-13 28-2 1z" fill="#EEA256"/>
<path transform="translate(901,751)" d="m0 0h8l5 4 1 2v8l-5 6-6 1-6-3-3-4v-8l4-5z" fill="#F9F3FC"/>
<path transform="translate(613,246)" d="m0 0 4 1 14 7 10 16 6 11-1 2h-2l-4-2-10-11-3-7-16-14z" fill="#F5EBFD"/>
<path transform="translate(427,669)" d="m0 0h4l7 12 5 1v1l-49 1 1-2 17-6z" fill="#437BF8"/>
<path transform="translate(1e3 565)" d="m0 0h37l2 2-1 5-2 1h-35l-3-2 1-5z" fill="#BDE7FB"/>
<path transform="translate(1106,565)" d="m0 0h37l2 2-1 5-1 1h-36l-3-3z" fill="#BBE9FB"/>
<path transform="translate(1055,565)" d="m0 0h37l2 2-1 5-2 1h-35l-3-3 1-4z" fill="#BBE8FB"/>
<path transform="translate(595,709)" d="m0 0h26l-7 11-8 12-3-3-8-18z" fill="#ECC9F8"/>
<path transform="translate(642,617)" d="m0 0 7 1 2 4v7l-3 7-5 5h-5l-3-3-1-7 3-9z" fill="#4BA7FB"/>
<path transform="translate(1017,520)" d="m0 0h6v3l-9 4-3 5v9l3 5 4 2h9l5-3 2-4 1-10h4v11l-4 6-5 4-2 1h-11l-6-4-4-5-1-2v-11l4-6 5-4z" fill="#EB9753"/>
<path transform="translate(532,652)" d="m0 0 7 1-1 8-13 8h-2v2l-2 1 28 1v1h-34l-6-2-1-3 19-12z" fill="#E68555"/>
<path transform="translate(514,330)" d="m0 0h2l6 8-5 6-13 10-9 7h-3l1-5 14-17 6-8z" fill="#FBEE40"/>
<path transform="translate(317,741)" d="m0 0h9l2 1-3 9-8 16-10-10 1-4 5-2v-2h2l2-4z" fill="#4B3481"/>
<path transform="translate(481,508)" d="m0 0h7l5 4v14l-4 3-7-2-4-7v-9z" fill="#E0765C"/>
<path transform="translate(1015,192)" d="m0 0 7 1 13 5 2 3v4l-6-1-2-1h-6l-2 3-1 14h-1v-10l-5 1-1-3v-14z" fill="#F8DC43"/>
<path transform="translate(1119,520)" d="m0 0h7v3l-9 4-3 3-1 3v7l4 6 3 2h10l5-4 3 1-1 4-7 4h-10l-7-4-4-6-1-3v-7l4-8 5-4z" fill="#EB9853"/>
<path transform="translate(613,720)" d="m0 0h2l2 3v27h-2l1 6-2-2-9-21 5-9z" fill="#E26C5B"/>
<path transform="translate(1258,272)" d="m0 0 4 2-1 16-3 9-3-1v-3l-6-3v-2l-3-1 2-5 9-11z" fill="#FBED40"/>
<path transform="translate(1030,658)" d="m0 0h5l1 1 1 16 1 3-7-2-2-2-11-1 7-14z" fill="#E68555"/>
<path transform="translate(634,217)" d="m0 0h6l-6 7-20 20h-2l-2-3 1-4 11-12h2l2-4z" fill="#5A3A82"/>
<path transform="translate(481,913)" d="m0 0 4 2 9 9 14 8 8 3h15l8-3 2 3v5l-1 1h-12l-19-5-14-7-10-9z" fill="#3F6BF8"/>
<path transform="translate(1068,520)" d="m0 0h6l-1 4-7 2-4 5-1 6 3 8 5 3h12v4l-2 1h-11l-6-4-4-5-1-2v-11l4-6 5-4z" fill="#EB9953"/>
<path transform="translate(348,721)" d="m0 0 4 2 7 8h2l1 6-9 2h-12l3-9z" fill="#4B3683"/>
<path transform="translate(1058,909)" d="m0 0h6l3 12v6l-2 1h-12l-1-5 3-8z" fill="#2C266A"/>
<path transform="translate(526,650)" d="m0 0 6 1-1 4-10 7-11 7-1 2-6-2-2-3z" fill="#E57859"/>
<path transform="translate(1095,848)" d="m0 0h2l-2 4-11 17-1 2-3-1-5-13 10-5z" fill="#483381"/>
<path transform="translate(490,894)" d="m0 0 3 1 2 6v7l-3 2h-8l-6-7-1-5z" fill="#E07E5A"/>
<path transform="translate(474,664)" d="m0 0 6 5 4 5-7 1-1 6v2h-16l2-4 11-13z" fill="#804995"/>
<path transform="translate(1342,549)" d="m0 0h3l-2 5-14 17-11 14-11 13-5 5-4 2 2-4 12-14 8-10 13-16 7-9z" fill="#F2E1F9"/>
<path transform="translate(1041,727)" d="m0 0 9 3 7 2 11 1v1l-8 1v6l-2 2-5-1-12-6-1-3-4-1 4-1z" fill="#E58156"/>
<path transform="translate(997,686)" d="m0 0 9 1 3 3 6 2v6l-22-1-2-7 5-2z" fill="#3F68F8"/>
<path transform="translate(330,438)" d="m0 0 3 1 14 41 5 14v2h-2l-1 2-19-56z" fill="#EFDBF8"/>
<path transform="translate(1277,697)" d="m0 0h4l-1 3-13 4-10 2h-30l-9-2-2-5 11 3 9 1h11l16-2z" fill="#E8EBFC"/>
<path transform="translate(1124,714)" d="m0 0h2l-1 8-3 16-1 10v27h-2l-1 2-1-14v-10l2-21 4-16z" fill="#CFDDFC"/>
<path transform="translate(1276,569)" d="m0 0 3 1-3 25v21l1 9-3 1-2-10v-22l3-23z" fill="#F0E8FB"/>
<path transform="translate(522,614)" d="m0 0 4 2 1 4v19l-4 2-2-1-2-12 1-12z" fill="#E0C2FB"/>
<path transform="translate(1212,631)" d="m0 0h3l-1 9-2 13v34l-3 1-1-6v-28l3-19z" fill="#F2EFFC"/>
<path transform="translate(394,486)" d="m0 0h3l-1 12-6 23-4 12h-3l-1-2 6-18z" fill="#F1E0F8"/>
<path transform="translate(643,785)" d="m0 0 1 2 1 32h-2l-7-16 1-6z" fill="#E57958"/>
<path transform="translate(444,709)" d="m0 0h28l5 9h-6l-6-2-21-5z" fill="#D85B63"/>
<path transform="translate(501,844)" d="m0 0 1 4-7 16v6l-1 2h-2l-2-12v-10l5-2z" fill="#EDA155"/>
<path transform="translate(273,709)" d="m0 0h65v1l-51 1-1 6-7 2-6-9z" fill="#6F438B"/>
<path transform="translate(338,672)" d="m0 0 5 3 6 4v2l4 2h-26l6-7z" fill="#D95B62"/>
<path transform="translate(530,312)" d="m0 0 5 2 6 7-1 5-4 3-3-1-7-9 1-4z" fill="#F3C84B"/>
<path transform="translate(307,815)" d="m0 0 3 3 8 18v2l-5-2-11-10 4-10z" fill="#E1C4FC"/>
<path transform="translate(1017,889)" d="m0 0h2l4 6 1 4-1 8 8 2v4l-2 1h-6l-4-2-2-16z" fill="#FAE841"/>
<path transform="translate(425,788)" d="m0 0 4 5 4 9 2 8h-9v5h-1l-1-14z" fill="#633883"/>
<path transform="translate(438,898)" d="m0 0h16l23 1 1 3h-13l-11 1-14-1-2-1z" fill="#FCFCFC"/>
<path transform="translate(410,783)" d="m0 0h11l4 4v14l-5-5-5-6v-2l-3-1z" fill="#D95D66"/>
<path transform="translate(304,610)" d="m0 0 3 1 3 20v16l-1 8-2 1-1-27-2-13z" fill="#F3E8FB"/>
<path transform="translate(576,904)" d="m0 0 2 1-3 9-2 4h-21v-2l12-1v-2l9-6h3z" fill="#FBEE40"/>
<path transform="translate(1062,492)" d="m0 0h2v6l2 3 92 1v1h-94l-3-4v-6z" fill="#ED9E56"/>
<path transform="translate(335,666)" d="m0 0 5 5-1 2-8 6-4 4h-8l2-4 8-6z" fill="#6A3C86"/>
<path transform="translate(354,709)" d="m0 0h7l-1 16h-3l-6-7 1-5z" fill="#5D418C"/>
<path transform="translate(537,661)" d="m0 0h1v9l-6 3h-14l3-2h2v-2l11-7z" fill="#EA9552"/>
<path transform="translate(903,755)" d="m0 0 6 1 2 3-1 6-3 2-6-1-2-3 1-6z" fill="#CC8DE8"/>
<path transform="translate(385,817)" d="m0 0 9 1 22 3 9 1v3l-18-1-20-4-2-1z" fill="#D4E0FC"/>
<path transform="translate(445,503)" d="m0 0 25 5h9v3l-1 1-1 7-2-3-1-4-10-1-5-1-13-3z" fill="#F5EBFD"/>
<path transform="translate(1288,822)" d="m0 0h4l-1 3-34 12-1-2-2-1 22-7z" fill="#F0DDF9"/>
<path transform="translate(492,660)" d="m0 0 8 6 12 6 3 2h-18l-5-12z" fill="#814A95"/>
<path transform="translate(497,554)" d="m0 0 9 3-2 6-5 6-3 1v-13z" fill="#E68455"/>
<path transform="translate(634,217)" d="m0 0h6l-6 7-9 9h-1v-6l2-6z" fill="#6E428A"/>
<path transform="translate(1191,784)" d="m0 0h3l-1 3-17 4-17 1-4-3 15-1z" fill="#D5DFFC"/>
<path transform="translate(350,496)" d="m0 0 3 1 9 24v3h-2l-1 2-9-25z" fill="#F1E0F9"/>
<path transform="translate(485,896)" d="m0 0h3v13h-5l-5-6-1-5z" fill="#EC9E58"/>
<path transform="translate(1187,823)" d="m0 0 3 1-9 10-9 14-3 4-2-1 2-5 7-11 9-10z" fill="#F8F1FC"/>
<path transform="translate(473,783)" d="m0 0h13v4l-6 5-4 1z" fill="#E26C5B"/>
<path transform="translate(697,125)" d="m0 0h1l2 18-2-1v-2l-4-1-4-4 1-4z" fill="#F4C946"/>
<path transform="translate(1102,845)" d="m0 0 2 1-8 9-9 15-2 2-3 1 2-6 10-15 4-5z" fill="#EBE9FC"/>
<path transform="translate(481,913)" d="m0 0 4 2 9 9 14 8 2 1-1 3-14-7-10-9z" fill="#59AEFB"/>
<path transform="translate(403,709)" d="m0 0h40l-4 2-8 1h-15l-13-2z" fill="#4175F9"/>
<path transform="translate(636,409)" d="m0 0 3 3-3 10-3 5h-2l-2 6h-2l-1 2-1-2 10-21z" fill="#F5EBFD"/>
<path transform="translate(714,154)" d="m0 0h10l4 2-7 7-4-1-4-5z" fill="#F5CE46"/>
<path transform="translate(618,792)" d="m0 0 4 2 2 5-1 6-3 6-2-1v-8l-1-1v-8z" fill="#E57759"/>
<path transform="translate(1096,891)" d="m0 0 6 2 12 6 9 4v2l-9-2-16-8-4-3z" fill="#E4E7FB"/>
<path transform="translate(1327,622)" d="m0 0h2v3l-11 4-9 2h-5l-3-3 20-4z" fill="#E2DFFB"/>
<path transform="translate(302,733)" d="m0 0 10 2 17 4v2h-9l-15-4-4-2z" fill="#E6E7FC"/>
<path transform="translate(410,677)" d="m0 0h4l2 4 3 2-25 1 1-2z" fill="#4C6DF3"/>
<path transform="translate(1301,602)" d="m0 0 1 2-9 11-6 7-4 2-3 2 2-4 9-10 6-7z" fill="#EEE6FA"/>
<path transform="translate(1036,530)" d="m0 0 3 1v11l-4 6-3 2-2-1 4-8 1-10z" fill="#F0B74C"/>
<path transform="translate(518,186)" d="m0 0h18l12 3-3 2h-8l-19-4z" fill="#E1C4FD"/>
<path transform="translate(1119,745)" d="m0 0h1l1 30h-2l-1 2-1-14v-10l1-7z" fill="#D8E8FC"/>
<path transform="translate(255,662)" d="m0 0 8 1 20 4-3 3-10-1-15-5z" fill="#DDDAFA"/>
<path transform="translate(1045,882)" d="m0 0h10v5l-10 2h-4l2-6z" fill="#EEF0FC"/>
<path transform="translate(1245,810)" d="m0 0h3l-2 4-11 14-3 3-3 1 2-4 8-11z" fill="#F5EAFC"/>
<path transform="translate(472,709)" d="m0 0h31l-1 2h-18l-4 4h-3l-1 2-4-6z" fill="#74448C"/>
<path transform="translate(272,709)" d="m0 0 4 4 9 14-1 4-2 2-10-22z" fill="#DAD8FB"/>
<path transform="translate(1276,569)" d="m0 0 3 1-3 25-3-3v-8l2-13z" fill="#EDDFF9"/>
<path transform="translate(1119,520)" d="m0 0h7v3l-9 4-5 5v-3l-2-1 5-6z" fill="#F1BA4B"/>
<path transform="translate(1239,853)" d="m0 0 5 1 14 4v3l-9-1-12-5z" fill="#EAE2FB"/>
<path transform="translate(388,513)" d="m0 0 1 2h2l-2 9-3 9h-3l-1-2z" fill="#EFDAF7"/>
<path transform="translate(1068,520)" d="m0 0h6l-1 4-7 2-5 5-2-4 7-6z" fill="#F1BA4B"/>
<path transform="translate(358,737)" d="m0 0h4v3l-10 2h-12v-2z" fill="#E8E9FC"/>
<path transform="translate(438,859)" d="m0 0 13 6v2h-10l-3-1z" fill="#E5C4FA"/>
<path transform="translate(354,709)" d="m0 0h7l-1 8-2 3-5-6z" fill="#D95B63"/>
<path transform="translate(857,463)" d="m0 0h8v3l-5 1h-13v-3z" fill="#F9F3FC"/>
<path transform="translate(921,457)" d="m0 0h7l-1 3-13 2h-4v-3l2-1z" fill="#F9F3FC"/>
<path transform="translate(586,208)" d="m0 0 1 2 4 2 11 10h-3l-16-11z" fill="#F2DBFB"/>
<path transform="translate(992,689)" d="m0 0h8l8 2v1l-9 2h-7l-1-4z" fill="#427DF9"/>
<path transform="translate(304,610)" d="m0 0 3 1 2 11v6l-3 1-2-13z" fill="#ECDFFA"/>
<path transform="translate(740,493)" d="m0 0h3v3l-14 7-3-1 4-4z" fill="#FAF5FC"/>
<path transform="translate(826,467)" d="m0 0h7v3l-12 2h-5v-3z" fill="#FAF5FC"/>
<path transform="translate(806,341)" d="m0 0h6v4l-5 1h-8l1-4z" fill="#E8F5FC"/>
<path transform="translate(590,237)" d="m0 0 8 1 4 3 1 5-2 1-11-9z" fill="#EEE2FC"/>
<path transform="translate(505,873)" d="m0 0 7 2-5 10h-2l-1-9z" fill="#E68555"/>
<path transform="translate(955,452)" d="m0 0h4l-1 3-9 2h-8l1-3z" fill="#FAF5FC"/>
<path transform="translate(985,444)" d="m0 0h4l-1 3-13 4-4-1 3-3z" fill="#FAF6FD"/>
<path transform="translate(650,862)" d="m0 0h2l3 9h-10z" fill="#EDCAF8"/>
<path transform="translate(665,549)" d="m0 0 3 1-6 8-5 6h-2l1-4z" fill="#FAF7FD"/>
<path transform="translate(425,496)" d="m0 0 6 1 7 3v2h-2l-1 2-4 1z" fill="#F2E1FB"/>
<path transform="translate(1216,699)" d="m0 0 11 3 9 1-4 1v2l-10-1-5-2z" fill="#DFDFFB"/>
<path transform="translate(1017,520)" d="m0 0h6v3l-9 4h-4l2-4z" fill="#F0B54C"/>
<path transform="translate(350,718)" d="m0 0h2l7 8 1 1v5l-7-6-4-6z" fill="#F7EFFC"/>
<path transform="translate(688,527)" d="m0 0h2v3l-8 7-3 3h-3l2-4 8-8z" fill="#FBF7FD"/>
<path transform="translate(713,508)" d="m0 0h2l-1 4-12 8h-2v-3z" fill="#FBF7FD"/>
<path transform="translate(1022,362)" d="m0 0 6 2 10 6v2l-5-1-11-6z" fill="#FBF8FD"/>
<path transform="translate(1258,324)" d="m0 0 2 1-1 13h-4l1-12z" fill="#FCFBFC"/>
<path transform="translate(1022,664)" d="m0 0 4 3v3l3-1v4h-11z" fill="#E4725A"/>
<path transform="translate(497,554)" d="m0 0 3 1-1 11 2 1-5 3v-13z" fill="#E99252"/>
<path transform="translate(1015,432)" d="m0 0h3l-1 3-12 6-4-1 1-2z" fill="#FBF8FD"/>
<path transform="translate(1059,734)" d="m0 0 5 1v9l-3 1-3-1 1-9z" fill="#E99252"/>
<path transform="translate(798,473)" d="m0 0h4v2l-12 4h-5v-3z" fill="#FBF8FC"/>
<path transform="translate(1040,411)" d="m0 0h2l-1 4-6 7-4 3h-2v-3l6-5z" fill="#FBF7FC"/>
<path transform="translate(1023,908)" d="m0 0 8 1v4l-2 1h-6l-2-3z" fill="#EA9A5F"/>
<path transform="translate(1251,835)" d="m0 0h5v2l-14 5-4-1 5-3z" fill="#F8F0FB"/>
<path transform="translate(1027,717)" d="m0 0h2l1 9-3 3-3-6 1-2-3-1 2-2z" fill="#E68256"/>
<path transform="translate(647,633)" d="m0 0h2l-2 5-4 3h-5l1-4z" fill="#4380FA"/>
<path transform="translate(769,481)" d="m0 0h3v3l-14 5h-3v-2l9-4z" fill="#FBF8FC"/>
<path transform="translate(1046,382)" d="m0 0h2l2 6v10l-1 2h-2z" fill="#FBF9FD"/>
<path transform="translate(1311,590)" d="m0 0 1 2-9 11-5 2 2-4 7-8z" fill="#F3E3F9"/>
<path transform="translate(1191,784)" d="m0 0h3l-1 3-14 3v-2l-4-1z" fill="#DBDDF8"/>
<path transform="translate(720,716)" d="m0 0h3l-1 5-4 6-4-1 5-9z" fill="#FBF9FC"/>
<path transform="translate(1272,609)" d="m0 0 1 3h2l2 13-3 1-2-10z" fill="#E3DEFA"/>
<path transform="translate(887,461)" d="m0 0h9l-1 3h-17v-2z" fill="#FBF9FC"/>
<path transform="translate(1176,837)" d="m0 0 1 3-6 10-2 2-2-1 2-5 5-8z" fill="#F6EDFC"/>
<path transform="translate(333,727)" d="m0 0 1 3-4 9-7-1 5-5 3-1z" fill="#533784"/>
<path transform="translate(1210,660)" d="m0 0h1l1 27-3 1-1-10h1z" fill="#D4CCF9"/>
<path transform="translate(1189,880)" d="m0 0 10 2 5 2-1 2-11-2-3-1z" fill="#F4E7FB"/>
<path transform="translate(384,531)" d="m0 0 1 4-5 10-3-1 2-6 4-6z" fill="#F4E6FA"/>
<path transform="translate(1288,822)" d="m0 0h4l-1 3-12 4v-2l-2-1z" fill="#EAE0FA"/>
<path transform="translate(1124,714)" d="m0 0h2l-1 8-2 7h-2l1-10z" fill="#E6E9FC"/>
<path transform="translate(1212,631)" d="m0 0h3l-1 9-1 6-3-2 1-9z" fill="#DBE1FC"/>
<path transform="translate(998,223)" d="m0 0h8l4 1v3h-8l-4-1z" fill="#FCFAFC"/>
<path transform="translate(1127,789)" d="m0 0h16l-4 1v2h-11z" fill="#D0D5F5"/>
<path transform="translate(1058,909)" d="m0 0h6l-1 6h-6z" fill="#E88C60"/>
<path transform="translate(502,711)" d="m0 0 3 3-1 12-3 1z" fill="#D9DCFB"/>
<path transform="translate(1096,891)" d="m0 0 6 2 5 3v3l-6-2-7-4z" fill="#DCE5FC"/>
<path transform="translate(255,662)" d="m0 0 8 1 5 2 1 2-9-1-5-2z" fill="#EFE6FB"/>
<path transform="translate(394,486)" d="m0 0h3l-1 12-2-2-2 3 1-9z" fill="#EDD5F7"/>
<path transform="translate(330,438)" d="m0 0 3 1 3 10h-2l-1 2-3-9z" fill="#EDD4F7"/>
<path transform="translate(883,813)" d="m0 0h2l2 7v6h-3z" fill="#EFCEF8"/>
<path transform="translate(1074,715)" d="m0 0 2 1 1 3 2 2h-2l-1 7-2 2z" fill="#E57659"/>
<path transform="translate(1331,565)" d="m0 0 1 3-7 8h-3l2-4 5-6z" fill="#F3E3F9"/>
<path transform="translate(1051,820)" d="m0 0 2 4v13l-3-1z" fill="#E0645D"/>
<path transform="translate(1041,727)" d="m0 0 4 2-1 6h-4v-2l-4-1 4-1z" fill="#E2745B"/>
<path transform="translate(896,708)" d="m0 0h7v3l-12 1 1-3z" fill="#EFCFF9"/>
<path transform="translate(817,922)" d="m0 0 3 1-1 2-7 2h-5l1-3z" fill="#EECCF8"/>
<path transform="translate(914,811)" d="m0 0 2 1v2l-2 1h-10l1-3z" fill="#EFCFF8"/>
<path transform="translate(1327,622)" d="m0 0h2v3l-7 3h-3v-2l-2-1z" fill="#E4E0FB"/>
<path transform="translate(864,892)" d="m0 0h2l-1 4-6 6h-2l2-5z" fill="#EECAF8"/>
<path transform="translate(385,817)" d="m0 0 9 1 5 1-2 2h-7l-5-2z" fill="#E1E5FC"/>
<path transform="translate(1078,548)" d="m0 0 4 1-1 3-2 1h-8v-1h5v-2h-5v-1z" fill="#EFA655"/>
<path transform="translate(779,925)" d="m0 0h9l4 1v2h-10l-3-1z" fill="#EECBF8"/>
<path transform="translate(937,801)" d="m0 0h2l-2 4-6 4-3-1 4-4z" fill="#EFCEF8"/>
<path transform="translate(852,758)" d="m0 0h2l1 12h-3l-1-11z" fill="#EFCEF8"/>
<path transform="translate(876,716)" d="m0 0h3l-1 3-7 5h-2l1-4z" fill="#EECDF8"/>
<path transform="translate(1277,697)" d="m0 0h4l-1 3-6 2h-5l2-3z" fill="#F4E8FB"/>
<path transform="translate(503,563)" d="m0 0 3 4v2l6 2 1 3-4-1-8-6z" fill="#E6CDF9"/>
<path transform="translate(842,911)" d="m0 0h3l-2 4-6 3h-3v-2z" fill="#EECBF8"/>
<path transform="translate(1168,850)" d="m0 0 1 4-2 7h-3l-1-2 3-8z" fill="#F1E1FA"/>
<path transform="translate(1135,544)" d="m0 0 3 1-1 4-5 2-2-3z" fill="#F0B44D"/>
<path transform="translate(1102,845)" d="m0 0 2 1-7 8-4 1 2-4 5-5z" fill="#E5E8FC"/>
<path transform="translate(859,734)" d="m0 0h2l-1 5-3 6h-2l1-6z" fill="#EECCF8"/>
<path transform="translate(1121,549)" d="m0 0h10l1 3-2 1h-10v-1h7v-2h-6z" fill="#EFA655"/>
<path transform="translate(350,496)" d="m0 0 3 1 2 5v3l-3 1-2-5z" fill="#F2E1F9"/>
<path transform="translate(999,356)" d="m0 0 9 1 1 3h-7l-3-1z" fill="#FAF5FC"/>
<path transform="translate(648,856)" d="m0 0 2 1 1 5-3 3-2-1 1-7z" fill="#E68655"/>
<path transform="translate(1276,827)" d="m0 0h3v2l-7 3h-5l2-3z" fill="#F6EDFB"/>
<path transform="translate(1326,644)" d="m0 0 2 1-2 6-4 6h-2l2-5z" fill="#EAC4F6"/>
<path transform="translate(1275,582)" d="m0 0h1v13l-3-3v-8z" fill="#E2E0FB"/>
<path transform="translate(1009,526)" d="m0 0 3 2-2 13h-1l-1-9-1-3z" fill="#EFA754"/>
<path transform="translate(360,524)" d="m0 0h3l2 5v3h-2l-1 2-2-6z" fill="#F2E0F9"/>
<path transform="translate(388,513)" d="m0 0 1 2h2l-2 9-3-1z" fill="#EED8F7"/>
<path transform="translate(353,505)" d="m0 0h3l2 5v3h-2l-1 2-2-6z" fill="#EFDAF7"/>
<path transform="translate(510,934)" d="m0 0 10 2 3 2-4 1-9-3z" fill="#468EFA"/>
<path transform="translate(241,591)" d="m0 0 3 1 4 5v2l-3 1-5-8z" fill="#EED9F7"/>
<path transform="translate(1062,492)" d="m0 0h2v6l3 5-4-1-2-3v-6z" fill="#EFA555"/>
<path transform="translate(347,488)" d="m0 0h3l2 8h-2l-1 2-2-6z" fill="#EED8F7"/>
<path transform="translate(414,822)" d="m0 0h11v3l-11-1z" fill="#DBECFC"/>
<path transform="translate(1290,615)" d="m0 0 1 2-5 5-6 4 2-4z" fill="#F0EAFB"/>
<path transform="translate(1342,549)" d="m0 0h3l-2 5-4 4-2-1 2-4z" fill="#F0DCF8"/>
<path transform="translate(1029,547)" d="m0 0 1 2h2v2l-6 2v-2l-6-1v-1z" fill="#EFA556"/>
<path transform="translate(610,232)" d="m0 0h6l-6 7h-1v-6z" fill="#C3BBFB"/>
<path transform="translate(952,782)" d="m0 0h2l-2 6-3 4h-2l2-5z" fill="#EECAF8"/>
<path transform="translate(302,733)" d="m0 0 10 2-4 3-7-3z" fill="#D5DFFB"/>
<path transform="translate(1036,530)" d="m0 0 3 1v7l-1-3h-2v5h-1v-9z" fill="#F4CC46"/>
<path transform="translate(757,919)" d="m0 0 6 1 2 2-3 1-5-3z" fill="#EECEF8"/>
</svg>
