<?xml version="1.0" encoding="UTF-8"?>
<svg version="1.1" viewBox="0 0 2048 1870" width="7396" height="6756" xmlns="http://www.w3.org/2000/svg">
<path transform="translate(877,322)" d="m0 0h7l9 3 10 7 5 6v2h2l5 9 2 7v16l-4 8-6 5-4 2-13 1-17 9-16 9-5 3 3 9 6 5h14l15 6 12 7 10 8 7 6 9 12 8 15 5 15 2 14v13l-2 12-5 13-8 12-12 12-10 7-16 10-14 8-19 10-20 8-12 5-6 4-5 4-7 11-8 22-8 33-14 63-7 28-9 30-7 19-6 8-6 5-4 84-3 46-2 44-1 18-3 98-1 48-6 3-15 2h-5l-9-14-12-25-8-24-4-17-4-26-2-23v-26l1-9v-26l-3-19-4-15-10-29-3 4-10 19-14 31-13 34-11 34-9 36-6 31-5 35-1 13-2 3-6 2-3 15 9 1 10 2 10 1 5-1 93-1 27 1h20l4 1 53 1v-124l2-5 1-1 53-1 5-1 44-1v-5l-3-2v-2l-4-2-11-10-15-10-13-8-19-13-13-10-8-7-7-7-11-14-8-11-7-12-6-15-3-7-2-9v-39l3-9 2-8 4-10 8-13 10-13 9-14 6-14 4-9 3-12 2-6 4-15 3-17 2-7 1-12 1-1 4-21 5-21 3-8 2-8 4-12 7-15 7-11h2l2-4 7-8 20-14 14-7 10-3 9-4 9-1 2-1h23l16 4 13 7 12 9 9 11 7 10 5 9 2 7 3 2 3-10 4-14 3-13 4-10 3-10 4-10 3-10 4-8 3-10 7-14 4-7 4-10 8-14 6-11 10-15 10-13 1-2h2v-2h2l2-4 7-8 3-3h2l1-3h2v-2l15-11 16-8 13-5 1-1 13-2h40l2 1 14 1 21 7 18 9v2l5 2 7 5v2h2v2l4 2 5 5v2h2l8 13 4 8 3 7 3 14 1 1 2 20v22l-2 16-1 1-1 11-3 8-4 14-8 16-5 12-3 11v15l3 10 5 8 7 9 8 10 5 7 12 24 2 7 1 13 1 1v33l-1 2-1 11-3 8-4 13-6 13-6 14-8 16-9 17-7 11-8 13-6 11-7 11-8 12-4 8 1 3h11l3-1 45-1 5-1 21-1 2-2v-102l1-48 3-8 2 2 1 7 1 150 2 1h18l4-1 75-4 26 1 24 3 3 1 39 1 3 1 12 1 3 1 49 1 8 2 13 2 44 1 10 2 4 3 1 137v48l1 87v62l-1 19v189l1 99v50l-3 8-17 1-5 1-23 1-8 1-33 1-4 1-32 2-33 2-4 1-34 1-2 1-26 1-2 1h-23l-3-1-63-1-9 1-5 6-6 2-20 1-5 1-40 3-22 1-5 1-28 1-6 1-31 1-3 1-23 1-20 2-25 1-3 1h-82l-5-1-47-1-2 9-2 2-26 1-4 1-27 1-2 1-30 1-14 2-18 1-4 1-32 1-4 1-24 1-4 1-22 1-24 2-24 1-4 1-32 1-3 1h-54l-5-1-39-1-3-1-32-1-22-2-31-1-4-1-42-1-5-1-42-1-4-1-30-1-7-3-2-9v-36l1-29v-409l2-4 5-1 15-1h79l7-1 57-1 5-1 1-16-7-1-6-18-6-26-2-12-2-16v-32l4-25 7-24 8-24 5-21 3-24v-48l-2-27v-15l-15-3-9-4-9-6-9-10-5-11-2-4-1-20 1-9 6-14 11-14 11-11 18-22 7-14h-34l-23-4-17-5-19-9-14-11-9-12-3-7-1-5v-17l3-12 8-16 12-17 13-15 14-14 11-9 15-10 16-9 15-7 15-6 24-8 28-6 36-6 3-1 33-3 13-4 10-8 3-4v-7l-4-6-7-9-1-3v-11l3-7 4-4 16-3 6-4 4-8 1-6 3-2 5 1v2h2l3 6 1 6v10l-4 10-3 4v2l3 1 2 6-1 11-4 6-8 4-6 1v-5l2-3-4 4-2 3 5 3 3 10 3 2 14 1 55 2h25l17-3 19-5 14-7 6-7 2-6v-12l-4-11-7-11-11-12-7-8-3-5-9-7-1-4-10 4-49 28-19 11-6 5-5-3-2-3 1-5 5-3 7-6 7-8 4-5 8-7 10-10 7-8 29-29 7-8 22-22 6-16 5-5 4-3zm-145 158-4 2-1 4 7-1-1-5zm-142 130-20 7-12 7-13 10-9 9-6 12v11l3 8 9 10 14 9 10 4 4-1 12-36 9-31 3-12v-6z" fill="#FC8694"/>
<path transform="translate(1189,410)" d="m0 0h40l2 1 14 1 21 7 18 9v2l5 2 7 5v2h2v2l4 2 5 5v2h2l8 13 4 8 3 7 3 14 1 1 2 20v22l-2 16-1 1-1 11-3 8-4 14-8 16-5 12-3 11v15l3 10 5 8 7 9 8 10 5 7 12 24 2 7 1 13 1 1v33l-1 2-1 11-3 8-4 13-6 13-6 14-8 16-9 17-7 11-8 13-6 11-7 11-8 12-4 8 1 3h11l3-1 45-1 5-1 21-1 2-2v-102l1-48 3-8 2 2 1 7 1 150 2 1h18l4-1 75-4 26 1 24 3 3 1 39 1 3 1 12 1 3 1 49 1 8 2 13 2 44 1 10 2 4 3 1 137v48l1 87v62l-1 19v189l1 99v50l-3 8-17 1-5 1-23 1-8 1-33 1-4 1-32 2-33 2-4 1-34 1-2 1-26 1-2 1h-23l-6-2-48-1-22-1v-575l-46-2-187-10-36-2-4-1v616h-48l-5-1-40-1-11-1v-466h-16l-171-5-19-1-1-30v-95l2-5 1-1 53-1 5-1 44-1v-5l-3-2v-2l-4-2-11-10-15-10-13-8-19-13-13-10-8-7-7-7-11-14-8-11-7-12-6-15-3-7-2-9v-39l3-9 2-8 4-10 8-13 10-13 9-14 6-14 4-9 3-12 2-6 4-15 3-17 2-7 1-12 1-1 4-21 5-21 3-8 2-8 4-12 7-15 7-11h2l2-4 7-8 20-14 14-7 10-3 9-4 9-1 2-1h23l16 4 13 7 12 9 9 11 7 10 5 9 2 7 3 2 3-10 4-14 3-13 4-10 3-10 4-10 3-10 4-8 3-10 7-14 4-7 4-10 8-14 6-11 10-15 10-13 1-2h2v-2h2l2-4 7-8 3-3h2l1-3h2v-2l15-11 16-8 13-5 1-1z" fill="#D587E1"/>
<path transform="translate(877,322)" d="m0 0h7l9 3 10 7 5 6v2h2l5 9 2 7v16l-4 8-6 5-4 2-13 1-17 9-16 9-5 3 3 9 6 5h14l15 6 12 7 10 8 7 6 9 12 8 15 5 15 2 14v13l-2 12-5 13-8 12-12 12-10 7-16 10-14 8-19 10-20 8-12 5-6 4-5 4-7 11-8 22-8 33-14 63-7 28-9 30-7 19-6 8-6 5-4 84-3 46-2 44-1 18-3 98-1 48-6 3-15 2h-5l-9-14-12-25-8-24-4-17-4-26-2-23v-26l1-9v-26l-3-19-4-15-10-29-3 4-10 19-14 31-13 34-11 34-9 36-6 31-5 35-1 13-2 3-6 2-3 15 9 1 2 1v2h7l3 1h10l5-1h81v506h-31l-46-1-3-1-32-1-22-2-31-1-4-1-42-1-5-1-42-1-4-1-30-1-7-3-2-9v-36l1-29v-409l2-4 5-1 15-1h79l7-1 57-1 5-1 1-16-7-1-6-18-6-26-2-12-2-16v-32l4-25 7-24 8-24 5-21 3-24v-48l-2-27v-15l-15-3-9-4-9-6-9-10-5-11-2-4-1-20 1-9 6-14 11-14 11-11 18-22 7-14h-34l-23-4-17-5-19-9-14-11-9-12-3-7-1-5v-17l3-12 8-16 12-17 13-15 14-14 11-9 15-10 16-9 15-7 15-6 24-8 28-6 36-6 3-1 33-3 13-4 10-8 3-4v-7l-4-6-7-9-1-3v-11l3-7 4-4 16-3 6-4 4-8 1-6 3-2 5 1v2h2l3 6 1 6v10l-4 10-3 4v2l3 1 2 6-1 11-4 6-8 4-6 1v-5l2-3-4 4-2 3 5 3 3 10 3 2 14 1 55 2h25l17-3 19-5 14-7 6-7 2-6v-12l-4-11-7-11-11-12-7-8-3-5-9-7-1-4-10 4-49 28-19 11-6 5-5-3-2-3 1-5 5-3 7-6 7-8 4-5 8-7 10-10 7-8 29-29 7-8 22-22 6-16 5-5 4-3zm-145 158-4 2-1 4 7-1-1-5zm-142 130-20 7-12 7-13 10-9 9-6 12v11l3 8 9 10 14 9 10 4 4-1 12-36 9-31 3-12v-6z" fill="#863774"/>
<path transform="translate(1462,915)" d="m0 0 28 1 24 3 3 1 39 1 3 1 12 1 3 1 49 1 8 2 13 2 44 1 10 2 4 3 1 137v48l1 87v62l-1 19v189l1 99v50l-3 8-17 1-5 1-23 1-8 1-33 1-4 1-32 2-33 2-4 1-34 1-2 1-26 1-2 1h-23l-3-2 16 1v-731l-36 2h-27v-1z" fill="#FC8694"/>
<path transform="translate(877,322)" d="m0 0h7l9 3 10 7 5 6v2h2l5 9 2 7v16l-4 8-6 5-4 2-13 1-17 9-16 9-5 3 3 9 6 5h14l15 6 12 7 10 8 7 6 9 12 8 15 5 15 2 14v13l-2 12-5 13-8 12-12 12-10 7-16 10-14 8-19 10-20 8-12 5-6 4-5 4-7 11-8 22-8 33-14 63-7 28-9 30-7 19-6 8-6 5-10 3-8 1h-35l-26 2-24 4-26 7-12 2-13 1-36 1-15-4-7-3-9-6-9-10-5-11-2-4-1-20 1-9 6-14 11-14 11-11 18-22 7-14h-34l-23-4-17-5-19-9-14-11-9-12-3-7-1-5v-17l3-12 8-16 12-17 13-15 14-14 11-9 15-10 16-9 15-7 15-6 24-8 28-6 36-6 3-1 33-3 13-4 10-8 3-4v-7l-4-6-7-9-1-3v-11l3-7 4-4 16-3 6-4 4-8 1-6 3-2 5 1v2h2l3 6 1 6v10l-4 10-3 4v2l3 1 2 6-1 11-4 6-8 4-6 1v-5l2-3-4 4-2 3 5 3 3 10 3 2 14 1 55 2h25l17-3 19-5 14-7 6-7 2-6v-12l-4-11-7-11-11-12-7-8-3-5-9-7-1-4-10 4-49 28-19 11-6 5-5-3-2-3 1-5 5-3 7-6 7-8 4-5 8-7 10-10 7-8 29-29 7-8 22-22 6-16 5-5 4-3zm-145 158-4 2-1 4 7-1-1-5zm-142 130-20 7-12 7-13 10-9 9-6 12v11l3 8 9 10 14 9 10 4 4-1 12-36 9-31 3-12v-6z" fill="#FC8694"/>
<path transform="translate(1360,139)" d="m0 0 4 1 1 2v21l2 3 6-1 14-4 7-3 16-5 8-2 15-1 4-1 16-1 3-1h12l3 1 12 1 3 1 15 1 16 5 16 6 16 8 11 6 15 8 20 8 6 3 11 2 17 1 9-1 14-5 11-5 15-4h14l10 6v2l4 2 1 3h2l7 13 2 7v39l-1 2-1 18-2 12v42l2 10 1 12 1 1 1 12 4 14 1 11 1 1 2 12 1 3 1 14 1 2 1 16 1 4v26l-4 8-5 5-11 7-6 3-18 5-15 2h-14l-37-5-12-3-16-3-23-7-19-7-12-5-17-8-18-10-5-3-8-3-15-7-16-6-13-2h-14l-2 1-9 1-19 7-15 9-13 11-5 4h-2l-2 4-2 5v219l-1 38-1 7-2-2-3-16-1-543-2-8v-20l3-5z" fill="#FCB14B"/>
<path transform="translate(1361,760)" d="m0 0 2 2 1 7 1 150 2 1h18l4-1 43-1 17-1h19v731h-12l-7-1-48-1-22-1v-575l-46-2-187-10-1-1v-127l12-1 97-4h15l12 1v-2l3-1 45-1 5-1 21-1 2-2v-102l1-48z" fill="#863774"/>
<path transform="translate(1100,1055)" d="m0 0h6v616h-48l-5-1-40-1-11-1v-466h-16l-171-5-19-1-1-30v-95l2-5 1-1 53-1 5-1 45-1 47-2z" fill="#863774"/>
<path transform="translate(1298,443)" d="m0 0 4 2 4 4 3 1 8 13 4 8 3 7 3 14 1 1 2 20v22l-2 16-1 1-1 11-3 8-4 14-8 16-5 12-3 11v15l3 10 5 8 7 9 8 10 5 7 12 24 2 7 1 13 1 1v33l-1 2-1 11-3 8-4 13-6 13-6 14-8 16-9 17-7 11-8 13-6 11-7 11-8 12-4 8 1 3 11 1v1h-27l-97 4h-12v19l-8 26-3 9-5 1-1-14-2-57v-23l2-35 4-37 7-46 8-43 10-47 9-39 12-22 17-28 36-54 16-23 14-20 16-23 20-30z" fill="#8572E6"/>
<path transform="translate(1360,139)" d="m0 0 4 1 1 2v21l2 3 6-1 14-4 7-3 16-5 8-2 15-1 4-1 16-1 3-1h12l3 1 12 1 3 1 15 1 16 5 12 5 3 3-3 1-6 120-2 39-6 123-1 2 2 1-2 1-11-3-8-4-20-9-14-5-13-2h-14l-2 1-9 1-19 7-15 9-13 11-5 4h-2l-2 4-2 5v219l-1 38-1 7-2-2-3-16-1-543-2-8v-20l3-5z" fill="#F68552"/>
<path transform="translate(812,580)" d="m0 0h6l3 5 11 8 7 8 9 2 1 2h-2v2l-20 8-8 5-5 4-7 11-8 22-8 33-14 63-7 28-9 30-7 19-6 8-6 5-10 3-8 1h-35l-26 2-24 4-26 7-12 2-13 1-36 1-15-4-7-3-9-6-9-10-5-11-2-4-1-20 1-9 6-14 11-14 11-11 18-22 10-19 7-19-2-1 3-1 12-36 9-31 3-9 5 5 7 6 8 6 4 4 9 7 5 6 8 5 12 12 8 6 5 5 9 7 4 4v2l5 2 5 4 6 5 5 6 11 7 4-1 8-13 9-11 8-8 16-14 6-9 4-10v-19l-5-15-5-11-1-8 3-8 5-4 11-4z" fill="#FE787C"/>
<path transform="translate(739,843)" d="m0 0h2v23l-4 76-2 31-2 44-1 18-3 98-1 48-6 3-15 2h-5l-9-14-12-25-8-24-4-17-4-26-2-23v-26l1-9v-26l-3-19-4-15-10-29-3 4-10 19-14 31-13 34-11 34-9 36-6 31-5 35-1 13-2 3-15 3-10 1-3-1-6-18-6-26-2-12-2-16v-32l4-25 7-24 8-24 5-21 3-24v-48l-2-27v-16l34-1 20-2 16-4 25-6 24-3 16-1h35l12-2z" fill="#522354"/>
<path transform="translate(1106,1055)" d="m0 0 213 11 54 3 5 1v68l-1 5-8 3-25 15-8 5-7 3-5 4-6 3h-2v2l-15 8-11 6-10 7-15 8-6 4-8 4-8 5-6 4-11 6-8 5-8 4-4 3-7 4-11 6-8 5-7 4-5 3-9 5-14 9-10 5-8 5-8 4-4 3-3 1-3 9-1 6h-1l-1-38z" fill="#FD8593"/>
<path transform="translate(688,1192)" d="m0 0 30 1h20l4 1 53 1 1-2v3h19l171 5 16 1v33l-2-1v-8l-6 1-9 6-9 5-11 6-14 8-3 3-12 6-9 5-7 5-22 12-9 6-7 4-8 4-3 3-9 4-9 6-8 4-15 9-9 6-8 4-7 4-11 7-13 7-8 5-7 4-17 10-6 3-9 6-10 6-8 4-5 4-16 8-9 6-5-2-1-17v-194l-81 1-5 1h-10l-10-2v-1h8l10 1 5-1z" fill="#FC8694"/>
<path transform="translate(1193,411)" d="m0 0h9l-1 21-5 47-7 50-9 50-9 41-16 69-11 53-8 45-2 13-2 2-6-25-12-36-11-25-13-26-12-20-11-16-10-13-11-12-9-9v-8l2-9 4-10 3-10 4-10 3-10 4-8 3-10 7-14 4-7 4-10 8-14 6-11 10-15 10-13 1-2h2v-2h2l2-4 7-8 3-3h2l1-3h2v-2l15-11 16-8 13-5 1-1z" fill="#8572E7"/>
<path transform="translate(927,584)" d="m0 0h7v9l-4 39-6 36-7 31-6 28-4 26-2 18-1 19v21l2 28 4 26 7 28 9 27 11 26 8 16 7 13-1 2-13-12-20-15-19-12-22-12-27-12-36-12-29-7-15-3v-13l3-9 2-8 4-10 8-13 10-13 9-14 6-14 4-9 3-12 2-6 4-15 3-17 2-7 1-12 1-1 4-21 5-21 3-8 2-8 4-12 7-15 7-11h2l2-4 7-8 20-14 14-7 10-3z" fill="#D587E1"/>
<path transform="translate(1035,621)" d="m0 0 5 3 12 12 11 14 11 15 15 25 14 27 12 29 11 33 6 26v9l-4 35-2 26v58l1 30v22l-20-2-21-5-16-8-8-6-7-7-7-12-5-17-2-18v-12l2-23 4-39 1-18v-73l-2-24-4-28-5-24-7-22v-8h2v-9z" fill="#8472E6"/>
<path transform="translate(1330,683)" d="m0 0 3 4 5 9 3 8 2 3 2 7 1 13 1 1v33l-1 2-1 11-3 8-4 13-6 13-6 14-8 16-9 17-7 11-8 13-6 11-7 11-8 12-4 8 1 3 11 1v1h-27l-100 4-2-2 13-29 13-25 13-22 14-22 12-17 14-19 11-14 9-11 11-13 9-10 7-8 15-16 22-22 8-7 6-5 1-1z" fill="#8573E7"/>
<path transform="translate(1531,162)" d="m0 0 6 2 16 8 12 7 14 7 16 6 6 3-2 2h-3l-1 4-1 18h3l1 2v10l-1 4h-2l-1-5-1 1-1 32h3l1 16-2 3h-4l1 4-1 20 2 1 1 3v7l-3 5-1 3-1 21-2 8 5 1 1 4-2 11-2 2-1-10-1 6v11l-1 19 3 1 1 3v12l-2 3h-2v-8l-1 11-1 21-1 2 3-1 2 4v15l-3 7-2-3v6h2l1 10-3 1-13-4-17-6-12-5-17-8-16-9v-1l8 1-1-3 6-123 4-80 4-77 3-4z" fill="#FA9A54"/>
<path transform="translate(770,894)" d="m0 0 9 1 28 6 26 8 22 8 28 13 21 12 19 13 14 11 10 9 8 7 7 10 10 16 13 18 10 13 9 11 6 8-2 1-87 3-23 1 2-1v-5l-3-2v-2l-4-2-11-10-15-10-13-8-19-13-13-10-8-7-7-7-11-14-8-11-7-12-6-15-3-7-2-9z" fill="#D587E1"/>
<path transform="translate(586,649)" d="m0 0 4 2 10 10 11 9 15 13 13 11 9 8 9 7 5 5 9 8 8 7 13 11 8 7 3 1-3 41-3 9-5 6-7 3h-8l-22-7-15-3h-25l-15 3-18 6-24 10-10 3h-14l-10-5-7-8-5-11-2-4h-2l2-6 8-11 9-10 13-14 10-13 6-10 7-15 5-14-2-1 3-1 12-36 3-10z" fill="#FD8693"/>
<path transform="translate(1654,193)" d="m0 0 2 1-1 5-2 34 1 7-2 12v11l-2 29-1 22-1 9-2 55-1 11-4 89v14h-19l-12-3-16-3-10-3v-12h-2l-1 4v-10l4-1 1-3v-15l-2-3h-2l1-29 1-8 2 3-1 8 3-3v-12l-2-3-2-1 1-21v-9l1-8 2 2 1 8 2-13-1-2-4-1 1-8 1-21 2-7 2-1v-7l-2-3h-1l1-25 4-1 1-2-1-16-3 1 1-33 1-5 2 4v5h2v-14l-2-2-2 1 1-19 1-5h13l15 2 15-1 8-3z" fill="#FAA34B"/>
<path transform="translate(945,1201)" d="m0 0h41l16 1v33l-2-1v-8l-6 1-9 6-9 5-11 6-14 8-3 3-12 6-9 5-7 5-22 12-9 6-7 4-8 4-3 3-9 4-9 6-8 4-15 9-9 6-8 4-7 4-11 7-13 7-8 5-7 4-17 10-6 3-9 6-10 6-8 4-5 4-16 8-9 6-5-2-1-17v-23l9-3 15-9 9-5 22-13 13-8 11-6 14-8 20-12 11-6 13-8 21-12 17-10 29-17 10-6 21-12 10-6 19-11 9-6 3-1 1-3-13-1z" fill="#FD8593"/>
<path transform="translate(1468,917)" d="m0 0h16l1 2-4 2-8-1-3-1v217l14-7 11-7 13-8 10-5 11-7 19-11 8-5 7-4 18-10 5-3 16-10 10-5 9-6 18-10 17-10 16-9 14-9 11-6h4v-65h1l1 133-1 139h-1v-155l-6 2-7 5-10 5-4 3-6 3-6 4-9 5-20 12-8 5-10 5-8 5-6 4-8 4-7 4-13 8-8 5-15 8-9 6-7 4-11 6-6 4-9 5-13 8-8 4-8 5-7 4h-3l-1-3z" fill="#FD8593"/>
<path transform="translate(555,864)" d="m0 0h8l3 1v182l2 2 11-12 8-14 4-15v-15l-5-22-1-8v-11l2-15 6-18 8-17 4-8 2 3 1 108 1 10-13 40-9 36-6 31-5 35-1 13-2 3-15 3-10 1-3-1-6-18-6-26-2-12-2-16v-32l4-25 7-24 8-24 5-21 3-24v-48l-1-14z" fill="#401D47"/>
<path transform="translate(1204,411)" d="m0 0h23l18 1 21 7 18 9v2l5 2 7 5 1 5-11 17-19 28-16 23-14 20-11 16-26 39-12 19-14 24-4 7-1-4 9-40 7-35 9-56 6-52 3-35z" fill="#8673E7"/>
<path transform="translate(739,843)" d="m0 0h2v23l-4 76-2 31-2 44-1 18-3 98-1 48-6 3-17 2 1-2 1-336-18-1v-1h35l12-2z" fill="#883875"/>
<path transform="translate(1360,139)" d="m0 0 4 1 1 2v21l2 3 6-1 14-4 4-1-2 1v2h-2l1 2-1 24v23l-1 4-2 37-1 8v19l-2 36-3 63-1 14-1 31-1 17v8l-1 4 4-1-1 4-6 5h-2l-2 4-2 5v219l-1 38-1 7-2-2-3-16-1-543-2-8v-20l3-5z" fill="#FE797C"/>
<path transform="translate(673,847)" d="m0 0h27l7 1v336l-2 2-4-1-9-15-11-23-2-7 3-2 1-290h-10z" fill="#662C62"/>
<path transform="translate(939,581)" d="m0 0h23l16 4 13 7 12 9 1 4-10 19-10 18-16 29-30 56-15 29-12 23-5 10-1-3 2-26 4-28 7-33 8-36 6-40 4-39z" fill="#D587E1"/>
<path transform="translate(877,322)" d="m0 0h7l9 3 10 7 5 6v2h2l5 9 2 7v16l-4 8-6 5-4 2-13 1-17 9-16 9-4 2-2-3-2-13-1-2h-3v21l-7 6-15 8-21 12-17 10-21 12-6 5-5-3-2-3 1-5 5-3 7-6 7-8 4-5 8-7 10-10 7-8 29-29 7-8 22-22 6-16 5-5 4-3z" fill="#3E2A59"/>
<path transform="translate(663,848)" d="m0 0h20v290l-4 2-4-10-5-18-5-32-2-23v-26l1-9v-26l-3-19-4-15-7-21 1-5 1-81 1-3h-9v-1z" fill="#532456"/>
<path transform="translate(1360,139)" d="m0 0 4 1 1 2v547l-1 38-1 7-2-2-3-16-1-543-2-8v-20l3-5z" fill="#412858"/>
<path transform="translate(591,625)" d="m0 0 1 2 5 2 11 8 7 7 6 4 9 9 8 5 9 10 9 6 9 9 6 4 6 7 11 8 6 7 14 9v6l-1 5h-4l1 7-1 4-5-1-6-6v-2l-4-2-11-9-9-8-8-7-5-5-14-11-11-10-8-7-13-11-11-9v-2l-4-2-5-5-4-1z" fill="#FD8593"/>
<path transform="translate(1197,1060)" d="m0 0 101 5 75 4 5 1v68l-1 5-8 3-25 15-8 5-7 3-5 4-6 3h-2v2l-15 8-11 6-10 7-15 8-6 4-8 4-8 5-6 4-11 6-8 5-8 4-4 3-7 4-11 6-8 5-7 4-5 3-9 5-14 9-10 5-8 5-8 4-4 3-3 1-3 9-1 6h-1v-38l4 1-2 3-1 16 9-4 3-3 10-4 9-6 8-4 11-7 4-3 10-5 5-3 9-5 6-4 8-4 9-6 13-7 5-4 10-5 12-7 1-2 10-4 9-6 8-4 12-8 9-5 7-4 7-3 6-5 10-6 12-6 5-4 10-5 6-4 11-6 2-3 1-14 1-2h-2l1-21v-2l-3 3-14 8-9 6-9 5-19 11-20 12-14 8-19 11-25 15-13 7-9 6-8 4-10 6-9 6-14 7-11 7-20 12-14 8-15 9-9 5h-4v-5l7-1 7-5 12-6 10-6 18-11 19-11 16-9 5-4 10-5 17-10 4-3 10-5 25-15 16-9 13-8 16-9 13-8 23-13 11-7 14-8 1-2v-20l-7-3h-7l-1 1h-8l-4-2h-6l-1 1h-7l-5-2h-7l-1 1h-8l-5-2-12 1-8-2-11 1-11-2h-11l-9-1-51-3z" fill="#FE787C"/>
<path transform="translate(945,1201)" d="m0 0h23l-3 1-2 5-19 11-10 6-16 9-8 5-21 12-15 9-17 10-28 16-30 18-11 6-13 8-24 14-16 9-30 18-9 5-11 6-1 8v3l1 7h-2l1 2 1 13 5-2 15-8 2-2 5-2 7-5 10-5 14-9 22-12 5-4 10-5 6-4 11-6 5-3 7-5 9-4 6-5 10-5 13-8 8-4h2v-2l4-3 8-3 5-4 12-6 11-7 12-7 21-12 12-7 6-3 4-4 9-4 8-5 11-6 9-6 9-5h2v-17l-7 4-2-1v-2l-21-1v-1h32v33l-2-1v-8l-6 1-9 6-9 5-11 6-14 8-3 3-12 6-9 5-7 5-22 12-9 6-7 4-8 4-3 3-9 4-9 6-8 4-15 9-9 6-8 4-7 4-11 7-13 7-8 5-7 4-17 10-6 3-9 6-10 6-8 4-5 4-16 8-9 6-5-2-1-17v-23l9-3 15-9 9-5 22-13 13-8 11-6 14-8 20-12 11-6 13-8 21-12 17-10 29-17 10-6 21-12 10-6 19-11 9-6 3-1 1-3-13-1z" fill="#FF787C"/>
<path transform="translate(1468,917)" d="m0 0h16l1 2-4 2-8-1-3-1v217l14-7 11-7 13-8 10-5 11-7 19-11 8-5 7-4 18-10 5-3 16-10 10-5 9-6 18-10 17-10 16-9 14-9 11-6h4v-65h1l1 133-1 139h-1v-155l-6 2-7 5-10 5-4 3-6 3-6 4-9 5-20 12-8 5-10 5-8 5-6 4-8 4-7 4-13 8-8 5-15 8-9 6-7 4-11 6-6 4-9 5-13 8-8 4-8 5-7 4h-3l1-4 14-7 5-4 9-5 11-6 7-4 8-6 14-7 11-7 13-7 5-4 10-5 11-7 10-5h2v-2l11-6 5-4 10-4 15-10 10-5 7-5 6-3 6-4 6-3 8-5 6-3 5-4h4v-36l1-9-6 2-13 8-14 8-15 9-11 6-13 8-11 6-9 6-6 3-22 13-11 6-7 5-12 6-25 15-9 6-10 5-20 12-14 8h-3v37h-1z" fill="#FE8671"/>
<path transform="translate(735,427)" d="m0 0 5 1v2h2l3 6 1 6v10l-4 10-3 4v2l3 1 2 6-1 11-4 6-8 4-6 1v-5l2-3-7 6-2 1h-6l-4-10-7-8-3-6v-11l3-7 4-4 16-3 6-4 4-8 1-6zm-3 53-4 2-1 4 7-1-1-5z" fill="#3F2A58"/>
<path transform="translate(874,338)" d="m0 0 8 1 11 6 7 7 3 5h1l1-16 3-3v2h2l5 9 2 7v16l-4 8-6 5-4 2-13 1-17 9-1-3 1-4v-49z" fill="#873876"/>
<path transform="translate(928,583)" d="m0 0h9l-5 47-5 33-8 36-7 33-4 28-2 28 12-25 14-27 15-28 16-30 13-23 16-30 10-18 3-3 1 2-32 58-15 28-14 26-12 23-10 19-16 32-1 3v21l2 25 5 29 8 30 10 28 11 24 11 22 12 20 10 15 10 14 13 17 11 13 3 5-4-2-12-14-15-20-12-17-14-22-15-14-17-13-21-14-16-9-16-8-20-9-36-12-25-6-19-4v-2l15 2 36 9 29 10 27 12 19 10 19 12 19 14 15 13h1l-8-15-11-24-11-29-8-28-5-24-3-24-1-19v-21l2-29 4-28 5-25 9-40 6-36 5-48h-6z" fill="#FDFDFD"/>
<path transform="translate(1189,410)" d="m0 0h40l2 2-27-1-3 37-6 52-9 56-10 49-6 26 1 1 11-20 15-24 28-42 11-16 28-40 19-28 13-20 2-3v2l4 2 5 5-1 2-6-6-3 1-26 39-16 23-14 20-16 23-27 41-17 28-10 18-4 7-13 57-12 60-8 50-4 34-2 24-1 22v23l2 57v14h-2l-2-52v-58l3-36 3-25v-9l-6-26-12-36-13-30-14-27-13-21-14-19-12-14-9-9-2-1v-6l2 4 17 17 13 17 14 21 12 21 13 26 11 27 9 28 6 23 8-48 11-54 15-65 11-49 9-49 7-48 5-43 3-33-16 1z" fill="#FCFCFC"/>
<path transform="translate(650,851)" d="m0 0 4 1-1 3-1 81-1 2h-2l-11-34-8-32-2-12v-5l11-3z" fill="#3D1B45"/>
<path transform="translate(1360,139)" d="m0 0 4 1-1 2h-3v571l2 4 1-226h1l1 38v160l-1 38-1 7-2-2-3-16-1-543-2-8v-20l3-5z" fill="#9171D1"/>
<path transform="translate(1700,1025)" d="m0 0h1v31l-6 2-7 5-10 5-4 3-6 3-6 4-9 5-20 12-8 5-10 5-8 5-6 4-8 4-7 4-13 8-8 5-15 8-9 6-7 4-11 6-6 4-9 5-13 8-8 4-8 5-7 4h-3l1-4 14-7 5-4 9-5 11-6 7-4 8-6 14-7 11-7 13-7 5-4 10-5 11-7 10-5h2v-2l11-6 5-4 10-4 15-10 10-5 7-5 6-3 6-4 6-3 8-5 6-3 5-4h4v-27z" fill="#FF787C"/>
<path transform="translate(548,1193)" d="m0 0 3 1-3 2-57 1-7 1-91 1-9 1-1 485-2-2-1-10v-33l1-29v-409l2-4 5-1 15-1h79l7-1 57-1z" fill="#E2ACE8"/>
<path transform="translate(874,338)" d="m0 0 8 1 11 6-2 1v40l-3 3-16 8 1-7v-49z" fill="#672D65"/>
<path transform="translate(1036,616)" d="m0 0 2 4 17 17 13 17 14 21 12 21 13 26 11 27 9 28 6 24 2-1-1 11-4 34-2 24-1 22v23l2 57v14h-2l-2-52v-58l3-36 3-25v-9l-6-26-12-36-13-30-14-27-13-21-14-19-12-14-9-9-2-1z" fill="#FDFDFD"/>
<path transform="translate(1360,768)" d="m0 0 2 1 1 3v149h-4v-150z" fill="#392553"/>
<path transform="translate(1701,1303)" d="m0 0h1l1 174 1 99v50l-2 7h-1z" fill="#D587E1"/>
<path transform="translate(1329,688)" d="m0 0v3l-12 11-16 15-9 9-7 8-7 7-7 8-9 10-9 11-13 16-15 20-13 18-13 20-15 25-12 22-14 29-4 9-2-1 13-29 13-25 13-22 14-22 12-17 14-19 11-14 9-11 11-13 9-10 7-8 15-16 22-22 8-7z" fill="#FDFDFD"/>
<path transform="translate(907,338)" d="m0 0 1 2h2l5 9 2 7v16l-4 8-6 5-2 1h-11l3-3 7-4 1-2v-9l-2-10 1-1 1-16z" fill="#6B326A"/>
<path transform="translate(1360,139)" d="m0 0 4 1-1 2h-3v259l-1 63h-1l-1-291-2-8v-20l3-5z" fill="#AF7BD6"/>
<path transform="translate(711,492)" d="m0 0 1 4 8-2 2-1-1 3 5 3 3 10 2 3-33 1 2-4 10-12z" fill="#F9A24E"/>
<path transform="translate(1361,760)" d="m0 0 2 2 1 7v149h-1l-1-146-1-3-1 2-1 148-1 2-3-1 2-2v-102l1-48z" fill="#9481E7"/>
<path transform="translate(845,389)" d="m0 0 4 1 2 5 1 10 1 3-1 3 3 7 8 7-5 5-2 1v-2l-4-2-9-7-1-4-3-1 5-4v-21z" fill="#FBA74C"/>
<path transform="translate(737,467)" d="m0 0 5 2 2 6-1 11-4 6-8 4-6 1v-5l2-3-3 1 2-4 8-1-2-4-4 1 1-4h5l-1-7z" fill="#EC9A54"/>
<path transform="translate(1197,1060)" d="m0 0 101 5 35 2-1 2h-11l-1 1h-8l-5-2-12 1-8-2-11 1-11-2h-11l-9-1-51-3z" fill="#FE7B81"/>
<path transform="translate(1468,917)" d="m0 0h16l1 2-4 2-8-1-3-1-1 218h-1z" fill="#FE7A7A"/>
<path transform="translate(565,1174)" d="m0 0 2 1-3 15-4 4h-6l-2-4v-14z" fill="#FAA54E"/>
<path transform="translate(1702,1477)" d="m0 0h1l1 99v50l-2 7h-1z" fill="#FBF9FC"/>
<path transform="translate(1297,439)" d="m0 0 1 2 4 2 5 5-1 2-6-6-3 1-26 39-16 23-21 30-2-1 11-16 14-20 16-23 10-15 13-20z" fill="#FDFDFD"/>
<path transform="translate(850,576)" d="m0 0h5l13 12 2 1v2l3 1-3 3-9-3-13-11-1-4z" fill="#FF787C"/>
<path transform="translate(1144,954)" d="m0 0h1v32h-8l-1-5z" fill="#8D74E6"/>
<path transform="translate(850,413)" d="m0 0 3 1 3 5 7 6-5 5-2 1v-2l-4-2-9-7v-2z" fill="#FAA852"/>
<path transform="translate(912,346)" d="m0 0 3 3 2 7v16l-4 8h-1l-1-7v-18l1-6z" fill="#925296"/>
<path transform="translate(734,482)" d="m0 0 2 1 1 8 1 2-11 4h-2v-5l2-3-3 1 2-4 8-1z" fill="#FCBA65"/>
<path transform="translate(1363,692)" d="m0 0h1v35l-1 7-2-2-3-16v-23h1l1 20 2 4z" fill="#C983CE"/>
<path transform="translate(1297,439)" d="m0 0 1 2 4 2 5 5-1 2-6-6-3 1-24 36-2-1 12-18 13-20z" fill="#FDFDFD"/>
<path transform="translate(737,467)" d="m0 0 5 2 1 2v7l-4 2-4-1-2-5 1-5z" fill="#FBA94A"/>
<path transform="translate(1360,139)" d="m0 0 4 1-1 2-4 1-1 30-2-3-1-5v-20l3-5z" fill="#FDFDFD"/>
<path transform="translate(1361,760)" d="m0 0 2 2 1 7v16h-1l-1-13-1-3-1 2-1 28h-1v-31z" fill="#DA85C4"/>
<path transform="translate(570,694)" d="m0 0 1 3-2 10-7 14-4 4 1-4 8-20 1-3-2-1 3-1z" fill="#FE7F76"/>
<path transform="translate(1581,925)" d="m0 0h42l8 2v1h-11l-39-2z" fill="#FDFDFD"/>
<path transform="translate(1252,1064)" d="m0 0h26l9 1-4 2-7 1-11-2h-11z" fill="#FE797D"/>
<path transform="translate(563,1191)" d="m0 0h10l2 1v2l3 1h-20z" fill="#6B3E7E"/>
<path transform="translate(1136,433)" d="m0 0 2 1-4 4h-2l-2 4-13 13-2-1 9-10 4-2 1-3h2v-2z" fill="#D2BAF0"/>
<path transform="translate(1660,930)" d="m0 0h28l10 2v1h-12l-26-2z" fill="#FDFDFD"/>
<path transform="translate(848,407)" d="m0 0 4 1v6l-5 2-3 2-2-2-3-1 6-3z" fill="#FDCC91"/>
<path transform="translate(590,630)" d="m0 0h2v5l3 1 1 4-8 1 1-8z" fill="#FE7E77"/>
<path transform="translate(1297,439)" d="m0 0 1 2 4 2 5 5-1 2-6-6-3 1-6 9-2-1 7-11z" fill="#F6EBF8"/>
<path transform="translate(701,1193)" d="m0 0h37v1h-17v2l-20-2z" fill="#FDE2CE"/>
<path transform="translate(856,421)" d="m0 0 5 2 2 3-7 5-1-6z" fill="#F68C54"/>
<path transform="translate(565,1174)" d="m0 0 2 1-4 4-6 1-3-2 4-3z" fill="#F99C57"/>
<path transform="translate(526,767)" d="m0 0 1 4h-2l-2 4-4 3h-3l2-4z" fill="#FE847F"/>
<path transform="translate(852,417)" d="m0 0 4 2 1 2-2 8-4-4z" fill="#FAA45E"/>
<path transform="translate(702,505)" d="m0 0 2 1-6 7-14 1v-1l13-4z" fill="#FCCB9B"/>
<path transform="translate(901,381)" d="m0 0 4 2v3h-11l3-3z" fill="#3C2856"/>
<path transform="translate(846,1198)" d="m0 0h20l-1 2-7 1-2-1-10-1z" fill="#FF787C"/>
<path transform="translate(721,493)" d="m0 0v3l5 3-1 3-5-2-2-2v-3z" fill="#FCC581"/>
<path transform="translate(1332,1068)" d="m0 0h15v1l-7 2h-7z" fill="#FF787C"/>
<path transform="translate(1563,924)" d="m0 0h11l7 1v1l-10 1-8-2z" fill="#FD9B71"/>
<path transform="translate(737,467)" d="m0 0 5 2 1 6-6-4z" fill="#FDBB63"/>
<path transform="translate(1473,918)" d="m0 0h12l-4 3-8-1z" fill="#FF787C"/>
</svg>
