<svg xml:space="preserve" style="max-height: 500px" viewBox="0 300 2900.9633217993082 2200" y="0px" x="0px" xmlns:xlink="http://www.w3.org/1999/xlink" xmlns="http://www.w3.org/2000/svg" id="Ñëîé_1" version="1.1" width="2900.9633217993082" height="2200">
<g>
	<rect height="2500" width="2890.96" style="fill:#FFFFFF;"/>
</g>
<g>
	<g>
		<path d="M932.387,242.678c-9.232,0-17.73-1.625-25.482-4.875c-7.752-3.25-14.398-7.72-19.924-13.424&#xA;&#9;&#9;&#9;c-5.533-5.703-9.864-12.431-13-20.183c-3.136-7.752-4.704-16.136-4.704-25.14c0-9.01,1.568-17.388,4.704-25.147&#xA;&#9;&#9;&#9;c3.136-7.752,7.468-14.48,13-20.177c5.526-5.703,12.172-10.18,19.924-13.43c7.752-3.25,16.25-4.875,25.482-4.875&#xA;&#9;&#9;&#9;c9.238,0,17.73,1.625,25.488,4.875c7.752,3.25,14.391,7.727,19.924,13.43c5.526,5.697,9.864,12.425,13,20.177&#xA;&#9;&#9;&#9;c3.13,7.758,4.704,16.136,4.704,25.147c0,9.004-1.574,17.388-4.704,25.14c-3.136,7.752-7.474,14.48-13,20.183&#xA;&#9;&#9;&#9;c-5.533,5.703-12.172,10.174-19.924,13.424C950.117,241.053,941.625,242.678,932.387,242.678z M932.387,227.281&#xA;&#9;&#9;&#9;c6.955,0,13.228-1.277,18.817-3.844c5.583-2.567,10.376-6.013,14.366-10.351c3.99-4.331,7.069-9.434,9.238-15.308&#xA;&#9;&#9;&#9;c2.163-5.868,3.25-12.109,3.25-18.723s-1.088-12.855-3.25-18.729c-2.169-5.874-5.248-10.977-9.238-15.308&#xA;&#9;&#9;&#9;c-3.99-4.331-8.783-7.784-14.366-10.351c-5.589-2.561-11.862-3.844-18.817-3.844c-6.955,0-13.228,1.284-18.811,3.844&#xA;&#9;&#9;&#9;c-5.59,2.567-10.376,6.02-14.366,10.351c-3.996,4.331-7.069,9.434-9.238,15.308c-2.169,5.874-3.25,12.115-3.25,18.729&#xA;&#9;&#9;&#9;s1.081,12.855,3.25,18.723c2.169,5.874,5.242,10.977,9.238,15.308c3.99,4.338,8.776,7.784,14.366,10.351&#xA;&#9;&#9;&#9;C919.159,226.004,925.432,227.281,932.387,227.281z" style="fill:#313E67;"/>
		<path d="M1015.162,158.531h15.397v12.482h0.342c1.935-4.331,5.299-7.834,10.091-10.515&#xA;&#9;&#9;&#9;c4.787-2.681,10.319-4.021,16.592-4.021c3.87,0,7.607,0.601,11.198,1.796c3.592,1.195,6.728,3.054,9.409,5.558&#xA;&#9;&#9;&#9;c2.675,2.51,4.818,5.729,6.411,9.668c1.6,3.933,2.396,8.58,2.396,13.936v52.165h-15.39v-47.891c0-3.762-0.518-6.981-1.543-9.662&#xA;&#9;&#9;&#9;c-1.024-2.681-2.396-4.843-4.104-6.5c-1.714-1.65-3.68-2.845-5.899-3.591c-2.226-0.74-4.534-1.113-6.93-1.113&#xA;&#9;&#9;&#9;c-3.193,0-6.159,0.512-8.89,1.543c-2.738,1.024-5.134,2.649-7.183,4.875c-2.055,2.219-3.655,5.046-4.793,8.467&#xA;&#9;&#9;&#9;c-1.138,3.421-1.707,7.467-1.707,12.14v41.732h-15.397V158.531z" style="fill:#313E67;"/>
		<path d="M1111.455,110.298h15.39v129.3h-15.39V110.298z" style="fill:#313E67;"/>
		<path d="M1148.913,129.451c0-3.079,1.107-5.729,3.332-7.948c2.226-2.226,4.875-3.339,7.954-3.339&#xA;&#9;&#9;&#9;s5.729,1.113,7.954,3.339c2.219,2.219,3.332,4.869,3.332,7.948s-1.113,5.729-3.332,7.954c-2.226,2.226-4.875,3.339-7.954,3.339&#xA;&#9;&#9;&#9;s-5.729-1.113-7.954-3.339C1150.02,135.18,1148.913,132.53,1148.913,129.451z M1152.505,158.531h15.39v81.068h-15.39V158.531z" style="fill:#313E67;"/>
		<path d="M1192.352,158.531h15.396v12.482h0.342c1.935-4.331,5.299-7.834,10.092-10.515&#xA;&#9;&#9;&#9;c4.786-2.681,10.319-4.021,16.592-4.021c3.87,0,7.607,0.601,11.198,1.796c3.592,1.195,6.728,3.054,9.409,5.558&#xA;&#9;&#9;&#9;c2.675,2.51,4.818,5.729,6.411,9.668c1.6,3.933,2.397,8.58,2.397,13.936v52.165h-15.39v-47.891c0-3.762-0.518-6.981-1.543-9.662&#xA;&#9;&#9;&#9;c-1.024-2.681-2.397-4.843-4.104-6.5c-1.714-1.65-3.68-2.845-5.899-3.591c-2.226-0.74-4.534-1.113-6.93-1.113&#xA;&#9;&#9;&#9;c-3.193,0-6.159,0.512-8.89,1.543c-2.738,1.024-5.134,2.649-7.183,4.875c-2.055,2.219-3.655,5.046-4.793,8.467&#xA;&#9;&#9;&#9;c-1.138,3.421-1.707,7.467-1.707,12.14v41.732h-15.396V158.531z" style="fill:#313E67;"/>
		<path d="M1299.079,204.708c0,3.535,0.765,6.753,2.308,9.662c1.536,2.909,3.56,5.387,6.07,7.442&#xA;&#9;&#9;&#9;c2.51,2.049,5.412,3.648,8.726,4.787c3.301,1.144,6.721,1.714,10.262,1.714c4.786,0,8.947-1.113,12.482-3.339&#xA;&#9;&#9;&#9;c3.535-2.219,6.785-5.153,9.75-8.808l11.628,8.896c-8.549,11.059-20.525,16.592-35.915,16.592c-6.386,0-12.172-1.088-17.363-3.25&#xA;&#9;&#9;&#9;c-5.185-2.169-9.573-5.16-13.165-8.979c-3.592-3.819-6.361-8.327-8.296-13.512c-1.941-5.191-2.909-10.806-2.909-16.851&#xA;&#9;&#9;&#9;c0-6.038,1.05-11.653,3.162-16.845c2.112-5.185,5.02-9.687,8.726-13.512c3.705-3.819,8.125-6.81,13.253-8.979&#xA;&#9;&#9;&#9;c5.134-2.163,10.718-3.25,16.762-3.25c7.183,0,13.253,1.258,18.217,3.762c4.957,2.51,9.036,5.792,12.229,9.839&#xA;&#9;&#9;&#9;c3.187,4.047,5.501,8.606,6.924,13.677c1.429,5.077,2.137,10.237,2.137,15.479v5.476H1299.079z M1347.652,192.39&#xA;&#9;&#9;&#9;c-0.12-3.421-0.658-6.551-1.625-9.402c-0.974-2.852-2.428-5.33-4.363-7.442c-1.941-2.105-4.363-3.762-7.271-4.957&#xA;&#9;&#9;&#9;c-2.909-1.201-6.298-1.796-10.174-1.796c-3.762,0-7.215,0.708-10.351,2.137c-3.136,1.423-5.786,3.275-7.948,5.558&#xA;&#9;&#9;&#9;c-2.169,2.283-3.851,4.818-5.046,7.613c-1.201,2.795-1.796,5.558-1.796,8.289H1347.652z" style="fill:#313E67;"/>
		<path d="M1459.336,133.902h-38.994v-15.397h94.409v15.397h-39v105.696h-16.415V133.902z" style="fill:#313E67;"/>
		<path d="M1512.526,158.531h15.397v12.482h0.341c1.024-2.163,2.396-4.129,4.104-5.899&#xA;&#9;&#9;&#9;c1.714-1.764,3.617-3.275,5.729-4.534c2.112-1.252,4.42-2.251,6.93-2.991c2.504-0.74,5.014-1.113,7.524-1.113&#xA;&#9;&#9;&#9;c2.504,0,4.786,0.341,6.842,1.024l-0.683,16.592c-1.258-0.341-2.51-0.626-3.762-0.854c-1.258-0.228-2.51-0.341-3.768-0.341&#xA;&#9;&#9;&#9;c-7.524,0-13.285,2.112-17.275,6.329c-3.99,4.217-5.982,10.775-5.982,19.665v40.708h-15.397V158.531z" style="fill:#313E67;"/>
		<path d="M1576.148,168.451c4.338-3.99,9.352-6.987,15.055-8.985c5.697-1.992,11.4-2.991,17.104-2.991&#xA;&#9;&#9;&#9;c5.925,0,11.027,0.746,15.308,2.226c4.274,1.48,7.777,3.478,10.515,5.982c2.738,2.51,4.761,5.393,6.07,8.637&#xA;&#9;&#9;&#9;c1.309,3.25,1.967,6.646,1.967,10.18v41.391c0,2.852,0.057,5.469,0.171,7.866c0.114,2.396,0.285,4.679,0.519,6.842h-13.683&#xA;&#9;&#9;&#9;c-0.341-4.104-0.512-8.207-0.512-12.317h-0.348c-3.421,5.248-7.467,8.953-12.14,11.122c-4.679,2.162-10.092,3.25-16.25,3.25&#xA;&#9;&#9;&#9;c-3.762,0-7.354-0.518-10.775-1.543c-3.421-1.024-6.411-2.567-8.979-4.616c-2.567-2.055-4.59-4.59-6.07-7.613&#xA;&#9;&#9;&#9;c-1.486-3.016-2.226-6.525-2.226-10.515c0-5.248,1.17-9.636,3.509-13.171c2.333-3.535,5.526-6.418,9.573-8.637&#xA;&#9;&#9;&#9;c4.047-2.226,8.783-3.819,14.202-4.793c5.413-0.967,11.198-1.448,17.357-1.448h11.286v-3.421c0-2.055-0.398-4.11-1.195-6.159&#xA;&#9;&#9;&#9;c-0.797-2.055-1.998-3.908-3.592-5.558c-1.6-1.65-3.591-2.965-5.988-3.933c-2.396-0.967-5.242-1.454-8.549-1.454&#xA;&#9;&#9;&#9;c-2.966,0-5.558,0.285-7.784,0.854c-2.226,0.569-4.249,1.284-6.07,2.137c-1.827,0.854-3.484,1.853-4.964,2.991&#xA;&#9;&#9;&#9;c-1.48,1.145-2.909,2.226-4.274,3.25L1576.148,168.451z M1619.593,200.604c-3.648,0-7.385,0.196-11.204,0.594&#xA;&#9;&#9;&#9;c-3.819,0.405-7.297,1.176-10.433,2.314c-3.136,1.138-5.703,2.732-7.695,4.787c-1.998,2.055-2.991,4.679-2.991,7.866&#xA;&#9;&#9;&#9;c0,4.679,1.562,8.043,4.698,10.092c3.136,2.055,7.385,3.079,12.747,3.079c4.217,0,7.809-0.708,10.774-2.137&#xA;&#9;&#9;&#9;c2.959-1.423,5.356-3.275,7.183-5.558c1.821-2.283,3.136-4.818,3.933-7.613c0.797-2.795,1.195-5.558,1.195-8.296v-5.128H1619.593z" style="fill:#313E67;"/>
		<path d="M1662.179,129.451c0-3.079,1.107-5.729,3.332-7.948c2.226-2.226,4.875-3.339,7.954-3.339&#xA;&#9;&#9;&#9;s5.729,1.113,7.954,3.339c2.219,2.219,3.332,4.869,3.332,7.948s-1.113,5.729-3.332,7.954c-2.226,2.226-4.875,3.339-7.954,3.339&#xA;&#9;&#9;&#9;s-5.729-1.113-7.954-3.339C1663.286,135.18,1662.179,132.53,1662.179,129.451z M1665.771,158.531h15.39v81.068h-15.39V158.531z" style="fill:#313E67;"/>
		<path d="M1705.618,158.531h15.397v12.482h0.342c1.935-4.331,5.299-7.834,10.091-10.515&#xA;&#9;&#9;&#9;c4.787-2.681,10.319-4.021,16.592-4.021c3.87,0,7.607,0.601,11.198,1.796c3.591,1.195,6.728,3.054,9.409,5.558&#xA;&#9;&#9;&#9;c2.675,2.51,4.818,5.729,6.412,9.668c1.6,3.933,2.396,8.58,2.396,13.936v52.165h-15.39v-47.891c0-3.762-0.518-6.981-1.543-9.662&#xA;&#9;&#9;&#9;c-1.024-2.681-2.396-4.843-4.104-6.5c-1.714-1.65-3.68-2.845-5.899-3.591c-2.226-0.74-4.534-1.113-6.93-1.113&#xA;&#9;&#9;&#9;c-3.193,0-6.159,0.512-8.89,1.543c-2.738,1.024-5.134,2.649-7.183,4.875c-2.055,2.219-3.655,5.046-4.793,8.467&#xA;&#9;&#9;&#9;c-1.138,3.421-1.707,7.467-1.707,12.14v41.732h-15.397V158.531z" style="fill:#313E67;"/>
		<path d="M1798.32,129.451c0-3.079,1.107-5.729,3.332-7.948c2.226-2.226,4.875-3.339,7.954-3.339&#xA;&#9;&#9;&#9;c3.079,0,5.729,1.113,7.954,3.339c2.219,2.219,3.332,4.869,3.332,7.948s-1.113,5.729-3.332,7.954&#xA;&#9;&#9;&#9;c-2.226,2.226-4.875,3.339-7.954,3.339c-3.079,0-5.729-1.113-7.954-3.339C1799.427,135.18,1798.32,132.53,1798.32,129.451z&#xA;&#9;&#9;&#9; M1801.912,158.531h15.39v81.068h-15.39V158.531z" style="fill:#313E67;"/>
		<path d="M1841.76,158.531h15.397v12.482h0.341c1.935-4.331,5.299-7.834,10.092-10.515&#xA;&#9;&#9;&#9;c4.786-2.681,10.319-4.021,16.592-4.021c3.87,0,7.607,0.601,11.198,1.796c3.592,1.195,6.728,3.054,9.409,5.558&#xA;&#9;&#9;&#9;c2.675,2.51,4.818,5.729,6.412,9.668c1.6,3.933,2.396,8.58,2.396,13.936v52.165h-15.39v-47.891c0-3.762-0.519-6.981-1.543-9.662&#xA;&#9;&#9;&#9;c-1.024-2.681-2.396-4.843-4.104-6.5c-1.714-1.65-3.68-2.845-5.899-3.591c-2.226-0.74-4.534-1.113-6.93-1.113&#xA;&#9;&#9;&#9;c-3.193,0-6.159,0.512-8.89,1.543c-2.738,1.024-5.134,2.649-7.183,4.875c-2.055,2.219-3.655,5.046-4.793,8.467&#xA;&#9;&#9;&#9;c-1.138,3.421-1.707,7.467-1.707,12.14v41.732h-15.397V158.531z" style="fill:#313E67;"/>
		<path d="M2018.096,238.915c0,6.159-1.056,11.773-3.168,16.845c-2.112,5.071-5.103,9.465-8.979,13.171&#xA;&#9;&#9;&#9;c-3.876,3.705-8.549,6.582-14.024,8.637c-5.469,2.055-11.514,3.079-18.128,3.079c-7.758,0-14.853-1.087-21.296-3.25&#xA;&#9;&#9;&#9;c-6.443-2.169-12.57-5.931-18.381-11.287l10.433-13c3.99,4.331,8.321,7.613,12.994,9.832c4.673,2.226,9.978,3.339,15.909,3.339&#xA;&#9;&#9;&#9;c5.697,0,10.433-0.828,14.195-2.485c3.762-1.65,6.753-3.787,8.979-6.411c2.226-2.624,3.787-5.615,4.704-8.979&#xA;&#9;&#9;&#9;c0.911-3.364,1.366-6.753,1.366-10.174v-11.976h-0.512c-2.966,4.907-6.987,8.523-12.058,10.863&#xA;&#9;&#9;&#9;c-5.071,2.34-10.408,3.503-15.991,3.503c-5.931,0-11.432-1.05-16.503-3.161c-5.077-2.112-9.44-5.014-13.082-8.726&#xA;&#9;&#9;&#9;c-3.655-3.699-6.5-8.094-8.555-13.165c-2.049-5.077-3.079-10.578-3.079-16.509c0-5.925,0.967-11.483,2.909-16.674&#xA;&#9;&#9;&#9;c1.935-5.185,4.704-9.719,8.296-13.595c3.592-3.876,7.923-6.898,13-9.067c5.071-2.163,10.743-3.25,17.015-3.25&#xA;&#9;&#9;&#9;c5.476,0,10.8,1.195,15.991,3.591c5.191,2.396,9.263,5.76,12.229,10.092h0.341v-11.628h15.397V238.915z M1976.023,170.842&#xA;&#9;&#9;&#9;c-4.11,0-7.815,0.714-11.122,2.137c-3.307,1.429-6.095,3.364-8.378,5.817c-2.283,2.453-4.047,5.419-5.305,8.896&#xA;&#9;&#9;&#9;c-1.252,3.478-1.878,7.265-1.878,11.369c0,8.214,2.396,14.796,7.183,19.759c4.786,4.957,11.287,7.436,19.5,7.436&#xA;&#9;&#9;&#9;c8.207,0,14.707-2.479,19.494-7.436c4.793-4.964,7.183-11.546,7.183-19.759c0-4.104-0.626-7.891-1.878-11.369&#xA;&#9;&#9;&#9;c-1.258-3.478-3.022-6.443-5.305-8.896c-2.283-2.453-5.071-4.388-8.378-5.817C1983.832,171.556,1980.127,170.842,1976.023,170.842&#xA;&#9;&#9;&#9;z" style="fill:#313E67;"/>
	</g>
	<g>
		<g>
			<g>
				<path d="M2561.044,1133.461c-180.313-659.177-1020.169-788.884-1716.45-447.468&#xA;&#9;&#9;&#9;&#9;&#9;s-710.139,1640.484,460.639,1679.118C2476.011,2403.745,2679.883,1567.903,2561.044,1133.461z" style="fill:#FAE9DC;"/>
			</g>
			<g>
				<g>
					<path d="M917.381,2389.702c-130.343,0-251.299-41.783-364.185-167.07&#xA;&#9;&#9;&#9;&#9;&#9;&#9;c-54.772-60.788-90.309-124.194-108.648-193.848c-16.372-62.188-18.558-128.02-6.681-201.256&#xA;&#9;&#9;&#9;&#9;&#9;&#9;c22.035-135.872,87.982-272.435,157.802-417.016c24.283-50.287,49.394-102.286,72.182-153.704&#xA;&#9;&#9;&#9;&#9;&#9;&#9;c41.626-93.922,71.997-197.664,101.369-297.99c77.117-263.41,149.958-512.212,410.512-569.553&#xA;&#9;&#9;&#9;&#9;&#9;&#9;c308.779-67.962,421.162,66.588,563.442,236.93c74.92,89.698,159.837,191.364,286.95,280.84&#xA;&#9;&#9;&#9;&#9;&#9;&#9;c253.839,178.681,410.422,334.361,492.778,489.934c100.65,190.129,91.556,383.372-27.807,590.767&#xA;&#9;&#9;&#9;&#9;&#9;&#9;c-65.684,114.125-150.403,183.191-266.615,217.352c-103.423,30.402-218.971,29.387-341.292,28.323&#xA;&#9;&#9;&#9;&#9;&#9;&#9;c-120.874-1.064-245.854-2.148-371.642,26.507c-71.933,16.387-141.3,35.821-208.383,54.616&#xA;&#9;&#9;&#9;&#9;&#9;&#9;C1168.459,2353.389,1038.841,2389.702,917.381,2389.702z M1180.452,392.539l0.72,3.275&#xA;&#9;&#9;&#9;&#9;&#9;&#9;C924.498,452.302,852.2,699.252,775.657,960.702c-29.433,100.536-59.869,204.495-101.675,298.823&#xA;&#9;&#9;&#9;&#9;&#9;&#9;c-22.832,51.518-47.966,103.567-72.274,153.902c-137.92,285.607-268.19,555.374-43.53,804.714&#xA;&#9;&#9;&#9;&#9;&#9;&#9;c215.295,238.944,461.775,169.888,747.175,89.929c67.161-18.815,136.609-38.272,208.702-54.697&#xA;&#9;&#9;&#9;&#9;&#9;&#9;c126.553-28.829,251.938-27.736,373.191-26.674c246.955,2.155,460.26,4.022,602.035-242.314&#xA;&#9;&#9;&#9;&#9;&#9;&#9;c118.119-205.234,127.177-396.356,27.692-584.282c-81.842-154.602-237.77-309.536-490.711-487.585&#xA;&#9;&#9;&#9;&#9;&#9;&#9;c-127.835-89.985-213.051-192.011-288.237-282.026c-140.819-168.593-252.046-301.764-556.853-234.68L1180.452,392.539z" style="fill:#F0CDB6;"/>
				</g>
			</g>
			<g>
				<path d="M1326.912,930.421c176.13-84.748,320.726-218.818,464.453-140.914&#xA;&#9;&#9;&#9;&#9;&#9;c143.727,77.904,20.642,315.297,154.623,421.161s420.115,288.098,272.219,602.638&#xA;&#9;&#9;&#9;&#9;&#9;c-147.896,314.54-582.555,130.606-703.072,60.793c-120.517-69.813-224.971,330.037-559.285,204.965&#xA;&#9;&#9;&#9;&#9;&#9;c-334.314-125.072-92.232-418.765-92.542-535.112c-0.31-116.347-217.164-307.323-68.613-435.324&#xA;&#9;&#9;&#9;&#9;&#9;S1076.153,1051.078,1326.912,930.421z" style="fill:#FFF6F0;"/>
			</g>
		</g>
		<g>
			<path d="M2215.019,1744.083c275.884-264.934,586.301-266.14,586.467-134.224&#xA;&#9;&#9;&#9;&#9;s-548.97,351.59-584.41,332.785S2215.019,1744.083,2215.019,1744.083z" style="fill:#FFAB3B;"/>
		</g>
		<g>
			<path d="M2204.926,1968.839c176.359-92.853,310.716-94.091,306.111-15.566&#xA;&#9;&#9;&#9;&#9;s-289.721,148.911-321.294,109.298C2158.169,2022.96,2204.926,1968.839,2204.926,1968.839z" style="fill:#FFAB3B;"/>
		</g>
		<g>
			<path d="M2225.132,1117.889c36.76-227.074,179.987-281.56,217.05-197.408&#xA;&#9;&#9;&#9;&#9;c52.948,120.218-172.062,388.869-192.465,378.461C2229.314,1288.534,2225.132,1117.889,2225.132,1117.889z" style="fill:#FF7C3B;"/>
		</g>
		<g>
			<path d="M2204.834,1351.262c231.927-239.457,563.091-336.082,572.205-170.53&#xA;&#9;&#9;&#9;&#9;c9.114,165.552-643.793,305.284-643.793,305.284L2204.834,1351.262z" style="fill:#FF7C3B;"/>
		</g>
		<g>
			<path d="M711.856,1297.422c-115.154-283.665-380.592-280.195-411.802-158.249&#xA;&#9;&#9;&#9;&#9;c-31.21,121.946,305.76,205.153,366.981,285.568C728.256,1505.156,711.856,1297.422,711.856,1297.422z" style="fill:#FF7C3B;"/>
		</g>
		<g>
			<path d="M743.23,1819.169c-71.616-274.135-438.906-347.204-460.216-229.047&#xA;&#9;&#9;&#9;&#9;c-21.31,118.157,424.452,189.252,418.424,334.873S743.23,1819.169,743.23,1819.169z" style="fill:#FFAB3B;"/>
		</g>
		<g>
			<path d="M678.87,1819.865C362.439,1685.476,7.913,1693.553,36.143,1869.89&#xA;&#9;&#9;&#9;&#9;c31.95,199.572,518.31-86.195,605.144,89.862C728.122,2135.81,678.87,1819.865,678.87,1819.865z" style="fill:#FFAB3B;"/>
		</g>
		<g>
			<g>
				<g>
					<path d="M2222.365,1834.809c-1.963,0.386-4.072-0.244-5.502-1.847c-2.152-2.412-1.94-6.113,0.472-8.265&#xA;&#9;&#9;&#9;&#9;&#9;&#9;c148.645-132.624,452.288-229.584,455.339-230.546c3.128-1.023,6.371,0.736,7.346,3.815c0.975,3.083-0.732,6.374-3.815,7.346&#xA;&#9;&#9;&#9;&#9;&#9;&#9;c-3.028,0.957-304.312,97.178-451.076,228.123C2224.318,1834.156,2223.359,1834.613,2222.365,1834.809z" style="fill:#FFD194;"/>
				</g>
			</g>
			<g>
				<g>
					<path d="M2560.444,1719.05c-0.479,0.094-0.973,0.129-1.483,0.101l-142.977-8.544&#xA;&#9;&#9;&#9;&#9;&#9;&#9;c-3.227-0.193-5.688-2.968-5.495-6.195c0.192-3.231,2.958-5.678,6.195-5.495l142.977,8.544&#xA;&#9;&#9;&#9;&#9;&#9;&#9;c3.227,0.193,5.688,2.968,5.495,6.195C2564.991,1716.377,2562.998,1718.548,2560.444,1719.05z" style="fill:#FFD194;"/>
				</g>
			</g>
			<g>
				<g>
					<path d="M2181.734,1418.426c-3.526-3.024-3.932-8.338-0.908-11.864&#xA;&#9;&#9;&#9;&#9;&#9;&#9;c34.534-40.256,308.979-207.072,473.71-236.146c4.58-0.805,8.955,2.248,9.748,6.825c0.809,4.576-2.241,8.939-6.817,9.747&#xA;&#9;&#9;&#9;&#9;&#9;&#9;c-157.959,27.875-431.183,192.427-463.869,230.53C2190.573,1421.044,2185.259,1421.45,2181.734,1418.426z" style="fill:#FFD194;"/>
				</g>
			</g>
			<g>
				<g>
					<path d="M693.566,1376.228c-2.854,1.106-6.195,0.163-8.014-2.462&#xA;&#9;&#9;&#9;&#9;&#9;&#9;c-1.256-1.812-127.534-181.532-310.069-222.957c-3.651-0.827-5.937-4.458-5.108-8.105c0.827-3.646,4.454-5.936,8.105-5.108&#xA;&#9;&#9;&#9;&#9;&#9;&#9;c187.755,42.609,316.929,226.604,318.212,228.457c2.129,3.077,1.361,7.296-1.714,9.424&#xA;&#9;&#9;&#9;&#9;&#9;&#9;C694.529,1375.788,694.053,1376.039,693.566,1376.228z" style="fill:#FFD194;"/>
				</g>
			</g>
			<g>
				<g>
					<path d="M677.968,1824.849c-2.223-0.401-3.98-2.263-4.15-4.619&#xA;&#9;&#9;&#9;&#9;&#9;&#9;c-5.07-70.155-111.583-187.765-291.007-216.727c-0.029-0.005-0.06-0.011-0.091-0.016c-2.711-0.489-4.541-3.064-4.101-5.793&#xA;&#9;&#9;&#9;&#9;&#9;&#9;c0.448-2.761,3.048-4.637,5.811-4.193c80.976,13.083,157.179,46.641,214.637,94.45c50.199,41.765,81.92,90.945,84.855,131.548&#xA;&#9;&#9;&#9;&#9;&#9;&#9;c0.202,2.791-1.898,5.217-4.687,5.418C678.801,1824.949,678.377,1824.923,677.968,1824.849z" style="fill:#FFD194;"/>
				</g>
			</g>
			<g>
				<g>
					<path d="M97.182,1844.273c-1.868-0.337-3.469-1.715-3.994-3.669c-0.728-2.698,0.871-5.479,3.573-6.208&#xA;&#9;&#9;&#9;&#9;&#9;&#9;c219.051-59.017,483.81-24.569,515.077,67.018c0.903,2.646-0.509,5.524-3.156,6.427c-2.649,0.91-5.525-0.507-6.431-3.157&#xA;&#9;&#9;&#9;&#9;&#9;&#9;c-13.301-38.961-79.414-70.052-176.884-83.198c-102.414-13.8-221.225-5.529-325.971,22.694&#xA;&#9;&#9;&#9;&#9;&#9;&#9;C98.649,1844.38,97.896,1844.402,97.182,1844.273z" style="fill:#FFD194;"/>
				</g>
			</g>
			<g>
				<g>
					<path d="M420.37,1652.274c-2.311-0.417-4.092-2.404-4.159-4.845c-0.077-2.795,2.127-5.125,4.922-5.201&#xA;&#9;&#9;&#9;&#9;&#9;&#9;l102.706-2.842c2.809-0.086,5.128,2.124,5.204,4.923c0.077,2.795-2.127,5.125-4.922,5.201l-102.706,2.842&#xA;&#9;&#9;&#9;&#9;&#9;&#9;C421.057,1652.365,420.707,1652.335,420.37,1652.274z" style="fill:#FFD194;"/>
				</g>
			</g>
			<g>
				<g>
					<path d="M205.58,1877.89c-1.014-0.183-1.982-0.676-2.751-1.478c-1.936-2.018-1.871-5.223,0.149-7.161&#xA;&#9;&#9;&#9;&#9;&#9;&#9;l63.93-61.336c2.014-1.935,5.223-1.873,7.161,0.149c1.936,2.018,1.871,5.223-0.149,7.161l-63.93,61.336&#xA;&#9;&#9;&#9;&#9;&#9;&#9;C208.774,1877.729,207.123,1878.169,205.58,1877.89z" style="fill:#FFD194;"/>
				</g>
			</g>
			<g>
				<g>
					<path d="M279.95,1881.05c-0.965-0.174-1.89-0.629-2.643-1.368c-1.996-1.958-2.027-5.164-0.068-7.163&#xA;&#9;&#9;&#9;&#9;&#9;&#9;l64.584-65.855c1.96-1.996,5.167-2.027,7.163-0.069s2.027,5.164,0.069,7.163l-64.584,65.855&#xA;&#9;&#9;&#9;&#9;&#9;&#9;C283.25,1880.857,281.545,1881.337,279.95,1881.05z" style="fill:#FFD194;"/>
				</g>
			</g>
			<g>
				<g>
					<path d="M361.173,1891.885c-0.768-0.138-1.516-0.458-2.178-0.966c-2.22-1.701-2.64-4.883-0.937-7.102&#xA;&#9;&#9;&#9;&#9;&#9;&#9;l54.909-71.591c1.7-2.217,4.88-2.635,7.102-0.934c2.22,1.7,2.639,4.882,0.937,7.102l-54.909,71.591&#xA;&#9;&#9;&#9;&#9;&#9;&#9;C364.902,1891.542,362.98,1892.211,361.173,1891.885z" style="fill:#FFD194;"/>
				</g>
			</g>
		</g>
		<g>
			<path d="M2213.424,2059.487H697.758c-40.529,0-73.384-32.855-73.384-73.384v-891.901&#xA;&#9;&#9;&#9;&#9;c0-40.529,32.855-73.384,73.384-73.384h1515.666c40.529,0,73.384,32.855,73.384,73.384v891.901&#xA;&#9;&#9;&#9;&#9;C2286.808,2026.632,2253.953,2059.487,2213.424,2059.487z" style="fill:#404059;"/>
		</g>
		<g>
			<path d="M2204.046,1954.357H707.136c-18.363,0-33.249-14.886-33.249-33.249v-825.672&#xA;&#9;&#9;&#9;&#9;c0-18.363,14.886-33.249,33.249-33.249h1496.91c18.363,0,33.249,14.886,33.249,33.249v825.672&#xA;&#9;&#9;&#9;&#9;C2237.295,1939.471,2222.409,1954.357,2204.046,1954.357z" style="fill:#FFFFFF;"/>
		</g>
		<g>
			<rect height="806.278" width="1480.286" style="fill:#FAE9DC;" y="1105.134" x="715.448"/>
		</g>
		<g>
			<rect height="113.668" width="1480.286" style="fill:#F0CDB6;" y="1105.134" x="715.448"/>
		</g>
		<g>
			<g>
				<g>
					<circle r="13.243" cy="1161.968" cx="804.081" style="fill:#FAE9DC;"/>
				</g>
				<g>
					<circle r="13.243" cy="1161.968" cx="846.753" style="fill:#FFFFFF;"/>
				</g>
				<g>
					<circle r="13.243" cy="1161.968" cx="889.426" style="fill:#FFFFFF;"/>
				</g>
			</g>
			<g>
				<g>
					<g>
						<path d="M2081.958,1183.419c-1.497-1.497-1.502-3.933,0-5.436l37.47-37.47&#xA;&#9;&#9;&#9;&#9;&#9;&#9;&#9;c1.502-1.502,3.939-1.497,5.436,0c1.497,1.497,1.502,3.933,0,5.436l-37.47,37.47&#xA;&#9;&#9;&#9;&#9;&#9;&#9;&#9;C2085.892,1184.921,2083.456,1184.916,2081.958,1183.419z" style="fill:#FAE9DC;"/>
					</g>
				</g>
				<g>
					<g>
						<path d="M2119.434,1183.419l-37.465-37.465c-1.497-1.497-1.502-3.933,0-5.436s3.939-1.497,5.436,0&#xA;&#9;&#9;&#9;&#9;&#9;&#9;&#9;l37.465,37.465c1.497,1.497,1.502,3.933,0,5.436S2120.931,1184.916,2119.434,1183.419z" style="fill:#FAE9DC;"/>
					</g>
				</g>
			</g>
		</g>
		<g>
			<g>
				<rect height="20.747" width="350.833" style="fill:#F0CDB6;" y="1718.909" x="809.347"/>
			</g>
			<g>
				<rect height="20.747" width="350.833" style="fill:#F0CDB6;" y="1761.977" x="809.347"/>
			</g>
			<g>
				<rect height="20.747" width="186.463" style="fill:#F0CDB6;" y="1805.045" x="809.347"/>
			</g>
		</g>
		<g>
			<rect height="328.605" width="350.833" style="fill:#F0CDB6;" y="1326.167" x="809.347"/>
		</g>
		<g>
			<g>
				<g>
					<path d="M959.371,1546.446c-2.108,0-4.215-0.557-6.133-1.664c-3.83-2.214-6.122-6.181-6.122-10.603&#xA;&#9;&#9;&#9;&#9;&#9;&#9;v-87.419c0-4.428,2.291-8.395,6.127-10.609c3.836-2.214,8.413-2.22,12.249,0.006l75.703,43.71&#xA;&#9;&#9;&#9;&#9;&#9;&#9;c3.836,2.208,6.122,6.175,6.122,10.603c0,4.428-2.285,8.395-6.122,10.603l-75.703,43.71&#xA;&#9;&#9;&#9;&#9;&#9;&#9;C963.575,1545.889,961.473,1546.446,959.371,1546.446z M959.365,1440.561c-1.066,0-2.125,0.278-3.09,0.841&#xA;&#9;&#9;&#9;&#9;&#9;&#9;c-1.942,1.119-3.096,3.12-3.096,5.358v87.419c0,2.232,1.154,4.233,3.09,5.352c1.942,1.125,4.251,1.125,6.193,0.006&#xA;&#9;&#9;&#9;&#9;&#9;&#9;l75.703-43.71c1.936-1.119,3.09-3.12,3.09-5.358s-1.154-4.239-3.09-5.358l-75.703-43.71&#xA;&#9;&#9;&#9;&#9;&#9;&#9;C961.491,1440.845,960.425,1440.561,959.365,1440.561z" style="fill:#FAE9DC;"/>
				</g>
			</g>
			<g>
				<g>
					<path d="M984.763,1599.894c-60.34,0-109.425-49.085-109.425-109.425s49.085-109.425,109.425-109.425&#xA;&#9;&#9;&#9;&#9;&#9;&#9;c60.34,0,109.425,49.085,109.425,109.425S1045.103,1599.894,984.763,1599.894z M984.763,1387.106&#xA;&#9;&#9;&#9;&#9;&#9;&#9;c-56.995,0-103.363,46.368-103.363,103.363s46.368,103.363,103.363,103.363s103.363-46.368,103.363-103.363&#xA;&#9;&#9;&#9;&#9;&#9;&#9;S1041.758,1387.106,984.763,1387.106z" style="fill:#FAE9DC;"/>
				</g>
			</g>
		</g>
		<g>
			<g>
				<rect height="20.747" width="350.833" style="fill:#F0CDB6;" y="1718.909" x="1743.792"/>
			</g>
			<g>
				<rect height="20.747" width="350.833" style="fill:#F0CDB6;" y="1761.977" x="1743.792"/>
			</g>
			<g>
				<rect height="20.747" width="186.463" style="fill:#F0CDB6;" y="1805.045" x="1743.792"/>
			</g>
		</g>
		<g>
			<rect height="328.605" width="350.833" style="fill:#F0CDB6;" y="1326.167" x="1743.792"/>
		</g>
		<g>
			<g>
				<g>
					<path d="M1893.816,1546.446c-2.108,0-4.215-0.557-6.133-1.664c-3.83-2.214-6.122-6.181-6.122-10.603&#xA;&#9;&#9;&#9;&#9;&#9;&#9;v-87.419c0-4.428,2.291-8.395,6.128-10.609c3.836-2.214,8.413-2.22,12.249,0.006l75.703,43.71&#xA;&#9;&#9;&#9;&#9;&#9;&#9;c3.836,2.208,6.122,6.175,6.122,10.603c0,4.428-2.285,8.395-6.122,10.603l-75.703,43.71&#xA;&#9;&#9;&#9;&#9;&#9;&#9;C1898.019,1545.889,1895.917,1546.446,1893.816,1546.446z M1893.81,1440.561c-1.066,0-2.125,0.278-3.09,0.841&#xA;&#9;&#9;&#9;&#9;&#9;&#9;c-1.942,1.119-3.096,3.12-3.096,5.358v87.419c0,2.232,1.154,4.233,3.09,5.352c1.942,1.125,4.251,1.125,6.193,0.006&#xA;&#9;&#9;&#9;&#9;&#9;&#9;l75.703-43.71c1.936-1.119,3.09-3.12,3.09-5.358s-1.154-4.239-3.09-5.358l-75.703-43.71&#xA;&#9;&#9;&#9;&#9;&#9;&#9;C1895.935,1440.845,1894.869,1440.561,1893.81,1440.561z" style="fill:#FAE9DC;"/>
				</g>
			</g>
			<g>
				<g>
					<path d="M1919.208,1599.894c-60.34,0-109.425-49.085-109.425-109.425s49.085-109.425,109.425-109.425&#xA;&#9;&#9;&#9;&#9;&#9;&#9;c60.34,0,109.425,49.085,109.425,109.425S1979.548,1599.894,1919.208,1599.894z M1919.208,1387.106&#xA;&#9;&#9;&#9;&#9;&#9;&#9;c-56.995,0-103.363,46.368-103.363,103.363s46.368,103.363,103.363,103.363c56.995,0,103.363-46.368,103.363-103.363&#xA;&#9;&#9;&#9;&#9;&#9;&#9;S1976.203,1387.106,1919.208,1387.106z" style="fill:#FAE9DC;"/>
				</g>
			</g>
		</g>
		<g>
			<g>
				<path d="M1400.881,1390.645c61.377-29.533,111.766-76.253,161.852-49.105&#xA;&#9;&#9;&#9;&#9;&#9;c50.086,27.148,7.193,109.874,53.883,146.766s146.401,100.396,94.863,210.006s-203.008,45.513-245.006,21.185&#xA;&#9;&#9;&#9;&#9;&#9;c-41.997-24.328-78.397,115.011-194.899,71.426c-116.501-43.585-32.141-145.931-32.249-186.475&#xA;&#9;&#9;&#9;&#9;&#9;c-0.108-40.545-75.677-107.095-23.91-151.701C1267.182,1408.14,1313.497,1432.691,1400.881,1390.645z" style="fill:#FFF6F0;"/>
			</g>
			<g>
				<g>
					<path d="M1706.843,1478.46c6.623-6.723,16.749-7.894,24.588-3.496c1.075-2.69,1.986-5.467,2.758-8.33&#xA;&#9;&#9;&#9;&#9;&#9;&#9;c2.155-8.125,2.862-16.301,2.298-24.229c-2.967,0.601-6.115,0.549-9.231-0.271c-10.875-2.89-17.354-14.047-14.465-24.922&#xA;&#9;&#9;&#9;&#9;&#9;&#9;c1.506-5.664,5.237-10.137,10.028-12.691c-6.4-8.954-14.792-16.521-24.766-21.923c-3.667,9.634-14.089,15.139-24.282,12.445&#xA;&#9;&#9;&#9;&#9;&#9;&#9;c-9.689-2.571-15.902-11.741-15.068-21.417c-11.83,0.618-23.186,4.077-33.203,9.881c4.305,4.916,6.157,11.814,4.357,18.614&#xA;&#9;&#9;&#9;&#9;&#9;&#9;c-2.89,10.875-14.047,17.354-24.909,14.477c-2.914-0.771-5.518-2.137-7.697-3.933c-2.657,4.956-4.783,10.31-6.301,15.987&#xA;&#9;&#9;&#9;&#9;&#9;&#9;c-10.481,39.563,13.078,80.116,52.628,90.61c22.67,6.012,45.697,0.828,63.177-12.146&#xA;&#9;&#9;&#9;&#9;&#9;&#9;C1699.003,1499.155,1699.008,1486.413,1706.843,1478.46z M1630.728,1439.195c4.665-17.574,22.692-28.058,40.291-23.394&#xA;&#9;&#9;&#9;&#9;&#9;&#9;c17.574,4.665,28.058,22.692,23.393,40.291c-4.665,17.574-22.704,28.046-40.291,23.393&#xA;&#9;&#9;&#9;&#9;&#9;&#9;C1636.547,1474.82,1626.075,1456.781,1630.728,1439.195z" style="fill:#79C5EE;"/>
				</g>
				<g>
					<g>
						<path d="M1703.566,1459.612c6.024-22.759-7.573-46.176-30.319-52.212&#xA;&#9;&#9;&#9;&#9;&#9;&#9;&#9;c-22.759-6.024-46.176,7.573-52.212,30.319c-6.024,22.759,7.573,46.176,30.319,52.212&#xA;&#9;&#9;&#9;&#9;&#9;&#9;&#9;C1674.112,1495.955,1697.53,1482.358,1703.566,1459.612z M1651.942,1487.736c-21.535-5.718-34.418-27.882-28.712-49.429&#xA;&#9;&#9;&#9;&#9;&#9;&#9;&#9;c5.718-21.535,27.882-34.418,49.429-28.712c21.535,5.718,34.418,27.882,28.712,49.429&#xA;&#9;&#9;&#9;&#9;&#9;&#9;&#9;C1695.653,1480.559,1673.489,1493.442,1651.942,1487.736z" style="fill:#5091B9;"/>
					</g>
				</g>
			</g>
			<g>
				<g>
					<g>
						<path d="M1255.846,1535.099c-36.732,3.453-69.425-23.621-72.879-60.353s23.621-69.425,60.353-72.879&#xA;&#9;&#9;&#9;&#9;&#9;&#9;&#9;c36.732-3.453,69.425,23.621,72.879,60.353C1319.652,1498.953,1292.578,1531.646,1255.846,1535.099z M1245.24,1422.293&#xA;&#9;&#9;&#9;&#9;&#9;&#9;&#9;c-25.47,2.395-44.243,25.064-41.849,50.534c2.395,25.469,25.064,44.243,50.534,41.848&#xA;&#9;&#9;&#9;&#9;&#9;&#9;&#9;c25.47-2.395,44.243-25.064,41.848-50.534C1293.38,1438.672,1270.71,1419.898,1245.24,1422.293z" style="fill:#5091B9;"/>
					</g>
				</g>
				<g>
					<g>
						<path d="M1187.13,1463.895c0,0-16.459-3.398-20.228-0.571c-3.769,2.827-0.58,20.66,2.304,24.509&#xA;&#9;&#9;&#9;&#9;&#9;&#9;&#9;s19.998-1.88,19.998-1.88L1187.13,1463.895z" style="fill:#5091B9;"/>
					</g>
					<g>
						<path d="M1310.086,1452.336c0,0,15.538-6.406,19.768-4.331c4.23,2.075,4.42,20.189,2.304,24.509&#xA;&#9;&#9;&#9;&#9;&#9;&#9;&#9;c-2.116,4.32-19.998,1.88-19.998,1.88L1310.086,1452.336z" style="fill:#5091B9;"/>
					</g>
				</g>
				<g>
					<g>
						<path d="M1244.995,1530.936c0,0-3.398,16.459-0.571,20.229c2.827,3.769,20.66,0.579,24.509-2.304&#xA;&#9;&#9;&#9;&#9;&#9;&#9;&#9;c3.85-2.884-1.88-19.998-1.88-19.998L1244.995,1530.936z" style="fill:#5091B9;"/>
					</g>
					<g>
						<path d="M1233.435,1407.981c0,0-6.406-15.537-4.331-19.768c2.075-4.23,20.189-4.42,24.509-2.304&#xA;&#9;&#9;&#9;&#9;&#9;&#9;&#9;c4.32,2.116,1.88,19.998,1.88,19.998L1233.435,1407.981z" style="fill:#5091B9;"/>
					</g>
				</g>
				<g>
					<g>
						<path d="M1202.178,1509.4c0,0-14.041,9.236-14.707,13.9c-0.666,4.664,14.199,15.018,18.96,15.701&#xA;&#9;&#9;&#9;&#9;&#9;&#9;&#9;s12.811-15.47,12.811-15.47L1202.178,1509.4z" style="fill:#5091B9;"/>
					</g>
					<g>
						<path d="M1280.946,1414.283c0,0,6.457-15.517,10.915-17.04c4.458-1.524,17.401,11.151,18.96,15.701&#xA;&#9;&#9;&#9;&#9;&#9;&#9;&#9;c1.559,4.551-12.811,15.47-12.811,15.47L1280.946,1414.283z" style="fill:#5091B9;"/>
					</g>
				</g>
				<g>
					<g>
						<path d="M1207.866,1421.154c0,0-9.236-14.041-13.9-14.707c-4.664-0.666-15.018,14.199-15.701,18.96&#xA;&#9;&#9;&#9;&#9;&#9;&#9;&#9;c-0.683,4.762,15.47,12.811,15.47,12.811L1207.866,1421.154z" style="fill:#5091B9;"/>
					</g>
					<g>
						<path d="M1302.982,1499.923c0,0,15.516,6.457,17.04,10.915c1.524,4.458-11.151,17.401-15.701,18.96&#xA;&#9;&#9;&#9;&#9;&#9;&#9;&#9;s-15.47-12.811-15.47-12.811L1302.982,1499.923z" style="fill:#5091B9;"/>
					</g>
				</g>
			</g>
			<g>
				<g>
					<polygon points="1420.542,1713.781 1420.542,1792.318 1501.261,1792.318 1495.261,1713.781" style="fill:#1D3442;"/>
				</g>
				<g>
					<path d="M1370.96,1786.309c3.318-3.318,178.401,0.555,181.128,2.737c2.727,2.182,1.636,24.543,0,26.179&#xA;&#9;&#9;&#9;&#9;&#9;&#9;c-1.636,1.636-178.346,2.182-181.618,0C1367.197,1813.044,1367.142,1790.127,1370.96,1786.309z" style="fill:#28495C;"/>
				</g>
				<g>
					<path d="M1243.469,1447.626c3.973-5.959,413.05,4.363,416.686,7.999s8.981,255.974,7.527,261.065&#xA;&#9;&#9;&#9;&#9;&#9;&#9;c-1.454,5.09-417.667,2.909-424.212,0S1240.56,1451.989,1243.469,1447.626z" style="fill:#28495C;"/>
				</g>
				<g>
					<path d="M1643.212,1696.648c-0.36,1.175-28.171,1.91-68.51,2.271&#xA;&#9;&#9;&#9;&#9;&#9;&#9;c-14.281,0.125-30.113,0.219-46.853,0.266c-33.777,0.11-71.235,0.063-106.97-0.11c-6.577-0.047-13.076-0.063-19.496-0.109&#xA;&#9;&#9;&#9;&#9;&#9;&#9;c-39.932-0.251-76.308-0.626-101.035-1.096c-11.4-0.219-20.342-0.454-25.994-0.689c-4.025-0.172-6.389-0.36-6.812-0.532&#xA;&#9;&#9;&#9;&#9;&#9;&#9;c-4.385-1.879-3.602-129.77-1.848-193.519c0.11-3.821,0.219-7.407,0.329-10.742c0.016-0.626,0.047-1.237,0.063-1.848&#xA;&#9;&#9;&#9;&#9;&#9;&#9;c0.454-13.42,0.971-21.97,1.456-22.675c1.91-2.772,109.82-1.425,208.427,0.877c26.042,0.579,51.425,1.253,74.038,1.942&#xA;&#9;&#9;&#9;&#9;&#9;&#9;c5.653,0.172,11.134,0.345,16.396,0.517c35.421,1.143,61.557,2.255,68.4,3.101c1.033,0.125,1.613,0.251,1.738,0.36&#xA;&#9;&#9;&#9;&#9;&#9;&#9;c0.47,0.438,0.971,5.23,1.456,13.123c0.188,2.772,0.36,5.904,0.532,9.38c0.094,1.895,0.203,3.884,0.298,5.966&#xA;&#9;&#9;&#9;&#9;&#9;&#9;C1641.568,1562.306,1644.214,1693.281,1643.212,1696.648z" style="fill:#FFAB3B;"/>
				</g>
				<g>
					<path d="M1638.53,1497.162l-372.444-6.624c0.454-13.42,0.971-21.97,1.456-22.675&#xA;&#9;&#9;&#9;&#9;&#9;&#9;c1.91-2.772,109.82-1.425,208.427,0.877c26.042,0.579,51.425,1.253,74.038,1.942c5.653,0.172,11.134,0.345,16.396,0.517&#xA;&#9;&#9;&#9;&#9;&#9;&#9;c35.421,1.143,61.557,2.255,68.4,3.101c1.033,0.125,1.613,0.251,1.738,0.36c0.47,0.438,0.971,5.23,1.456,13.123&#xA;&#9;&#9;&#9;&#9;&#9;&#9;C1638.185,1490.554,1638.357,1493.686,1638.53,1497.162z" style="fill:#FF643B;"/>
				</g>
				<g>
					<g>
						<path d="M1302.714,1479.451c0,2.773-2.248,5.021-5.021,5.021s-5.021-2.248-5.021-5.021&#xA;&#9;&#9;&#9;&#9;&#9;&#9;&#9;c0-2.773,2.248-5.021,5.021-5.021S1302.714,1476.678,1302.714,1479.451z" style="fill:#FF863B;"/>
					</g>
					<g>
						<path d="M1318.902,1479.451c0,2.773-2.248,5.021-5.021,5.021s-5.021-2.248-5.021-5.021&#xA;&#9;&#9;&#9;&#9;&#9;&#9;&#9;c0-2.773,2.248-5.021,5.021-5.021S1318.902,1476.678,1318.902,1479.451z" style="fill:#FF863B;"/>
					</g>
					<g>
						<path d="M1335.09,1479.451c0,2.773-2.248,5.021-5.021,5.021c-2.773,0-5.021-2.248-5.021-5.021&#xA;&#9;&#9;&#9;&#9;&#9;&#9;&#9;c0-2.773,2.248-5.021,5.021-5.021C1332.842,1474.43,1335.09,1476.678,1335.09,1479.451z" style="fill:#FF863B;"/>
					</g>
				</g>
				<g>
					<g>
						<path d="M1295.531,1509.7c1.407-2.814,111.7-2.45,113.037,1.838&#xA;&#9;&#9;&#9;&#9;&#9;&#9;&#9;c1.336,4.288,0.538,148.878-0.457,154.359c-1.667,9.188-111.102,11.954-112.941,0.03&#xA;&#9;&#9;&#9;&#9;&#9;&#9;&#9;C1293.464,1654.871,1293.081,1514.601,1295.531,1509.7z" style="fill:#FF863B;"/>
					</g>
					<g>
						<path d="M1438.391,1597.923c1.439-1.495,114.239-1.302,115.606,0.976&#xA;&#9;&#9;&#9;&#9;&#9;&#9;&#9;c1.367,2.278,0.55,79.094-0.467,82.006c-1.705,4.881-113.627,6.351-115.508,0.016&#xA;&#9;&#9;&#9;&#9;&#9;&#9;&#9;C1436.277,1675.048,1435.885,1600.527,1438.391,1597.923z" style="fill:#FF863B;"/>
					</g>
					<g>
						<path d="M1608.21,1552.049c-1.284,1.253-60.179,1.895-96.384,1.362&#xA;&#9;&#9;&#9;&#9;&#9;&#9;&#9;c-15.707-0.219-27.138-0.658-27.749-1.362c-1.879-2.161-2.302-29.55,0.392-30.505c0.47-0.172,11.76-0.282,27.357-0.329&#xA;&#9;&#9;&#9;&#9;&#9;&#9;&#9;c36.283-0.125,95.867,0.094,96.901,0.673C1610.183,1522.734,1609.306,1550.968,1608.21,1552.049z" style="fill:#FF863B;"/>
					</g>
					<g>
						<g>
							<g>
								<path d="M1309.922,1600.316c0.294-0.396,16.357-1.16,16.554,0c0.196,1.16,0.196,13.611,0,14.539&#xA;&#9;&#9;&#9;&#9;&#9;&#9;&#9;&#9;&#9;c-0.197,0.928-16.406,0.619-16.554,0C1309.775,1614.236,1309.579,1600.78,1309.922,1600.316z" style="fill:#F04936;"/>
							</g>
						</g>
						<g>
							<g>
								<path d="M1332.66,1600.316c0.293-0.396,16.357-1.16,16.553,0s0.197,13.611,0,14.539&#xA;&#9;&#9;&#9;&#9;&#9;&#9;&#9;&#9;&#9;c-0.197,0.928-16.406,0.619-16.553,0C1332.513,1614.236,1332.316,1600.78,1332.66,1600.316z" style="fill:#F04936;"/>
							</g>
						</g>
					</g>
					<g>
						<g>
							<g>
								<rect height="8.926" width="83.602" style="fill:#FAD6B9;" y="1524.253" x="1309.731"/>
							</g>
						</g>
					</g>
					<g>
						<g>
							<g>
								<g>
									<rect height="4.604" width="35.12" style="fill:#FAD6B9;" y="1543.984" x="1309.731"/>
								</g>
							</g>
						</g>
						<g>
							<g>
								<g>
									<rect height="4.604" width="35.12" style="fill:#FAD6B9;" y="1553.709" x="1309.731"/>
								</g>
							</g>
						</g>
						<g>
							<g>
								<g>
									<rect height="4.604" width="35.12" style="fill:#FAD6B9;" y="1563.433" x="1309.731"/>
								</g>
							</g>
						</g>
						<g>
							<g>
								<g>
									<rect height="4.604" width="35.12" style="fill:#FAD6B9;" y="1573.158" x="1309.731"/>
								</g>
							</g>
						</g>
						<g>
							<g>
								<g>
									<rect height="4.604" width="35.12" style="fill:#FAD6B9;" y="1582.882" x="1309.731"/>
								</g>
							</g>
						</g>
					</g>
					<g>
						<g>
							<g>
								<path d="M1364.326,1544.564c0.51-0.374,28.41-1.094,28.751,0s0.341,12.837,0,13.712&#xA;&#9;&#9;&#9;&#9;&#9;&#9;&#9;&#9;&#9;s-28.495,0.583-28.751,0S1363.729,1545.002,1364.326,1544.564z" style="fill:#F04936;"/>
							</g>
						</g>
						<g>
							<g>
								<g>
									<g>
										<rect height="3.933" width="24.785" style="fill:#FAD6B9;" y="1568.554" x="1366.271"/>
									</g>
								</g>
							</g>
							<g>
								<g>
									<g>
										<rect height="3.934" width="24.785" style="fill:#FAD6B9;" y="1576.247" x="1366.271"/>
									</g>
								</g>
							</g>
							<g>
								<g>
									<g>
										<rect height="3.934" width="24.785" style="fill:#FAD6B9;" y="1583.94" x="1366.271"/>
									</g>
								</g>
							</g>
							<g>
								<g>
									<g>
										<rect height="3.934" width="16.705" style="fill:#FAD6B9;" y="1591.633" x="1366.271"/>
									</g>
								</g>
							</g>
						</g>
					</g>
					<g>
						<g>
							<g>
								<g>
									<rect height="8.926" width="83.602" style="fill:#FAD6B9;" y="1609.497" x="1453.864"/>
								</g>
							</g>
						</g>
						<g>
							<g>
								<g>
									<g>
										<rect height="4.604" width="44.483" style="fill:#FAD6B9;" y="1629.102" x="1453.864"/>
									</g>
								</g>
							</g>
							<g>
								<g>
									<g>
										<rect height="4.604" width="44.483" style="fill:#FAD6B9;" y="1638.827" x="1453.864"/>
									</g>
								</g>
							</g>
							<g>
								<g>
									<g>
										<rect height="4.604" width="44.483" style="fill:#FAD6B9;" y="1648.551" x="1453.864"/>
									</g>
								</g>
							</g>
							<g>
								<g>
									<g>
										<rect height="4.604" width="44.483" style="fill:#FAD6B9;" y="1658.276" x="1453.864"/>
									</g>
								</g>
							</g>
							<g>
								<g>
									<g>
										<rect height="4.604" width="21.557" style="fill:#FAD6B9;" y="1668" x="1453.864"/>
									</g>
								</g>
							</g>
						</g>
						<g>
							<g>
								<g>
									<g>
										<path d="M1508.458,1629.782c0.51-0.438,28.41-1.281,28.751,0c0.341,1.281,0.341,15.031,0,16.056&#xA;&#9;&#9;&#9;&#9;&#9;&#9;&#9;&#9;&#9;&#9;&#9;c-0.341,1.025-28.495,0.683-28.751,0C1508.203,1645.154,1507.861,1630.294,1508.458,1629.782z" style="fill:#F04936;"/>
									</g>
								</g>
							</g>
							<g>
								<g>
									<g>
										<path d="M1508.458,1655.902c0.51-0.437,28.41-1.281,28.751,0c0.341,1.281,0.341,15.031,0,16.056&#xA;&#9;&#9;&#9;&#9;&#9;&#9;&#9;&#9;&#9;&#9;&#9;c-0.341,1.025-28.495,0.683-28.751,0C1508.203,1671.274,1507.861,1656.414,1508.458,1655.902z" style="fill:#F04936;"/>
									</g>
								</g>
							</g>
						</g>
					</g>
					<g>
						<g>
							<g>
								<rect height="4.285" width="81.627" style="fill:#FFB03A;" y="1535.249" x="1519.38"/>
							</g>
						</g>
						<g>
							<rect height="4.285" width="57.075" style="fill:#FFF4EB;" y="1535.249" x="1543.932"/>
						</g>
						<g>
							<path d="M1548.56,1537.391c0,2.645-2.144,4.788-4.788,4.788c-2.644,0-4.788-2.144-4.788-4.788&#xA;&#9;&#9;&#9;&#9;&#9;&#9;&#9;&#9;s2.144-4.788,4.788-4.788C1546.416,1532.603,1548.56,1534.747,1548.56,1537.391z" style="fill:#FF643B;"/>
						</g>
					</g>
					<g>
						<path d="M1511.826,1521.215v32.196c-15.707-0.219-27.138-0.658-27.749-1.362&#xA;&#9;&#9;&#9;&#9;&#9;&#9;&#9;c-1.879-2.161-2.302-29.55,0.392-30.505C1484.939,1521.372,1496.229,1521.262,1511.826,1521.215z" style="fill:#FF643B;"/>
					</g>
					<g>
						<path d="M1492.271,1531.723c0.388-0.465,12.681,4.269,13.203,5.24&#xA;&#9;&#9;&#9;&#9;&#9;&#9;&#9;c0.522,0.971-10.523,7.04-12.377,6.639C1491.243,1543.201,1491.166,1533.05,1492.271,1531.723z" style="fill:#FFAB3B;"/>
					</g>
					<g>
						<g>
							<g>
								<path d="M1567.865,1570.672c0.81-1.092,45.12-3.2,45.663,0c0.542,3.2,0.542,37.546,0,40.106&#xA;&#9;&#9;&#9;&#9;&#9;&#9;&#9;&#9;&#9;c-0.542,2.56-45.256,1.707-45.663,0C1567.459,1609.071,1566.917,1571.952,1567.865,1570.672z" style="fill:#F04936;"/>
							</g>
						</g>
						<g>
							<g>
								<g>
									<path d="M1606.081,1589.702c0.62-0.026,1.218,0.039,1.787,0.193&#xA;&#9;&#9;&#9;&#9;&#9;&#9;&#9;&#9;&#9;&#9;c-0.364-2.565-1.315-4.928-2.708-6.954c-1.054,1.179-2.562,1.943-4.253,2.015c-3.372,0.144-6.226-2.509-6.371-5.922&#xA;&#9;&#9;&#9;&#9;&#9;&#9;&#9;&#9;&#9;&#9;c-0.043-1.014,0.155-1.98,0.553-2.841c-1.265-0.269-2.587-0.379-3.939-0.321c-0.986,0.042-1.947,0.174-2.878,0.386&#xA;&#9;&#9;&#9;&#9;&#9;&#9;&#9;&#9;&#9;&#9;c0.542,0.875,0.872,1.898,0.919,3.004c0.146,3.413-2.472,6.299-5.844,6.443c-2.052,0.087-3.909-0.86-5.084-2.385&#xA;&#9;&#9;&#9;&#9;&#9;&#9;&#9;&#9;&#9;&#9;c-1.146,1.775-1.952,3.787-2.338,5.944c0.462-0.138,0.947-0.218,1.445-0.239c3.372-0.144,6.225,2.503,6.371,5.922&#xA;&#9;&#9;&#9;&#9;&#9;&#9;&#9;&#9;&#9;&#9;c0.138,3.241-2.219,6.008-5.346,6.4c1.828,2.766,4.464,4.928,7.549,6.151c-0.216-0.587-0.35-1.222-0.378-1.887&#xA;&#9;&#9;&#9;&#9;&#9;&#9;&#9;&#9;&#9;&#9;c-0.146-3.418,2.472-6.299,5.844-6.443c3.372-0.144,6.225,2.503,6.371,5.922c0.039,0.912-0.12,1.79-0.442,2.583&#xA;&#9;&#9;&#9;&#9;&#9;&#9;&#9;&#9;&#9;&#9;c3.08-1.121,5.713-3.152,7.593-5.77c-2.597-0.62-4.576-2.928-4.696-5.756&#xA;&#9;&#9;&#9;&#9;&#9;&#9;&#9;&#9;&#9;&#9;C1600.091,1592.726,1602.709,1589.846,1606.081,1589.702z M1592.035,1596.592c-2.37,0.101-4.377-1.765-4.48-4.164&#xA;&#9;&#9;&#9;&#9;&#9;&#9;&#9;&#9;&#9;&#9;s1.739-4.429,4.109-4.53s4.377,1.765,4.48,4.164S1594.404,1596.49,1592.035,1596.592z" style="fill:#FF863B;"/>
								</g>
								<g>
									<path d="M1593.195,1588.182c-0.463-0.141-0.955-0.212-1.464-0.19&#xA;&#9;&#9;&#9;&#9;&#9;&#9;&#9;&#9;&#9;&#9;c-2.37,0.101-4.211,2.131-4.109,4.53c0.027,0.623,0.179,1.207,0.435,1.729c-1.68-0.536-2.936-2.09-3.016-3.973&#xA;&#9;&#9;&#9;&#9;&#9;&#9;&#9;&#9;&#9;&#9;c-0.102-2.399,1.739-4.429,4.109-4.53C1590.905,1585.672,1592.467,1586.676,1593.195,1588.182z" style="fill:#FF863B;"/>
								</g>
								<g>
									<path d="M1602.42,1599.751l2.514,2.151c0,0-1.568,1.852-3.343,0.573&#xA;&#9;&#9;&#9;&#9;&#9;&#9;&#9;&#9;&#9;&#9;C1599.815,1601.195,1602.42,1599.751,1602.42,1599.751z" style="fill:#FF863B;"/>
								</g>
								<g>
									<path d="M1594.827,1605.521l2.514,2.151c0,0,2.893-2.64,1.218-4.56&#xA;&#9;&#9;&#9;&#9;&#9;&#9;&#9;&#9;&#9;&#9;C1596.883,1601.191,1594.827,1605.521,1594.827,1605.521z" style="fill:#FF863B;"/>
								</g>
								<g>
									<path d="M1592.576,1574.042l2.514,2.151c0,0-2.766,1.774-3.883,0.983&#xA;&#9;&#9;&#9;&#9;&#9;&#9;&#9;&#9;&#9;&#9;C1590.089,1576.385,1592.576,1574.042,1592.576,1574.042z" style="fill:#FF863B;"/>
								</g>
								<g>
									<path d="M1602.647,1580.79l2.514,2.151c0,0,1.142,2.752-1.118,2.171&#xA;&#9;&#9;&#9;&#9;&#9;&#9;&#9;&#9;&#9;&#9;C1601.781,1584.531,1602.647,1580.79,1602.647,1580.79z" style="fill:#FF863B;"/>
								</g>
								<g>
									<path d="M1573.413,1587.112l2.514,2.151c0,0,1.935-0.711,1.293-2.313&#xA;&#9;&#9;&#9;&#9;&#9;&#9;&#9;&#9;&#9;&#9;C1576.578,1585.348,1573.413,1587.112,1573.413,1587.112z" style="fill:#FF863B;"/>
								</g>
								<g>
									<path d="M1603.567,1587.552c0.62-0.026,1.218,0.039,1.787,0.193&#xA;&#9;&#9;&#9;&#9;&#9;&#9;&#9;&#9;&#9;&#9;c-0.364-2.565-1.315-4.927-2.708-6.954c-1.054,1.179-2.562,1.943-4.253,2.015c-1.119,0.048-2.176-0.214-3.1-0.707&#xA;&#9;&#9;&#9;&#9;&#9;&#9;&#9;&#9;&#9;&#9;c-1.864-0.99-3.174-2.934-3.271-5.215c-0.043-1.014,0.155-1.98,0.553-2.841c-1.265-0.269-2.587-0.379-3.939-0.321&#xA;&#9;&#9;&#9;&#9;&#9;&#9;&#9;&#9;&#9;&#9;c-0.986,0.042-1.947,0.175-2.878,0.386c0.542,0.875,0.872,1.898,0.919,3.004c0.146,3.413-2.472,6.299-5.844,6.443&#xA;&#9;&#9;&#9;&#9;&#9;&#9;&#9;&#9;&#9;&#9;c-2.052,0.088-3.909-0.86-5.084-2.385c-1.146,1.775-1.952,3.787-2.339,5.944c0.462-0.138,0.947-0.218,1.445-0.239&#xA;&#9;&#9;&#9;&#9;&#9;&#9;&#9;&#9;&#9;&#9;c3.064-0.131,5.701,2.047,6.268,5.012c0.055,0.293,0.089,0.598,0.103,0.91c0.138,3.241-2.219,6.008-5.346,6.4&#xA;&#9;&#9;&#9;&#9;&#9;&#9;&#9;&#9;&#9;&#9;c1.828,2.766,4.464,4.928,7.549,6.151c-0.216-0.588-0.349-1.222-0.378-1.887c-0.146-3.418,2.472-6.299,5.844-6.443&#xA;&#9;&#9;&#9;&#9;&#9;&#9;&#9;&#9;&#9;&#9;c3.372-0.144,6.225,2.503,6.371,5.922c0.039,0.912-0.12,1.79-0.442,2.583c3.08-1.121,5.713-3.152,7.593-5.77&#xA;&#9;&#9;&#9;&#9;&#9;&#9;&#9;&#9;&#9;&#9;c-2.597-0.62-4.576-2.928-4.696-5.756C1597.578,1590.576,1600.196,1587.695,1603.567,1587.552z M1589.521,1594.441&#xA;&#9;&#9;&#9;&#9;&#9;&#9;&#9;&#9;&#9;&#9;c-2.333,0.099-4.311-1.703-4.469-4.046c-0.007-0.037-0.009-0.08-0.01-0.118c-0.102-2.399,1.739-4.429,4.109-4.53&#xA;&#9;&#9;&#9;&#9;&#9;&#9;&#9;&#9;&#9;&#9;c0.875-0.037,1.697,0.191,2.395,0.618c1.194,0.729,2.02,2.032,2.084,3.545&#xA;&#9;&#9;&#9;&#9;&#9;&#9;&#9;&#9;&#9;&#9;C1593.732,1592.31,1591.891,1594.34,1589.521,1594.441z" style="fill:#FFAB3B;"/>
								</g>
							</g>
						</g>
					</g>
				</g>
				<g>
					<g>
						<path d="M1550.014,1470.687l-148.633,228.279c-39.933-0.247-76.308-0.632-101.035-1.099&#xA;&#9;&#9;&#9;&#9;&#9;&#9;&#9;c-11.402-0.22-20.344-0.453-25.99-0.687l201.616-228.444C1502.004,1469.327,1527.39,1470,1550.014,1470.687z" style="fill:#1A1A1A;"/>
					</g>
					<g>
						<path d="M1634.798,1474.3l-106.955,224.886c-33.765,0.11-71.226,0.055-106.969-0.11l145.528-227.881&#xA;&#9;&#9;&#9;&#9;&#9;&#9;&#9;C1601.83,1472.335,1627.957,1473.462,1634.798,1474.3z" style="fill:#1A1A1A;"/>
					</g>
				</g>
			</g>
		</g>
		<g>
			<g>
				<g>
					<path d="M936.961,1428.887c14.296,87.775,97.04,147.341,184.816,133.045&#xA;&#9;&#9;&#9;&#9;&#9;&#9;c87.775-14.296,147.341-97.041,133.046-184.816c-14.296-87.776-97.041-147.342-184.816-133.046&#xA;&#9;&#9;&#9;&#9;&#9;&#9;C982.231,1258.367,922.664,1341.111,936.961,1428.887z M968.695,1423.718c-11.445-70.273,36.208-136.468,106.48-147.914&#xA;&#9;&#9;&#9;&#9;&#9;&#9;c70.272-11.445,136.468,36.208,147.913,106.48s-36.208,136.468-106.48,147.913&#xA;&#9;&#9;&#9;&#9;&#9;&#9;C1046.336,1541.643,980.14,1493.991,968.695,1423.718z" style="fill:#79C5EE;"/>
				</g>
				<g style="opacity:0.5;">
					
						<ellipse ry="128.873" rx="128.873" cy="1403.001" cx="1095.891" style="fill:#FFFFFF;" transform="matrix(0.7071 -0.7071 0.7071 0.7071 -671.0927 1185.8417)"/>
				</g>
				<g>
					<path d="M982.65,1509.402c0,0-204.583,203.675-205.443,210.057&#xA;&#9;&#9;&#9;&#9;&#9;&#9;c-2.028,15.045,27.369,38.408,40.999,31.746c8.023-3.922,192.506-216.488,192.506-216.488L982.65,1509.402z" style="fill:#79C5EE;"/>
				</g>
				<g>
					
						<ellipse ry="84.373" rx="37.206" cy="1346.983" cx="1135.277" style="fill:#808080;" transform="matrix(0.5842 -0.8116 0.8116 0.5842 -621.1832 1481.3879)"/>
				</g>
			</g>
			<g>
				<g>
					<path d="M829.242,1509.868c2.044-14.811-26.576-39.384-39.182-31.979&#xA;&#9;&#9;&#9;&#9;&#9;&#9;c-12.607,7.406-12.952,23.9-12.952,23.9s-15.327-15.148-27.593,2.356c-12.266,17.504,15.332,43.698,6.474,57.531&#xA;&#9;&#9;&#9;&#9;&#9;&#9;c-8.859,13.832-29.983,19.218-17.377,43.118s56.105,15.484,62.806,3.703c6.701-11.782,21.351-73.481,21.351-73.481&#xA;&#9;&#9;&#9;&#9;&#9;&#9;s8.581-7.873,9.54-12.694C833.268,1517.502,829.242,1509.868,829.242,1509.868z" style="fill:#40312A;"/>
				</g>
				<g>
					<path d="M836.028,1523.978c9.057,6.592,14.168,17.868,13.316,19.046&#xA;&#9;&#9;&#9;&#9;&#9;&#9;c-0.852,1.178-11.641,3.703-13.316,2.861C834.353,1545.044,836.028,1523.978,836.028,1523.978z" style="fill:#FD9B73;"/>
				</g>
				<g>
					<path d="M777.113,1555.984c-0.341,9.762,16.354,5.694,16.354,5.694s-4.088,43.789-1.704,48.838&#xA;&#9;&#9;&#9;&#9;&#9;&#9;c2.385,5.049,32.709,2.693,31.346,0c-0.852-1.655-4.117-13.493-6.53-22.357c-1.505-5.554-2.669-9.958-2.669-9.958&#xA;&#9;&#9;&#9;&#9;&#9;&#9;s0.114,0.084,0.341,0.196c1.42,0.673,13.629,2.455,20.358-1.543c13.123-7.796,9.625-41.404-5.366-66.987&#xA;&#9;&#9;&#9;&#9;&#9;&#9;c0,0,1.363,7.911-6.474,10.94c-5.077,1.963-12.89-2.188-12.89-2.188s-0.398,15.147-7.553,19.86&#xA;&#9;&#9;&#9;&#9;&#9;&#9;C795.17,1543.193,777.453,1546.222,777.113,1555.984z" style="fill:#FEC6AB;"/>
				</g>
				<g>
					<path d="M801.417,1567.934c0.284,1.094,5.025,17.644,15.161,20.225&#xA;&#9;&#9;&#9;&#9;&#9;&#9;c-1.505-5.554-2.669-9.958-2.669-9.958C806.159,1574.05,801.843,1568.467,801.417,1567.934z" style="fill:#FD9B73;"/>
				</g>
				<g>
					<g>
						<path d="M730.618,1928.792c-1.607,2.896-2.184,6.183-1.542,9.653c2.222,11.75,36.19,49.941,50.76,50.61&#xA;&#9;&#9;&#9;&#9;&#9;&#9;&#9;c1.63,0.06,3.02-0.34,4.089-1.29c4.823-4.278,2.793-16.026-1.254-28.24c-0.27-0.805-0.539-1.61-0.83-2.407&#xA;&#9;&#9;&#9;&#9;&#9;&#9;&#9;c-0.991-2.848-2.096-5.679-3.198-8.439c-0.343-0.874-0.699-1.719-1.048-2.543c-4.132-9.814-8.44-18.072-10.014-20.546&#xA;&#9;&#9;&#9;&#9;&#9;&#9;&#9;c-4.101-6.506-5.194-8.582-6.64-8.731C746.951,1915.414,734.983,1920.694,730.618,1928.792z" style="fill:#1A7EB4;"/>
					</g>
					<g>
						<path d="M730.618,1928.792c-1.607,2.896-2.184,6.183-1.542,9.653c2.222,11.75,36.19,49.941,50.76,50.61&#xA;&#9;&#9;&#9;&#9;&#9;&#9;&#9;c0.014-0.029,0.014-0.029,0.014-0.029C753.431,1950.874,738.896,1934.711,730.618,1928.792z" style="fill:#12405B;"/>
					</g>
					<g>
						<g>
							<g>
								<path d="M763.785,1942.683c-0.357,0.008-0.643,0.276-0.656,0.636&#xA;&#9;&#9;&#9;&#9;&#9;&#9;&#9;&#9;&#9;c0.002,0.071,0.032,0.155,0.055,0.218c0.092,0.252,0.325,0.43,0.589,0.43c7.885,0.038,12.265,2.177,14.869,4.711&#xA;&#9;&#9;&#9;&#9;&#9;&#9;&#9;&#9;&#9;c-0.343-0.874-0.699-1.719-1.048-2.543C774.719,1944.172,770.42,1942.715,763.785,1942.683z" style="fill:#FFFFFF;"/>
							</g>
						</g>
						<g>
							<g>
								<path d="M767.712,1953.447c-0.365-0.012-0.643,0.276-0.656,0.637&#xA;&#9;&#9;&#9;&#9;&#9;&#9;&#9;&#9;&#9;c0.002,0.071,0.025,0.133,0.048,0.196c0.092,0.252,0.325,0.43,0.589,0.43c8.006,0.042,12.388,2.251,14.978,4.814&#xA;&#9;&#9;&#9;&#9;&#9;&#9;&#9;&#9;&#9;c-0.27-0.805-0.539-1.61-0.83-2.407C778.969,1955.034,774.582,1953.467,767.712,1953.447z" style="fill:#FFFFFF;"/>
							</g>
						</g>
					</g>
				</g>
				<g>
					<path d="M852.751,1725.303c34.753,54.027,44.464,94.421,38.842,114.618&#xA;&#9;&#9;&#9;&#9;&#9;&#9;c-5.622,20.197-117.036,95.936-125.213,94.421c-8.177-1.515-12.266-5.554-12.266-14.138s18.91-50.493,38.842-64.631&#xA;&#9;&#9;&#9;&#9;&#9;&#9;c19.932-14.138,51.619-22.722,51.619-22.722s-30.707-91.897-20.975-105.53C833.331,1713.69,852.751,1725.303,852.751,1725.303z" style="fill:#367394;"/>
				</g>
				<g>
					<g>
						<path d="M822.101,2011.674c1.127,3.109,3.234,5.717,6.288,7.544c10.373,6.153,61.833,6.38,72.005-3.947&#xA;&#9;&#9;&#9;&#9;&#9;&#9;&#9;c1.127-1.165,1.746-2.458,1.736-3.878c-0.04-6.403-10.284-12.697-22.22-17.809c-0.788-0.335-1.577-0.669-2.374-0.983&#xA;&#9;&#9;&#9;&#9;&#9;&#9;&#9;c-2.814-1.157-5.691-2.219-8.513-3.235c-0.889-0.326-1.766-0.624-2.621-0.913c-10.174-3.457-19.285-5.751-22.204-6.229&#xA;&#9;&#9;&#9;&#9;&#9;&#9;&#9;c-7.648-1.285-9.946-1.854-11.018-0.884C822.806,1990.724,818.865,2003.075,822.101,2011.674z" style="fill:#1A7EB4;"/>
					</g>
					<g>
						<path d="M822.101,2011.674c1.127,3.109,3.234,5.717,6.288,7.544c10.373,6.153,61.833,6.38,72.005-3.947&#xA;&#9;&#9;&#9;&#9;&#9;&#9;&#9;c-0.013-0.029-0.013-0.029-0.013-0.029C853.959,2009.461,832.076,2009.482,822.101,2011.674z" style="fill:#12405B;"/>
					</g>
					<g>
						<g>
							<g>
								<path d="M854.626,1996.372c-0.23,0.27-0.217,0.659,0.047,0.907c0.055,0.046,0.138,0.079,0.202,0.103&#xA;&#9;&#9;&#9;&#9;&#9;&#9;&#9;&#9;&#9;c0.252,0.099,0.541,0.045,0.717-0.15c5.26-5.804,9.785-7.622,13.432-7.866c-0.889-0.326-1.766-0.624-2.621-0.913&#xA;&#9;&#9;&#9;&#9;&#9;&#9;&#9;&#9;&#9;C863.007,1989.277,859.052,1991.489,854.626,1996.372z" style="fill:#FFFFFF;"/>
							</g>
						</g>
						<g>
							<g>
								<path d="M865.383,2000.611c-0.251,0.261-0.217,0.659,0.047,0.907c0.055,0.046,0.117,0.07,0.18,0.095&#xA;&#9;&#9;&#9;&#9;&#9;&#9;&#9;&#9;&#9;c0.252,0.099,0.541,0.045,0.716-0.15c5.344-5.891,9.924-7.664,13.583-7.878c-0.788-0.335-1.577-0.669-2.374-0.983&#xA;&#9;&#9;&#9;&#9;&#9;&#9;&#9;&#9;&#9;C874.053,1993.342,869.956,1995.545,865.383,2000.611z" style="fill:#FFFFFF;"/>
							</g>
						</g>
					</g>
				</g>
				<g>
					<path d="M809.907,1899.671c-1.59,18.178,15.928,79.442,21.834,85.922&#xA;&#9;&#9;&#9;&#9;&#9;&#9;c3.18,3.478,8.149,5.638,13.061,5.077c0.937-0.112,1.846-0.309,2.754-0.617c3.236-1.066,6.303-3.45,8.66-7.546&#xA;&#9;&#9;&#9;&#9;&#9;&#9;c6.502-11.417,19.364-134.675-3.464-257.204c0,0-1.505-34.672-46.507,3.03c-52.641,44.097,10.051,120.172,12.095,129.71&#xA;&#9;&#9;&#9;&#9;&#9;&#9;C820.383,1867.552,811.525,1881.494,809.907,1899.671z" style="fill:#5091B9;"/>
				</g>
				<g>
					<g>
						<path d="M844.802,1990.671c0.937-0.112,1.846-0.309,2.754-0.617c2.3-57.562-3.72-221.691-12.834-265.03&#xA;&#9;&#9;&#9;&#9;&#9;&#9;&#9;l-2.782,0.561C841.111,1769.148,847.215,1934.876,844.802,1990.671z" style="fill:#FFFFFF;"/>
					</g>
				</g>
				<g>
					<path d="M806.244,1728.333c9.483,9.173,35.264,3.029,46.507-3.03&#xA;&#9;&#9;&#9;&#9;&#9;&#9;c11.244-6.059,21.465-73.214,21.465-73.214s27.939-1.178,48.382-20.702c20.443-19.524,37.138-48.81,37.138-48.81&#xA;&#9;&#9;&#9;&#9;&#9;&#9;s6.814-5.049,12.947-14.643c6.133-9.594,11.925-40.226,3.748-43.957c-8.177-3.731-16.354,22.077-16.354,22.077&#xA;&#9;&#9;&#9;&#9;&#9;&#9;s-0.681-12.96-5.111-11.024c-4.429,1.908-11.414,32.905-11.414,32.905s-50.596,34.167-71.38,38.851&#xA;&#9;&#9;&#9;&#9;&#9;&#9;c-20.784,4.684-60.988-15.456-81.034,0C791.139,1606.786,781.201,1704.096,806.244,1728.333z" style="fill:#FF643B;"/>
				</g>
				<g>
					<path d="M943.552,1567.934c4.458,0.168,14.225,9.425,16.184,14.643c0,0,6.814-5.049,12.947-14.643&#xA;&#9;&#9;&#9;&#9;&#9;&#9;c6.133-9.594,11.925-40.226,3.748-43.957c-8.177-3.731-16.354,22.077-16.354,22.077s-0.681-12.96-5.111-11.024&#xA;&#9;&#9;&#9;&#9;&#9;&#9;C950.537,1536.937,943.552,1567.934,943.552,1567.934z" style="fill:#FEC6AB;"/>
				</g>
			</g>
		</g>
		<g>
			<g>
				<g>
					<path d="M1317.588,857.104c0,23.606-3.565,45.336-10.683,65.201&#xA;&#9;&#9;&#9;&#9;&#9;&#9;c-7.118,19.865-17.707,37.092-31.756,51.703c-14.06,14.623-31.58,26.057-52.559,34.289&#xA;&#9;&#9;&#9;&#9;&#9;&#9;c-20.991,8.244-45.16,12.372-72.506,12.372c-27.734,0-52.09-4.128-73.069-12.372c-20.991-8.232-38.51-19.666-52.559-34.289&#xA;&#9;&#9;&#9;&#9;&#9;&#9;c-14.049-14.611-24.65-31.838-31.756-51.703c-7.13-19.865-10.683-41.595-10.683-65.201V612.59h87.693v241.137&#xA;&#9;&#9;&#9;&#9;&#9;&#9;c0,12.36,1.958,23.805,5.898,34.289c3.929,10.496,9.452,19.584,16.582,27.265c7.106,7.681,15.643,13.673,25.576,17.977&#xA;&#9;&#9;&#9;&#9;&#9;&#9;c9.921,4.315,20.698,6.473,32.319,6.473c11.609,0,22.292-2.158,32.037-6.473c9.745-4.304,18.177-10.296,25.295-17.977&#xA;&#9;&#9;&#9;&#9;&#9;&#9;c7.118-7.681,12.641-16.769,16.582-27.265c3.928-10.484,5.899-21.929,5.899-34.289V612.59h87.693V857.104z" style="fill:#FF643B;"/>
				</g>
			</g>
			<g>
				<g>
					<path d="M1395.973,688.385c4.926-23.24,25.724-62.647,68.414-39.112&#xA;&#9;&#9;&#9;&#9;&#9;&#9;c42.69,23.534,37.765,83.35,93.591,88.471c55.826,5.12,112.199-9.881,108.368,39.763&#xA;&#9;&#9;&#9;&#9;&#9;&#9;c-3.831,49.644-78.266,22.826-78.266,22.826s-11.494,49.258-64.583,24.629c-53.089-24.629-61.299-142.301-79.36-152.153&#xA;&#9;&#9;&#9;&#9;&#9;&#9;c-18.061-9.852-33.386,25.174-33.386,25.174L1395.973,688.385z" style="fill:#40312A;"/>
				</g>
				<g>
					<path d="M1384.753,711.667c-9.304-21.345,5.796-32.407,13.023-30.16&#xA;&#9;&#9;&#9;&#9;&#9;&#9;c7.227,2.247,10.511,12.92,10.511,12.92s12.588-3.563,16.419,3.555c3.831,7.118-1.368,24.632-8.21,25.179&#xA;&#9;&#9;&#9;&#9;&#9;&#9;s-34.686-4.105-34.686-4.105L1384.753,711.667z" style="fill:#FFB03A;"/>
				</g>
				<g>
					<path d="M1422.47,772.793c11.815-16.793,14.004-55.653-2.689-60.852&#xA;&#9;&#9;&#9;&#9;&#9;&#9;c-16.693-5.199-27.913,4.926-27.913,4.926s-2.463-19.156-25.997-18.882c-23.534,0.274-25.724,31.471-10.125,45.701&#xA;&#9;&#9;&#9;&#9;&#9;&#9;c15.599,14.23,50.626,33.705,58.289,33.819C1421.697,777.618,1422.47,772.793,1422.47,772.793z" style="fill:#40312A;"/>
				</g>
				<g>
					<path d="M1355.561,752.1c-2.483,9.852-4.41,21.55-3.099,22.987c2.649,2.904,12.725,0,12.725,0&#xA;&#9;&#9;&#9;&#9;&#9;&#9;L1355.561,752.1z" style="fill:#FD9B73;"/>
				</g>
				<g>
					<path d="M1381.812,799.237c14.777,2.873,21.55-11.859,21.55-11.859s2.6,2.212,6.294,5.427&#xA;&#9;&#9;&#9;&#9;&#9;&#9;c6.568,5.701,16.625,14.572,21.619,19.84c7.799,8.21,29.145-18.517,24.219-25.268c-4.926-6.75-43.648-19.065-43.648-19.065&#xA;&#9;&#9;&#9;&#9;&#9;&#9;s9.578-16.419-2.326-16.032c-10.262,0.319-18.061,3.717-29.555,0.433c-11.494-3.284-12.725-11.904-12.725-11.904&#xA;&#9;&#9;&#9;&#9;&#9;&#9;s-1.026,4.515-5.245,5.337c-4.196,0.821-6.249-2.463-6.249-2.463C1353.83,769.682,1367.034,796.364,1381.812,799.237z" style="fill:#FEC6AB;"/>
				</g>
				<g>
					<g>
						<path d="M1644.963,984.374c1.87-2.508,4.478-4.293,7.717-5.112&#xA;&#9;&#9;&#9;&#9;&#9;&#9;&#9;c10.987-2.734,57.099,11.146,63.34,23.284c0.685,1.363,0.881,2.704,0.479,3.988c-1.81,5.789-12.72,8.685-24.817,10.048&#xA;&#9;&#9;&#9;&#9;&#9;&#9;&#9;c-0.798,0.087-1.597,0.175-2.396,0.241c-2.839,0.278-5.707,0.452-8.514,0.6c-0.886,0.052-1.753,0.082-2.598,0.109&#xA;&#9;&#9;&#9;&#9;&#9;&#9;&#9;c-10.062,0.346-18.851-0.07-21.595-0.436c-7.199-0.93-9.414-1.043-10.104-2.215&#xA;&#9;&#9;&#9;&#9;&#9;&#9;&#9;C1639.789,1003.542,1639.684,991.277,1644.963,984.374z" style="fill:#FE653B;"/>
					</g>
					<g>
						<path d="M1644.963,984.374c1.87-2.508,4.478-4.293,7.717-5.112&#xA;&#9;&#9;&#9;&#9;&#9;&#9;&#9;c10.987-2.734,57.099,11.146,63.34,23.284c-0.019,0.023-0.019,0.023-0.019,0.023&#xA;&#9;&#9;&#9;&#9;&#9;&#9;&#9;C1672.858,995.1,1653.282,989.091,1644.963,984.374z" style="fill:#F04936;"/>
					</g>
					<g>
						<g>
							<g>
								<path d="M1669.828,1007.137c-0.132-0.307-0.012-0.656,0.293-0.809&#xA;&#9;&#9;&#9;&#9;&#9;&#9;&#9;&#9;&#9;c0.061-0.026,0.146-0.033,0.209-0.039c0.253-0.021,0.496,0.107,0.6,0.332c3.099,6.696,6.645,9.582,9.841,10.801&#xA;&#9;&#9;&#9;&#9;&#9;&#9;&#9;&#9;&#9;c-0.886,0.052-1.753,0.082-2.598,0.109C1675.363,1015.857,1672.436,1012.771,1669.828,1007.137z" style="fill:#FFFFFF;"/>
							</g>
						</g>
						<g>
							<g>
								<path d="M1680.629,1006.242c-0.152-0.305-0.012-0.656,0.294-0.809&#xA;&#9;&#9;&#9;&#9;&#9;&#9;&#9;&#9;&#9;c0.061-0.026,0.124-0.031,0.188-0.037c0.253-0.021,0.496,0.107,0.6,0.332c3.15,6.798,6.757,9.657,9.972,10.854&#xA;&#9;&#9;&#9;&#9;&#9;&#9;&#9;&#9;&#9;c-0.798,0.087-1.597,0.175-2.396,0.241C1686.374,1015.199,1683.317,1012.082,1680.629,1006.242z" style="fill:#FFFFFF;"/>
							</g>
						</g>
					</g>
				</g>
				<g>
					<path d="M1509.814,928.952c0,0,31.06,71.053,50.763,84.544c19.703,13.492,91.538,8.814,93.18,3.535&#xA;&#9;&#9;&#9;&#9;&#9;&#9;c1.642-5.279,3.284-10.062-4.379-17.101c-7.662-7.039-24.629-18.178-43.238-21.994c-18.609-3.816-29.555,2.636-29.555,2.636&#xA;&#9;&#9;&#9;&#9;&#9;&#9;s-15.486-97.908-26.752-106.237C1538.569,866.005,1509.814,928.952,1509.814,928.952z" style="fill:#1D3442;"/>
				</g>
				<g>
					<g>
						<path d="M1517.625,1031.164c-1.037,2.951-2.994,5.432-5.842,7.18&#xA;&#9;&#9;&#9;&#9;&#9;&#9;&#9;c-9.673,5.885-57.825,6.382-67.401-3.344c-1.061-1.097-1.647-2.318-1.646-3.664c0.002-6.065,9.553-12.082,20.694-16.989&#xA;&#9;&#9;&#9;&#9;&#9;&#9;&#9;c0.736-0.321,1.472-0.643,2.216-0.944c2.627-1.111,5.313-2.132,7.949-3.11c0.83-0.314,1.649-0.6,2.448-0.879&#xA;&#9;&#9;&#9;&#9;&#9;&#9;&#9;c9.501-3.33,18.015-5.552,20.743-6.021c7.149-1.259,9.297-1.811,10.305-0.898&#xA;&#9;&#9;&#9;&#9;&#9;&#9;&#9;C1516.85,1011.326,1520.606,1023.002,1517.625,1031.164z" style="fill:#FE653B;"/>
					</g>
					<g>
						<path d="M1517.625,1031.164c-1.037,2.951-2.994,5.432-5.842,7.18&#xA;&#9;&#9;&#9;&#9;&#9;&#9;&#9;c-9.673,5.885-57.825,6.382-67.401-3.344c0.012-0.028,0.012-0.028,0.012-0.028&#xA;&#9;&#9;&#9;&#9;&#9;&#9;&#9;C1487.801,1029.242,1508.279,1029.142,1517.625,1031.164z" style="fill:#F04936;"/>
					</g>
					<g>
						<g>
							<g>
								<path d="M1487.105,1016.849c0.217,0.254,0.207,0.623-0.039,0.859&#xA;&#9;&#9;&#9;&#9;&#9;&#9;&#9;&#9;&#9;c-0.051,0.044-0.129,0.075-0.188,0.099c-0.235,0.095-0.506,0.046-0.671-0.138c-4.954-5.468-9.199-7.166-12.613-7.377&#xA;&#9;&#9;&#9;&#9;&#9;&#9;&#9;&#9;&#9;c0.83-0.314,1.649-0.6,2.448-0.879C1479.223,1010.175,1482.937,1012.248,1487.105,1016.849z" style="fill:#FFFFFF;"/>
							</g>
						</g>
						<g>
							<g>
								<path d="M1477.063,1020.923c0.237,0.246,0.207,0.623-0.039,0.859&#xA;&#9;&#9;&#9;&#9;&#9;&#9;&#9;&#9;&#9;c-0.051,0.043-0.109,0.067-0.168,0.091c-0.235,0.095-0.506,0.046-0.671-0.138c-5.033-5.55-9.329-7.204-12.754-7.388&#xA;&#9;&#9;&#9;&#9;&#9;&#9;&#9;&#9;&#9;c0.736-0.321,1.472-0.643,2.216-0.944C1468.909,1014.085,1472.756,1016.15,1477.063,1020.923z" style="fill:#FFFFFF;"/>
							</g>
						</g>
					</g>
				</g>
				<g>
					<path d="M1423.339,949.474c3.831,22.303,59.862,60.752,69.19,63.078&#xA;&#9;&#9;&#9;&#9;&#9;&#9;c4.264,1.072,8.05,1.277,11.129,0.319c0.753-0.205,1.482-0.502,2.144-0.89c2.554-1.414,4.401-3.922,5.336-7.708&#xA;&#9;&#9;&#9;&#9;&#9;&#9;c2.189-8.803-11.265-36.465-19.977-46.886c-10.49-12.588-24.834-16.123-24.834-16.123s75.78,1.186,87.274-35.188&#xA;&#9;&#9;&#9;&#9;&#9;&#9;c11.493-36.374-22.349-42.531-22.349-42.531l-13.432,7.366l-2.052,1.14l-23.74,13.044&#xA;&#9;&#9;&#9;&#9;&#9;&#9;C1447.968,901.379,1419.508,927.194,1423.339,949.474z" style="fill:#1F435C;"/>
				</g>
				<g>
					<g>
						<path d="M1481.81,990.911c9.122,8.187,17.856,16.055,21.847,21.961c0.753-0.205,1.482-0.502,2.144-0.89&#xA;&#9;&#9;&#9;&#9;&#9;&#9;&#9;c-4.059-6.226-12.77-14.048-22.462-22.782c-18.837-16.967-42.303-38.084-34.914-52.063&#xA;&#9;&#9;&#9;&#9;&#9;&#9;&#9;c3.17-5.975,16.442-11.836,30.467-18.039c19.749-8.711,42.12-18.586,44.469-32.474c0.867-5.131-0.958-10.308-5.542-15.713&#xA;&#9;&#9;&#9;&#9;&#9;&#9;&#9;c-1.14-1.345-2.463-2.714-3.945-4.105l-1.551,1.688c1.3,1.209,2.44,2.395,3.443,3.558c4.356,4.994,6.089,9.646,5.336,14.184&#xA;&#9;&#9;&#9;&#9;&#9;&#9;&#9;c-2.144,12.68-23.922,22.303-43.124,30.786c-15.051,6.636-28.027,12.36-31.562,19.065&#xA;&#9;&#9;&#9;&#9;&#9;&#9;&#9;C1438.185,951.618,1461.377,972.485,1481.81,990.911z" style="fill:#7699B0;"/>
					</g>
				</g>
				<g>
					<path d="M1277.343,837.275c-0.046,17.651,43.512,14.413,43.512,14.413s39.406,21.299,70.603,19.247&#xA;&#9;&#9;&#9;&#9;&#9;&#9;c31.197-2.052,46.795-18.061,46.795-18.061s0.023,0.114,0.091,0.342c0.433,1.573,2.508,8.324,6.476,11.562&#xA;&#9;&#9;&#9;&#9;&#9;&#9;c4.515,3.694,35.302,17.24,47.206,18.882c1.847,0.25,4.059,0.045,6.476-0.479c0.98-0.228,2.007-0.524,3.079-0.867&#xA;&#9;&#9;&#9;&#9;&#9;&#9;c12.725-3.991,28.893-15.256,29.669-18.768c0.114-0.456-0.091-1.277-0.57-2.395c-3.991-9.623-27.64-41.299-43.329-57.126&#xA;&#9;&#9;&#9;&#9;&#9;&#9;c-17.492-17.651-41.87-23.01-41.87-23.01c-24.173,9.258-26.932,43.534-63.876,47.229c-36.943,3.694-60.341,3.603-60.341,3.603&#xA;&#9;&#9;&#9;&#9;&#9;&#9;s-18.472-9.76-22.166-7.297c-3.695,2.463,6.568,7.845,6.568,7.845S1277.366,827.287,1277.343,837.275z" style="fill:#FFB03A;"/>
				</g>
				<g>
					<path d="M1277.343,837.275c-0.046,17.651,43.512,14.413,43.512,14.413&#xA;&#9;&#9;&#9;&#9;&#9;&#9;c-3.284-9.487,0.41-19.84,0.41-19.84s-18.472-9.76-22.166-7.297c-3.695,2.463,6.568,7.845,6.568,7.845&#xA;&#9;&#9;&#9;&#9;&#9;&#9;S1277.366,827.287,1277.343,837.275z" style="fill:#FEC6AB;"/>
				</g>
				<g>
					<path d="M1403.362,787.379c0,0,2.6,2.212,6.294,5.427c1.072-8.506-1.688-18.13-1.688-18.13&#xA;&#9;&#9;&#9;&#9;&#9;&#9;S1407.672,779.488,1403.362,787.379z" style="fill:#FD9B73;"/>
				</g>
			</g>
		</g>
		<g>
			<g>
				<path d="M1858.688,1815.226l-131.72-190.263h110.334l85.002,139.6l81.62-139.6h106.388L1981.4,1813.535&#xA;&#9;&#9;&#9;&#9;&#9;l144.11,209.969h-110.334l-97.38-160.434l-94.574,160.434h-104.133L1858.688,1815.226z" style="fill:#FF643B;"/>
			</g>
		</g>
		<g>
			<g>
				<g>
					<path d="M2020.744,1411.18c-21.275-6.361-39.669-42.257-31.318-54.154&#xA;&#9;&#9;&#9;&#9;&#9;&#9;c8.351-11.897,22.484-3.67,22.484-3.67s-4.76-31.956,16.544-33.576c21.304-1.62,24.911,13.534,24.911,13.534&#xA;&#9;&#9;&#9;&#9;&#9;&#9;s14.903-14.29,30.529,3.688c15.626,17.978-3.345,35.902-3.345,35.902s-36.2,32.451-42.04,33.478&#xA;&#9;&#9;&#9;&#9;&#9;&#9;C2032.668,1407.409,2020.744,1411.18,2020.744,1411.18z" style="fill:#40312A;"/>
				</g>
				<g>
					<path d="M2081.5,1382.896c5.409,9.695,4.75,22.615,4.316,23.588c-0.435,0.973-12.547-1.198-12.609-1.798&#xA;&#9;&#9;&#9;&#9;&#9;&#9;S2081.5,1382.896,2081.5,1382.896z" style="fill:#FD9B73;"/>
				</g>
				<g>
					<path d="M2058.171,1428.717c-11.746-0.591-17.919-11.058-18.274-11.676&#xA;&#9;&#9;&#9;&#9;&#9;&#9;c-0.02-0.028-0.02-0.028-0.02-0.028s-1.807,4.721-3.928,10.605c-3.196,8.934-4.342,22.5-3.952,24.428&#xA;&#9;&#9;&#9;&#9;&#9;&#9;c0.653,3.198-21.152-10.336-23.886-16.05c-2.734-5.714,16.512-36.464,16.512-36.464s-11.671-5.435-9.783-14.704&#xA;&#9;&#9;&#9;&#9;&#9;&#9;c1.889-9.269,16.923,1.97,30.618-0.736c13.695-2.705,16.393-20.067,16.393-20.067s3.015,8.416,10.034,10.526&#xA;&#9;&#9;&#9;&#9;&#9;&#9;c7.02,2.11,8.664-1.648,8.664-1.648C2085.587,1402.902,2070.038,1429.325,2058.171,1428.717z" style="fill:#FEC6AB;"/>
				</g>
				<g>
					<path d="M2039.876,1417.014c0,0-1.807,4.721-3.928,10.605c-3.601-6.897-3.28-20.21-3.28-20.21&#xA;&#9;&#9;&#9;&#9;&#9;&#9;S2035.144,1412.346,2039.876,1417.014z" style="fill:#FD9B73;"/>
				</g>
			</g>
			<g>
				<path d="M2215.874,1762.803c2.806,2.557,6.325,4.083,10.373,4.313&#xA;&#9;&#9;&#9;&#9;&#9;c13.722,0.725,65.468-26.441,70.107-42.343c0.502-1.783,0.427-3.425-0.348-4.862c-3.491-6.48-17.158-7.417-31.887-6.253&#xA;&#9;&#9;&#9;&#9;&#9;c-0.971,0.08-1.943,0.16-2.911,0.265c-3.447,0.324-6.905,0.777-10.284,1.248c-1.068,0.142-2.107,0.307-3.121,0.469&#xA;&#9;&#9;&#9;&#9;&#9;c-12.069,1.906-22.446,4.428-25.631,5.497c-8.365,2.767-10.977,3.412-11.53,4.969&#xA;&#9;&#9;&#9;&#9;&#9;C2205.292,1741.156,2207.993,1755.795,2215.874,1762.803z" style="fill:#FE653B;"/>
			</g>
			<g>
				<path d="M2215.874,1762.803c2.806,2.557,6.325,4.083,10.373,4.313&#xA;&#9;&#9;&#9;&#9;&#9;c13.722,0.725,65.468-26.441,70.107-42.343c-0.028-0.023-0.028-0.023-0.028-0.023&#xA;&#9;&#9;&#9;&#9;&#9;C2246.641,1743.594,2224.7,1755.266,2215.874,1762.803z" style="fill:#F04936;"/>
			</g>
			<g>
				<g>
					<g>
						<path d="M2240.256,1729.949c-0.086,0.396,0.137,0.785,0.536,0.896c0.079,0.017,0.181,0.006,0.258-0.002&#xA;&#9;&#9;&#9;&#9;&#9;&#9;&#9;c0.306-0.033,0.567-0.242,0.638-0.534c2.149-8.693,5.709-12.949,9.236-15.138c-1.068,0.142-2.107,0.307-3.121,0.469&#xA;&#9;&#9;&#9;&#9;&#9;&#9;&#9;C2244.841,1718.283,2242.065,1722.634,2240.256,1729.949z" style="fill:#FFFFFF;"/>
					</g>
				</g>
				<g>
					<g>
						<path d="M2253.332,1728.526c-0.111,0.399,0.137,0.785,0.536,0.896c0.079,0.017,0.156,0.009,0.232,0.001&#xA;&#9;&#9;&#9;&#9;&#9;&#9;&#9;c0.306-0.033,0.567-0.242,0.638-0.534c2.186-8.826,5.826-13.065,9.381-15.232c-0.971,0.08-1.943,0.16-2.911,0.265&#xA;&#9;&#9;&#9;&#9;&#9;&#9;&#9;C2258.113,1716.529,2255.189,1720.948,2253.332,1728.526z" style="fill:#FFFFFF;"/>
					</g>
				</g>
			</g>
			<g>
				<path d="M1970.804,1596.132c26.772,65.54,152.637,27.99,152.637,27.99s75.102,110.567,86.228,110.567&#xA;&#9;&#9;&#9;&#9;&#9;c4.115,0,8.808-1.449,13.155-3.651c0.869-0.406,1.738-0.869,2.608-1.391c6.374-3.709,11.59-8.808,12.749-13.038&#xA;&#9;&#9;&#9;&#9;&#9;c2.086-7.649-36.856-119.607-78.579-142.555c-41.723-22.948-107.09-13.908-107.09-13.908l-35.407,15.588l-2.666,1.159&#xA;&#9;&#9;&#9;&#9;&#9;L1970.804,1596.132z" style="fill:#5091B9;"/>
			</g>
			<g>
				<g>
					<path d="M2014.382,1576.835c0,0,0,0.058,0.058,0.058c8.287,14.603,33.031,14.256,59.224,13.908&#xA;&#9;&#9;&#9;&#9;&#9;&#9;c24.339-0.348,51.864-0.753,69.133,10.894c23.469,15.762,64.961,98.166,80.028,129.342c0.869-0.406,1.738-0.869,2.608-1.391&#xA;&#9;&#9;&#9;&#9;&#9;&#9;c-15.183-31.467-56.674-113.986-81.012-130.385c-18.022-12.112-46.07-11.706-70.814-11.358&#xA;&#9;&#9;&#9;&#9;&#9;&#9;c-25.149,0.348-48.909,0.637-56.5-12.169c-0.058-0.116-0.116-0.174-0.174-0.29L2014.382,1576.835z" style="fill:#FFFFFF;"/>
				</g>
			</g>
			<g>
				<path d="M2010.664,1425.161c10.729,16.595,21.997,13.466,21.997,13.466s35.15,112.653,33.585,122.562&#xA;&#9;&#9;&#9;&#9;&#9;c-1.565,9.909-87.097,42.766-95.442,34.943c-8.345-7.823-25.556-45.374-6.259-99.614&#xA;&#9;&#9;&#9;&#9;&#9;C1983.842,1442.277,2010.664,1425.161,2010.664,1425.161z" style="fill:#79C5EE;"/>
			</g>
			<g>
				<g>
					<path d="M2161.696,1571.181l53.521-71.314c1.048-1.398,0.765-3.379-0.63-4.427&#xA;&#9;&#9;&#9;&#9;&#9;&#9;c-1.398-1.051-3.379-0.765-4.427,0.63l-51.309,68.371l-85.795-11.017c-1.745-0.233-3.317,0.999-3.537,2.732&#xA;&#9;&#9;&#9;&#9;&#9;&#9;c-0.223,1.73,1,3.314,2.732,3.537L2161.696,1571.181z" style="fill:#28495C;"/>
				</g>
			</g>
			<g>
				<path d="M2082.796,1539.545c14.743-4.433,37.835,6.398,37.111,18.845&#xA;&#9;&#9;&#9;&#9;&#9;c-0.725,12.447-36.935,6.259-40.995,4.007C2074.851,1560.146,2082.796,1539.545,2082.796,1539.545z" style="fill:#FEC6AB;"/>
			</g>
			<g>
				<path d="M2010.664,1425.161c-50.291,18.682-75.847,65.099-70.631,99.52&#xA;&#9;&#9;&#9;&#9;&#9;c5.215,34.422,134.095,43.288,136.857,41.202c2.762-2.086,8.437-22.426,4.633-28.685c-3.804-6.258-79.949-17.489-85.686-25.955&#xA;&#9;&#9;&#9;&#9;&#9;S2010.664,1425.161,2010.664,1425.161z" style="fill:#5091B9;"/>
			</g>
		</g>
		<g>
			<path d="M2501.316,2130.325H409.866c-60.793,0-110.076-49.283-110.076-110.076v0h2311.603v0&#xA;&#9;&#9;&#9;&#9;C2611.392,2081.042,2562.11,2130.325,2501.316,2130.325z" style="fill:#65658C;"/>
		</g>
		<g>
			<g>
				<path d="M1301.339,2079.521c12.713-0.868,331.545,56.754,331.545,56.754l108.738,69.148l-140.931,19.115&#xA;&#9;&#9;&#9;&#9;&#9;c0,0-325.635-83.443-324.797-93.482C1279.403,2088.983,1301.339,2079.521,1301.339,2079.521z" style="fill:#79C5EE;"/>
			</g>
			<g>
				<polygon points="1600.69,2224.538 1632.883,2136.275 1707.177,2183.519 1702.599,2210.715" style="fill:#FFD194;"/>
			</g>
			<g>
				
					<ellipse ry="114.724" rx="12.304" cy="2129.015" cx="1488.575" style="fill:#333333;" transform="matrix(0.1741 -0.9847 0.9847 0.1741 -867.0753 3224.2195)"/>
			</g>
		</g>
		<g>
			<g>
				<path d="M1187.298,1794.193l80.07,25.156l-114.16,363.366l-80.07-25.156L1187.298,1794.193z" style="fill:#FF643B;"/>
			</g>
		</g>
		<g>
			<g>
				
					<ellipse ry="107.755" rx="100.511" cy="1858.994" cx="2752.709" style="fill:#FFB03A;" transform="matrix(0.7548 -0.656 0.656 0.7548 -544.4363 2261.6069)"/>
			</g>
			<g>
				<path d="M2650.565,1869.833c-8.595,26.13-54.81,44.39-60.902,55.913&#xA;&#9;&#9;&#9;&#9;&#9;c-8.634,16.333,10.636,46.386,29.619,41.302s46.406-26.371,73.337-27.08C2719.551,1939.259,2650.565,1869.833,2650.565,1869.833&#xA;&#9;&#9;&#9;&#9;&#9;z" style="fill:#FFB03A;"/>
			</g>
			<g>
				<g>
					<path d="M2651.799,1929.053l-8.327-9.581l99.873-86.802c0.749-0.651,1.882-0.571,2.532,0.177&#xA;&#9;&#9;&#9;&#9;&#9;&#9;c0.651,0.749,0.572,1.881-0.177,2.532l-97.163,84.447l4.307,4.956l120.35-47.516c0.92-0.363,1.962,0.09,2.33,1.01&#xA;&#9;&#9;&#9;&#9;&#9;&#9;c0.363,0.922-0.089,1.966-1.01,2.33L2651.799,1929.053z" style="fill:#FD7816;"/>
				</g>
			</g>
			<g>
				<g>
					<path d="M2590.884,1934.874c-1.211-1.393-1.172-3.503,0.135-4.852c1.381-1.423,3.653-1.456,5.077-0.077&#xA;&#9;&#9;&#9;&#9;&#9;&#9;c12.191,11.825,25.009,21.905,30.486,24.182c-1.655-3.353-6.106-9.235-9.262-13.406c-8.973-11.86-16.059-21.227-10.049-26.162&#xA;&#9;&#9;&#9;&#9;&#9;&#9;c5.661-4.648,14.771,3.477,27.382,14.725c5.516,4.92,14.572,12.995,17.851,13.856c0.038-0.095,0.067-0.216,0.087-0.378&#xA;&#9;&#9;&#9;&#9;&#9;&#9;c0.897-6.992-17.841-29.81-25.84-39.553c-1.259-1.532-1.036-3.795,0.495-5.052c1.532-1.26,3.813-1.085,5.052,0.495&#xA;&#9;&#9;&#9;&#9;&#9;&#9;c21.194,25.809,28.368,37.591,27.414,45.022c-0.299,2.341-1.435,4.289-3.281,5.631c-5.327,3.87-12.77-2.366-26.559-14.665&#xA;&#9;&#9;&#9;&#9;&#9;&#9;c-5.133-4.578-13.251-11.818-17.23-13.738c1.448,3.651,6.921,10.887,10.401,15.487c8.611,11.38,14.832,19.601,9.382,24.075&#xA;&#9;&#9;&#9;&#9;&#9;&#9;c-5.455,4.479-19.361-4.056-41.331-25.365C2591.021,1935.026,2590.95,1934.95,2590.884,1934.874z" style="fill:#FE653B;"/>
				</g>
			</g>
			<g>
				<g>
					<path d="M2761.654,1903.265c-2.968-3.415-2.207-6.898-0.835-10.81c1.12-3.198,2.18-6.219,0.035-10.06&#xA;&#9;&#9;&#9;&#9;&#9;&#9;c-2.209-3.951-6.13-5.891-10.286-7.95c-6.448-3.189-13.755-6.817-13.526-18.755c0.193-10.156-1.528-16.422-5.434-19.727&#xA;&#9;&#9;&#9;&#9;&#9;&#9;c-3.61-3.052-9.382-3.781-17.648-2.226c-0.976,0.181-1.914-0.466-2.096-1.432c-0.183-0.974,0.458-1.912,1.431-2.096&#xA;&#9;&#9;&#9;&#9;&#9;&#9;c9.395-1.768,16.144-0.782,20.63,3.013c4.79,4.044,6.921,11.212,6.705,22.536c-0.185,9.668,5.242,12.356,11.53,15.471&#xA;&#9;&#9;&#9;&#9;&#9;&#9;c4.463,2.215,9.075,4.507,11.827,9.419c2.934,5.251,1.428,9.547,0.218,12.997c-1.593,4.538-2.553,7.277,6.615,11.491&#xA;&#9;&#9;&#9;&#9;&#9;&#9;c0.902,0.41,1.295,1.48,0.882,2.38c-0.413,0.901-1.48,1.296-2.38,0.882C2765.568,1906.672,2763.142,1904.976,2761.654,1903.265&#xA;&#9;&#9;&#9;&#9;&#9;&#9;z" style="fill:#FE653B;"/>
				</g>
			</g>
			<g>
				
					<ellipse ry="58.155" rx="22.616" cy="1803.931" cx="2779.149" style="fill:#333333;" transform="matrix(0.4451 -0.8955 0.8955 0.4451 -73.2459 3489.6587)"/>
			</g>
		</g>
		<g>
			<g>
				<path d="M256.446,1423.519c54.302-14.822,86.307-70.858,71.485-125.161&#xA;&#9;&#9;&#9;&#9;&#9;c-14.822-54.302-70.858-86.307-125.16-71.485c-54.303,14.822-86.307,70.858-71.485,125.161&#xA;&#9;&#9;&#9;&#9;&#9;C146.108,1406.336,202.144,1438.341,256.446,1423.519z M251.087,1403.887c-43.474,11.866-88.303-13.737-100.17-57.212&#xA;&#9;&#9;&#9;&#9;&#9;c-11.866-43.474,13.737-88.303,57.212-100.169c43.474-11.867,88.303,13.737,100.169,57.211&#xA;&#9;&#9;&#9;&#9;&#9;C320.165,1347.191,294.562,1392.02,251.087,1403.887z" style="fill:#FE653B;"/>
			</g>
			<g>
				<circle r="81.569" cy="1325.196" cx="229.608" style="fill:#FFB03A;"/>
			</g>
			<g>
				<path d="M304.096,1389.418c0,0,141.778,115.263,145.852,115.381c9.605,0.278,22.361-19.776,17.263-27.913&#xA;&#9;&#9;&#9;&#9;&#9;c-3.001-4.79-149.041-106.812-149.041-106.812L304.096,1389.418z" style="fill:#FE653B;"/>
			</g>
			<g>
				
					<ellipse ry="23.549" rx="53.403" cy="1304.121" cx="191.734" style="fill:#333333;" transform="matrix(0.496 -0.8683 0.8683 0.496 -1035.7882 823.8275)"/>
			</g>
		</g>
		<g>
			<g>
				<g>
					<polygon points="2250.548,840.211 2247.915,826.623 2400.852,796.956 2274.354,706.024 &#xA;&#9;&#9;&#9;&#9;&#9;&#9;2282.431,694.785 2434.967,804.435" style="fill:#FFB03A;"/>
				</g>
			</g>
			<g>
				
					<ellipse ry="36.534" rx="36.534" cy="800.695" cx="2417.91" style="fill:#FE653B;" transform="matrix(0.8421 -0.5393 0.5393 0.8421 -50.0774 1430.329)"/>
			</g>
			<g>
				<g>
					
						<ellipse ry="36.534" rx="36.534" cy="700.405" cx="2278.392" style="fill:#FE653B;" transform="matrix(0.8421 -0.5393 0.5393 0.8421 -18.0204 1339.2531)"/>
				</g>
				<g>
					
						<ellipse ry="36.534" rx="36.534" cy="833.417" cx="2249.231" style="fill:#FE653B;" transform="matrix(0.4578 -0.8891 0.8891 0.4578 478.669 2451.6667)"/>
				</g>
			</g>
		</g>
		<g>
			<g>
				<path d="M584.086,774.84c5.238,3.04,11.812,7.913,19.721,14.617c9.35,7.868,15.729,12.98,19.14,15.338&#xA;&#9;&#9;&#9;&#9;&#9;c3.41,2.357,5.286,5.141,5.628,8.352c0.342,3.211-0.529,6.155-2.614,8.834c-2.084,2.679-4.688,4.185-7.812,4.517&#xA;&#9;&#9;&#9;&#9;&#9;c-2.43,0.259-4.956-0.394-7.58-1.957c-3.739-2.147-11.924-8.559-24.557-19.236c-9.647-8.187-18.671-13.413-27.073-15.677&#xA;&#9;&#9;&#9;&#9;&#9;c-6.853-1.727-10.534-4.977-11.042-9.75c-0.462-4.339,2.148-8.258,7.831-11.759c7.654-4.764,15.756-12.734,24.307-23.912&#xA;&#9;&#9;&#9;&#9;&#9;c11.953-15.489,19.096-24.432,21.429-26.83c2.333-2.398,4.802-3.736,7.405-4.013c3.124-0.333,6.006,0.567,8.646,2.699&#xA;&#9;&#9;&#9;&#9;&#9;c2.64,2.132,4.131,4.803,4.473,8.014c0.314,2.95-0.692,5.865-3.018,8.746C611.583,742.559,599.955,756.565,584.086,774.84z" style="fill:#FF643B;"/>
			</g>
			<g>
				<path d="M679.743,857.323c-3.211,0.342-6.146-0.443-8.806-2.353c-2.661-1.911-4.162-4.471-4.503-7.682&#xA;&#9;&#9;&#9;&#9;&#9;c-0.148-1.388-0.001-2.896,0.44-4.522c4.782-19.376,14.676-47.611,29.681-84.704c15.006-37.094,24.938-65.376,29.798-84.848&#xA;&#9;&#9;&#9;&#9;&#9;c8.06-32.274,15.01-48.59,20.852-48.948c3.22-0.255,6.162,0.594,8.827,2.548c2.665,1.954,4.164,4.493,4.496,7.617&#xA;&#9;&#9;&#9;&#9;&#9;c0.212,1.996-0.011,4.433-0.67,7.311l-10.808,36.954c-4.105,16.671-10.419,36.079-18.943,58.222l-22.637,56.904l-18.001,54.7&#xA;&#9;&#9;&#9;&#9;&#9;C687.67,853.891,684.428,856.825,679.743,857.323z" style="fill:#FF643B;"/>
			</g>
			<g>
				<path d="M878.467,737.05c0.333,3.124-0.945,6.375-3.832,9.754c-18.61,21.375-38.466,40.513-59.571,57.414&#xA;&#9;&#9;&#9;&#9;&#9;c-2.263,1.82-4.479,2.846-6.649,3.077c-3.124,0.333-5.967-0.615-8.529-2.843c-2.563-2.228-4.01-4.904-4.343-8.028&#xA;&#9;&#9;&#9;&#9;&#9;c-0.37-3.471,0.999-6.688,4.106-9.651l46.398-43.902c-8.267-4.297-18.648-11.134-31.142-20.51&#xA;&#9;&#9;&#9;&#9;&#9;c-15.278-11.624-23.185-19.953-23.721-24.985c-0.333-3.124,0.591-5.986,2.771-8.588c2.18-2.602,4.832-4.068,7.956-4.401&#xA;&#9;&#9;&#9;&#9;&#9;c3.211-0.342,6.274,0.824,9.191,3.497c22.139,20.02,41.678,33.341,58.617,39.961&#xA;&#9;&#9;&#9;&#9;&#9;C875.117,729.904,878.033,732.972,878.467,737.05z" style="fill:#FF643B;"/>
			</g>
		</g>
		<g>
			<g>
				<g>
					<path d="M1719.088,652.181c-64.062,0-116.18-52.118-116.18-116.18c0-64.061,52.118-116.18,116.18-116.18&#xA;&#9;&#9;&#9;&#9;&#9;&#9;s116.18,52.118,116.18,116.18C1835.268,600.063,1783.15,652.181,1719.088,652.181z M1719.088,455.442&#xA;&#9;&#9;&#9;&#9;&#9;&#9;c-44.42,0-80.559,36.139-80.559,80.559c0,44.42,36.139,80.559,80.559,80.559s80.559-36.139,80.559-80.559&#xA;&#9;&#9;&#9;&#9;&#9;&#9;C1799.647,491.581,1763.508,455.442,1719.088,455.442z" style="fill:#FF643B;"/>
				</g>
			</g>
			<g>
				<g>
					<path d="M1611.869,517.918c0,0-27.902-8.549-34.877-4.274c-6.975,4.274-4.36,35.621,0,42.745&#xA;&#9;&#9;&#9;&#9;&#9;&#9;c4.36,7.124,34.877,0,34.877,0V517.918z" style="fill:#FF643B;"/>
				</g>
				<g>
					<path d="M1826.307,517.918c0,0,27.902-8.549,34.877-4.274c6.975,4.274,4.36,35.621,0,42.745&#xA;&#9;&#9;&#9;&#9;&#9;&#9;c-4.36,7.124-34.877,0-34.877,0V517.918z" style="fill:#FF643B;"/>
				</g>
			</g>
			<g>
				<g>
					<path d="M1701.005,643.22c0,0-8.549,27.902-4.275,34.877c4.275,6.975,35.621,4.36,42.745,0&#xA;&#9;&#9;&#9;&#9;&#9;&#9;c7.124-4.36,0-34.877,0-34.877H1701.005z" style="fill:#FF643B;"/>
				</g>
				<g>
					<path d="M1701.005,428.782c0,0-8.549-27.902-4.275-34.877c4.275-6.975,35.621-4.36,42.745,0&#xA;&#9;&#9;&#9;&#9;&#9;&#9;c7.124,4.36,0,34.877,0,34.877H1701.005z" style="fill:#FF643B;"/>
				</g>
			</g>
			<g>
				<g>
					<path d="M1630.486,599.03c0,0-25.775,13.685-27.685,21.639c-1.91,7.955,22.105,28.271,30.225,30.225&#xA;&#9;&#9;&#9;&#9;&#9;&#9;c8.12,1.955,24.662-24.662,24.662-24.662L1630.486,599.03z" style="fill:#FF643B;"/>
				</g>
				<g>
					<path d="M1782.117,447.399c0,0,13.685-25.775,21.639-27.685c7.955-1.91,28.271,22.105,30.225,30.225&#xA;&#9;&#9;&#9;&#9;&#9;&#9;c1.955,8.12-24.662,24.662-24.662,24.662L1782.117,447.399z" style="fill:#FF643B;"/>
				</g>
			</g>
			<g>
				<g>
					<path d="M1654.662,447.399c0,0-13.685-25.775-21.639-27.685c-7.955-1.91-28.271,22.105-30.225,30.225&#xA;&#9;&#9;&#9;&#9;&#9;&#9;c-1.955,8.12,24.662,24.662,24.662,24.662L1654.662,447.399z" style="fill:#FF643B;"/>
				</g>
				<g>
					<path d="M1806.292,599.03c0,0,25.775,13.685,27.685,21.639c1.91,7.955-22.105,28.271-30.226,30.225&#xA;&#9;&#9;&#9;&#9;&#9;&#9;c-8.12,1.955-24.662-24.662-24.662-24.662L1806.292,599.03z" style="fill:#FF643B;"/>
				</g>
			</g>
		</g>
	</g>
</g>
</svg>