<?xml version="1.0" encoding="UTF-8"?>
<svg version="1.1" viewBox="0 0 1600 775" width="1825" height="885" xmlns="http://www.w3.org/2000/svg">
<path transform="translate(370)" d="m0 0h1036l8 7 6 8 6 11 2 12v20l-3 10-7 13-9 10-4 4v5l2 1h124l20 1 12 2 9 5 10 9 8 11 4 10 2 7v22l-4 12-5 10-9 11-10 7-10 4-6 1-148 1v107l2 3h141l12 2 9 3 9 7 8 8 8 14 3 9v23l-3 11-7 13-11 12-10 6-12 3-12 1-136 1-1 1v105l1 2 56 1 16 3 11 7 9 9 8 13 4 14v20l-5 16-7 11-8 8-10 6-6 4-7 7-7 4-10 4-18 2-85 1-27 1-27 3-21 1-2-1 1 3-12 1-9 1-2-1v2l-17 1-3 1-2-1-4 2-1-1v1l-15 1-3 1-27-1-2-2-43 1-10 1-36 1-18-1-165-1-99-1-31 1-17 2-3 1-20 1h-39l-16-3-3-1v50l13 1 17 3 18 3 26 7 2 2v5l-6 4-16 4-20 4-33 3-22 1h-169l-26-1-29-3-16-3-20-6-4-4 2-5 9-4 11-3 14-3 1-1v-17l-4-1-8 3-9-1h-14v6l-2 1-19 2h-102l-8-1-34-2-33-3-8-1-20-1-29-3-25-6-3-2v-5l7-3 11-3 19-3h19l6 3v-24l-1-25-8 2h-112l-12-3-10-6-8-7-8-11-5-14-1-5v-21l4-13 7-12 9-9 11-7 10-3 9-1h114l1-7-1-108-1-3-3 5-4 2h-24l-10-2-13-7-9-8-8-13-4-10-1-7v-17l2-10 7-14 8-10 11-8 11-4 8-1h16l14 1 1-5v-108l-9 1h-22l-12-2-12-6-14-14-5-10-3-9-1-6v-16l2-10 5-13 10-13 10-7 10-4 10-1 195-1 22-2 16-8 5-5 7-9 6-13 1-4 1-15-1-14-4-11-9-12-7-7zm-211 164-3 4 1 12 2 9 4 7 1 3 3-1 1-11 2-19-2-4zm7 178-5 7-2 1-2 10v21l2 10 2 5h2l2 5h2l2-10v-31l-1-17z" fill="#0A2E45"/>
<path transform="translate(370)" d="m0 0h1036l8 7 6 8 6 11 2 12v20l-3 10-7 13-9 10-4 4v5l2 1h124l20 1 12 2 9 5 10 9 8 11 4 10 2 7v22l-4 12-5 10-9 11-10 7-10 4-6 1-148 1v107l2 3h141l12 2 9 3 9 7 8 8 8 14 3 9v23l-3 11-7 13-11 12-10 6-12 3-12 1-136 1-1 1v105l1 2 56 1 16 3 11 7 9 9 8 13 4 14v20l-5 16-7 11-8 8-10 6-6 4-7 7-7 4-10 4-18 2-85 1-27 1-27 3-21 1-2-1 1 3-12 1-9 1-2-1v2l-17 1-3 1-2-1-4 2-1-1v1l-15 1-3 1-27-1-2-2-43 1-10 1-36 1-18-1-165-1-99-1-31 1-17 2-3 1-20 1h-39l-16-3-3-1v50l13 1 17 3 18 3 26 7 2 2v5l-6 4-16 4-20 4-33 3-22 1h-169l-26-1-29-3-16-3-20-6-4-4 2-5 9-4 11-3 14-3 1-1v-17l-4-1-8 3-9-1h-14v6l-2 1-19 2h-102l-8-1-34-2-33-3-8-1-20-1-29-3-25-6-3-2v-5l7-3 11-3 19-3h19l6 3v-6l2 4 2 15 6 2 248 1 1 28 2 6 5 2h227l5-2 2-4 1-149 76-1h623l18-1 8-3 4-5 2-7v-561l-3-9-6-4-7-2h-881l-10 3-3 1-3 9-1 130-1 1-309 1-4 4-1 2-1 11v41l-1 108h-1v-108l-9 1h-22l-12-2-12-6-14-14-5-10-3-9-1-6v-16l2-10 5-13 10-13 10-7 10-4 10-1 195-1 22-2 16-8 5-5 7-9 6-13 1-4 1-15-1-14-4-11-9-12-7-7zm-211 164-3 4 1 12 2 9 4 7 1 3 3-1 1-11 2-19-2-4z" fill="#9ED5F3"/>
<path transform="translate(436,328)" d="m0 0h221l1 1v379l-1 1h-220l-1-1v-39h91v-202h-91z" fill="#0BA8D0"/>
<path transform="translate(198,435)" d="m0 0h229v268h-229z" fill="#FCFCFB"/>
<path transform="translate(1393,598)" d="m0 0 83 1 3 2v35l-4 1h-798l-6-1v38h655v1l-33 4-22 1-2-1 1 3-12 1-9 1-2-1v2l-17 1-3 1-2-1-4 2-1-1v1l-15 1-3 1-27-1-2-2-43 1-10 1-36 1-18-1-165-1-99-1-31 1-17 2-3 1-20 1h-39l-16-3-3-1v50l13 1 17 3 18 3 26 7 2 2v5l-6 4-16 4-20 4-33 3-22 1h-169l-26-1-29-3-16-3-20-6-4-4 2-5 9-4 11-3 14-3 1-1v-17l-4-1-8 3-9-1h-14v6l-2 1-19 2h-102l-8-1-34-2-33-3-8-1-20-1-29-3-25-6-3-2v-5l7-3 11-3 19-3h19l6 3v-6l2 4 2 15 6 2 248 1 1 28 2 6 5 2h227l5-2 2-4 1-149 76-1h623l18-1z" fill="#BABBBC"/>
<path transform="translate(198,174)" d="m0 0h321v117l-1 1h-84l-4-8-3-2h-40l-5 2-1 8 2 6 4 1 40 1v20h-229z" fill="#D4D4D5"/>
<path transform="translate(671,636)" d="m0 0h808v12h-3v6l-10 10-7 4-10 4-18 2-85 1-675-1z" fill="#D5D5D6"/>
<path transform="translate(528,467)" d="m0 0h128l1 1v200l-2 2-127-1z" fill="#FDFDFC"/>
<path transform="translate(1321,53)" d="m0 0h42l2 1v514l-2 1h-42l-2-4v-511z" fill="#323B3E"/>
<path transform="translate(1403,321)" d="m0 0 3 3h141l12 2 9 3 9 7 8 8 8 14 3 9v23l-3 11-7 13-11 12-10 6-12 3-12 1-137 1-1-1z" fill="#A1D8F6"/>
<path transform="translate(1404,100)" d="m0 0 3 1h124l20 1 12 2 9 5 10 9 8 11 4 10 2 7v22l-4 12-5 10-9 11-10 7-10 4-6 1-148 1-1-1v-112z" fill="#A1D8F6"/>
<path transform="translate(670,602)" d="m0 0h1v72h655v1l-33 4-22 1-2-1 1 3-12 1-9 1-2-1v2l-17 1-3 1-2-1-4 2-1-1v1l-15 1-3 1-27-1-2-2-43 1-10 1-36 1-18-1-165-1-99-1-31 1-17 2-3 1-20 1h-39l-16-3-3-1v50l13 1 17 3 18 3 26 7 2 2v5l-6 4-16 4-20 4-33 3-22 1h-169l-26-1-29-3-16-3-20-6-4-4 2-5 9-4 11-3 14-3 1-1v-17l-4-1-8 3-9-1h-14v6l-2 1-19 2h-102l-8-1-34-2-33-3-8-1-20-1-29-3-25-6-3-2v-5l7-3 11-3 19-3h19l6 3v-6l2 4 2 15 6 2 248 1 1 28 2 6 5 2h227l5-2 2-4z" fill="#53A5CA"/>
<path transform="translate(198,435)" d="m0 0h229v105h-10l-1-1v-81h10v-22h-219l1 200 218 1v-5h-10v-82h10l1-2v155h-229z" fill="#C4E3F6"/>
<path transform="translate(199,202)" d="m0 0h317l2 2v53h-319z" fill="#0AA9D0"/>
<path transform="translate(169,541)" d="m0 0 2 3-1 137h-1l-1-25-8 2h-112l-12-3-10-6-8-7-8-11-5-14-1-5v-21l4-13 7-12 9-9 11-7 10-3 9-1h114z" fill="#A1D8F6"/>
<path transform="translate(781,380)" d="m0 0h484v27h-484z" fill="#F7F9F9"/>
<path transform="translate(781,276)" d="m0 0h484v27h-484z" fill="#F9F9F9"/>
<path transform="translate(781,220)" d="m0 0h484v27h-484z" fill="#F9F9F9"/>
<path transform="translate(437,408)" d="m0 0h220v60l-212-1v-57h-7v56h-1z" fill="#D3D4D4"/>
<path transform="translate(781,434)" d="m0 0h324v27h-324z" fill="#F8F8F7"/>
<path transform="translate(781,327)" d="m0 0h324v27h-324z" fill="#F8F8F7"/>
<path transform="translate(670,602)" d="m0 0h1v72h655v1l-33 4-22 1-2-1 1 3-12 1-9 1-2-1v2l-17 1-3 1-2-1-4 2-1-1v1l-15 1-3 1-27-1-2-2-43 1-10 1-36 1-18-1-165-1-99-1-31 1-17 2-3 1-20 1h-39l-16-3v-6h-5v66h-1z" fill="#53A6CB"/>
<path transform="translate(636,161)" d="m0 0h307v27h-306l-1-1z" fill="#F5B415"/>
<path transform="translate(207,175)" d="m0 0h311v26h-311z" fill="#FDFDFC"/>
<path transform="translate(540,554)" d="m0 0h99v78h-98l-1-1z" fill="#BCBCBC"/>
<path transform="translate(169,321)" d="m0 0 2 3v103l-1 112h-1l-1-108-1-3-3 5-4 2h-24l-10-2-13-7-9-8-8-13-4-10-1-7v-17l2-10 7-14 8-10 11-8 11-4 8-1h16l14 1zm-3 21-5 7-2 1-2 10v21l2 10 2 5h2l2 5h2l2-10v-31l-1-17z" fill="#A3D8F5"/>
<path transform="translate(1404,545)" d="m0 0 57 1 16 3 11 7 9 9 8 13 4 14v20l-5 16-7 11-8 8-10 6-3 1v-6h3v-47l-3-1-81-1 2-4 3-5 2-7 1-37z" fill="#A2D8F5"/>
<path transform="translate(518,53)" d="m0 0h46l3 1v236l-7 2h-5l3-5 5-5v-35l-6-7v-3l4-2 2-4v-33l-1-4h-2l-1-2-5-2-1-1-1-28-3-6-5-2-29-1v-97z" fill="#313A3D"/>
<path transform="translate(656,668)" d="m0 0h1v25l-1 14h-5l-6-2h-91l-2-2v-4l70-1v-5h-176l-1-1v-22l83-1h127z" fill="#C1E2F4"/>
<path transform="translate(208,213)" d="m0 0h169v33h-169z" fill="#FCFCFB"/>
<path transform="translate(445,329)" d="m0 0h212v25h-211l-1-1z" fill="#FCFCFB"/>
<path transform="translate(436,328)" d="m0 0h221l1 1v379l-1 1h-220l-1-1v-39h91v-202h1v203h-83l1 22 176 1 1 6h-71l2 5h91l11 3 1-299-219 1v1h7v57h-9v-60l2-3v2h219l-1-45-1-5h-218l1 17-1 13h-1zm9 1v24l1 1h211v-25z" fill="#539CC4"/>
<path transform="translate(451,365)" d="m0 0h161v32h-161z" fill="#F7FAFB"/>
<path transform="translate(198,636)" d="m0 0 9 1v46h220v20h-229z" fill="#6AB2D2"/>
<path transform="translate(353,340)" d="m0 0h7l13 4 9 6 7 10 3 8v17l-4 9-4 6-9 8-11 4h-16l-10-4-10-9-6-10-2-9v-8l4-13 8-10 10-6z" fill="#D85258"/>
<path transform="translate(245,341)" d="m0 0h17l8 3 9 6 7 9 4 13v9l-4 13-8 10-10 6-6 2h-16l-12-5-8-7-6-10-2-7v-14l5-12 8-9 8-5z" fill="#718DAF"/>
<path transform="translate(638,112)" d="m0 0h141l2 1v27h-144l-1-1v-26z" fill="#E64E32"/>
<path transform="translate(169,699)" d="m0 0 2 4 2 15 6 2 1 1 246 1-1 3-4-1-8 3-9-1h-14v6l-2 1-19 2h-102l-8-1-34-2-33-3-8-1-20-1-29-3-25-6-3-2v-5l7-3 11-3 19-3h19l6 3z" fill="#54A7CC"/>
<path transform="translate(1133,434)" d="m0 0h132v27h-132z" fill="#67B0D1"/>
<path transform="translate(1133,327)" d="m0 0h132v27h-132z" fill="#67B0D1"/>
<path transform="translate(209,180)" d="m0 0h199v15l-1 1h-197l-1-1z" fill="#D6D6D6"/>
<path transform="translate(198,435)" d="m0 0h229v105h-10l-1-1v-81h10v-22h-219v201h-8l-1-1z" fill="#AFCBDB"/>
<path transform="translate(456,417)" d="m0 0h183v15l-1 1h-182l-1-1v-14z" fill="#A9ADB0"/>
<path transform="translate(636,220)" d="m0 0h112v26l-111 1-1-2z" fill="#DAB45B"/>
<path transform="translate(518,53)" d="m0 0h46l3 1v13h-31v85h-21v-97z" fill="#2A2F34"/>
<path transform="translate(974,161)" d="m0 0h89v27h-89z" fill="#67B0D1"/>
<path transform="translate(527,467)" d="m0 0h1v203h-83l1 22 176 1 1 6-74 1-1 4-3 1h-7l-5 1-10-1h-82l-1-4 1-4h-2l-1 11h-2v-39h91z" fill="#9DC0D2"/>
<path transform="translate(472,541)" d="m0 0h12l9 4 4 3v2h2l5 9 1 11-2 8-6 9-7 5-5 2h-13l-9-4-5-5-5-7-1-4v-13l3-8 7-7z" fill="#D85359"/>
<path transform="translate(473,482)" d="m0 0h10l9 3 7 6 5 9 1 12-3 10-6 7-9 5-4 1h-10l-10-4-7-7-4-9v-13l3-7 7-8 7-4z" fill="#C07E84"/>
<path transform="translate(472,605)" d="m0 0h12l8 3 8 7 4 9 1 10-3 10-7 8-6 4-7 2h-7l-9-3-8-6-5-8-1-3v-14l4-8 4-5z" fill="#81A5C5"/>
<path transform="translate(675,276)" d="m0 0h73v27h-73z" fill="#F4B617"/>
<path transform="translate(245,341)" d="m0 0h17l8 3 9 6 7 9 4 13v9l-4 13-8 10-10 6-6 2h-16l-12-5-8-7-6-10-2-7v-14l5-12 8-9 8-5zm5 6-3 7-5 1-8-1-3 3 2 9-1 4-5 2-2 1v6l7 4 1 6-1 7 2 2 11-1 4 4 2 4h6l4-7 6-1 7 1 3-3-2-6v-7l5-2 3-1v-7l-7-3-1-7 1-6-3-3-9 2-4-2-3-6z" fill="#4E8DBA"/>
<path transform="translate(198,174)" d="m0 0h321v117h-1v-33h-311v62h-9zm9 1v26h311v-26zm-8 27v55h319v-53l-2-2z" fill="#75ADCD"/>
<path transform="translate(680,380)" d="m0 0h67l1 1v26l-2 1h-67l-3-2 3-1z" fill="#E74E2D"/>
<path transform="translate(677,327)" d="m0 0h71v27h-68l-1-23z" fill="#F4B61A"/>
<path transform="translate(678,434)" d="m0 0h70v26l-1 1h-67l-1-23z" fill="#F4B61A"/>
<path transform="translate(932,22)" d="m0 0h63l4 5v10l-5 5h-61l-4-4-1-2v-8l3-5z" fill="#A1A9B0"/>
<path transform="translate(371,351)" d="m0 0 2 1-2 4h-2l3 7 2 5v7l-2 8 2 5-3-2-5 1-2 2v14l-4 3h-7l-2-1v-2h-2v-12l-4-5-4-1-3 4h-2l1-5h2l-1-7-1-4h-7v-2h7l1-5 3-7h2v-2l8-3h9l7 1z" fill="#D7565C"/>
<path transform="translate(221,550)" d="m0 0h97v14h-96l-1-1z" fill="#BFBEBF"/>
<path transform="translate(538,481)" d="m0 0h101v13h-101l-1-2v-10z" fill="#BFBEBF"/>
<path transform="translate(221,458)" d="m0 0h97v13l-19 1h-71l-7-1z" fill="#BCBBBC"/>
<path transform="translate(198,435)" d="m0 0h229v105h-10l-1-1v-81h10v-22h-228z" fill="#AEB2BB"/>
<path transform="translate(635,556)" d="m0 0v3l-15 16-7 8-8 9 6 8 12 13 7 8 1 3h2v2h2v2l-4-2-10-8-14-11-10-8-6-5-5 2-13 11-12 9-16 13v-3l12-13 7-8 10-11-2-4-12-14-16-17 1-2 9 7 14 11 20 16 4-1 17-13 12-10z" fill="#A7ACAF"/>
<path transform="translate(378,213)" d="m0 0h31v33h-31l-1-1v-31z" fill="#0A2E46"/>
<path transform="translate(221,486)" d="m0 0h175v6h-175z" fill="#C4C4C4"/>
<path transform="translate(656,693)" d="m0 0h1v16h-220l1-13 3 1v8l26-1h56l13 1 5-1h6l2-4h3l2 4h91l11 3z" fill="#63AACD"/>
<path transform="translate(472,605)" d="m0 0h12l8 3 8 7 4 9 1 10-3 10-7 8-6 4-7 2h-7l-9-3-8-6-5-8-1-3v-14l4-8 4-5zm4 4-2 3v3h-11l-2 3 1 7v2l-5 2-1 7 2 2h4v8l1 1h10l4 6 4-1 3-5 1 1 8-1 2-2 1-7 2-5h2v-5l-5-2-1-5 1-4-3-3-7 1-3-3-2-3z" fill="#568CB6"/>
<path transform="translate(613,365)" d="m0 0h30v31l-1 1h-29l-1-1v-26z" fill="#0A2E46"/>
<path transform="translate(1245,677)" d="m0 0h58v1l-26 2h-6l-2-1 1 3-12 1-9 1-2-1v2l-17 1-3 1-2-1-4 2-1-1v1l-15 1-3 1-27-1-2-2-51 1 2-2 25-1 6-2 11-1 14-3 16-1z" fill="#FDFDFC"/>
<path transform="translate(251,281)" d="m0 0h39l5 3 2 3v7l-4 5-2 1h-40l-5-3-2-4 1-7 4-4z" fill="#D85358"/>
<path transform="translate(387,281)" d="m0 0h40l5 4 2 7-5 5-1 5-1-2h-40l-4-2-3-6 1-6 4-4z" fill="#E35437"/>
<path transform="translate(244,656)" d="m0 0h183v5h-183z" fill="#6F99BA"/>
<path transform="translate(426,548)" d="m0 0h1v84h-11v-82h10z" fill="#BFBEBF"/>
<path transform="translate(222,578)" d="m0 0 174 1v5h-175v-5z" fill="#C1C0C1"/>
<path transform="translate(221,596)" d="m0 0h175v5h-175z" fill="#C0BFC0"/>
<path transform="translate(221,504)" d="m0 0h175v5h-175z" fill="#BCBBBC"/>
<path transform="translate(320,282)" d="m0 0h42l5 5v7l-5 5h-42l-5-5v-7z" fill="#DFB34F"/>
<path transform="translate(622,693)" d="m0 0h34v14h-5l-6-2h-91l-2-2v-4l70-1z" fill="#AECBDB"/>
<path transform="translate(252,348)" d="m0 0h4l3 7 7 2 4-2 4 1-1 10 3 5 5 2v5l-4 2h-4v2h-2v3h-2l2 3v6h-2v-2l-5-1-1-2h2v-2h2l1-3v-12l-4-7-5-3h-10l-6 4-3 5v9l3 10-1 2h-7v-6l-1-5-7-2-1-5 6-3h2l1-7-2-7 3-2 8 2 5-3z" fill="#518FBA"/>
<path transform="translate(436,328)" d="m0 0h221v1h-212l1 24 211 1v7h-1l-1-5h-218l1 17-1 13h-1z" fill="#67ACCE"/>
<path transform="translate(222,518)" d="m0 0h118v6h-119v-5z" fill="#C4C4C4"/>
<path transform="translate(426,671)" d="m0 0h1v5h-161v-4z" fill="#7288AB"/>
<path transform="translate(1321,53)" d="m0 0h42l2 1v13h-45l-1 2v-15z" fill="#2A2F34"/>
<path transform="translate(221,611)" d="m0 0h119v5h-119z" fill="#C1C0C1"/>
<path transform="translate(475,694)" d="m0 0h146v4h-147z" fill="#548BB6"/>
<path transform="translate(249,363)" d="m0 0h10l7 6 1 3v8l-4 6-5 3h-8l-5-3-4-5v-10l4-6z" fill="#4C8EBB"/>
<path transform="translate(458,680)" d="m0 0h181v3h-181z" fill="#7288AB"/>
<path transform="translate(538,508)" d="m0 0h101v5h-102z" fill="#C1C0C1"/>
<path transform="translate(537,657)" d="m0 0h102v5h-101z" fill="#C1C0C1"/>
<path transform="translate(538,640)" d="m0 0h101v5h-101l-1-4z" fill="#C1C0C1"/>
<path transform="translate(538,525)" d="m0 0h101v5h-101z" fill="#BFBEBF"/>
<path transform="translate(561,443)" d="m0 0h24l6 3 1 7-5 4h-30l-3-3v-7l3-3z" fill="#E55535"/>
<path transform="translate(453,281)" d="m0 0h39l5 4 1 6h-52v-5l4-4z" fill="#7388AB"/>
<path transform="translate(501,620)" d="m0 0 2 1 2 7-1 11-4 8-7 7-11 4h-7l-9-3-8-6-3-4 1-3 2 1 4-1 1 4h10l4 6h4l2-5h3l7-1 1-1 1-7 3-5h2v-5l-6-2v-1l7 1z" fill="#538EB9"/>
<path transform="translate(459,444)" d="m0 0h31l4 5-1 5-3 3h-31l-4-5 1-5z" fill="#DA4F55"/>
<path transform="translate(350,372)" d="m0 0h12v8l-1 12 2-5 7-7 2-5 1 4-1 4 2 5-3-2-5 1-2 2v14l-4 3h-7l-2-1v-2h-2v-12l-4-5-4-1-3 4h-2l1-5h2v-7l7 6 5 7v2h2l-2-11z" fill="#CAC9CA"/>
<path transform="translate(605,444)" d="m0 0h30l4 4-1 7-4 2h-29l-4-3v-7z" fill="#7388AB"/>
<path transform="translate(237,346)" d="m0 0 5 1-3 4-6 4h-4l1 5-1 3h3l-1 5-5 2-2 3v7l3 3 5 1-1 12 1 3h2v5h-4l-7-8-4-9-1-4v-14l5-12 7-8 6-2z" fill="#4B8EBB"/>
<path transform="translate(929,694)" d="m0 0h66l38 1-4 2-8 1-13 1h-72l-12-1v-3z" fill="#FDFDFC"/>
<path transform="translate(512,444)" d="m0 0h26l5 3 1 5-5 5h-28l-4-4v-6z" fill="#DFB34E"/>
<path transform="translate(538,539)" d="m0 0h83l1 5h-84l-1-4z" fill="#C1C0C1"/>
<path transform="translate(382,722)" d="m0 0h44l-1 3-4-1-8 3-9-1h-14v6l-2 1-19 2h-102v-1h96v-2l-5 1-1-2 11-1 1 3h5l-1-7 8-2z" fill="#71B5D3"/>
<path transform="translate(477,544)" d="m0 0 2 1v5l9 1-1 4h2l1 6-2-1-3-5-9-2-7 4-2 4 1 9 5 5 1-11 8 1 1 10 4-2-3 4-1 10-2 3h-6l-3-3-1-10-4-2-4 1-1-3 3-2-2-5-4-1v-2l4-1 1-3h2l-1-5-1-3 6 3v-2l4-2h3z" fill="#C08A8E"/>
<path transform="translate(438,410)" d="m0 0h7v56h-7z" fill="#A7ACAF"/>
<path transform="translate(476,552)" d="m0 0 9 2 3 3 2 4v7l-3 5-5 3v-11h-7l-1 11-7-6-1-9 4-6z" fill="#D85157"/>
<path transform="translate(1245,677)" d="m0 0h58v1l-26 2h-62l-3 1h-8-4l-7 1-11 1-23 3-28 2h-9l2-2 25-1 6-2 11-1 14-3 16-1z" fill="#B4D7EA"/>
<path transform="translate(1256,675)" d="m0 0h63v1l-9 1-40 1h-25l-53 1-17 2-10 2-10 1-6 2h-9v-2l4-2h3l3-1h11l7-2 7-3z" fill="#6DB4D3"/>
<path transform="translate(250,347)" d="m0 0h7l4 7 5 1 7-2 3 3-1 11 3 3 5 2v7l-6 3h-2v7l2 6-3 3-11-1-3 3-3 5h-6l-4-7-6-1-7 1-2-2 1-11-2-3-6-3v-6l5-3h2l1-6-2-7 3-3 10 1 3-1zm2 1-4 7-6 2-7-2-2 4 2 7-1 5-6 2-2 1 1 5 7 2 1 7-1 8 3 1 7-2 5 1 2 6 5 1 3-6 4-2 10 1 2-3-2-5 1-5 3-3 4-2v-5l-6-3-2-4 1-10-4-1-6 2-5-2-3-7z" fill="#C1DDED"/>
<path transform="translate(680,380)" d="m0 0h67l1 1v26l-2 1h-67l-3-2h70v-24h-65v21l-2 2z" fill="#DA4E54"/>
<path transform="translate(453,178)" d="m0 0h8l5 4 1 2v8l-5 5-2 1h-6l-6-5-1-9 4-5z" fill="#D6D6D6"/>
<path transform="translate(426,178)" d="m0 0h8l5 4 1 2v8l-5 5-2 1h-6l-6-5-1-8 3-5z" fill="#D6D6D6"/>
<path transform="translate(481,178)" d="m0 0h7l4 2 2 3v9l-5 5-7 1-5-3-3-5 1-7 4-4z" fill="#D6D6D6"/>
<path transform="translate(1012,22)" d="m0 0h6l6 5 1 7-3 5-5 3-7-1-5-5v-8l4-5z" fill="#9DAAB3"/>
<path transform="translate(475,621)" d="m0 0h6l4 2 3 5v6l-5 6-7 1-6-4-1-1v-10z" fill="#718CAF"/>
<path transform="translate(622,331)" d="m0 0 7 1 5 5v7l-3 5-2 1h-9l-5-5v-7l3-5z" fill="#D6D6D6"/>
<path transform="translate(596,331)" d="m0 0 7 1 5 5v7l-3 5-2 1h-9l-4-4-1-2v-7l5-5z" fill="#D6D6D6"/>
<path transform="translate(570,331)" d="m0 0 8 1 4 5v8l-5 5h-8l-5-4-1-2v-6l2-4z" fill="#D6D6D6"/>
<path transform="translate(478,615)" d="m0 0 2 1h13v9l1 2 5 2v3l-6 4 1 8-3 2-9-1v-1l-6-1v-1l9-3 3-4v-8l-1-4-5-2-2-2-5-1z" fill="#6A8FB4"/>
<path transform="translate(198,175)" d="m0 0h9v26h-8l-1-1z" fill="#AFCCDC"/>
<path transform="translate(792,681)" d="m0 0 2 3 26 1 87 1 55 1v1h-61l-99-1h-28v-1l15-2z" fill="#8DC3DD"/>
<path transform="translate(245,341)" d="m0 0 9 1-1 3h6l3 7 6 2-4 2-5-3-2-6h-7l-2 7-6 2-8-3 2-2 3-1v-3l-5 2-3 1v-2l8-5z" fill="#518FBA"/>
<path transform="translate(231,354)" d="m0 0h2l-1 5 2 7-2 4-5 3h-2l1 6 6 3 2 3-1 11 1 1 11-1 5 5 1 4h-3l-1-3-11-1 2 5 3 3-5-1-3-2 1-7h-2l-2-3 1-7 1-5h-5l-4-4v-7l3-4 5-2 1-4h-3v-8z" fill="#718CAF"/>
<path transform="translate(270,355)" d="m0 0 4 1-1 10 3 5 5 2v5l-4 2h-4v2h-2v3h-2l2 3v6h-2v-2l-5-1-1-2h2v-2h2l1-3v-15l1 2 2-1-1-7 1-6-4 2h-5v-2l6-1z" fill="#728BAE"/>
<path transform="translate(437,329)" d="m0 0h8l1 25h-9z" fill="#B5CDDB"/>
<path transform="translate(237,346)" d="m0 0 5 1-3 4-6 4h-4l1 5-1 3h3l-1 5-10 3-2-4 4-10 7-8 6-2z" fill="#4F8EBA"/>
<path transform="translate(388,218)" d="m0 0 6 1 3 4-1 9 4 6v3h-3l-4-7v-2h-6l-4-4 1-7z" fill="#8BB4CF"/>
<path transform="translate(622,370)" d="m0 0 7 1 2 3v6 4l3 5v3l-3-1-5-7-5-1-3-3v-6z" fill="#84ADC9"/>
<path transform="translate(477,487)" d="m0 0 1 2h3l1-2 3 2v4h5l-1 3v-2l-9 1-10-1v30l11-1 4-7-3-1h5v2h2v-10h1l1 11-7 6-2 1h-13v-32h5l1-4z" fill="#BDB8B9"/>
<path transform="translate(249,341)" d="m0 0h13l8 3 6 5v3l-7-1-1 3h-5l-3-3-1-6h-6v-2z" fill="#4D8EBA"/>
<path transform="translate(249,361)" d="m0 0h10l6 4 4 7v7l-3 6-6 5-3 1h-7l-8-5-3-6v-9l4-6zm0 2-6 4-2 4v10l6 7 3 1h8l6-4 3-5v-8l-3-5-5-4z" fill="#BFD9E8"/>
<path transform="translate(459,617)" d="m0 0h1l1 7-3 1-1 11 5 2-1 5-4 1-3-1-2-5v-14l3-6z" fill="#4D92BD"/>
<path transform="translate(339,377)" d="m0 0 7 6 5 7v2l2 1 10 1-1 8-13 1v-12l-4-5-4-1-3 4h-2l1-5h2z" fill="#C0979A"/>
<path transform="translate(451,695)" d="m0 0h15l4 2-1 4-5 1h-14l-7-2-1-2h2v-2z" fill="#6AB3D3"/>
<path transform="translate(475,624)" d="m0 0h6l4 1 1 7-1 2h-2v2l-5 2-5-2-2-5 2-6z" fill="#4A8DBB"/>
<path transform="translate(1192,678)" d="m0 0h8l-3 2-15 1v2l-23 3-28 2h-9l2-2 25-1 6-2 11-1 14-3z" fill="#B2D5E7"/>
<path transform="translate(474,564)" d="m0 0 8 1 1 10 4-2-3 4-1 10-2 3h-6l-2-3v-10l1 2 3-1 2 1 2-13h-6v5h-1z" fill="#C0A7A9"/>
<path transform="translate(362,730)" d="m0 0h6l1 3h8v1l-8 1h-102v-1h96v-2l-5 1-1-2z" fill="#85C4E2"/>
<path transform="translate(493,616)" d="m0 0 2 2-1 6 1 2 5 2v5h-2l-2 5-1 7-5 3h-5-2l-2 4-4 1-4-6h-10l-1-5 1-6 2 4-1 5 7-1 4 2 2 4 3 1 2-5 3-2 7 1 1-2-1-7 5-4h2v-3l-6-2-1-2z" fill="#A0C6DF"/>
<path transform="translate(481,116)" d="m0 0 2 4 1 17-1 3-4-1-3-9v-9l2-4z" fill="#C6E5F7"/>
<path transform="translate(752,687)" d="m0 0h19v1l-17 2-3 1-20 1h-39v-1l35-1 6-2z" fill="#B6D2E1"/>
<path transform="translate(352,374)" d="m0 0h8l1 3-2 15-4 1-2-6z" fill="#D35B60"/>
<path transform="translate(426,552)" d="m0 0h1v80h-1l-1-8-6 5 2-5 4-5v-56l-5-7 1-2 4 4z" fill="#A5AAAE"/>
<path transform="translate(426,459)" d="m0 0h1v81h-1l-1-8-3 3h-2l2-4 3-4v-56l-5-7 1-2 4 4z" fill="#A4AAAE"/>
<path transform="translate(1184,691)" d="m0 0 1 2h11l3-1 2 1h10l-1 3-8 1-3-1-11 1h-3l-4 1h-3l-5-2 1-2 10-1z" fill="#FDFDFC"/>
<path transform="translate(235,355)" d="m0 0 9 3v1h-8l1 4h2l-3 10-5 3h-2v2h5l2 3v3h2l-1 5-2 2-1-10-7-2-1-5 6-3h2l1-7-2-7z" fill="#718DB0"/>
<path transform="translate(236,371)" d="m0 0h3l2 12 2 7-1 2h-7l3-8h-2l-2-6h-5l-1-3 5-1 3-1z" fill="#4F8EBA"/>
<path transform="translate(268,379)" d="m0 0h1v5l-2 3h-2l-1 3 5 2v2h2l-2-9h2v-3h2v-2l2 1-2 4 1 5 1 4-2 2-10-1-4 2-2 2 1-6 1-1-2-2 6-3 4-5z" fill="#718DB0"/>
<path transform="translate(387,722)" d="m0 0h39l-1 3-4-1-8 3-9-1-2-1-15-1z" fill="#66AFD0"/>
<path transform="translate(160,394)" d="m0 0 4 2 1 4 2 1 1-4v19l-2 2-2-2-2-12z" fill="#FDFDFC"/>
<path transform="translate(455,642)" d="m0 0 3 1 4-1 1 4h10l5 8-7-2-2-2 1-2-6 2-1 3-6-5-2-3z" fill="#6E89AE"/>
<path transform="translate(271,373)" d="m0 0 7 1 2 2-4 2-1 2h-2v2h-2v3h-2l2 3v6h-2v-2l-5-1-1-2h2v-2h2l3-11z" fill="#4B90BC"/>
<path transform="translate(477,544)" d="m0 0 2 1v5l9 1-1 4h2l1 6-2-1-3-5-9-2-7 4-2 4h-2l1-6-2-4 6 3v-2l4-2h3z" fill="#C08F93"/>
<path transform="translate(1248,677)" d="m0 0h55v1l-26 2-29-1z" fill="#C8E1EE"/>
<path transform="translate(426,361)" d="m0 0h1v31l-2-2-2-7v-13z" fill="#BD7980"/>
<path transform="translate(264,368)" d="m0 0 2 1 1 3v8l-4 6-5 3h-8l-5-3-3-3v-3l4-1v3 3l4 1h8l5-4 2-8z" fill="#728AAD"/>
<path transform="translate(250,345)" d="m0 0h9l3 7 6 2-4 2-5-3-2-6h-7l-2 7-6 2-8-3 3-2 8 3 2-7z" fill="#718EB0"/>
<path transform="translate(271,346)" d="m0 0 4 1 6 5v2l-3 1-1 6-1 2 2 1-2 1 4 4 3 1v2l-7-2-2-3 1-11-4-2-3-1 1-2 7 1v-3l-5-2z" fill="#6C8CB0"/>
<path transform="translate(162,407)" d="m0 0h1l2 9h3l1 7v8l-2-3-2 4-2-3-1-16z" fill="#CFE9F7"/>
<path transform="translate(671,683)" d="m0 0h5v5h-3v23l-1 27h-1z" fill="#8AC7E4"/>
<path transform="translate(388,220)" d="m0 0 5 1 2 2v5l-2 2h-6l-2-2 1-7z" fill="#0A2E46"/>
<path transform="translate(274,381)" d="m0 0 1 4 1 6 1 4-3 3-11-1-3 3-3 5-5-1 4-2 3-6 4-2 10 1 1-2-2-5 1-5z" fill="#BAD9EA"/>
<path transform="translate(622,372)" d="m0 0h5l2 2-1 7-4 1-4-2v-6z" fill="#0A2E46"/>
<path transform="translate(252,225)" d="m0 0h6l2 6-3 3h-4v3h-2v-11z" fill="#DAD9D9"/>
<path transform="translate(463,609)" d="m0 0 3 1-3 4-1 4 1 7-3 3h-3l1-4h2l-1-6h-3l2-5z" fill="#6C8AAF"/>
<path transform="translate(495,376)" d="m0 0 4 1 1 6-2 2h-4v3h-2v-11z" fill="#ddd"/>
<path transform="translate(752,687)" d="m0 0h19v1l-17 2-3 1-18 1-1-2 17-2z" fill="#DBEAF3"/>
<path transform="translate(704,686)" d="m0 0 8 1 2 2 1-2h2v3l3 1h-22l1-4z" fill="#68B2D2"/>
<path transform="translate(371,351)" d="m0 0 2 1-2 4h-2l1 6-11-6h-7l-6 3-2-1 4-3 3-1h9l7 1z" fill="#C2A7A9"/>
<path transform="translate(1056,695)" d="m0 0h22l-2 1v2l-14 1-6-2z" fill="#FDFDFC"/>
<path transform="translate(237,225)" d="m0 0h11l1 1v8l-2-1v-6l-2 1-1 6-2-1v-6h-3v7h-2z" fill="#CECECE"/>
<path transform="translate(469,606)" d="m0 0 4 2-1 6-2 1h-7v-3l2-4z" fill="#4D8FBB"/>
<path transform="translate(219,367)" d="m0 0h1l1 19 5 9 2 5h-2l-6-10-2-7v-14z" fill="#6589B0"/>
<path transform="translate(383,725)" d="m0 0h7v7l-2 1h-8l2-1-1-4z" fill="#C5D7E1"/>
<path transform="translate(246,391)" d="m0 0h16l-3 2-2 6-3 1-2-1v-4l-6-3z" fill="#4C8FBB"/>
<path transform="translate(1121,693)" d="m0 0h9 2 3v2h-3l-1 3h-16v-1l6-2z" fill="#FDFDFC"/>
<path transform="translate(174,722)" d="m0 0 1 2 11 2 3 2-25-1-8-1v-1h14z" fill="#83BED8"/>
<path transform="translate(237,346)" d="m0 0 5 1-3 4-6 4h-5l-1-3 4-3z" fill="#4E97C1"/>
<path transform="translate(472,605)" d="m0 0h11l-3 3-4 2-2 5-6 1 4-2v-6l-2-2z" fill="#708BAE"/>
<path transform="translate(339,377)" d="m0 0 7 6 5 7-1 2-5-6-4-1-3 4h-2l1-5h2z" fill="#C4B5B6"/>
<path transform="translate(539,374)" d="m0 0 1 2h2v2h-2v5h2v2h-3l-1-7-3 3 1 4-3-2-3 2 1-5-1-4 4 2 2-2 2 1z" fill="#CBCACB"/>
<path transform="translate(481,376)" d="m0 0h7l2 2v7l-2-1v-6l-2 1-1 6-2-1v-6l-2 1-1 6-2-1v-7z" fill="#D2D2D2"/>
<path transform="translate(480,119)" d="m0 0 2 2v15h-3l-1-10 1-6z" fill="#FDFDFC"/>
<path transform="translate(500,617)" d="m0 0 2 3v7l-9-3 1-4 4-2 2 1z" fill="#4C8EBB"/>
<path transform="translate(1192,678)" d="m0 0h8l-3 2-24 3h-7l3-2 11-2z" fill="#AFCCDC"/>
<path transform="translate(485,648)" d="m0 0h6v4l2 2-5 2h-6l1-4z" fill="#4B8FBC"/>
<path transform="translate(426,548)" d="m0 0 1 4-1 7-9-6v-3h9z" fill="#BFBFC0"/>
<path transform="translate(231,354)" d="m0 0h2l-1 5 2 7-2 4-5 3-3-1 2-3 5-2 1-4h-3v-8z" fill="#728AAD"/>
<path transform="translate(477,487)" d="m0 0 1 2h3l1-2 3 2v4h5l-1 3v-2l-8 1-2-4-5 1 2-4z" fill="#C0BDBE"/>
<path transform="translate(1096,694)" d="m0 0h9l3 1v3l-8 1-6-1z" fill="#FDFDFC"/>
<path transform="translate(501,620)" d="m0 0 2 1 1 3v8l-3-1-1 4h-3l1-2h2v-5l-6-2v-1l7 1z" fill="#708AAE"/>
<path transform="translate(495,643)" d="m0 0h2l2 5-5 5-4-1v-5l4-2z" fill="#6D88AC"/>
<path transform="translate(493,610)" d="m0 0 4 2 3 3v4l-6 1-1-4-3-3h3z" fill="#6A8CB1"/>
<path transform="translate(284,225)" d="m0 0h5l1 5-5 1 4 1v2h-5l-2-3 1-5z" fill="#D3D2D3"/>
<path transform="translate(362,399)" d="m0 0h2v4l-4 3h-7l-3-3v-1h12z" fill="#CAB2B4"/>
<path transform="translate(252,348)" d="m0 0h4l3 8-4 1v-3l-1-2-3 5h-5l3-3z" fill="#728FB1"/>
<path transform="translate(229,225)" d="m0 0h5l1 1v8h-6l-1-4 3-3h-2z" fill="#D4D4D4"/>
<path transform="translate(168,178)" d="m0 0h1v10l-1 11-3 3-3-3v-5h-2l1-3 3 5 1 2h2l-1-5z" fill="#F3F9FB"/>
<path transform="translate(266,225)" d="m0 0h5l1 5h-5v2h4v2l-6-1v-7z" fill="#D3D3D3"/>
<path transform="translate(279,380)" d="m0 0 1 3-3 3 1 4 3 4-4 3-3-8 1-7z" fill="#718DB0"/>
<path transform="translate(630,698)" d="m0 0h17v3h-13z" fill="#6AB3D3"/>
<path transform="translate(524,376)" d="m0 0 4 1 1 4h-5v2h4v2h-5l-1-1v-6z" fill="#D6D5D5"/>
<path transform="translate(245,379)" d="m0 0 2 2-1 4 11 2 1 2h-8l-5-3-3-3v-3z" fill="#718BAE"/>
<path transform="translate(223,373)" d="m0 0h2l1 6 6 3 2 3-1 4-1-5h-5l-4-4z" fill="#7092B5"/>
<path transform="translate(342,360)" d="m0 0v3l-2 4-1 10-2-1v-3h-7v-2h7l1-5z" fill="#C2A5A7"/>
<path transform="translate(273,380)" d="m0 0 2 1-2 4 1 5 1 4-2 2h-3v-8l-1-3h2v-3h2z" fill="#728BAD"/>
<path transform="translate(476,567)" d="m0 0h5l-1 9-2 2-2-2z" fill="#DB4E54"/>
<path transform="translate(489,507)" d="m0 0h1l1 11-4 4h-3l1-6-3-1h5v2h2z" fill="#BEB2B3"/>
<path transform="translate(507,376)" d="m0 0 4 1 1 4-5 1 4 1v2l-6-1v-6z" fill="#D5D5D5"/>
<path transform="translate(372,375)" d="m0 0 1 4-1 4 2 5-3-2-5 1-4 5 1-5 7-7z" fill="#BFB2B4"/>
<path transform="translate(270,355)" d="m0 0 4 1-1 11h-2l-1-4 1-6-4 2h-5v-2l6-1z" fill="#7190B3"/>
<path transform="translate(468,646)" d="m0 0h5l5 8-7-2-2-2 1-2-3-1z" fill="#728BAE"/>
<path transform="translate(263,396)" d="m0 0 8 1 3 2h-10l-3 4h-2v2l-2-1 4-7z" fill="#728CAF"/>
<path transform="translate(472,376)" d="m0 0 4 1v8h-5l-1-4 3-2-2-2z" fill="#D5D5D5"/>
<path transform="translate(166,337)" d="m0 0h2l1 2v21h-1l-1-17-3 1z" fill="#D9EDF8"/>
<path transform="translate(268,385)" d="m0 0 3 3v6h-2v-2l-5-1-1-2h2v-2z" fill="#4E94BF"/>
<path transform="translate(256,345)" d="m0 0h3l3 7 6 2-4 2-5-3-2-6h-6v-1z" fill="#7095B7"/>
<path transform="translate(458,636)" d="m0 0 4 2-1 5-4 1-3-1 1-5h2z" fill="#4A8FBC"/>
<path transform="translate(475,566)" d="m0 0h6v1h-5l1 9h3l-1 4-5-1-1-3z" fill="#C1858A"/>
<path transform="translate(622,370)" d="m0 0 7 1 2 3-1 4-3-5h-5l-2 2-2 4 1-7z" fill="#93B7D0"/>
<path transform="translate(291,225)" d="m0 0 4 1 3-1-1 6 1 3h-2l-2-2-1 2h-2l1-6z" fill="#D0D0D0"/>
<path transform="translate(486,608)" d="m0 0 7 1v4l-8 1z" fill="#4A8FBC"/>
<path transform="translate(253,361)" d="m0 0h6l6 4 3 4-1 4-4-6-4-3-6-2z" fill="#C6DCE9"/>
<path transform="translate(747,753)" d="m0 0 2 1v5l-6 4h-5l4-1v-3l-2-1h2v-2h2l1 3h2z" fill="#78BBD9"/>
<path transform="translate(464,551)" d="m0 0 6 3v-2l4 1-5 4-2 4h-2l1-6z" fill="#BF9396"/>
<path transform="translate(274,381)" d="m0 0 1 4 1 6 1 4-3 3-3-1 3-4-2-5 1-5z" fill="#B9D8E9"/>
<path transform="translate(107,711)" d="m0 0 2 1v4l3-3h3v4l2 2-9-2-1-1z" fill="#7DBCD9"/>
<path transform="translate(169,699)" d="m0 0h1v11l-3 2-2-8 4 1z" fill="#87BED6"/>
<path transform="translate(425,619)" d="m0 0 2 2v11h-1l-1-8-6 5 2-5z" fill="#A7ACAF"/>
<path transform="translate(426,459)" d="m0 0h1v13l-5-5-2-5 5 4z" fill="#A2A8AE"/>
<path transform="translate(460,618)" d="m0 0h2l1 7-3 3h-3l1-4h2z" fill="#718DB0"/>
<path transform="translate(480,574)" d="m0 0 3 3 1 5-2 1h-7l4-4z" fill="#BBB8B9"/>
<path transform="translate(425,527)" d="m0 0 2 2v11h-1l-1-8-3 3h-2l2-4z" fill="#A7ACAF"/>
<path transform="translate(251,347)" d="m0 0h6l4 7 5 2v2l-7-2-3-5v-3h-5z" fill="#CAE1EE"/>
<path transform="translate(426,727)" d="m0 0h1v17l-6 2-4-1 8-3z" fill="#9BC7DC"/>
<path transform="translate(426,552)" d="m0 0h1v11l-3-1-4-6 1-2 4 4z" fill="#A3A9AE"/>
<path transform="translate(230,378)" d="m0 0h4l2 3v3h2l-1 5-2 2-1-10-4-1z" fill="#718DB0"/>
<path transform="translate(300,223)" d="m0 0h2v2l2 1-2 6h2v2l-4-1-1-8z" fill="#D2D2D2"/>
<path transform="translate(1197,679)" d="m0 0 3 1-2 2h-16l4-2z" fill="#C5E2F3"/>
<path transform="translate(465,376)" d="m0 0h3v2h-2v2l3 1-1 4h-4v-2l2-1-2-1z" fill="#D0D0D0"/>
<path transform="translate(278,223)" d="m0 0h2v2l2 1-1 1v5l1 2-4-1-1-8z" fill="#CBCACB"/>
<path transform="translate(464,640)" d="m0 0h5l-1 5-4 1-1-3z" fill="#6490B6"/>
<path transform="translate(473,577)" d="m0 0 1 2 3-1 1 4 4 2h-9z" fill="#C0A6A8"/>
<path transform="translate(464,559)" d="m0 0 2 2v6l-2 2-1-3-4-1v-2l4-1z" fill="#C18186"/>
<path transform="translate(339,380)" d="m0 0 5 5-4 1-2 3h-2l1-5h2z" fill="#C18E92"/>
<path transform="translate(223,225)" d="m0 0 4 1-2 2 2 2-1 4h-4v-2h3v-2l-3-1z" fill="#D1D1D1"/>
<path transform="translate(480,609)" d="m0 0 5 1v4h5l-2 2-5-1z" fill="#718FB2"/>
<path transform="translate(249,363)" d="m0 0h3l1 3h-7l-1 4-3 1 2-5z" fill="#718FB2"/>
<path transform="translate(671,683)" d="m0 0h5v5l-5 1z" fill="#78B7D4"/>
<path transform="translate(628,383)" d="m0 0 3 1 3 5v3l-3-1-3-5z" fill="#BCD1DF"/>
<path transform="translate(239,364)" d="m0 0h2l-1 7h-4l1-5z" fill="#5195BF"/>
<path transform="translate(394,232)" d="m0 0 3 1 3 5v3h-3l-3-6z" fill="#C2D7E3"/>
<path transform="translate(1089,695)" d="m0 0h5l-1 3h-4z" fill="#FDFDFC"/>
<path transform="translate(1137,693)" d="m0 0h4v2z" fill="#FDFDFC"/>
<path transform="translate(1152,694)" d="m0 0h2v2l-3-1z" fill="#FDFDFC"/>
<path transform="translate(1035,695)" d="m0 0 3 1z" fill="#FDFDFC"/>
<path transform="translate(1145,693)" d="m0 0h2l-1 2z" fill="#FDFDFC"/>
<path transform="translate(1271,681)" d="m0 0 3 1z" fill="#FDFDFC"/>
<path transform="translate(1111,697)" d="m0 0 2 1z" fill="#FDFDFC"/>
<path transform="translate(1051,695)" d="m0 0 2 1z" fill="#FDFDFC"/>
<path transform="translate(1199,690)" d="m0 0 2 1z" fill="#FDFDFC"/>
<path transform="translate(1109,697)" d="m0 0" fill="#FDFDFC"/>
<path transform="translate(1029,697)" d="m0 0" fill="#FDFDFC"/>
<path transform="translate(1170,695)" d="m0 0" fill="#FDFDFC"/>
<path transform="translate(1148,695)" d="m0 0" fill="#FDFDFC"/>
<path transform="translate(1087,695)" d="m0 0" fill="#FDFDFC"/>
<path transform="translate(1041,695)" d="m0 0" fill="#FDFDFC"/>
<path transform="translate(921,695)" d="m0 0" fill="#FDFDFC"/>
<path transform="translate(1213,694)" d="m0 0" fill="#FDFDFC"/>
<path transform="translate(1169,694)" d="m0 0" fill="#FDFDFC"/>
<path transform="translate(1197,690)" d="m0 0" fill="#FDFDFC"/>
</svg>
